<?xml version="1.0" encoding="UTF-8"?>
<svg id="OBJECTS" xmlns="http://www.w3.org/2000/svg" viewBox="0 0 500 500">
  <defs>
    <style>
      .cls-1 {
        fill: #06262d;
      }

      .cls-1, .cls-2, .cls-3, .cls-4, .cls-5, .cls-6, .cls-7, .cls-8, .cls-9, .cls-10, .cls-11, .cls-12, .cls-13, .cls-14, .cls-15 {
        stroke-width: 0px;
      }

      .cls-2 {
        fill: #623a15;
      }

      .cls-3 {
        fill: #f08e67;
      }

      .cls-4 {
        fill: #683c17;
      }

      .cls-16 {
        stroke: #c76543;
        stroke-miterlimit: 10;
        stroke-width: .5px;
      }

      .cls-16, .cls-6 {
        fill: none;
      }

      .cls-5 {
        fill: #7a461c;
      }

      .cls-7 {
        fill: #aa372b;
      }

      .cls-8 {
        fill: #cb503d;
      }

      .cls-17 {
        opacity: .4;
      }

      .cls-9 {
        fill: #c76543;
      }

      .cls-10 {
        fill: #512d10;
      }

      .cls-11 {
        fill: #42270e;
      }

      .cls-12 {
        fill: #f27e7e;
      }

      .cls-13 {
        fill: #d6d4d4;
      }

      .cls-14 {
        fill: #0a191c;
      }

      .cls-15 {
        fill: #fff;
      }
    </style>
  </defs>
  <path class="cls-11" d="M182.26,154.73c-3.62,9.1-1.68,19.34-2.64,29.08-.76,7.62-3.35,15.06-7.51,21.49-3.76,5.82-8.76,10.82-11.93,16.98-3.18,6.19-4.33,13.4-3.24,20.28,1.27,8.02,5.49,15.8,4.16,23.81-1.01,6.05-5.04,11.09-7.56,16.68-2.77,6.13-3.7,12.91-4.6,19.58,7.74-1.86,15.12-3.27,22.87-5.13,1.44-.34,2.91-.71,4.12-1.56,1.3-.92,2.17-2.31,2.91-3.72,4.09-7.69,5.45-16.51,6.46-25.17,1.18-10.06,1.97-20.15,2.76-30.25,1.67-21.3,3.33-42.94-.9-63.89-1.31-6.49-2.81-11.92-4.9-18.2Z"/>
  <path class="cls-5" d="M186.44,165.66c.24.83.26,1.77.35,2.62s.18,1.75.26,2.63c.15,1.67.28,3.34.37,5.01.17,3.32.17,6.66-.03,9.98-.38,6.5-1.44,13.18-3.65,19.32-4.09,11.34-12.94,20.25-16.65,31.77-1.91,5.92-2.68,13.02.36,18.72.11.21.49.07.4-.17-1.1-2.75-1.77-5.56-1.81-8.54s.45-5.83,1.25-8.63c1.66-5.81,4.69-11.02,7.87-16.11s6.43-10.05,8.61-15.6c2.34-5.92,3.44-12.44,3.92-18.76.28-3.67.32-7.36.12-11.04-.1-1.83-.24-3.67-.46-5.49-.11-.89-.23-1.77-.36-2.65-.16-1.01-.45-2.07-.49-3.09,0-.05-.08-.04-.07,0h0Z"/>
  <g>
    <path class="cls-2" d="M227.31,92.68c-3.06-.55-6.22-.33-9.09.91-.21.09-.06.42.15.36,2.84-.84,5.84-1.16,8.77-.65.4.07.57-.54.17-.61h0Z"/>
    <path class="cls-2" d="M227.35,93.73c-.17-2.36,1.05-4.47,2.83-5.94.15-.13-.04-.34-.2-.26-2.21,1.12-3.34,3.81-3.12,6.2.03.31.51.32.49,0h0Z"/>
    <path class="cls-2" d="M228.03,92.76c.29-.96.84-1.8,1.56-2.49.73-.7,1.62-1.13,2.55-1.52.14-.06.15-.31-.04-.3-1.09.07-2.09.67-2.88,1.4-.8.74-1.39,1.72-1.68,2.77-.09.32.4.46.5.14h0Z"/>
    <path class="cls-5" d="M228.79,94.67c.99-1.7,2.48-2.97,4.21-3.88.12-.06.04-.27-.09-.22-1.86.74-3.41,2.21-4.41,3.93-.11.19.18.35.29.17h0Z"/>
    <g>
      <path class="cls-11" d="M312.39,135.14c4.58,8.65,5.22,24.98,7.23,34.56,1.57,7.5,4.96,14.61,9.79,20.56,4.36,5.38,9.88,9.81,13.69,15.6,3.83,5.81,5.75,12.86,5.41,19.81-.4,8.11-3.75,16.3-1.56,24.12,1.66,5.9,6.2,10.48,9.31,15.76,3.41,5.8,5.07,12.44,6.68,18.97-7.9-1.01-15.39-1.62-23.29-2.63-1.46-.19-2.97-.39-4.26-1.1-1.39-.77-2.41-2.07-3.3-3.38-4.89-7.21-7.2-15.83-9.14-24.32-2.25-9.87-4.13-19.82-6.01-29.77-3.96-21-7.94-42.33-6-63.61.6-6.59.04-18.09,1.44-24.56Z"/>
      <path class="cls-11" d="M316.7,154.28c-2.15-12.48-5.14-28.45-13.13-42.75-6.17-11.06-17.32-20.11-29.43-23.79-4.89-1.49-9.99-2.14-15.09-2.59-11.41-.99-24.1.01-32.27,8.04-11.79,2.22-21.64,8.39-29.34,17.59-9.6,11.46-13.96,27.23-15.02,42.14-1.5,21-8.89,121.86-22.96,126.9,6.65,8.3,69.43-8.2,80.19-5.51,12.93,3.23,23.29,1.84,35.8-2.75,5.54-2.03,51.41.94,53.69-3.1-7.08-3.09-4.4-67.42-12.44-114.17Z"/>
      <path class="cls-2" d="M227.19,93.61c-13.76-.94-25.28,8.15-33.19,18.54-8.36,10.99-11.84,24.35-12.77,37.96-.45,6.6.03,13.16-.09,19.76-.12,6.47-1.22,12.88-4.82,18.38-3.98,6.08-10.23,10.22-14.7,15.91-4.07,5.18-7.09,11.3-7.7,17.93-.35,3.8.09,7.68,1.51,11.23,1.32,3.31,3.42,6.23,4.94,9.45,1.84,3.91,2.17,8,1.05,12.17s-3.3,8.02-5.45,11.74c-.08.14.13.27.22.13,3.47-5.67,7.24-12.19,6.25-19.12-.94-6.53-6.11-11.44-7.54-17.84-1.61-7.19.34-14.67,4.06-20.89,1.79-2.98,3.96-5.7,6.36-8.21s5.15-4.84,7.59-7.4c4.44-4.65,7.29-10.19,8.26-16.56s.43-12.3.38-18.45c-.1-13.46,1.9-27.72,8.7-39.55,7.48-13.02,20.88-25.73,36.92-24.81.26.02.26-.39,0-.41h0Z"/>
      <path class="cls-2" d="M227.42,92.9c6.75-4.7,14.02-8.83,22.43-9.21,4.74-.21,9.43.67,14,1.87,4.13,1.09,8.25,2.34,12.23,3.92,4.51,1.79,8.78,4.11,12.49,7.26.21.18.51-.12.3-.3-6.43-5.76-14.89-8.53-23.06-10.8-4.58-1.27-9.28-2.32-14.06-2.39-4.2-.06-8.36.74-12.26,2.29-4.4,1.75-8.39,4.32-12.25,7.03-.2.14,0,.47.19.33h0Z"/>
      <path class="cls-5" d="M229.49,104.96c-2.43,2.59-3.72,5.96-4.52,9.37-.39,1.68-.75,3.41-.9,5.13-.14,1.56-.04,3.19,1.01,4.43.14.17.37-.05.28-.22-1.39-2.96-.42-6.59.31-9.62.77-3.2,1.97-6.28,4.03-8.88.12-.15-.08-.35-.21-.21h0Z"/>
      <path class="cls-5" d="M228.99,105.39c-1.57,2.99-2.62,6.16-3.03,9.52-.34,2.85-.54,6.42,1.45,8.74.13.15.34-.04.26-.2-1.33-2.78-1.45-5.68-1.07-8.7s1.3-6.31,2.67-9.19c.09-.19-.19-.36-.29-.17h0Z"/>
      <path class="cls-5" d="M227.9,97.61c-5.39-1.34-10.62,1.72-14.67,4.97s-8.24,7.22-11.56,11.51c-1.91,2.47-3.61,5.19-5.18,7.89-1.72,2.95-3.18,6.04-4.33,9.26-1.85,5.16-3.1,10.72-3.41,16.2,0,.16.27.2.29.04.68-4.88,1.43-9.69,2.94-14.4,1.08-3.37,2.49-6.64,4.2-9.74,1.24-2.24,2.62-4.42,4.04-6.55,3-4.53,6.9-8.39,10.97-11.96,4.44-3.89,10.29-8.38,16.6-6.84.25.06.36-.32.11-.39h0Z"/>
      <path class="cls-5" d="M230.94,96.12c3.61-5.67,10.76-8.17,17.21-8.38,6.97-.23,13.68,1.96,19.88,4.98,3.65,1.77,7.12,3.87,10.69,5.78.15.08.27-.14.13-.23-6.26-3.98-13.03-7.69-20.22-9.67-6.4-1.76-13.51-1.98-19.71.64-3.31,1.4-6.34,3.63-8.24,6.72-.1.17.16.32.26.15h0Z"/>
      <path class="cls-5" d="M227.58,99.66c-9.2,5.74-13.87,16.31-14.37,26.87-.16,3.31.07,6.65.68,9.91.02.13.25.1.23-.03-.72-5.78-.81-11.62.54-17.32,1.19-5,3.46-9.78,6.8-13.71,1.8-2.12,3.91-3.97,6.27-5.45.17-.11.01-.37-.16-.27h0Z"/>
      <path class="cls-5" d="M247.57,124.06c-.97-4.93-2.61-9.67-5.02-14.08-1.19-2.18-2.54-4.26-4.02-6.24s-3.13-4.05-5.02-5.77c-2-1.82-4.36-3.36-7.04-3.89-.22-.04-.31.27-.09.33,4.92,1.54,8.41,5.27,11.44,9.27s5.37,8.01,7.11,12.5c1,2.59,1.79,5.24,2.36,7.95.04.18.31.1.27-.08h0Z"/>
      <path class="cls-5" d="M268.35,121.41c-3.49-7.12-9.56-12.86-16.94-15.78-2.46-.97-4.98-1.67-7.31-2.95-.21-.12-.38.19-.19.32,1.79,1.25,3.97,1.85,6,2.57,1.92.68,3.78,1.53,5.54,2.55,3.41,1.99,6.45,4.61,8.94,7.68,1.45,1.78,2.68,3.71,3.69,5.77.09.18.36.02.27-.16h0Z"/>
      <path class="cls-5" d="M265.86,112.47c-1.94-2.59-4.16-4.98-6.87-6.79s-5.88-2.82-9.25-2.86c-2.23-.02-4.43.04-6.62-.52-.16-.04-.27.2-.11.27,2.11.97,4.47.73,6.73.76s4.37.4,6.41,1.3c3.83,1.69,6.96,4.73,9.49,8,.09.12.3-.04.21-.16h0Z"/>
      <path class="cls-5" d="M223.44,100.67c-5.52,4.16-9.73,9.96-11.99,16.49-1.3,3.78-1.88,7.75-2.18,11.72s-.21,7.82-.5,11.72c-.13,1.75-.39,3.52-1.01,5.17s-1.69,3.06-3.17,4.13c-.14.1-.02.32.14.24,2.64-1.26,3.74-4.42,4.2-7.11.61-3.53.47-7.18.63-10.75.18-4.2.54-8.41,1.59-12.49.91-3.56,2.38-6.94,4.35-10.04,2.17-3.4,4.92-6.4,8.1-8.88.13-.1-.04-.32-.17-.22h0Z"/>
      <path class="cls-5" d="M210.04,136.98c-.02,3.16.26,6.56-.83,9.59-.46,1.27-1.14,2.47-2,3.51s-1.97,1.88-3.08,2.72c-.12.09-.02.27.12.21,2.41-1.06,4.29-3.58,5.22-5.98,1.23-3.17.87-6.73.82-10.05,0-.16-.25-.16-.26,0h0Z"/>
      <path class="cls-5" d="M243.95,98.37c3.65-1.56,7.74-.81,11.4.34,3.11.98,6.14,2.25,9.05,3.75,5.74,2.95,11.01,6.82,15.58,11.38s8.42,9.76,11.4,15.46c3.25,6.23,5.14,12.97,7,19.71s3.77,13.65,7.4,19.69c.46.77.96,1.53,1.47,2.27.15.22.52.01.36-.21-4.1-6.1-6.33-13.13-8.31-20.14-1.92-6.82-3.7-13.71-6.85-20.1-2.88-5.85-6.7-11.24-11.23-15.93s-9.71-8.66-15.41-11.76c-2.81-1.53-5.75-2.83-8.77-3.89-3.4-1.19-7.11-2.2-10.73-1.55-.86.15-1.69.42-2.5.77-.16.07-.02.3.14.23h0Z"/>
      <path class="cls-13" d="M225.38,232.15s9.9-1.69,19.73-1.11c9.82.58,21.61-.58,21.61-.58,0,0,4.09-.41,6.09.66,2,1.07,5.24,8.81,5.24,8.81l2.31,12.02-3.7,22.19-54.9-1.97-1.73-22.19-.35-10.52,5.7-7.33Z"/>
      <g>
        <path class="cls-3" d="M289.42,258.51c-15.48-1.5-18.21-27.45-18.92-40.81-.11-2,.55-4.46.45-6.46,3.74-3.63,8.71-9.08,11.6-13.42,2.81-4.22,4.85-13.77,4.92-18.65.73,1.16,2.41,1.36,3.68.85,2.35-.94,3.51-3.56,4.26-5.98.71-2.29,1.28-4.63,1.69-6.99.52-2.99.77-6.23-.65-8.91-1.42-2.68-5.08-4.36-7.63-2.7.27-.01-1.02.19-.75.18-4.03,1.07-11.88-44.62-39.47-21.93-20.93-18-29.15,7.63-38.26,19.61-2.23-.92-5.29.85-6.46,2.95-2.34,4.19-1.73,9.35-.8,14.06.55,2.78,1.21,5.62,2.82,7.95,1.61,2.33,4.38,4.07,7.18,3.67.47,3.94.81,8.15,2.3,11.83,1.47,3.64,3.87,6.81,6.24,9.94,1.38,1.82,4.07,5.28,5.45,7.1.42,6.53.2,25.45-3.12,33.18-2.67,6.24-15.22,17.57-20.9,18.45,13.39,11.56,36.12,61.54,53.78,62.57,4.75.28,22.81-29.28,27.38-30.64,4.56-1.36,5.92-20.28,7.5-24.77.93-2.65-3.79-8.71-2.28-11.08Z"/>
        <path class="cls-9" d="M231.77,214.47c1.97,2.62,4.39,4.81,7.25,6.42,1.41.79,2.91,1.44,4.45,1.93.81.25,1.63.46,2.46.63.69.14,1.56.37,2.26.24.23-.04.17-.34,0-.41-.69-.28-1.57-.26-2.3-.41s-1.53-.34-2.27-.57c-1.54-.47-3.03-1.1-4.44-1.86-2.78-1.51-5.31-3.57-7.27-6.06-.06-.08-.2.03-.14.11h0Z"/>
        <path class="cls-9" d="M249.76,223.6c3.99-.55,7.85-1.87,11.36-3.83s6.79-4.42,9.07-7.59c.09-.13-.11-.28-.22-.17-1.4,1.41-2.76,2.85-4.29,4.11s-3.15,2.36-4.87,3.31c-3.45,1.93-7.25,3.21-11.15,3.81-.24.04-.13.39.1.36h0Z"/>
        <path class="cls-11" d="M240.88,152.71c.04-1.43-.52-2.87-1.52-3.9.09.27.18.54.28.82-1.28-.86-2.88-1.31-4.36-1.73.31.14.54.45.58.79-3.07-.62-6.36-1.26-9.46-.84-3.76.51-7.19,2.56-9.97,5.14,1.89-.29,3.59-.51,5.48-.8,1.88-.28,3.77-.57,5.68-.59,4.51-.05,8.78,1.3,13.29,1.12Z"/>
        <path class="cls-11" d="M257.14,152.71c-.04-1.43.52-2.87,1.52-3.9-.09.27-.19.54-.28.82,1.28-.86,2.88-1.31,4.36-1.73-.31.14-.55.45-.58.79,3.07-.62,6.36-1.26,9.46-.84,3.76.51,7.19,2.56,9.97,5.14-1.89-.29-3.59-.51-5.48-.8-1.88-.28-3.77-.57-5.68-.59-4.51-.05-8.78,1.3-13.29,1.12Z"/>
        <path class="cls-9" d="M245.75,187.55l.57-.13c.1.06.19.13.28.2.12.09.23.19.35.28.19.15.38.31.58.45.46.35.93.69,1.44.97.94.52,2.02.85,3.1.69.92-.13,1.66-.65,2.41-1.16.39-.26.78-.53,1.22-.71.38-.15.85-.07,1.16-.31.09-.07.06-.21,0-.28-.53-.61-1.88.2-2.38.53-1.04.68-1.95,1.42-3.27,1.34-1.4-.09-2.58-.85-3.67-1.66-.43-.32-1.95-1.58-2.16-.32-.04.24.29.34.37.1h0Z"/>
        <path class="cls-9" d="M244.16,180.52c-.81,1.27-1.27,2.88-1.56,4.34-.17.86-.21,1.78.2,2.58.32.61.97,1.24,1.71,1.1.17-.03.19-.28.05-.37-.59-.34-1.1-.64-1.34-1.32-.28-.79-.13-1.65.05-2.44.28-1.25.59-2.58,1.23-3.7.13-.22-.2-.41-.34-.2h0Z"/>
        <path class="cls-9" d="M257.89,181.06c.55,1.16,1.15,2.38,1.23,3.68.04.56-.01,1.11-.18,1.65-.09.27-.21.53-.36.77-.14.22-.28.38-.31.65-.01.14.13.2.24.19.54-.08.85-.89,1-1.34.2-.59.26-1.24.21-1.86-.1-1.43-.75-2.74-1.38-4.01-.16-.32-.62-.04-.47.28h0Z"/>
        <path class="cls-9" d="M212.69,178.61c.05.65.1,1.3.15,1.95s.09,1.28.21,1.91c.03.15.24.1.25-.03.04-.64,0-1.27-.04-1.91s-.07-1.27-.1-1.91c-.02-.3-.49-.3-.47,0h0Z"/>
        <path class="cls-9" d="M211.98,161.02c-.73-1.38-2.57-1.53-3.76-.68-1.53,1.1-1.81,3.08-1.77,4.83.05,2.08.45,4.17,1.31,6.07.33.73.74,1.46,1.4,1.95.74.55,1.67.72,2.43,1.24.17.12.43-.12.3-.3-.38-.51-.9-.73-1.48-.98-.75-.32-1.3-.75-1.71-1.48-.82-1.43-1.26-3.17-1.49-4.8s-.39-3.55.45-5.01c.79-1.37,2.88-2.23,3.94-.63.16.24.53.03.39-.23h0Z"/>
        <path class="cls-9" d="M211.23,161.01c.7.54.82,1.66.99,2.47.1.5.19,1,.28,1.49.04.25.08.5.12.75s.04.53.16.76c.04.09.17.06.2-.03.08-.25.03-.53,0-.79-.02-.29-.05-.58-.09-.86-.07-.58-.17-1.15-.28-1.72-.18-.89-.38-1.88-1.15-2.45-.22-.17-.43.21-.22.37h0Z"/>
        <path class="cls-9" d="M212.73,164.5c-.22-.57-.54-1.09-.95-1.55-.39-.43-.9-.82-1.49-.86s-1.06.32-1.31.81c-.13.26-.19.54-.21.83-.02.31-.02.69.13.98.06.12.23.08.26-.03.09-.25.05-.55.07-.82.01-.23.06-.46.15-.67.18-.37.53-.64.96-.55s.81.42,1.11.75c.32.36.59.79.77,1.24.05.13.18.22.32.18.13-.04.24-.19.18-.32h0Z"/>
        <path class="cls-9" d="M210.31,153.27c-.01.35,0,.7.02,1.05.01.18.03.35.07.53s.1.34.16.51c.05.13.24.12.25-.03,0-.17.02-.34,0-.51s-.02-.34-.03-.51c-.03-.34-.03-.69-.02-1.03,0-.29-.43-.29-.44,0h0Z"/>
        <path class="cls-9" d="M288.1,155.58c0,1.01,0,2.02.03,3.02,0,.33.51.33.52,0,.02-1.01.02-2.02.02-3.02,0-.37-.57-.37-.57,0h0Z"/>
        <path class="cls-9" d="M286.95,175.05c-.12,1.31-.16,2.66.09,3.96.03.17.3.13.3-.04,0-1.31-.06-2.61.06-3.91.03-.28-.42-.28-.44,0h0Z"/>
        <path class="cls-9" d="M288.39,164.87c.49-.55,1.06-1.02,1.75-1.3.99-.4,1.69,0,2.15.9.72,1.42.72,3.14.54,4.69-.16,1.35-.45,2.72-1.06,3.94-.3.59-.66,1.15-1.14,1.62-.24.23-.49.44-.78.62-.43.27-1.56.74-1.67-.19-.02-.2-.35-.3-.39-.05-.13.79.54,1.31,1.3,1.22.86-.1,1.67-.79,2.22-1.41,1.27-1.43,1.81-3.37,2.08-5.23.28-1.95.37-4.42-.9-6.08s-3.49-.4-4.44,1c-.14.2.18.44.34.26h0Z"/>
        <path class="cls-9" d="M288.15,164.94c-.36.74-.56,1.55-.55,2.38,0,.21.32.21.33,0,0-.76.15-1.54.45-2.24.07-.15-.15-.29-.23-.13h0Z"/>
        <path class="cls-9" d="M287.95,167.31c.32-.6.84-1.05,1.44-1.36.3-.16.67-.29,1.02-.24.14.02.26.08.39.15s.21.21.33.27c.09.04.22.01.24-.1.09-.39-.4-.7-.7-.8-.44-.14-.89-.03-1.3.16-.76.35-1.42.97-1.78,1.73-.11.24.23.45.36.21h0Z"/>
        <path class="cls-2" d="M240.03,149.19c.6.83.91,1.85.85,2.87,0,.06.09.06.1,0,.09-1.05-.22-2.1-.87-2.93-.04-.05-.12.02-.08.07h0Z"/>
        <path class="cls-2" d="M240.58,149.35c.49,1.05.96,2.23.3,3.33-.02.04.03.09.07.05.36-.43.45-1.05.38-1.6-.08-.65-.37-1.25-.66-1.83-.03-.06-.12,0-.09.05h0Z"/>
        <path class="cls-2" d="M235.05,148.18c.38.15.67.45.88.8.03.04.1.01.08-.04-.16-.41-.53-.71-.93-.87-.03-.01-.06.01-.07.04,0,.03.01.06.04.07h0Z"/>
        <path class="cls-2" d="M234.74,148.37c.17.07.33.16.48.28s.28.24.41.37c.03.03.08,0,.06-.05-.09-.17-.24-.32-.4-.44s-.33-.22-.52-.29c-.03-.01-.07.02-.08.05-.01.04.01.07.05.08h0Z"/>
        <path class="cls-2" d="M258.28,148.99c-.46.39-.78.91-.96,1.49-.16.53-.25,1.22-.03,1.74.02.05.1.02.1-.03-.02-.27-.07-.54-.07-.81,0-.29.05-.58.13-.86.16-.55.48-1.06.9-1.45.05-.05-.02-.12-.07-.07h0Z"/>
        <path class="cls-2" d="M257.33,149.55c-.31.43-.48.93-.53,1.46-.05.48,0,1.11.3,1.51.03.04.09.02.08-.03-.05-.24-.14-.47-.18-.72s-.05-.49-.04-.74c.03-.51.19-1,.46-1.43.03-.05-.05-.1-.08-.05h0Z"/>
        <path class="cls-2" d="M258.24,149.95c.49-.61,1.14-1.09,1.86-1.38.07-.03.04-.14-.03-.11-.76.29-1.41.78-1.91,1.42-.04.05.03.13.08.08h0Z"/>
        <path class="cls-2" d="M261.88,149.22c.08-.31.36-.49.61-.65s.53-.31.81-.43c.05-.02.01-.11-.04-.09-.31.12-.6.27-.88.46-.26.18-.52.37-.58.69-.01.05.07.08.08.02h0Z"/>
        <path class="cls-2" d="M262.19,148.9c.31-.21.65-.38,1-.5s.71-.18,1.07-.25c.04,0,.03-.06,0-.07-.37-.02-.76.08-1.11.21s-.69.31-1,.53c-.05.04,0,.12.05.08h0Z"/>
        <path class="cls-5" d="M257.72,152.55c.14-1.18.8-2.19,1.73-2.9.03-.02,0-.07-.04-.05-1.03.62-1.68,1.78-1.82,2.96,0,.08.12.08.13,0h0Z"/>
        <path class="cls-5" d="M258.23,152.46c.33-1.31,1.26-2.39,2.45-3,.04-.02,0-.08-.04-.06-1.26.54-2.18,1.72-2.5,3.04-.01.05.07.07.08.02h0Z"/>
        <path class="cls-5" d="M259.97,152.36c1.07-1.33,2.48-2.39,4.06-3.05.05-.02.03-.1-.02-.08-1.62.63-3.04,1.69-4.11,3.06-.04.05.03.13.07.07h0Z"/>
        <path class="cls-5" d="M261.55,151.67c.63-.77,1.44-1.39,2.34-1.8.04-.02,0-.08-.04-.06-.92.4-1.73,1.02-2.35,1.81-.03.04.02.09.05.05h0Z"/>
        <path class="cls-5" d="M262.82,151.44c.96-.8,2.04-1.43,3.17-1.93.03-.01,0-.06-.02-.05-1.18.43-2.27,1.1-3.21,1.93-.04.03.02.09.05.05h0Z"/>
        <path class="cls-5" d="M239.75,152.37c.03-.38-.18-.72-.37-1.03-.21-.34-.43-.67-.69-.98-.49-.57-1.12-1.04-1.87-1.18-.06-.01-.08.07-.02.09.7.18,1.29.62,1.75,1.16.24.28.45.59.64.9s.43.67.4,1.05c0,.1.15.1.16,0h0Z"/>
        <path class="cls-5" d="M239.32,150.17c.26.28.48.6.66.94s.29.71.41,1.08c.01.03.07.03.07,0-.03-.39-.18-.77-.36-1.12s-.42-.68-.7-.97c-.05-.05-.13.03-.08.08h0Z"/>
        <path class="cls-5" d="M236.34,149.42c.51.25.98.59,1.37,1s.7.89.96,1.4c.02.03.07.01.06-.03-.36-1.1-1.3-2.01-2.33-2.49-.08-.04-.15.08-.07.12h0Z"/>
        <path class="cls-5" d="M232.76,148.67c1,.72,1.73,1.7,2.24,2.82.02.04.09.01.08-.03-.4-1.18-1.24-2.19-2.24-2.91-.07-.05-.14.07-.07.12h0Z"/>
        <path class="cls-5" d="M232.21,148.82c.88.68,1.54,1.56,2.04,2.55.02.04.1.01.08-.03-.42-1.04-1.17-1.93-2.06-2.6-.05-.04-.12.05-.07.09h0Z"/>
        <path class="cls-5" d="M231.16,148.92c1.02.52,1.84,1.4,2.31,2.45.02.05.1.01.09-.04-.41-1.11-1.26-2.02-2.34-2.52-.07-.03-.13.07-.06.11h0Z"/>
        <path class="cls-5" d="M237.29,205.89c.61,0,.61-.94,0-.94s-.61.94,0,.94h0Z"/>
        <path class="cls-2" d="M275.88,160.04c.7.17,1.43.19,2.15.06s1.42-.39,1.87-.96c.07-.09,0-.25-.12-.21-.61.21-1.19.5-1.83.65s-1.31.15-1.95.01c-.29-.06-.41.37-.12.44h0Z"/>
        <path class="cls-2" d="M277.64,161.38c.88.03,1.76-.1,2.59-.38s1.67-.69,2.21-1.37c.18-.22-.04-.51-.3-.39-.72.33-1.4.74-2.16.98s-1.54.35-2.34.32c-.54-.02-.54.82,0,.83h0Z"/>
        <g>
          <g>
            <path class="cls-15" d="M258.91,165.81s9.56,3.62,13.87,1.56c4.54-2.17,7.25-5.18,7.25-5.18,0,0-4.77-3.96-8.32-4.07-3.55-.11-7.2.91-8.22,1.92-1.03,1.02-4.58,5.77-4.58,5.77Z"/>
            <path class="cls-10" d="M274.14,163.06c0,2.48-1.94,4.49-4.34,4.49s-4.34-2.01-4.34-4.49,1.94-4.49,4.34-4.49,4.34,2.01,4.34,4.49Z"/>
            <path class="cls-15" d="M267.75,162.26c0,.41-.27.74-.61.74s-.61-.33-.61-.74.27-.74.61-.74.61.33.61.74Z"/>
            <path class="cls-2" d="M258.94,166.16c2.34-4.3,7-7.72,12.06-7.23,1.38.13,2.77.55,4.01,1.17,1.09.55,2.06,1.3,3.17,1.81,1.67.77,3.73.85,4.95-.72.33-.42-.18-.98-.6-.6-2.37,2.16-5.11-.67-7.29-1.7s-4.48-1.35-6.8-1.01c-4.67.69-7.96,3.89-10.04,7.96-.18.36.35.67.54.32h0Z"/>
            <path class="cls-2" d="M259.22,164.65c2.16-3.1,5.03-5.98,8.87-6.73,2.08-.4,4.04.01,5.86,1.05,1.68.95,3.22,2.3,4.99,3.08.35.15.77-.27.44-.57-.81-.75-1.81-1.3-2.72-1.91s-1.83-1.25-2.83-1.74c-1.82-.89-3.81-1.15-5.8-.75-4.01.79-7.04,4.09-9.03,7.46-.08.14.12.25.21.12h0Z"/>
          </g>
          <g class="cls-17">
            <path class="cls-9" d="M259.89,160.94c1.29-1.74,3.1-3.08,5.09-3.91s4.08-.98,6.22-1.04c.31,0,.38-.46.07-.54-2.2-.61-4.61-.06-6.65.86s-3.86,2.48-5.14,4.38c-.17.26.23.48.41.24h0Z"/>
          </g>
          <g class="cls-17">
            <path class="cls-9" d="M273.38,156.46c.69.19,1.35.46,1.97.82s1.17.83,1.82,1.14c.19.09.4-.1.29-.29-.38-.67-1.08-1.12-1.75-1.46s-1.42-.6-2.17-.76c-.35-.07-.51.45-.15.55h0Z"/>
          </g>
          <path class="cls-9" d="M271.27,168.47c2.59-.57,5.23-1.86,7.04-3.84.03-.03-.02-.08-.05-.05-1.01.9-2.05,1.73-3.25,2.38s-2.45,1.12-3.77,1.41c-.06.01-.03.11.03.09h0Z"/>
          <path class="cls-9" d="M268.37,168.7c.7.12,1.45.16,2.14-.02.03,0,.03-.06,0-.06-.71.06-1.4.11-2.11,0-.06,0-.08.08-.02.09h0Z"/>
          <path class="cls-5" d="M263.79,160.27c.86-.63,1.8-1.15,2.8-1.54.48-.19.98-.34,1.48-.47s1.06-.18,1.56-.33c.21-.06.17-.37-.05-.38-.52-.02-1.08.13-1.58.27-.53.14-1.05.32-1.56.53-1,.42-1.95.96-2.81,1.62-.17.13,0,.41.17.29h0Z"/>
          <path class="cls-5" d="M271.66,158.2c.5.11.99.25,1.47.44.23.09.45.19.67.3s.45.3.71.3c.11,0,.17-.12.12-.21-.12-.23-.39-.34-.62-.45-.25-.12-.5-.23-.75-.32s-.5-.17-.75-.24-.53-.1-.8-.13c-.18-.02-.22.27-.04.31h0Z"/>
          <path class="cls-4" d="M269.78,166.67c.59-.06,1.15-.25,1.65-.55.24-.15.47-.32.67-.53s.4-.46.43-.75c.01-.12-.13-.16-.21-.12-.23.11-.4.32-.59.48s-.38.3-.59.43c-.41.25-.88.41-1.36.46-.16.02-.3.13-.3.3,0,.15.14.32.3.3h0Z"/>
          <path class="cls-4" d="M273.31,163.85c.06-.22.1-.44.12-.66.01-.1.02-.2.02-.3,0-.05,0-.1-.01-.15,0-.08-.04-.14-.08-.21-.06-.1-.22-.14-.3-.04-.04.05-.08.09-.1.14-.02.05-.04.1-.05.15-.03.08-.04.17-.06.26-.05.18-.11.35-.18.52l.04-.08s-.03.06-.04.1c-.04.09-.06.18-.04.28.02.11.11.19.21.23.19.08.43-.02.48-.23h0Z"/>
        </g>
        <g>
          <g>
            <path class="cls-15" d="M240.55,165.81s-9.56,3.62-13.87,1.56c-4.54-2.17-7.25-5.18-7.25-5.18,0,0,4.77-3.96,8.32-4.07s7.2.91,8.22,1.92,4.58,5.77,4.58,5.77Z"/>
            <path class="cls-10" d="M225.32,163.06c0,2.48,1.94,4.49,4.34,4.49s4.34-2.01,4.34-4.49-1.94-4.49-4.34-4.49-4.34,2.01-4.34,4.49Z"/>
            <path class="cls-15" d="M231.71,162.26c0,.41.27.74.61.74s.61-.33.61-.74-.27-.74-.61-.74-.61.33-.61.74Z"/>
            <path class="cls-2" d="M241.06,165.85c-2.07-4.07-5.36-7.27-10.04-7.96-2.25-.33-4.54-.02-6.61.92-2.23,1.01-5.07,3.98-7.48,1.78-.42-.38-.93.18-.6.6,1.2,1.55,3.22,1.48,4.88.75,1.07-.48,2.02-1.2,3.05-1.74,1.29-.68,2.74-1.13,4.2-1.27,5.06-.49,9.72,2.93,12.06,7.23.19.36.73.04.54-.32h0Z"/>
            <path class="cls-2" d="M240.45,164.52c-1.99-3.37-5.02-6.66-9.03-7.46-1.93-.38-3.87-.16-5.65.68-1,.47-1.91,1.1-2.82,1.71-.97.64-2.03,1.23-2.88,2.02-.33.3.09.73.44.57,1.77-.78,3.31-2.13,4.99-3.08,1.83-1.03,3.79-1.45,5.86-1.05,3.84.75,6.72,3.63,8.87,6.73.09.13.29.01.21-.12h0Z"/>
          </g>
          <g class="cls-17">
            <path class="cls-9" d="M239.98,160.7c-1.28-1.91-3.05-3.44-5.14-4.38s-4.46-1.47-6.65-.86c-.3.08-.24.53.07.54,2.14.06,4.22.2,6.22,1.04s3.8,2.17,5.09,3.91c.18.24.59.02.41-.24h0Z"/>
          </g>
          <g class="cls-17">
            <path class="cls-9" d="M225.93,155.92c-.75.16-1.49.41-2.17.76s-1.37.78-1.75,1.46c-.11.2.11.38.29.29.65-.31,1.2-.78,1.82-1.14s1.28-.63,1.97-.82c.35-.1.2-.62-.15-.55h0Z"/>
          </g>
          <path class="cls-9" d="M228.21,168.38c-1.32-.29-2.59-.77-3.77-1.41s-2.23-1.48-3.25-2.38c-.03-.03-.08.02-.05.05,1.81,1.98,4.45,3.27,7.04,3.84.06.01.09-.08.03-.09h0Z"/>
          <path class="cls-9" d="M231.07,168.62c-.71.11-1.4.07-2.11,0-.03,0-.04.05,0,.06.69.18,1.44.14,2.14.02.06,0,.03-.09-.02-.09h0Z"/>
          <path class="cls-5" d="M235.83,159.98c-.86-.66-1.8-1.21-2.81-1.62-.49-.21-1-.38-1.51-.52s-1.09-.3-1.63-.28c-.22,0-.26.32-.05.38.51.15,1.05.2,1.56.33s1,.28,1.48.47c1,.38,1.93.91,2.8,1.54.17.13.33-.16.17-.29h0Z"/>
          <path class="cls-5" d="M227.76,157.89c-.26.03-.52.06-.78.13s-.52.15-.78.24-.49.2-.73.31-.52.22-.64.46c-.05.09,0,.21.12.21.26,0,.48-.18.71-.3s.44-.21.67-.3c.47-.18.97-.33,1.47-.44.17-.04.14-.33-.04-.31h0Z"/>
          <path class="cls-4" d="M229.68,166.06c-.48-.05-.94-.21-1.36-.46-.2-.12-.39-.26-.57-.41-.2-.16-.37-.38-.6-.49-.09-.04-.22,0-.21.12.03.29.23.53.41.74s.43.39.68.54c.5.31,1.07.49,1.65.55.16.02.3-.15.3-.3,0-.18-.14-.29-.3-.3h0Z"/>
          <path class="cls-4" d="M226.81,163.58s-.03-.06-.04-.1l.04.08c-.07-.17-.13-.34-.18-.52-.02-.09-.04-.17-.06-.26-.01-.04-.02-.08-.04-.12-.02-.07-.07-.12-.12-.17-.08-.1-.24-.06-.3.04-.04.07-.07.12-.08.2,0,.05-.01.1-.01.15,0,.1.01.21.02.31.03.22.06.44.12.66s.29.31.48.23c.09-.04.15-.1.19-.19.05-.11.03-.21-.02-.32h0Z"/>
          <path class="cls-2" d="M223.86,159.59c-.64.14-1.31.13-1.95-.01s-1.22-.44-1.83-.65c-.13-.04-.19.12-.12.21.45.56,1.18.83,1.87.96s1.44.11,2.15-.06c.29-.07.17-.51-.12-.44h0Z"/>
          <path class="cls-2" d="M222.23,160.55c-.8.03-1.58-.08-2.34-.32s-1.44-.66-2.16-.98c-.26-.12-.48.17-.3.39.54.69,1.39,1.1,2.21,1.37s1.72.4,2.59.38c.54-.02.54-.85,0-.83h0Z"/>
        </g>
        <g>
          <g>
            <path class="cls-8" d="M263.44,198.94c-3.03-.9-4.91-3.33-7.68-4.84-.83-.45-1.78-.79-2.71-.63-.97.16-1.81.83-2.79.92-1.52.15-2.86-1.35-4.28-.77-2.93,1.2-4.68,4.52-7.72,5.44-.33.1-.78-.1-.88.23,1.37.5,1.92,2.29,2.73,3.51.96,1.43,2.89,4.44,5.05,5.36,2.98,1.27,6.42,1.16,9.39.13,2.69-.93,4.71-3.18,6.22-5.59.77-1.22,1.37-3.14,2.66-3.76Z"/>
            <path class="cls-2" d="M235,197.14c-.13.39-.19.82-.19,1.23,0,.22.02.44.06.66.04.26.15.5.36.66s.47-.02.55-.22c.08-.22.01-.47-.02-.68,0-.02-.02-.14,0-.03,0-.04,0-.08-.01-.12,0-.09-.01-.18-.02-.28,0-.17,0-.34.03-.51-.01.1,0-.04.01-.06,0-.05.02-.09.03-.14.02-.09.04-.18.07-.27.07-.22-.08-.49-.31-.54-.24-.06-.47.07-.54.31h0Z"/>
            <path class="cls-2" d="M235.54,198.64c1.79,1.19,3.75,1.4,5.84,1.22s4.16-.55,6.21.09c.51.16.72-.63.22-.79-3.94-1.25-8.17,1.11-11.91-1.14-.4-.24-.75.37-.37.63h0Z"/>
            <path class="cls-2" d="M248.44,200.14c.66.45,1.4.72,2.2.74.38,0,.77-.04,1.12-.15.39-.12.71-.37.99-.67.25-.27-.08-.76-.41-.54-1.1.74-2.51.59-3.69.11-.31-.12-.46.34-.21.51h0Z"/>
            <path class="cls-2" d="M253.3,199.39c2.25-.08,4.52.31,6.77.33,1.27.01,2.56-.04,3.8-.32.95-.22,2.03-.57,2.49-1.5.18-.37-.24-.67-.55-.42-1.73,1.39-4.15,1.45-6.27,1.46s-4.17-.33-6.25-.26c-.46.02-.47.74,0,.72h0Z"/>
            <path class="cls-2" d="M265.22,196.87c.06.31.2.62.38.88.1.14.22.29.35.41.17.15.38.24.59.31l.14.02c.07,0,.14-.01.2-.04.1-.04.19-.11.24-.21.04-.08.07-.17.07-.26,0-.11-.06-.29-.15-.36-.05-.04-.1-.08-.14-.13-.02-.02-.04-.04-.06-.07-.05-.06-.11-.1-.17-.15l.12.09c-.13-.1-.24-.22-.34-.34l.09.11c-.1-.13-.18-.27-.24-.42l.05.13c-.03-.08-.06-.16-.08-.25-.03-.13-.13-.25-.24-.32s-.28-.1-.41-.05-.25.12-.32.24c-.07.13-.08.26-.05.41h0Z"/>
          </g>
          <path class="cls-9" d="M248.16,193.33c.65.26,1.39.39,2.09.32.35-.04.69-.1,1.03-.21.37-.12.66-.3.95-.55.17-.14,0-.46-.22-.38-.31.11-.62.22-.93.32-.29.09-.59.16-.89.19-.65.06-1.27.01-1.89-.2-.33-.11-.45.38-.14.51h0Z"/>
          <path class="cls-9" d="M248.68,211.14c.85-.41,1.8-.59,2.74-.54.46.02.92.11,1.36.23.23.06.45.15.68.23.2.07.43.2.65.17.17-.02.25-.16.18-.32-.18-.42-.88-.63-1.27-.76-.51-.17-1.05-.25-1.59-.27-1.06-.04-2.12.21-3.07.69-.38.19-.05.75.33.56h0Z"/>
          <path class="cls-7" d="M250.39,207.24c1.08.09,2.18-.09,3.18-.5.51-.21.97-.48,1.41-.82.46-.36.82-.72,1.09-1.24.14-.27-.16-.65-.45-.45-.77.54-1.54,1.11-2.43,1.45s-1.84.47-2.8.37c-.32-.03-.6.3-.6.6,0,.35.27.57.6.6h0Z"/>
          <path class="cls-7" d="M258.01,203.44c.37-.44.73-.88,1.1-1.32.07-.08.12-.17.12-.28,0-.1-.04-.21-.12-.28-.15-.13-.42-.17-.56,0-.37.44-.73.88-1.1,1.32-.07.08-.12.17-.12.28,0,.1.04.21.12.28.15.13.42.17.56,0h0Z"/>
          <path class="cls-12" d="M242.99,197.61c.56-.43,1.13-.86,1.69-1.29.49-.38.98-.81,1.59-.99s1.24-.04,1.85.06c.49.08,1.23.28,1.67-.04.18-.13.19-.45-.07-.51-.3-.06-.6.02-.9,0-.33-.01-.66-.07-.99-.11-.61-.09-1.23-.13-1.82.08s-1.04.59-1.5.97c-.6.49-1.18,1-1.77,1.5-.18.15.06.47.25.33h0Z"/>
          <path class="cls-12" d="M252.78,195.02c.2-.05.4-.08.6-.08.1,0,.21,0,.31.02.08,0,.17.02.28.04.1.02.2.05.3.08s.17.06.24.1c.22.11.42.25.64.29.17.03.4-.11.32-.32-.1-.26-.34-.44-.59-.55-.24-.11-.48-.19-.74-.23-.51-.09-1.03-.03-1.51.17-.13.05-.22.17-.18.32.04.13.18.22.32.18h0Z"/>
        </g>
        <path class="cls-16" d="M248.69,158.07s-3.06,10.32-2.73,17.75c.05,1.1.08,1.98.11,2.68"/>
      </g>
      <path class="cls-15" d="M272.81,231.13c2.93,8.68,5.05,17.91,3.74,26.98-1.29,8.99-5.82,17.13-9.39,25.49-3.56,8.36-6.83,18.01-4.19,26.7-1.81-5.92-3.88-12.21-8.74-16.03-4.13-3.25-9.7-4.21-13.83-7.46-2.7-2.12-4.6-5.08-6.26-8.09-3.39-6.15-5.98-12.7-8.56-19.23-1.77-4.48-3.56-9.04-4.02-13.84-.46-4.8.56-9.96,3.82-13.51-3.67.73-8.05,3.37-10.71,6-2.66,2.63-4.74,5.77-6.69,8.96-.75,1.23-1.5,2.49-2.53,3.51-2.27,2.24-5.58,3-8.7,3.67-4.54,21.7.24,43.56-.96,65.7-.47,8.71-1.79,17.4-1.37,26.11.72,14.88,6.48,28.98,11.03,43.16,3.71,11.57,6.69,23.44,11.83,34.45,5.14,11.01,12.75,21.33,23.45,27.1,3.83,2.06,8.12,3.53,12.46,3.24,8.02-.52,14.39-6.69,19.81-12.63,13.74-15.07,26.57-31.42,34.2-50.33,7.13-17.68,9.45-36.91,10.86-55.93.9-12.2,1.46-24.43,1.16-36.65-.13-5.42-.44-10.89-1.88-16.13-3.42-12.45-12.91-13.09-16.46-25.5-1.73-6.06-7.36-7.36-15.57-17.04-1.14-1.34-3.7-3.14-5.07-4.26-.79-.64-1.36-1.51-2.06-2.25-1.33-1.39-3.44-2.02-5.36-2.21Z"/>
      <g>
        <path class="cls-13" d="M262.99,310.88c1.32,4,1.8,8.21,1.95,12.41.07,2.09.07,4.18.06,6.27,0,1.03-.01,2.07-.02,3.1s-.08,2.16.09,3.21c.04.25.46.24.5,0,.18-1.05.12-2.15.12-3.21s.01-2.22.02-3.33c0-2.09,0-4.18-.1-6.27-.2-4.18-.74-8.34-2.16-12.3-.1-.29-.56-.17-.47.13h0Z"/>
        <path class="cls-13" d="M265.11,339.97c-1.23,9.21-1.88,18.47-2.21,27.76s-.34,18.48.12,27.71c.26,5.22.44,10.49,1.04,15.68.03.26.43.27.42,0-.21-4.61-.62-9.21-.77-13.83s-.26-9.32-.28-13.97c-.05-9.24.21-18.48.82-27.69.34-5.22.71-10.44,1.14-15.65.01-.17-.24-.16-.26,0h0Z"/>
        <path class="cls-13" d="M245.91,299.12c2.15,10.1,2.51,20.42,2.65,30.71s.21,21.07.37,31.61c.05,2.99.09,5.97.14,8.96s-.05,5.99.19,8.96c.02.28.43.29.44,0,.14-2.64,0-5.32-.02-7.96s-.05-5.31-.08-7.96c-.05-5.35-.12-10.7-.2-16.05-.15-10.42-.07-20.88-.79-31.28-.4-5.74-1.15-11.43-2.57-17.01-.02-.09-.16-.05-.14.04h0Z"/>
        <path class="cls-13" d="M248.65,383.13c.15,5.29.23,10.59.22,15.89,0,2.65-.04,5.3-.08,7.94s-.24,5.31-.04,7.94c.01.18.31.25.34.05.27-1.99.27-4,.31-6s.06-4.14.07-6.21c.01-4.18-.01-8.36-.11-12.54-.05-2.36-.14-4.72-.23-7.07-.01-.3-.48-.31-.47,0h0Z"/>
        <path class="cls-13" d="M255.63,334.41c-.45.72-.61,1.66-.29,2.46.29.74.99,1.26,1.78,1.32.88.07,1.59-.56,1.99-1.29s.58-1.76.04-2.48c-.25-.34-.62-.59-1.03-.69-.22-.05-.43-.06-.65-.01s-.47.22-.51.46l.37-.15c-.16-.09-.35-.1-.48.03s-.14.34-.03.48c.27.34.74.02.63-.37l-.31.31c.09.02.16.01.26,0,.05,0,.07,0,.15,0-.01,0,.15-.02.07-.01.03,0,.05,0,.08,0,.07,0,.14,0,.2,0-.06,0,.03,0,.04,0,.03,0,.07.02.1.03.05.01.11.04.13.04.13.06.22.13.31.21.42.41.35,1.13.13,1.65-.24.55-.7,1.14-1.35,1.16-.54.01-1.09-.29-1.37-.76-.4-.68-.27-1.53.11-2.19.14-.24-.22-.45-.37-.21h0Z"/>
        <path class="cls-13" d="M256.07,377.57c-.55.71-.76,1.73-.35,2.56.38.76,1.28,1.26,2.13.99s1.37-1.08,1.38-1.93c.01-.9-.54-1.71-1.26-2.2-.35-.24-.78-.39-1.21-.35-.46.04-.99.35-.87.89.04.18.3.31.46.19.06-.04.12-.08.17-.13.01-.01.07-.07.02-.03.02-.01.04-.03.06-.04.08-.05.16-.08.22-.08.25-.01.45.04.66.17.5.3.92.83.99,1.42.06.54-.22,1.11-.72,1.35s-1.09-.02-1.4-.44c-.48-.65-.28-1.51.17-2.11.08-.11.02-.29-.09-.35-.13-.08-.27-.02-.35.09h0Z"/>
        <path class="cls-13" d="M263.36,301.27c1.04-2.79,2.18-5.54,3.42-8.25,1.13-2.46,2.26-5.07,3.81-7.3.72-1.03,1.67-1.99,2.91-2.34s2.63-.07,3.77.54c2.39,1.27,3.92,3.84,5.37,6.02.81,1.23,1.59,2.48,2.23,3.81.69,1.43,1.13,2.91,1.46,4.46.06.26.49.21.47-.06-.22-2.89-1.66-5.62-3.17-8.04s-3.02-4.88-5.3-6.41-5.03-1.63-7.06.2c-.91.82-1.58,1.88-2.16,2.94-.77,1.39-1.48,2.82-2.17,4.25-1.56,3.26-2.92,6.61-4.07,10.04-.1.31.37.43.48.13h0Z"/>
        <path class="cls-13" d="M292.34,253.41c4.05,11.35,3.89,24.14-.31,35.42-1.2,3.21-2.68,6.29-4.51,9.2-.18.29.27.55.45.26,6.69-10.26,9.33-22.92,7.44-35.01-.54-3.42-1.45-6.74-2.71-9.97-.09-.22-.44-.13-.36.1h0Z"/>
        <path class="cls-13" d="M278.62,240.85c3.87,9.59,3.97,20.63.25,30.28-1.06,2.75-2.45,5.37-4.1,7.81-.24.36.34.69.58.34,6-8.67,8.26-19.88,6.25-30.21-.56-2.88-1.47-5.67-2.69-8.34-.07-.16-.36-.04-.29.12h0Z"/>
        <path class="cls-13" d="M258.69,301.5c-2.16-1.63-3.68-3.89-5.65-5.72-.94-.87-1.98-1.65-3.14-2.2-1.41-.66-2.86-.78-4.36-1.09-1.78-.38-3.51-.99-5.14-1.81s-2.93-2.01-4.59-2.56c-3.29-1.08-6.42,1.51-8.43,3.82-2.44,2.8-4.34,6.37-4.84,10.08-.04.31.4.45.48.13.83-3.26,2.06-6.32,4.16-8.99,1.92-2.45,5.15-5.62,8.58-4.42.8.28,1.51.77,2.21,1.23.75.49,1.52.93,2.32,1.32,1.43.69,2.94,1.25,4.48,1.63,1.46.36,2.97.42,4.37.97,1.23.49,2.33,1.26,3.31,2.14,2.08,1.88,3.74,4.17,6.03,5.82.22.16.42-.2.21-.36h0Z"/>
        <path class="cls-13" d="M208.57,252.94c1.1,7.3,2.21,14.59,3.39,21.88.59,3.64,1.18,7.28,1.77,10.92.52,3.18.9,6.42,1.7,9.55.73,2.84,1.96,5.66,4.44,7.4.29.2.66-.27.38-.5-2.16-1.76-3.31-4.29-4-6.93-.78-2.98-1.15-6.08-1.65-9.12-1.18-7.11-2.35-14.22-3.57-21.32-.68-4-1.39-7.99-2.09-11.98-.04-.24-.41-.14-.37.1h0Z"/>
        <path class="cls-13" d="M217.79,242.59c.32,4.53,1.17,9.01,2.55,13.34.68,2.14,1.49,4.24,2.4,6.28.45,1.01.94,2.01,1.45,3s1,2.06,1.77,2.87c.1.11.3,0,.25-.15-.33-.99-.94-1.89-1.43-2.81-.52-.98-1.01-1.97-1.48-2.98-.95-2.06-1.77-4.19-2.46-6.35-1.37-4.28-2.24-8.72-2.59-13.2-.02-.29-.48-.29-.46,0h0Z"/>
      </g>
      <path class="cls-1" d="M354.19,503.86c-13.93,7.89-22.99,2.63-38.9,4.42-55.51,6.22-101.17,3.54-156.07-6.8,1.01-4.26,2.02-8.52,3.03-12.77.48-2.03,1.13-3.74,1.56-5.78-3.3-1.54-17.22-1.44-19.98-3.81-1.13-.97-1.8-2.35-2.42-3.7-5.39-11.68-9.61-23.87-13.82-36.03-2.39-6.9-4.78-13.82-6.17-20.99-3.3-16.97-.6-34.43,1.85-51.53-1.95-4.39-2.76-9.28-2.33-14.07.23-2.59.82-5.19.46-7.77-.57-4.05-3.44-7.59-3.57-11.68-.11-3.37,1.66-6.51,2.07-9.85.41-3.37-.57-6.73-1.01-10.1-.5-3.8-.3-7.69.58-11.42.94-4,2.65-7.77,3.76-11.73,1.16-4.17,1.65-8.51,2.94-12.65,1.72-5.48,4.87-10.5,9.06-14.42,1.9-1.78,4.05-3.36,6.5-4.24,4.47-1.61,9.4-.76,14.15-.64,4.12.11,8.22-.36,12.31-.82,9.16-1.03,18.31-2.06,27.47-3.09,2.87-.32,4.47-1.62,6.93-3.12,2.22,9.4,2.89,18.95,4.07,28.54,5.3,42.93,17.84,85.64,23.61,128.5.07.54,10.2-.55,14.83-.94,11.54-.97,23.11-1.93,34.68-1.67,0,0,8.72-59.49,10.9-79.43,2.18-19.93,8.72-66.97,7.79-73.82,7.41,1.69,13.72,7.34,20.94,9.72,3.37,1.11,6.92,1.55,10.45,1.88,10.33.98,20.74,1.14,31.1.5,1.81-.11,3.69-.24,5.36.46,1.42.59,2.54,1.72,3.51,2.9,2.74,3.33,4.65,7.34,5.52,11.56.56,2.77.7,5.66,1.86,8.24.85,1.88,2.23,3.52,2.79,5.5.8,2.84-.17,5.99.83,8.76.52,1.44,1.53,2.65,2.19,4.03,3.28,6.82-2.6,15.36.38,22.31,1.08,2.51,3.29,4.85,2.76,7.52-.38,1.9-2.14,3.47-1.97,5.41.09.98.67,1.84,1.06,2.74.95,2.15.83,4.74-.3,6.8.97,8.88,11.65,15.3,12.45,24.2.4,4.48-1.58,9.22.17,13.36.86,2.05,2.53,3.62,3.84,5.42,3.26,4.48,4.21,10.31,3.69,15.82-.53,5.51-2.41,10.79-4.4,15.96-4.52,11.73-9.93,23.57-19.25,32-1.58,1.43-3.32,2.78-5.36,3.4-1.57.48-3.24.5-4.88.52-6.18.08-18.63,0-24.81.08.46,8.89,7.96,39.15,7.8,42.3Z"/>
      <path class="cls-3" d="M229.22,433.2c-7.39-3.16-15.14-8.34-22.76-5.79-5.76,1.93-12.57.22-16.73-4.21-6.29-6.69-5.58-17.58-11.7-24.43-3.53-.41-6.7,2.05-9.32,4.46-3.58,3.29-7.04,6.8-9.51,10.99-1.33,2.26-2.43,4.77-4.47,6.41-2.05,1.64-5.49,1.95-7.03-.18-.2-.27-.36-.6-.32-.94.05-.38.35-.67.62-.95,1.28-1.29,2.34-2.79,3.16-4.4.99-1.95,1.64-4.06,2.48-6.09,1.95-4.69,5.32-9.36,8.28-13.49-5.96,1.71-11.26,5.6-14.68,10.77-2.16,3.27-4.95,6.55-7.69,9.35-2.74,2.8-6.16,4.78-9.23,2.34-.37-.3-.74-.72-.68-1.19.04-.33.27-.59.49-.84,5.47-6.13,10.39-12.75,14.7-19.74,1.08-1.75,2.13-3.55,3.59-5,1.5-1.49,3.37-2.56,5.23-3.57,2.12-1.15,4.59-2.18,6.75-3.24-3.12-.83-6.41-1.66-9.53-.84-1.66.44-3.15,1.31-4.63,2.18-3.23,1.9-6.53,3.87-8.85,6.81-1.23,1.56-2.14,3.34-3.33,4.93-1.19,1.58-2.77,3.02-4.71,3.42-1.94.41-4.3-.33-4.92-2.21,4.08-4.54,5.64-10.95,9.9-15.31,2.49-2.56,5.75-4.24,8.39-6.64,2.02-1.83,3.83-4.16,6.47-4.83,1.38-.35,2.84-.19,4.25-.02,3.74.43,7.45.62,11.19,1.06-.5-2.71-1.41-5.34-2.69-7.78-2.74-5.22-7.06-9.41-10.5-14.19-1.47-2.04-2.81-4.25-3.32-6.71-.51-2.46.32-4.64,2.04-6.48,5.17,6.01,10.34,12.03,15.51,18.04,1.64,1.91,3.28,3.82,4.73,5.88,2.85,4.05,4.92,8.61,6.69,13.24,3.12,0,5.8,1.51,7.92,3.8,2.12,2.29,3.65,5.05,5.41,7.62,4.33,6.32,10.07,11.52,15.76,16.66,1.75,1.58,3.51,3.17,5.53,4.37,4.23,2.51,9.3,3.15,14.22,3.3,1.51,8.28,1.96,15.13,3.25,23.45Z"/>
      <path class="cls-3" d="M327.35,402.61c-.44-.78.23-1.69.7-2.46,1.05-1.7,1.19-3.79,1.82-5.68.92-2.79,2.88-5.11,4.79-7.34,3.56-4.16,1.54-10.43,3.3-15.62,2.21-6.48,7.76-11.11,12.21-16.3,2.97-3.47,5.52-7.31,7.57-11.4,2.4.35,3.81,3.39,3.43,5.78s-1.93,4.41-3.32,6.39c-3.03,4.3-5.54,8.96-7.49,13.85,1.73-1.1,2.85-1.68,4.58-2.78-.16.09-.31.17-.47.26,6.93-.66,14.35-.74,21.26.12,1.64.2,3.23.32,4.78.87,2.93,1.05,5.92,1.91,8.96,2.58-.94,2.98-4.04,4.41-7.16,4.61-3.12.2-6.17-.85-9.12-1.89-5.15.56-10.09,1.05-15.1,2.37-1.63.43-2.12,1.9-2.93,3.39,2.18-.44,3.86-1.07,5.96-1.79,5.52-1.88,11.85.87,17.65,1.46,4.14.42,8.34.28,12.45-.37.69,2.28-.58,4.64-2.59,5.93-2.01,1.29-4.5,1.56-6.89,1.5s-4.77-.42-7.15-.25c-.62-.2-.99.15-1.63.26-4.13.7-8.24,1.49-12.33,2.37-2.84.61-5.03,2.93-7.23,4.82,2.14-.86,3.79-1.42,5.93-2.28,1.71-.69,3.44-1.38,5.26-1.63,1.71-.23,3.45-.07,5.16.12,5.14.56,10.27,1.33,15.35,2.3.09,2.8-2.67,4.44-5.46,4.69-2.79.25-5.58-.6-8.38-.5-3.73.13-7.18,1.92-10.79,2.89-3.81,1.02-7.8,1.13-11.74,1.42-7.73.57-13.89.31-21.38,2.31Z"/>
      <g>
        <path class="cls-9" d="M162.26,383.66c1.02-.54,2.06-1.02,3.13-1.45.52-.21,1.04-.4,1.57-.58.25-.09.51-.17.76-.26s.51-.16.7-.34c.08-.07.05-.24-.07-.26-.5-.08-1.07.2-1.54.36-.56.19-1.12.4-1.67.63-1.07.44-2.12.92-3.14,1.47-.29.15-.03.59.26.44h0Z"/>
        <path class="cls-9" d="M162.82,393.67c2.15-1.61,4.3-3.22,6.48-4.8,1.05-.77,2.11-1.53,3.17-2.29.55-.39,1.1-.8,1.66-1.17.63-.42,1.19-.59,1.93-.66.16-.01.28-.27.09-.35-1.04-.46-2.16.46-2.96,1.02-1.23.87-2.46,1.75-3.67,2.64-2.35,1.72-4.68,3.47-6.96,5.28-.18.15.06.47.25.33h0Z"/>
        <path class="cls-9" d="M177.53,383.23c.72.18,1.37-.09,2.05-.31.8-.26,1.58-.25,2.38,0s1.45.69,2.06,1.21,1.06,1.12,1.71,1.52c.16.1.34-.09.25-.25-.38-.68-1.02-1.23-1.61-1.72s-1.26-.93-2-1.2c-.69-.25-1.44-.36-2.17-.25-.84.13-1.66.73-2.53.53-.3-.07-.43.39-.13.47h0Z"/>
        <path class="cls-9" d="M174.78,378.78c1.03-.68,2.21-1.1,3.43-1.22.61-.06,1.22-.05,1.82.04.57.08,1.12.31,1.68.36.21.02.25-.27.1-.37-.48-.33-1.2-.41-1.77-.48-.65-.07-1.3-.05-1.94.03-1.25.17-2.45.64-3.48,1.36-.16.12-.01.39.16.27h0Z"/>
        <path class="cls-9" d="M164.42,372.53c1.76.54,3.51,1.08,5.26,1.62.86.27,1.73.52,2.59.78.59.18,1.94.33,2.12,1.05.07.27.44.15.4-.11-.09-.64-.69-.9-1.24-1.08-.99-.31-1.98-.59-2.98-.89-2.02-.6-4.05-1.15-6.07-1.71-.22-.06-.31.27-.09.34h0Z"/>
        <path class="cls-9" d="M177.07,397.09c.8-.81,1.52-1.69,2.16-2.62.13-.19-.18-.36-.3-.18-.62.92-1.31,1.78-2.08,2.57-.14.15.08.37.22.22h0Z"/>
        <path class="cls-9" d="M178.78,397.35c.63-.27,1.24-.59,1.84-.94s1.17-.74,1.62-1.25c.12-.13-.03-.35-.2-.25-.59.33-1.14.73-1.71,1.08s-1.18.67-1.79.95c-.28.13-.04.53.24.41h0Z"/>
        <path class="cls-9" d="M149.22,390.44c.15.33.35.62.58.89.12.14.25.26.41.37.14.1.29.18.44.26.21.1.36-.17.18-.3-.12-.09-.24-.2-.35-.31-.12-.12-.23-.23-.34-.35-.03-.03-.05-.06-.08-.09-.01-.02-.02-.03-.04-.05,0,0-.03-.04-.01-.02-.05-.07-.1-.13-.14-.2-.09-.14-.17-.29-.24-.44-.05-.11-.22-.15-.32-.09-.12.08-.14.2-.09.32h0Z"/>
        <path class="cls-9" d="M141.19,402.31c.15.24.34.47.55.66.11.1.23.19.36.27s.28.12.42.16c.09.02.2-.01.25-.1.04-.08.04-.21-.03-.27-.05-.04-.1-.08-.15-.12-.02-.02-.04-.04-.06-.06-.02-.02-.03-.03-.05-.05-.01-.01-.03-.02-.04-.03l.03.02c-.1-.08-.2-.16-.29-.25s-.18-.18-.26-.28c0-.01-.02-.02-.03-.04.06.06.02.03,0,0-.02-.02-.04-.05-.05-.07-.04-.05-.07-.11-.11-.17-.08-.14-.28-.2-.43-.11s-.2.28-.11.43h0Z"/>
        <path class="cls-9" d="M147.83,372.35c.1.33.21.66.31.99s.23.69.44.98c.13.18.43.13.43-.12.01-.35-.08-.71-.18-1.05s-.2-.66-.3-.99c-.05-.18-.26-.32-.45-.26s-.32.25-.26.45h0Z"/>
        <path class="cls-9" d="M134.79,383.15c.21.36.43.72.64,1.07.08.13.27.19.4.11s.19-.26.11-.4c-.21-.36-.43-.72-.64-1.07-.08-.13-.27-.19-.4-.11s-.19.26-.11.4h0Z"/>
        <path class="cls-9" d="M161.06,350.77c-.14.18-.29.37-.43.55-.08.1-.15.21-.23.32-.03.05-.07.1-.09.15s-.05.11-.07.16c-.03.08-.04.18.03.24.06.06.17.08.24.03.1-.08.2-.15.29-.24.08-.08.16-.17.24-.26.15-.18.29-.36.44-.54.05-.06.09-.13.09-.21,0-.07-.03-.16-.09-.21s-.13-.09-.21-.09c-.07,0-.16.03-.21.09h0Z"/>
        <path class="cls-9" d="M169.6,361.51s-.07.09-.1.12c-.02.01-.05.02-.07.03-.03.01-.05.04-.07.05l.18-.02c-.1-.04-.24,0-.33.06-.1.06-.16.16-.22.25-.08.12-.17.23-.25.35s-.16.23-.23.36c-.07.14-.13.29-.18.44-.06.17.17.36.32.25.13-.09.25-.19.36-.3.12-.12.22-.25.32-.38.09-.12.18-.24.26-.36.07-.1.12-.18.14-.31.01-.11,0-.21-.09-.29l.06.23s.02-.07.03-.11c0-.03,0-.07.01-.1l-.02.08c.03-.05.07-.11.1-.16.08-.13-.11-.29-.22-.17h0Z"/>
        <path class="cls-9" d="M154,408.02c.34.24.73.41,1.13.52s.86.13,1.25-.01c.15-.06.19-.3,0-.34-.36-.08-.73-.14-1.08-.24s-.67-.24-.98-.46c-.14-.09-.34-.03-.42.11-.09.15-.03.33.11.42h0Z"/>
        <path class="cls-9" d="M160.94,398.85c.06,0,.16-.02.25-.03s.18-.01.27-.02c.2,0,.4,0,.6.01s.32.03.52.07c.21.04.42.06.64.07.3,0,.4-.41.15-.56-.2-.12-.39-.19-.61-.23s-.46-.07-.69-.09c-.44-.03-.88,0-1.32.06-.19.03-.31.28-.26.46.07.21.25.29.46.26h0Z"/>
        <path class="cls-9" d="M348.33,371.28c-1.97,1.45-3.9,2.98-5.45,4.89s-2.53,4.26-4.07,6.23c-.12.15.06.34.21.21.89-.75,1.47-1.81,2.02-2.81.61-1.1,1.22-2.19,2.01-3.18,1.54-1.94,3.49-3.53,5.45-5.04.17-.13,0-.43-.17-.29h0Z"/>
        <path class="cls-9" d="M353.99,379.76c-2.32,1.14-4.47,2.57-6.43,4.24s-3.44,3.83-5.72,4.91c-.3.14-.04.59.26.45,2.21-1.04,3.72-3.12,5.5-4.71,2-1.77,4.23-3.28,6.59-4.54.23-.12.03-.47-.21-.35h0Z"/>
        <path class="cls-9" d="M339.5,391.02c-4.15.63-7.09,4.37-9.08,7.77-.16.28.24.49.42.25,1.24-1.65,2.37-3.41,3.87-4.84,1.38-1.32,3.02-2.35,4.9-2.78.27-.06.15-.44-.11-.4h0Z"/>
        <path class="cls-9" d="M349.69,395.01c-1.57.5-3.15,1.01-4.62,1.76-1.38.71-2.79,1.68-3.59,3.05-.11.19.17.43.32.25,1-1.23,2.13-2.21,3.53-2.96s2.93-1.28,4.44-1.78c.2-.07.11-.38-.09-.31h0Z"/>
        <path class="cls-9" d="M349.71,356.8c.25.14.5.28.75.41.13.07.26.15.4.2s.26.1.4.13.24-.13.14-.24c-.11-.11-.22-.2-.34-.29-.11-.08-.24-.15-.36-.22-.25-.14-.5-.28-.74-.42-.11-.06-.27-.03-.34.09s-.03.27.09.34h0Z"/>
        <path class="cls-9" d="M340.38,367.76c.43.22.85.45,1.28.67.12.06.28.03.35-.09s.03-.28-.09-.35c-.42-.23-.84-.46-1.26-.7-.12-.07-.3-.03-.37.1s-.04.3.1.37h0Z"/>
        <path class="cls-9" d="M354.46,368.15c.14.32.32.63.53.91.11.15.23.3.37.42s.28.24.45.33c.08.04.18.03.23-.05.06-.08.04-.16-.01-.23-.05-.07-.09-.14-.15-.2s-.11-.12-.16-.19c-.09-.12-.2-.24-.29-.37-.1-.13-.18-.27-.26-.42-.04-.07-.08-.15-.11-.22-.02-.04-.04-.07-.05-.11,0-.02-.01-.03-.02-.05.02.04-.01-.04-.01-.04-.06-.15-.21-.25-.37-.18s-.2.24-.13.39h0Z"/>
        <path class="cls-9" d="M374.68,367.92c.08-.12.06-.27-.02-.38-.03-.04-.07-.08-.12-.11-.03-.02-.11-.05-.05-.02-.03-.01-.05-.03-.09-.04-.03-.01-.07,0-.11-.02h.05c-.05,0-.11,0-.16,0-.09.02-.15.08-.21.15-.08.11-.11.24-.12.37,0,.1,0,.21,0,.31,0,.13,0,.25,0,.38,0,.12.02.23.03.35.01.14.04.27.08.4.06.2.36.21.42,0,.02-.07.04-.15.06-.22.02-.09.02-.19.03-.28,0-.15.02-.29.02-.44s0-.29,0-.43c0-.02,0-.07,0-.09,0,.04,0,.05,0,.02v-.02s.01-.03,0,.01c-.03.03-.03.04,0,.01.04-.06.07-.09.09-.16l-.07.13s-.04.03-.07.04c-.13-.03-.17-.03-.12,0-.06-.04-.1-.14-.05-.21-.07.11-.03.28.09.34.13.07.26.03.34-.09h0Z"/>
        <path class="cls-9" d="M365.49,377.5c0,.43-.01.88.09,1.3.04.17.31.17.35,0,.1-.42.08-.87.09-1.3,0-.14-.12-.27-.27-.27s-.27.12-.27.27h0Z"/>
        <path class="cls-9" d="M376.01,379.55c.04.24.08.48.12.72.02.12.04.24.08.36.04.12.09.24.15.35.06.12.29.1.31-.04.02-.13.04-.25.04-.38,0-.14-.02-.28-.04-.42-.03-.25-.07-.5-.1-.74-.02-.15-.22-.24-.35-.2-.16.05-.23.19-.2.35h0Z"/>
        <path class="cls-9" d="M361.88,390.74c-.02.55.14,1.1.46,1.55.07.1.21.16.33.09s.15-.21.09-.33c-.03-.06-.06-.12-.09-.18,0,0-.03-.07-.01-.03-.01-.03-.02-.06-.04-.09-.04-.11-.07-.23-.1-.34-.01-.06-.02-.12-.03-.18-.01-.08,0,.06,0-.02,0-.03,0-.07,0-.1,0-.12,0-.25,0-.37.01-.16-.15-.31-.3-.3-.17,0-.29.13-.3.3h0Z"/>
        <path class="cls-9" d="M371.76,390.53c.31.66.57,1.37,1.04,1.93.05.06.15.06.21.03.07-.04.09-.12.08-.19-.06-.37-.19-.73-.34-1.07s-.3-.67-.45-1.01c-.07-.15-.29-.19-.42-.11-.15.1-.18.26-.11.42h0Z"/>
      </g>
      <g>
        <path class="cls-14" d="M226.07,410.21c-.1,2.27.3,4.6.59,6.85.48,3.7,1.02,7.39,1.59,11.08,1.23,7.98,2.56,15.95,4.12,23.87.31,1.59.64,3.17,1,4.75.14.6.26,1.21.44,1.79.13.43.34.84.48,1.26.09.27.52.16.43-.12-.11-.35-.15-.77-.22-1.13-.11-.51-.23-1.01-.35-1.51-.31-1.34-.6-2.69-.87-4.03-.74-3.65-1.4-7.31-2.05-10.97-1.39-7.92-2.69-15.85-3.79-23.82-.37-2.67-.71-5.35-1.02-8.03-.03-.23-.36-.24-.37,0h0Z"/>
        <path class="cls-14" d="M234.09,460.48c7.63-1.8,15.38-3.03,23.15-4.05s15.31-1.97,22.99-2.63c7.71-.66,15.47-.7,23.05,1.01,3.75.84,7.43,1.97,11.18,2.82,3.5.79,7.04,1.43,10.59,1.99,7.94,1.25,16.01,2.05,24.05,1.77.47-.02.47-.74,0-.73-7.29.17-14.59-.44-21.8-1.49-3.56-.52-7.1-1.15-10.62-1.87-3.73-.77-7.39-1.81-11.08-2.72s-7.46-1.56-11.28-1.8-7.77-.15-11.65.12c-7.69.54-15.36,1.55-23.01,2.52-8.64,1.1-17.26,2.43-25.73,4.46-.4.09-.23.7.17.61h0Z"/>
        <path class="cls-14" d="M166.78,481.8c6.77.19,13.47-.57,20.06-2.11,5.81-1.36,11.5-3.17,17.34-4.36,7.35-1.5,14.81-1.87,22.29-1.37,8.53.56,17.03,1.81,25.52,2.83,8.55,1.02,17.11,2.04,25.66,3.05,1.07.13,2.15.25,3.22.38.48.06.47-.69,0-.75-8.55-1.05-17.11-2.07-25.66-3.1-8.51-1.02-17.01-2.19-25.55-2.93-7.67-.66-15.35-.62-22.95.7-5.94,1.03-11.71,2.8-17.54,4.31-6.38,1.65-12.85,2.74-19.46,2.82-.98.01-1.96,0-2.94-.02-.36,0-.36.55,0,.56h0Z"/>
        <path class="cls-14" d="M281.14,479.56c2.46-3.68,4.08-7.86,4.71-12.25.34-2.35.43-4.73.73-7.09.32-2.48.95-4.86,1.7-7.24.13-.42-.51-.59-.66-.18-.82,2.2-1.32,4.53-1.64,6.85s-.41,4.74-.7,7.09c-.56,4.47-2.14,8.77-4.6,12.54-.19.29.27.55.46.27h0Z"/>
        <path class="cls-14" d="M239.45,448.33c-.99.68-1.49,1.93-1.34,3.11s1.01,2.25,2.25,2.44c1.16.18,2.4-.25,3.08-1.24.76-1.1.38-2.57-.56-3.43-.52-.48-1.23-.81-1.95-.76-.41.03-.79.13-1.03.49-.2.31-.17.83.27.9.28.04.51-.26.29-.49.02.02.01.16.02.17s0-.01.02-.03c.02-.01.04-.05.06-.07.04-.04.15-.06.24-.08.18-.04.4-.03.57.02.42.1.78.34,1.07.67.28.31.48.74.51,1.13.02.24,0,.42-.08.64-.05.14-.16.34-.25.45-.49.62-1.35.89-2.08.8-.85-.11-1.49-.71-1.69-1.55-.23-.95.1-2.07.91-2.65.33-.23.02-.78-.32-.55h0Z"/>
        <path class="cls-14" d="M252.27,447.99c-1.12-.08-1.73,1.18-1.58,2.14.19,1.26,1.61,1.83,2.72,1.97.67.09,1.43.13,2.03-.23.5-.3.82-.83.91-1.4.22-1.35-.66-2.44-1.79-3.05-.57-.31-1.22-.59-1.89-.53-.32.03-.64.11-.88.34s-.36.58-.15.86c.11.15.29.19.44.06.11-.1-.13.15.09-.07-.06.06.14-.17.08-.09.06-.06.07-.08.1-.1.1-.07.28-.1.43-.1.38,0,.75.13,1.12.31.78.38,1.57,1.02,1.58,1.92,0,.35-.08.72-.34.98-.33.32-.85.32-1.29.3-.81-.04-1.87-.25-2.28-1.04-.28-.54-.06-1.61.71-1.59.44.01.43-.64,0-.67h0Z"/>
        <path class="cls-14" d="M265.62,445.5c-1.03.5-1.63,1.72-1.52,2.85.12,1.23,1,2.2,2.23,2.4s2.52-.29,3.08-1.42.32-2.7-.62-3.62c-.55-.55-1.3-.84-2.07-.91-.38-.03-.8-.02-1.17.09s-.7.34-.97.62c-.15.16,0,.43.22.38.27-.07.55-.11.82-.16s.52-.09.79-.09c.52,0,1.03.14,1.46.43.8.54,1.14,1.62.89,2.51-.5,1.76-3.36,1.84-3.84-.02-.23-.91.14-2.02,1.02-2.48.38-.2.05-.76-.34-.57h0Z"/>
        <path class="cls-14" d="M275.29,473.46c-.73.64-.94,1.71-.7,2.62.26,1,1.06,1.77,2.1,1.88s2.11-.52,2.64-1.41c.57-.96.37-2.13-.39-2.93-.4-.42-.94-.72-1.51-.84-.5-.1-1.53-.16-1.7.47-.03.13.02.31.15.37.14.06.26.1.41.07.1-.02.19-.06.29-.08.12-.02.39-.03.5-.01.37.05.71.21.97.41.62.48.9,1.19.6,1.9-.25.61-.97,1.1-1.62,1.17-.74.08-1.35-.33-1.64-1.02s-.22-1.59.36-2.14c.31-.3-.15-.75-.47-.47h0Z"/>
        <path class="cls-14" d="M265.89,470.87c-.81.64-1.39,1.61-1.5,2.64s.47,2.04,1.49,2.33,2.2-.18,2.7-1.11c.54-1,.33-2.29-.41-3.14-.41-.48-1.01-.8-1.61-.96-.32-.08-.65-.12-.98-.11-.18,0-.36.02-.53.07-.2.06-.32.14-.45.3-.09.12-.03.36.11.42.26.11.48.08.75.06.22-.02.45-.02.67.02.42.06.84.22,1.17.48.63.5.92,1.39.67,2.17-.23.72-.96,1.13-1.69,1.05s-1.17-.74-1.15-1.44c.03-.89.58-1.74,1.25-2.28.15-.12.13-.38,0-.51-.15-.15-.36-.12-.51,0h0Z"/>
        <path class="cls-14" d="M251.94,470.13c-.93.11-1.5.95-1.53,1.84-.04,1.08.78,1.89,1.77,2.18s2.31.15,3.12-.56c.46-.4.66-1.01.53-1.61s-.54-1.05-.96-1.44c-.51-.46-1.11-.97-1.82-1.04-.65-.06-1.26.34-1.31,1.02-.02.32.49.47.63.17.12-.26.46-.35.68-.31.42.08.8.44,1.11.71.48.43,1.19,1.21.54,1.8-.52.48-1.43.59-2.1.46s-1.24-.53-1.38-1.18c-.12-.57.12-1.36.79-1.51.3-.06.24-.58-.07-.54h0Z"/>
        <path class="cls-14" d="M282.79,405.81c11.44-.67,22.88-1.29,34.33-1.76,1.58-.06,3.15-.13,4.73-.18s3.26.05,4.79-.27c.22-.05.24-.43,0-.47-1.36-.19-2.8,0-4.17.04s-2.82.11-4.23.16c-2.86.11-5.73.24-8.59.37-5.72.26-11.45.57-17.17.92-3.23.2-6.47.42-9.7.65-.33.02-.34.54,0,.52h0Z"/>
        <path class="cls-14" d="M177.67,399.86c-1.4,3.81-.93,8.23,1.28,11.64.57.89,1.32,1.66,1.84,2.58.61,1.1.5,2.32.73,3.51.38,2.02,2.05,3.31,3.78,4.19.21.1.46-.18.26-.34-.74-.59-1.54-1.15-2.21-1.83-.84-.85-1.17-1.82-1.29-2.99-.09-.93-.17-1.84-.6-2.69-.46-.92-1.21-1.66-1.8-2.5-2.31-3.3-2.86-7.65-1.52-11.44.1-.29-.36-.42-.47-.13h0Z"/>
        <path class="cls-14" d="M186.52,422.14c.54.39,1.05.82,1.57,1.25s.99.84,1.53,1.19c.1.06.2-.08.12-.16-.47-.46-1.01-.84-1.53-1.25s-1.05-.8-1.54-1.24c-.13-.12-.3.09-.15.2h0Z"/>
        <path class="cls-14" d="M185.31,422.32c-5.87,1.69-10.86,5.67-13.87,10.98-.19.34.32.64.52.3,2.95-5.12,7.85-9.06,13.45-10.93.22-.07.13-.42-.1-.35h0Z"/>
        <path class="cls-14" d="M180.63,419.69c-7.34,1.23-14.18,5.1-19.04,10.74-.23.26.15.64.38.38,4.96-5.44,11.57-9.17,18.79-10.63.32-.07.18-.54-.13-.49h0Z"/>
        <path class="cls-14" d="M179.36,416.39c-5.89.86-11.61,3.08-16.46,6.54-.22.15-.15.5.14.51,3.12.09,6.56-.88,8.81-3.12.14-.14-.05-.4-.22-.28-2.58,1.82-5.38,3.01-8.6,2.85l.14.51c4.91-3.34,10.44-5.6,16.32-6.52.32-.05.18-.54-.13-.49h0Z"/>
        <path class="cls-14" d="M159.26,303.31c.21,7.53,1.89,14.83,3.91,22.06s4.39,14.55,5.81,22.02c.4,2.1.72,4.21.95,6.33s.24,4.26.4,6.4c.02.22.31.21.33,0,.21-1.85.08-3.78-.04-5.64s-.34-3.65-.62-5.47c-.58-3.7-1.42-7.35-2.39-10.96-1.96-7.35-4.4-14.58-6.05-22.01-.93-4.2-1.69-8.43-1.92-12.73-.01-.24-.38-.24-.37,0h0Z"/>
        <path class="cls-14" d="M142.83,271.63c2.79,7.78,6.18,15.31,10.17,22.54,1.13,2.05,2.24,4.18,3.62,6.08.18.24.55.04.41-.24-.93-1.82-2.06-3.55-3.06-5.33s-1.98-3.59-2.92-5.41c-1.88-3.64-3.6-7.36-5.22-11.12-.94-2.18-1.83-4.39-2.67-6.62-.07-.2-.39-.11-.32.09h0Z"/>
        <path class="cls-14" d="M139.01,287.04c2.63,3.23,5.47,6.27,8.51,9.11,1.51,1.41,3.06,2.76,4.66,4.06.76.62,1.53,1.22,2.31,1.82.82.62,1.68,1.41,2.62,1.84.22.1.46-.16.27-.35-.67-.69-1.57-1.2-2.34-1.78-.87-.65-1.72-1.31-2.56-1.99-1.61-1.29-3.17-2.63-4.69-4.03-3.04-2.79-5.88-5.78-8.53-8.94-.15-.18-.41.08-.26.26h0Z"/>
        <path class="cls-14" d="M155.46,306.52c-4.15-.64-8.3-1.27-12.44-1.93-.33-.05-.55.36-.24.56,3.46,2.16,7.3,4.06,11.28,5.01.37.09.51-.44.16-.57-3.87-1.35-7.61-2.83-11.13-4.97l-.24.56c4.16.61,8.31,1.24,12.46,1.87.35.05.5-.48.15-.53h0Z"/>
        <path class="cls-14" d="M157.5,313.89c-5.27,1.01-10.62,1.56-15.97,1.86-.25.01-.26.4,0,.4,5.43.07,10.81-.58,16.12-1.73.35-.07.2-.6-.15-.53h0Z"/>
        <path class="cls-14" d="M357.72,273.77c-5,7.05-8.47,15.07-10.77,23.37-2.48,8.97-3.61,18.25-4.23,27.52-.18,2.69-.32,5.38-.44,8.07s-.31,5.55-.27,8.32c0,.32.46.31.49,0,.22-2.4.24-4.82.35-7.22s.23-4.81.38-7.22c.3-4.81.72-9.62,1.38-14.4,1.2-8.71,3.19-17.32,6.53-25.47,1.84-4.49,4.13-8.8,6.89-12.79.13-.19-.18-.37-.31-.18h0Z"/>
        <path class="cls-14" d="M345.99,320.91c.22-2.56,1.35-4.88,2.62-7.07,1.17-2.02,2.42-4.02,3.76-5.92s2.88-3.78,4.68-5.33,3.95-2.71,6.13-3.72c2.4-1.12,4.91-2.1,7.01-3.74.22-.17-.06-.5-.29-.37-2.16,1.25-4.4,2.31-6.66,3.37s-4.35,2.15-6.22,3.7c-3.7,3.07-6.22,7.3-8.61,11.39-1.39,2.39-2.64,4.9-2.86,7.7-.02.28.41.28.43,0h0Z"/>
        <path class="cls-14" d="M382.11,303.68c-1.44-.1-2.75.51-3.94,1.26s-2.4,1.67-3.52,2.59c-2.28,1.88-4.36,4-6.03,6.44-.11.17.15.37.28.22,1.79-2.08,3.68-4.1,5.77-5.89,1.07-.91,2.19-1.76,3.35-2.55,1.23-.83,2.55-1.64,4.08-1.64.29,0,.28-.42,0-.44h0Z"/>
        <path class="cls-14" d="M383.01,328.89c-3.8,3.33-7.15,7.3-9.74,11.64-.14.24.21.44.37.21,2.89-4.15,6.1-7.98,9.71-11.51.22-.22-.11-.54-.34-.34h0Z"/>
        <path class="cls-14" d="M384.88,340.98c-2.15.1-3.85,1.35-5.48,2.63-1.76,1.38-3.46,2.84-5.08,4.37-3.24,3.06-6.21,6.42-8.87,10.01-1.52,2.05-2.97,4.17-4.1,6.46-.1.2.17.36.3.18,2.51-3.6,4.88-7.25,7.74-10.59s5.86-6.28,9.16-9.03c1.85-1.54,3.9-3.4,6.37-3.74.17-.02.13-.3-.04-.29h0Z"/>
        <path class="cls-14" d="M383.9,350c-3.42,1.26-6.66,2.94-9.65,5.04-1.46,1.02-2.86,2.14-4.18,3.33s-2.72,2.46-3.73,3.95c-.15.22.17.44.35.27,1.29-1.18,2.44-2.53,3.74-3.71s2.74-2.34,4.21-3.37c2.91-2.04,6.07-3.75,9.38-5.05.27-.11.16-.55-.12-.45h0Z"/>
        <path class="cls-14" d="M338.18,360.18c1.86-8.54,3.8-17.53,9.76-24.28,1.49-1.69,3.22-3.07,4.99-4.45.17-.14-.05-.37-.22-.29-3.58,1.69-6.37,5.16-8.37,8.48-2.32,3.85-3.79,8.13-4.89,12.47-.67,2.63-1.2,5.28-1.73,7.94-.06.3.4.43.47.13h0Z"/>
        <path class="cls-14" d="M340.3,352.14c2.11-3.11,4.57-5.98,7.34-8.53s5.83-4.7,9-6.75c.22-.14.03-.46-.2-.34-3.37,1.72-6.44,4.12-9.18,6.71s-5.21,5.54-7.3,8.71c-.14.22.2.41.34.2h0Z"/>
        <path class="cls-14" d="M336.86,361.56c-.49,2.38-.9,4.77-1.23,7.17-.16,1.15-.29,2.29-.4,3.44s-.36,2.45-.23,3.63c.02.19.3.26.36.05.28-1.1.25-2.31.37-3.43s.25-2.33.4-3.5c.3-2.43.68-4.85,1.13-7.25.05-.25-.33-.36-.38-.11h0Z"/>
        <path class="cls-14" d="M226.33,410.07c-.02-.32-.01-.65,0-.97.02-.3.03-.7.17-.95,0-.01.04-.06.01-.03,0-.01.02-.02.03-.03-.04.03-.03.03.02,0,.13-.03.25-.05.38-.05.32-.02.64-.02.95,0,.64.03,1.29.2,1.93.1.13-.02.13-.2.03-.27-.58-.4-1.42-.41-2.11-.42-.35,0-.7,0-1.05.04-.24.04-.5.12-.64.34-.2.32-.22.77-.23,1.14s0,.74.04,1.1c.03.27.46.29.44,0h0Z"/>
        <path class="cls-14" d="M124.26,367.41c3.15-1.14,6.45-1.74,9.79-1.83s6.63.49,9.91,1.23c.21.05.28-.24.09-.31-3.12-1.26-6.65-1.64-9.99-1.57s-6.77.75-9.95,1.93c-.34.13-.2.68.15.55h0Z"/>
        <path class="cls-14" d="M123.17,346.38c1.67-.45,3.43-.56,5.14-.3.8.12,1.58.32,2.34.6.37.14.79.27,1.13.48.72.45-.02.9-.45,1.15-1.39.83-3.08,1.14-4.67.83-1.14-.22-2.8-.87-3.75.13-.13.13.03.35.2.25,1.28-.73,2.61-.04,3.95.12s2.69-.06,3.91-.62c.53-.25,1.2-.57,1.51-1.09.28-.48.07-.92-.39-1.17-1.25-.68-2.7-1.06-4.11-1.24-1.65-.21-3.33-.09-4.94.34-.32.09-.18.58.14.5h0Z"/>
        <path class="cls-14" d="M122.82,322.08c1.05-.86,2.1-1.73,3.17-2.58.55-.44,1.1-.88,1.66-1.32.4-.32,1.02-.66,1.26-1.13.49-.96-.91-1.42-1.59-1.5-1.14-.13-2.32.25-3.28.84-.55.34-1.05.74-1.53,1.18-.45.41-1.07.89-1.31,1.46-.06.13.12.22.22.17.53-.25.95-.85,1.38-1.24.49-.45,1.01-.87,1.59-1.21s1.18-.57,1.82-.67c.61-.1,1.38-.11,1.94.18.31.16.52.42.28.75-.2.26-.53.47-.78.68-.55.47-1.1.95-1.66,1.42-1.1.95-2.22,1.88-3.34,2.82-.12.1.05.26.16.16h0Z"/>
        <path class="cls-14" d="M122.45,342.71c4.32-1.87,8.86-2.79,13.54-3.18.18-.02.18-.28,0-.28-4.72,0-9.46,1.19-13.78,3.05-.28.12-.04.54.24.42h0Z"/>
        <path class="cls-14" d="M125.1,370.3c1.83.26,3.65.52,5.49.76.27.03.33-.43.06-.47-1.8-.29-3.6-.55-5.41-.81-.34-.05-.49.47-.14.52h0Z"/>
        <path class="cls-14" d="M195.72,257.47c-.34,3.73-.29,7.48-.18,11.22s.25,7.44.36,11.15c.22,7.47.4,14.95.53,22.42.26,15.03.29,30.07.17,45.11-.07,8.47-.25,16.94-.35,25.42,0,.46.7.46.72,0,.3-7.55.39-15.12.5-22.67s.13-14.95.09-22.43c-.06-15.03-.33-30.07-.87-45.1-.15-4.22-.33-8.45-.51-12.67s-.3-8.3.04-12.45c.03-.33-.48-.32-.51,0h0Z"/>
        <path class="cls-14" d="M197.01,375.9c2.49,2.63,5.04,5.19,7.67,7.68s5.2,4.91,8.04,7.07c.29.22.66-.26.39-.51-2.63-2.43-5.39-4.71-8.02-7.14s-5.2-4.92-7.69-7.49c-.25-.25-.63.13-.39.39h0Z"/>
        <path class="cls-14" d="M223.48,379.27c-4.47,6.37-9,12.71-13.78,18.85-.36.47.3.99.65.5,4.54-6.35,9.12-12.68,13.54-19.11.17-.25-.24-.49-.41-.24h0Z"/>
        <path class="cls-14" d="M209.93,398.89c1.81,1.38,3.49,2.92,5.02,4.6.77.84,1.5,1.72,2.18,2.63.33.44.66.89.97,1.34.16.24.33.48.49.72.07.11.45.54.43.63-.08.34.28.64.59.46.29-.17.25-.66-.1-.74-.12-.03-.35-.54-.41-.65-.16-.24-.32-.48-.49-.72-.33-.48-.67-.95-1.03-1.41-.7-.92-1.45-1.81-2.23-2.67-1.57-1.71-3.3-3.27-5.15-4.68-.29-.22-.57.27-.29.49h0Z"/>
        <path class="cls-14" d="M308.47,259.85c.64,6.82,1.31,13.64,1.97,20.45s1.24,13.49,1.41,20.27c.34,13.45-.52,26.89-.45,40.34.02,3.8.11,7.61.32,11.4s.47,7.52,1.07,11.22c.07.45.84.35.8-.11-.32-3.34-.68-6.67-.89-10.01s-.31-6.7-.36-10.05c-.09-6.76.08-13.53.23-20.29s.29-13.45.16-20.18-.6-13.45-1.31-20.15c-.81-7.64-1.67-15.27-2.53-22.91-.03-.27-.46-.28-.43,0h0Z"/>
        <path class="cls-14" d="M313.01,363.32c-1.75,1.38-3.35,2.96-4.98,4.48s-3.27,3.04-4.9,4.57c-3.33,3.1-6.63,6.23-9.94,9.35-.35.33.18.86.53.53,3.31-3.12,6.62-6.24,9.91-9.37,1.61-1.54,3.23-3.08,4.84-4.62s3.19-3.13,4.92-4.53c.28-.22-.11-.6-.39-.39h0Z"/>
        <path class="cls-14" d="M285.99,378.7c2.06,2.14,4.16,4.24,6.29,6.31,1.04,1.01,2.07,2.01,3.11,3.02.53.52,1.07,1.03,1.6,1.55.49.47,1.02,1.16,1.65,1.44.28.13.56-.13.42-.42-.29-.59-.93-1.06-1.39-1.52-.53-.52-1.06-1.04-1.59-1.56-1.07-1.03-2.13-2.07-3.2-3.1-2.13-2.07-4.3-4.1-6.49-6.11-.26-.24-.64.13-.39.39h0Z"/>
        <path class="cls-14" d="M298.33,391.44c-2.2,3.97-4.26,8.12-5.73,12.41l.22-.22-.13.04c-.46.12-.48.77-.06.95s.9-.31.63-.71c0,0,.33-.72.34-.74.09-.22.17-.44.26-.65.2-.51.41-1.02.62-1.52.45-1.09.93-2.17,1.42-3.24.93-2.02,1.94-4.01,3.01-5.97.21-.38-.37-.71-.57-.34h0Z"/>
        <path class="cls-14" d="M298.56,253.26c-.62,12.37-1.73,24.73-3.44,37-.47,3.36-1.05,6.71-1.44,10.07-.02.21.32.25.37.05.67-3.05,1.1-6.15,1.54-9.23s.82-5.92,1.18-8.88c.74-6.16,1.33-12.34,1.76-18.54.24-3.49.4-6.98.53-10.47.01-.32-.47-.31-.49,0h0Z"/>
        <path class="cls-14" d="M293.32,303c-1.64,12.15-3.03,24.32-4.44,36.5s-2.86,24.27-4.64,36.36c-.92,6.26-2.04,12.47-3.17,18.69-.05.29.38.42.45.12,1.19-5.43,2.05-10.96,2.91-16.45.93-5.94,1.76-11.9,2.53-17.87,1.54-11.95,2.87-23.92,4.25-35.88.83-7.14,1.65-14.28,2.41-21.43.02-.17-.28-.21-.3-.04h0Z"/>
        <path class="cls-14" d="M202.57,256.21c.47,2.75.77,5.53,1.23,8.29s.92,5.5,1.4,8.24c.95,5.49,1.92,10.98,2.89,16.46,1.94,10.93,3.93,21.85,5.92,32.76,1.13,6.17,2.12,12.37,3.45,18.5.06.27.44.15.4-.11-.81-5.51-1.89-10.99-2.87-16.47s-1.95-10.97-2.92-16.46c-1.93-10.93-3.86-21.86-5.83-32.79-.55-3.07-1.11-6.13-1.67-9.2s-1.31-6.17-1.87-9.27c-.02-.08-.14-.05-.13.04h0Z"/>
        <path class="cls-14" d="M217.67,343.29c1.9,8.25,3.5,16.56,4.99,24.89s2.99,17,4.54,25.48c.43,2.36.86,4.72,1.31,7.08s.74,4.83,1.48,7.12c.06.18.37.16.35-.05-.15-2.07-.68-4.13-1.05-6.17s-.77-4.25-1.15-6.37c-.75-4.23-1.48-8.46-2.21-12.69-1.46-8.47-3.03-16.93-4.73-25.36-.94-4.7-1.95-9.39-3.04-14.06-.07-.31-.55-.18-.48.13h0Z"/>
      </g>
      <path class="cls-11" d="M215.28,217.98c2.84,6.48,1.23,14.04-1.36,20.62-2.58,6.59-6.12,12.92-7.17,19.92-.96,6.47.35,13.26,3.65,18.91,3.38,5.78,8.66,10.22,12.47,15.73,5.78,8.35,7.92,19.14,5.76,29.07-1.65,7.57-5.61,14.41-8.43,21.63-2.82,7.22-4.47,15.49-1.41,22.62-3.61-.54-5.79-4.29-7.85-7.31-5.53-8.1-7.06-16.39-6.69-26.19.22-5.84,4.03-16.5,3.77-22.33-.74-16.56-19.47-27.44-26.37-42.51-5.3-11.58-7.03-24.76-4.9-37.31.22-1.32,3.43-2.03,4.65-2.58,3.39-1.55,6.79-3.09,10.18-4.64,7.18-3.27,15.89-4.45,23.7-5.61Z"/>
      <path class="cls-2" d="M302.91,113.99c6.18,11.22,10.76,23.26,13.65,35.73,2.51,10.82,3.98,22.14,8.97,32.19,2.5,5.05,5.95,9.28,10.07,13.09,4.33,3.99,9.09,7.71,12.18,12.82s4.48,11.16,3.96,17.09-3.62,11.64-4.38,17.73c-1.36,10.96,3.51,23.23,12.83,29.47.32.21.72-.29.41-.53-8.35-6.61-13.4-16.71-12.62-27.48.44-6.13,3.48-11.62,4.32-17.66.74-5.31-.05-10.79-2.2-15.7-2.33-5.3-6.34-9.34-10.59-13.15s-8.63-7.81-11.68-12.91c-5.79-9.68-7.54-21.12-9.9-31.97-2.97-13.66-7.8-26.71-14.74-38.86-.1-.18-.37-.02-.27.16h0Z"/>
      <path class="cls-2" d="M174.52,254.61c1.09,6.32,3.28,12.41,6.47,17.97,1.6,2.79,3.46,5.43,5.55,7.89,2.24,2.64,4.8,4.96,7.23,7.42,4.83,4.9,8.37,10.77,10.08,17.46.85,3.31,1.24,6.72,1.14,10.13-.11,3.72-.78,7.4-1.18,11.09-.68,6.26-.59,14.44,4.91,18.69.21.17.49-.09.3-.3-4.6-5.06-5.17-11.62-4.47-18.15.4-3.78,1.1-7.53,1.22-11.33.09-3.06-.21-6.14-.87-9.14-1.33-5.99-4.1-11.65-8.07-16.33-2.3-2.71-5.01-5.04-7.48-7.59-2.3-2.38-4.37-4.97-6.21-7.73-4.06-6.11-6.83-13-8.15-20.21-.06-.31-.52-.18-.47.13h0Z"/>
      <path class="cls-2" d="M213.43,236.56c-4.98,8.87-7.97,19.46-6.28,29.65.84,5.11,3.03,9.71,5.85,14.01,2.97,4.52,6.48,8.68,9.2,13.36,3.15,5.41,5.27,11.65,3.93,17.94-.08.38.48.54.58.16,2.7-10.35-4.4-19.8-10.1-27.67-3.12-4.31-6.18-8.79-7.79-13.92s-1.81-10.71-.99-16.05c.93-6.07,3.11-11.86,5.91-17.31.1-.2-.19-.38-.31-.18h0Z"/>
      <path class="cls-2" d="M222.59,296.82c4.52,6.87,7,14.97,7.32,23.18.16,4.16-.25,8.34-1.27,12.38s-2.84,8.19-4.56,12.17-3.73,8.52-4.12,13.09c-.02.25.38.3.44.06.98-4.45,2.45-8.63,4.25-12.81,1.68-3.91,3.44-7.8,4.52-11.93,2.03-7.79,1.85-16.1-.38-23.83-1.28-4.44-3.3-8.66-5.88-12.49-.13-.2-.45-.01-.32.19h0Z"/>
      <path class="cls-2" d="M227.65,321.6c-1.67,14.54-10.96,27.93-8.31,42.97.62,3.51,1.94,6.92,4.24,9.67.18.22.57-.07.4-.31-11.4-16.43,2.29-35.22,3.87-52.34.01-.12-.18-.12-.19,0h0Z"/>
      <path class="cls-2" d="M205.3,329.33c-2.09,5.05-2.67,10.57-1.7,15.95s3.31,10.7,7.28,14.28c.23.21.53-.1.34-.34-3.41-4.24-5.98-8.7-7-14.11-.99-5.23-.57-10.74,1.46-15.67.1-.23-.28-.33-.38-.1h0Z"/>
      <path class="cls-5" d="M289.06,183.09c.99,7.6-.49,15.17-2.4,22.51-.98,3.76-2.07,7.48-3.04,11.23-.92,3.53-1.8,7.11-2.19,10.74-.37,3.41-.34,7.75,2.02,10.52.14.17.39-.05.29-.23-.8-1.54-1.46-3.04-1.74-4.76s-.24-3.49-.08-5.22c.35-3.65,1.25-7.26,2.16-10.8,1.86-7.24,4.2-14.39,5.21-21.82.55-4.05.65-8.15.07-12.21-.02-.17-.33-.13-.31.04h0Z"/>
      <path class="cls-5" d="M281.93,205.32c-1.63,3.91-3.05,7.89-4.18,11.97-.57,2.04-1.05,4.09-1.47,6.16-.32,1.58-.83,3.45.25,4.85.12.16.38.02.27-.16-.98-1.64-.23-3.88.13-5.6.41-1.95.88-3.89,1.4-5.82,1.03-3.85,2.28-7.65,3.78-11.35.04-.11-.13-.15-.17-.05h0Z"/>
      <path class="cls-5" d="M210.05,187.05c2.46,6.39,3.76,13.22,3.99,20.06.12,3.39-.04,6.8-.46,10.16s-1.25,6.58-1.96,9.86-1.41,7.33.37,10.41c.08.14.33.05.27-.12-.54-1.63-.89-3.25-.86-4.97s.3-3.33.65-4.97c.69-3.25,1.53-6.44,1.97-9.73.88-6.61.67-13.36-.61-19.91-.72-3.7-1.8-7.33-3.16-10.85-.05-.13-.26-.07-.21.06h0Z"/>
      <path class="cls-5" d="M220.42,206.91c-.48,3.75-.67,7.53-.47,11.3.1,1.81.28,3.61.55,5.4s.56,3.81,1.19,5.59c.09.25.44.15.4-.11-.28-1.8-.76-3.58-1.05-5.38-.3-1.9-.53-3.81-.66-5.73-.25-3.69-.19-7.39.26-11.06.02-.15-.21-.15-.23,0h0Z"/>
      <path class="cls-5" d="M178.6,223.95c-.8,6.55-1.33,13.2-.75,19.79.56,6.36,2.25,12.52,5.47,18.06,6.25,10.76,16.58,18.3,23.54,28.54,1.97,2.9,3.69,5.99,4.89,9.3s1.7,6.65,1.83,10.13c0,.2.28.19.3,0,.57-5.96-1.87-12.03-4.85-17.05-3.17-5.34-7.32-9.96-11.55-14.47s-8.59-9.02-12.07-14.19-5.85-11.36-6.8-17.75c-1.1-7.41-.62-14.96.28-22.36.02-.18-.27-.18-.29,0h0Z"/>
      <path class="cls-5" d="M213,314.55c2.06,10.33-2.67,20.44-2.05,30.78.15,2.57.58,5.27,1.74,7.59.08.15.33.05.27-.12-.75-2.39-1.33-4.75-1.49-7.26s-.02-4.85.25-7.26c.57-5.11,1.78-10.13,2.12-15.26.19-2.87.09-5.75-.51-8.57-.05-.22-.38-.13-.34.09h0Z"/>
      <path class="cls-5" d="M212.77,290.17c3.22,5.49,5.27,11.6,6.23,17.88s.64,12.87-.69,19.23c-.78,3.75-1.67,7.53-1.41,11.39.01.2.31.2.31,0-.03-3.61.74-7.15,1.47-10.67.67-3.19,1.2-6.39,1.35-9.65.29-6.34-.64-12.72-2.7-18.73-1.14-3.32-2.63-6.52-4.41-9.55-.06-.1-.22,0-.16.09h0Z"/>
      <path class="cls-5" d="M312.51,177.26c3,7.91,8.2,14.83,15.04,19.84,3.78,2.77,8.06,4.82,10.83,8.76,2.5,3.56,3.76,7.9,4.12,12.2.5,5.97-.62,11.88-1.58,17.74-.04.24.32.34.36.1,1.87-9.25,3.47-19.57-1.24-28.27-1-1.85-2.29-3.56-3.84-4.98-1.71-1.57-3.68-2.8-5.62-4.05-3.78-2.43-7.2-5.26-10.15-8.66-3.26-3.76-5.93-8.1-7.74-12.73-.04-.11-.22-.06-.18.05h0Z"/>
      <path class="cls-5" d="M341.24,242.22c-.79,4.28-1.36,8.62-1.48,12.98-.06,1.92.05,3.92.75,5.74.56,1.47,1.55,2.99,3.03,3.66.14.07.33-.12.19-.24-1.32-1.11-2.3-2.37-2.86-4.02-.62-1.84-.66-3.8-.62-5.72.09-4.13.49-8.27,1.23-12.34.03-.15-.21-.22-.24-.06h0Z"/>
      <path class="cls-5" d="M330,209.2c2.85,6.53.05,13.69-3.18,19.5s-7.1,11.23-7.97,17.86c-.43,3.25-.18,6.92,1.71,9.7.1.15.32.02.24-.14-1.34-2.98-1.85-6.07-1.45-9.32s1.61-6.43,3.11-9.38c3.03-5.96,7.23-11.45,8.59-18.13.7-3.42.61-7.01-.82-10.24-.07-.17-.32-.02-.24.14h0Z"/>
      <path class="cls-5" d="M284.84,103.73c8.08,6.02,13.71,15.1,15.74,24.95.58,2.81.8,5.63.94,8.49,0,.14.21.14.22,0,.34-5.06-.82-10.31-2.62-15.01-1.81-4.73-4.48-9.13-7.84-12.92-1.89-2.13-4.01-4.06-6.31-5.74-.14-.1-.26.13-.13.23h0Z"/>
      <path class="cls-5" d="M294.03,180.38c2.51,6.4,3.24,13.32,2.39,20.12-.02.15.24.19.27.04,1.1-6.81.19-13.85-2.39-20.23-.07-.16-.33-.09-.27.07h0Z"/>
      <path class="cls-5" d="M205.41,182.55c1.67,4.27,1.05,8.97-.27,13.25s-3.54,8.54-4.61,13.03c-.03.13.16.18.2.05,1.47-4.53,3.55-8.84,4.9-13.41,1.25-4.21,1.73-8.84.06-13-.07-.17-.35-.1-.28.08h0Z"/>
      <path class="cls-5" d="M199.75,214.95c-3.08,8.25-5.52,16.78-6.06,25.61-.49,7.83.57,15.77,3.66,23.02,1.69,3.95,3.97,7.65,6.95,10.76.13.13.32-.06.2-.2-4.97-5.81-8.14-12.86-9.53-20.36-1.53-8.21-.93-16.65.85-24.77,1.04-4.76,2.45-9.44,4.12-14.01.04-.12-.14-.17-.19-.05h0Z"/>
      <path class="cls-8" d="M208.88,179.34c-.92,1.31-1.84,2.95-.98,4.53.36.67,1.02,1.16,1.78,1.24s1.48-.33,1.91-.94c.23-.33.39-.75.42-1.15s-.04-.96-.43-1.19c-.22-.13-.5-.05-.63.16-.12.19-.11.38-.13.6.01-.1-.03.12-.04.14-.02.06-.03.12-.05.18-.02.08-.05.16-.08.24.05-.12-.06.1-.07.12-.01.02-.16.22-.07.11-.04.05-.08.09-.12.14-.02.02-.2.18-.09.09-.06.05-.13.08-.2.12q-.07.03,0,0s-.07.02-.11.03c-.14.05.08.01-.06.01-.03,0-.28-.02-.13,0-.08-.01-.16-.04-.24-.07.13.05-.09-.06-.11-.07-.06-.04-.07-.05-.01,0-.02-.02-.05-.04-.07-.06-.05-.05-.1-.1-.15-.16-.05-.06-.05-.06-.01-.01-.03-.03-.05-.07-.07-.11-.05-.07-.09-.15-.13-.22-.02-.04-.04-.08-.06-.12.02.05.02.05,0,0-.13-.35-.16-.52-.11-.91.1-.79.56-1.51.97-2.18.15-.25.05-.59-.19-.73-.27-.16-.56-.05-.73.19h0Z"/>
      <path class="cls-8" d="M290.94,177.98c.4.66.85,1.37.96,2.14.03.19.03.4,0,.59.02-.12-.03.13-.04.15-.02.06-.04.13-.06.19-.03.07-.03.08,0,.02-.02.04-.04.08-.06.12-.04.08-.08.15-.13.22-.02.04-.05.07-.07.11.04-.05.04-.05-.01.01-.05.05-.1.11-.15.16-.02.02-.05.04-.07.06.05-.04.05-.04-.01,0-.02.01-.24.12-.11.07-.08.03-.16.05-.24.07.14-.03-.07,0-.1,0-.03,0-.06,0-.09,0,.08.01.08,0,0,0-.04,0-.08-.02-.11-.03q.07.03,0,0c-.07-.04-.14-.08-.2-.12.12.08-.04-.05-.06-.07-.18-.18-.27-.34-.35-.6-.02-.07-.04-.14-.06-.21,0-.02-.05-.24-.04-.14-.02-.21-.02-.41-.13-.6-.13-.21-.41-.29-.63-.16-.37.22-.43.68-.43,1.07,0,.37.13.74.3,1.07.35.67,1.03,1.12,1.78,1.16s1.46-.42,1.89-1.03.55-1.45.42-2.2c-.16-.95-.73-1.78-1.27-2.55-.16-.24-.47-.35-.73-.19-.25.14-.34.48-.19.73h0Z"/>
      <rect class="cls-6" x="81.52" y="19.27" width="360.02" height="481.83"/>
    </g>
  </g>
</svg>