<svg version="1.1" id="Layer_1" xmlns="http://www.w3.org/2000/svg" xmlns:xlink="http://www.w3.org/1999/xlink" x="0px" y="0px"
	 width="100%" viewBox="0 0 980 980" enable-background="new 0 0 980 980" xml:space="preserve">
<path fill="#FFFFFF" opacity="1.000000" stroke="none" 
	d="
M519.000000,981.000000 
	C346.000000,981.000000 173.500000,981.000000 1.000000,981.000000 
	C1.000000,654.333313 1.000000,327.666656 1.000000,1.000000 
	C327.666656,1.000000 654.333313,1.000000 981.000000,1.000000 
	C981.000000,327.666656 981.000000,654.333313 981.000000,981.000000 
	C827.166687,981.000000 673.333313,981.000000 519.000000,981.000000 
M305.020660,208.998062 
	C305.020660,208.998062 305.070648,209.091171 304.296844,209.035049 
	C300.306030,209.163269 293.656860,214.312454 292.277313,218.309891 
	C292.277313,218.309891 292.228516,218.365189 291.451996,218.176239 
	C290.258850,218.554733 288.787140,218.610275 287.915710,219.361816 
	C279.438049,226.673050 270.854523,233.881790 262.710815,241.554550 
	C253.902847,249.853073 245.327332,258.424316 237.066223,267.265106 
	C233.483871,271.098846 229.239609,274.899353 228.925247,280.924408 
	C228.925247,280.924408 228.840866,280.909332 228.118362,280.948944 
	C223.799622,281.852325 223.714539,285.568512 222.891907,288.903290 
	C222.891907,288.903290 222.789337,288.898712 222.077576,288.932434 
	C220.538635,290.048615 218.610733,290.875732 217.528839,292.331573 
	C213.105606,298.283661 208.488449,304.175781 204.897278,310.621826 
	C203.404190,313.301819 199.102432,316.017365 202.019547,320.907318 
	C199.059296,326.922150 196.099060,332.936951 192.515869,339.287994 
	C191.807251,340.413483 190.982773,341.482849 190.406998,342.672607 
	C176.120987,372.192291 166.182785,403.101654 160.861969,435.475189 
	C156.060577,464.688507 155.101196,494.007965 157.903702,523.505432 
	C160.863937,554.663086 167.992569,584.811707 179.381470,613.901245 
	C183.301682,623.914307 188.511398,633.422546 193.097305,643.889709 
	C195.684387,649.070374 198.032501,654.387268 200.895264,659.410828 
	C232.033920,714.052490 274.945526,757.048645 329.623688,788.040161 
	C385.554840,819.741882 445.836487,834.258667 510.118927,832.288879 
	C564.696777,830.616394 616.593933,818.574097 664.835571,792.456726 
	C685.983276,781.007507 705.666443,767.423096 723.666687,750.528931 
	C725.957825,748.347717 728.286499,746.204346 730.534302,743.979309 
	C751.854797,722.874023 770.041016,699.416199 784.431885,672.326355 
	C785.309998,670.722168 786.224792,669.136841 787.060913,667.511047 
	C817.310547,608.694153 827.981018,545.845154 825.382935,480.322449 
	C825.008484,470.879974 823.715942,461.473938 822.933472,451.377960 
	C822.869080,450.932190 822.804688,450.486450 822.853943,449.176849 
	C822.213379,444.226410 821.247070,439.290253 821.029663,434.321289 
	C820.836731,429.911865 819.014099,428.970886 814.828857,428.975586 
	C710.867554,429.092041 606.906067,429.062042 502.944641,429.058105 
	C501.325623,429.058044 499.706635,429.058105 497.591827,429.058105 
	C497.591827,431.199860 497.591949,432.828552 497.591827,434.457275 
	C497.589142,473.942657 497.586090,513.428040 497.584534,552.913391 
	C497.584442,554.746033 497.231171,556.690613 497.744171,558.368530 
	C498.043701,559.348206 499.737854,559.901428 501.537628,560.757019 
	C503.017548,560.732422 504.497467,560.707825 506.773224,560.877197 
	C507.856812,560.812561 508.940399,560.747925 510.942596,560.857300 
	C528.774597,560.874878 546.606567,560.904114 564.438599,560.907654 
	C601.936523,560.915039 639.434448,560.880737 676.932007,560.999023 
	C678.649719,561.004456 680.363281,562.333069 681.629150,563.632874 
	C678.773376,573.430969 675.917664,583.229126 672.649780,593.428955 
	C672.470093,593.963684 672.290405,594.498352 671.634460,595.526672 
	C664.205627,612.842224 653.444397,627.968262 641.001343,642.020569 
	C641.001343,642.020569 641.042786,642.082581 640.443359,642.359009 
	C635.238220,647.215942 630.033081,652.072815 624.195496,657.141663 
	C621.416443,659.302002 618.637451,661.462341 615.183167,663.849304 
	C610.041443,666.915039 604.991455,670.148621 599.742432,673.018127 
	C573.887329,687.152405 546.034119,694.120911 516.783508,696.411560 
	C482.935333,699.062256 450.387909,694.267639 419.246918,680.557068 
	C386.367188,666.080872 359.363861,644.148804 337.724243,615.628113 
	C325.189514,599.107544 315.095184,581.169495 308.799103,560.549866 
	C309.016785,558.450623 309.881409,556.162231 309.333008,554.287048 
	C307.560028,548.224243 304.665253,542.446289 303.311432,536.313843 
	C301.071930,526.169250 298.809235,515.891602 298.138611,505.567139 
	C296.653961,482.710632 298.872406,460.035431 304.274567,437.737122 
	C304.805389,435.546234 306.184418,433.565094 307.133606,431.470245 
	C308.315643,428.861450 309.997681,426.335388 310.506134,423.595856 
	C311.488861,418.300934 311.868927,412.980530 315.655609,408.589355 
	C317.046570,406.976379 317.500244,404.580048 318.501709,402.601868 
	C322.442719,394.817017 325.380585,386.187927 330.807098,379.621002 
	C333.931641,375.839844 335.854187,372.360413 337.001221,367.997833 
	C337.001221,367.997833 336.965576,367.970520 337.707428,367.976685 
	C341.674133,363.871307 345.820038,359.919128 349.523163,355.588379 
	C351.098969,353.745453 351.748199,351.110199 352.997833,348.976654 
	C352.997833,348.976654 352.830261,348.820648 353.613892,348.908630 
	C358.652191,349.531616 359.353577,344.567535 362.136566,342.286682 
	C370.472290,335.454742 378.686829,328.468231 387.180481,321.839050 
	C390.381989,319.340302 394.226349,317.668396 397.764282,315.596710 
	C402.710663,312.700378 407.628998,309.755798 412.590576,306.885864 
	C414.954956,305.518280 417.296021,304.040070 419.812988,303.019714 
	C427.658813,299.839050 435.571350,296.820770 443.490875,293.826508 
	C444.677917,293.377716 446.044891,293.416656 447.322021,293.192291 
	C450.594330,292.617401 453.877014,292.087738 457.125122,291.396973 
	C458.234589,291.160980 459.221252,290.195435 460.318695,290.079102 
	C470.822876,288.965668 481.339630,287.971924 491.850922,286.924835 
	C497.559418,286.356171 503.264252,285.750854 509.710052,285.087463 
	C510.448639,285.149628 511.187225,285.211823 512.198059,285.997955 
	C516.884094,286.651886 521.781311,286.656921 526.210754,288.098999 
	C534.618103,290.836243 544.230408,288.793335 551.809998,294.674316 
	C552.368408,295.107635 553.464478,294.770508 554.243103,295.010345 
	C559.236450,296.548370 564.623108,297.428925 569.051819,299.969879 
	C572.195618,301.773621 574.757935,302.860382 578.575989,301.968018 
	C578.575989,301.968018 578.932556,302.208374 578.974915,302.905670 
	C579.665466,303.753265 580.191345,304.876312 581.073364,305.403412 
	C586.514160,308.654724 592.063538,311.724060 597.513733,314.960022 
	C599.342163,316.045624 600.815063,317.918243 602.744873,318.611694 
	C610.108093,321.257660 614.800781,327.120605 620.315613,332.111328 
	C622.854004,334.408447 625.352844,336.968384 630.437500,335.787537 
	C636.980103,334.268127 638.772522,328.316925 643.524109,325.252655 
	C650.032349,321.055511 652.935242,312.803528 660.270569,308.796967 
	C663.822083,306.857086 666.293030,302.879333 669.092041,299.683105 
	C669.528381,299.184937 669.101440,297.930786 669.688904,296.701660 
	C676.517456,293.394531 682.032593,288.872589 684.059937,281.059509 
	C684.059937,281.059509 684.143921,281.077271 684.855652,280.987244 
	C690.933777,279.756927 693.803467,274.468445 697.723389,270.583252 
	C698.889587,269.427399 699.077576,267.284637 699.866089,265.275665 
	C699.866089,265.275665 700.127197,265.038177 700.574585,264.880981 
	C700.853271,264.684509 701.003235,264.416107 701.380432,263.612549 
	C701.947815,263.088470 702.515198,262.564392 703.869812,262.036835 
	C711.244080,262.905609 710.941528,253.845428 716.466003,252.263229 
	C717.155457,252.065750 718.137573,251.232010 718.142944,250.684784 
	C718.151489,249.819580 717.448303,248.947342 717.295593,247.645676 
	C717.503357,247.375229 717.764343,247.173615 718.840576,247.040497 
	C721.757263,245.136581 726.109741,243.833344 727.222107,241.174561 
	C728.569885,237.953308 726.177002,234.478195 722.651611,231.997375 
	C718.038391,228.751114 714.497253,223.931976 709.782349,220.896332 
	C706.378601,218.704926 703.975220,213.857697 698.282227,215.051071 
	C698.033875,214.887253 697.823059,214.684387 697.761658,213.674393 
	C695.106201,208.266586 690.090515,206.550201 684.675659,205.298462 
	C684.675659,205.298462 684.598389,205.260025 684.911316,204.778702 
	C683.473328,203.967285 682.035278,203.155869 680.254150,202.272217 
	C680.254150,202.272217 679.958801,202.083115 679.722656,201.567932 
	C679.378723,201.459473 679.034851,201.351013 678.332947,201.133118 
	C678.332947,201.133118 678.036499,200.904465 677.917480,200.219482 
	C676.513672,199.557800 675.109802,198.896118 673.341980,198.115173 
	C673.341980,198.115173 673.059326,197.856567 673.017090,197.134583 
	C666.847351,190.850739 659.751831,186.284866 650.407410,185.059250 
	C650.407410,185.059250 650.053894,184.858536 649.953979,184.171875 
	C648.728699,180.338684 646.141602,179.816422 642.369019,181.126007 
	C642.369019,181.126007 642.021667,180.917206 641.980835,180.178146 
	C637.287659,177.309189 632.880676,173.703629 627.834595,171.742813 
	C620.136719,168.751556 611.940613,167.071075 604.061218,164.510376 
	C596.634460,162.096786 589.349182,159.249451 581.984863,156.640121 
	C581.242676,156.377151 580.383728,156.450317 579.581116,156.350143 
	C574.220337,155.681030 568.828369,155.194717 563.506653,154.293671 
	C554.039734,152.690811 544.672607,150.348099 535.156250,149.230713 
	C526.532532,148.218155 517.765015,148.143829 509.061462,148.153976 
	C489.416779,148.176880 469.699219,146.900864 450.244141,151.080017 
	C443.802521,152.463730 437.299683,153.592834 430.790680,154.622620 
	C425.883972,155.398911 420.919159,155.802673 415.988434,156.436203 
	C414.681213,156.604141 413.362549,156.888489 412.120239,157.322876 
	C403.851501,160.214218 395.621277,163.216461 387.340607,166.072784 
	C380.023438,168.596786 372.459595,170.514328 365.360779,173.536240 
	C355.797394,177.607361 346.580505,182.491074 337.202789,187.000854 
	C335.416718,187.859772 333.436188,188.384476 331.782806,189.436523 
	C325.805176,193.239990 319.869934,197.118179 314.059967,201.170670 
	C312.773041,202.068298 312.063751,203.794067 310.807434,205.383255 
	C310.807434,205.383255 310.460266,205.518738 309.872925,205.132645 
	C306.194214,203.924896 305.645874,206.510727 305.020660,208.998062 
z"/>
<path fill="#EF5143" opacity="1.000000" stroke="none" 
	d="
M511.925812,285.273987 
	C511.187225,285.211823 510.448639,285.149628 508.998901,284.910706 
	C498.002594,285.008698 487.651245,284.633942 477.444244,285.674805 
	C440.510803,289.441071 407.265442,302.973419 377.926605,325.591888 
	C368.935608,332.523407 361.161591,341.033478 352.830261,348.820648 
	C352.830261,348.820648 352.997833,348.976654 352.592163,349.002563 
	C347.112854,355.342468 342.039215,361.656494 336.965576,367.970520 
	C336.965576,367.970520 337.001221,367.997833 336.673218,368.093750 
	C329.234894,380.111969 321.825165,391.869293 315.130737,404.020660 
	C311.329926,410.919647 308.700348,418.463898 305.238647,425.473022 
	C296.218903,418.322845 287.561554,411.342834 278.777435,404.526184 
	C257.155121,387.746918 235.497940,371.012299 213.803619,354.326202 
	C206.999100,349.092529 200.031677,344.070618 193.138824,338.951752 
	C196.099060,332.936951 199.059296,326.922150 202.431931,320.434845 
	C203.900284,318.300690 204.948807,316.634247 206.013489,314.978149 
	C211.603180,306.283539 217.196991,297.591614 222.789337,288.898712 
	C222.789337,288.898712 222.891907,288.903290 223.212952,288.761230 
	C225.302963,286.049255 227.071915,283.479309 228.840881,280.909332 
	C228.840866,280.909332 228.925247,280.924408 229.225403,280.776672 
	C242.869568,266.334595 255.957764,251.788651 269.664581,237.851105 
	C276.609650,230.789108 284.671539,224.825424 292.228516,218.365189 
	C292.228516,218.365189 292.277313,218.309891 292.647217,218.248306 
	C297.034943,215.154877 301.052795,212.123032 305.070648,209.091187 
	C305.070648,209.091171 305.020660,208.998062 305.389709,209.006332 
	C307.325897,207.849319 308.893066,206.684021 310.460266,205.518738 
	C310.460266,205.518738 310.807434,205.383255 311.302643,205.226669 
	C313.793152,203.871857 315.806671,202.702820 317.780945,201.470901 
	C342.481049,186.058868 368.721649,173.904282 396.502655,165.296524 
	C437.799530,152.500916 480.100616,147.758026 523.260193,150.620422 
	C554.864197,152.716446 585.547058,159.072159 615.191956,170.255234 
	C624.194702,173.651398 633.081665,177.354614 642.021667,180.917206 
	C642.021667,180.917206 642.369019,181.126007 642.765381,181.446869 
	C645.459106,182.798004 647.756531,183.828278 650.053894,184.858536 
	C650.053894,184.858536 650.407410,185.059250 650.782166,185.400101 
	C658.457703,189.779495 665.758545,193.818024 673.059326,197.856567 
	C673.059326,197.856567 673.341980,198.115173 673.677612,198.463287 
	C675.354309,199.509079 676.695374,200.206772 678.036499,200.904449 
	C678.036499,200.904465 678.332947,201.133118 678.641541,201.433136 
	C679.286377,201.849823 679.622559,201.966461 679.958801,202.083115 
	C679.958801,202.083115 680.254150,202.272217 680.549683,202.608566 
	C682.096313,203.716614 683.347351,204.488312 684.598389,205.260025 
	C684.598389,205.260025 684.675659,205.298462 684.855286,205.613037 
	C689.239868,208.765884 693.444885,211.604172 697.649841,214.442474 
	C697.823059,214.684387 698.033875,214.887253 698.612366,215.457825 
	C707.854187,223.378860 716.765930,230.893158 725.679871,238.409363 
	C722.627502,241.875366 720.353027,244.458099 718.078491,247.040833 
	C717.764343,247.173615 717.503357,247.375229 716.849731,247.957672 
	C711.963501,252.859894 707.523071,257.450134 703.082642,262.040314 
	C702.515198,262.564392 701.947815,263.088470 700.955322,263.893188 
	C700.395874,264.461914 700.261536,264.750031 700.127197,265.038177 
	C700.127197,265.038177 699.866089,265.275665 699.457336,265.545532 
	C697.288025,267.479309 695.527405,269.143219 693.771362,270.753357 
	C693.775940,270.699585 693.801208,270.777313 693.526978,271.044678 
	C690.216431,274.567139 687.180176,277.822205 684.143921,281.077271 
	C684.143921,281.077271 684.059937,281.059509 683.741516,281.152161 
	C678.275024,286.496429 673.126892,291.748016 667.709106,297.192719 
	C654.599243,310.019470 641.758972,322.653137 629.217834,334.992493 
	C620.242798,328.179016 612.097961,321.300659 603.251709,315.490295 
	C595.557007,310.436218 587.069641,306.588928 578.932556,302.208374 
	C578.932556,302.208374 578.575989,301.968018 578.162842,301.646118 
	C569.379822,298.135071 561.161194,294.441986 552.605042,291.873413 
	C539.383911,287.904480 525.902344,284.890594 511.925812,285.273987 
z"/>
<path fill="#31B162" opacity="1.000000" stroke="none" 
	d="
M308.553894,561.374390 
	C315.095184,581.169495 325.189514,599.107544 337.724243,615.628113 
	C359.363861,644.148804 386.367188,666.080872 419.246918,680.557068 
	C450.387909,694.267639 482.935333,699.062256 516.783508,696.411560 
	C546.034119,694.120911 573.887329,687.152405 599.742432,673.018127 
	C604.991455,670.148621 610.041443,666.915039 615.578613,664.109436 
	C617.219360,665.860962 618.250122,667.625549 619.744873,668.799194 
	C629.315369,676.314636 639.006470,683.676025 648.619690,691.137268 
	C654.704956,695.860291 660.699524,700.700012 666.779114,705.430359 
	C674.689331,711.585205 682.612122,717.724854 690.587219,723.795227 
	C699.477844,730.562378 708.513977,737.141541 717.305298,744.033997 
	C719.578186,745.815979 721.171814,748.464417 723.077393,750.714844 
	C705.666443,767.423096 685.983276,781.007507 664.835571,792.456726 
	C616.593933,818.574097 564.696777,830.616394 510.118927,832.288879 
	C445.836487,834.258667 385.554840,819.741882 329.623688,788.040161 
	C274.945526,757.048645 232.033920,714.052490 200.895264,659.410828 
	C198.032501,654.387268 195.684387,649.070374 193.463959,643.481079 
	C199.574783,638.843506 205.405869,634.727051 211.048080,630.366211 
	C235.753220,611.271667 260.426544,592.135742 285.059052,572.947510 
	C291.845490,567.661072 298.450806,562.142090 305.450317,556.842529 
	C306.692230,558.428223 307.623047,559.901306 308.553894,561.374390 
z"/>
<path fill="#4D7DBE" opacity="1.000000" stroke="none" 
	d="
M723.372070,750.621887 
	C721.171814,748.464417 719.578186,745.815979 717.305298,744.033997 
	C708.513977,737.141541 699.477844,730.562378 690.587219,723.795227 
	C682.612122,717.724854 674.689331,711.585205 666.779114,705.430359 
	C660.699524,700.700012 654.704956,695.860291 648.619690,691.137268 
	C639.006470,683.676025 629.315369,676.314636 619.744873,668.799194 
	C618.250122,667.625549 617.219360,665.860962 615.916260,663.996094 
	C618.637451,661.462341 621.416443,659.302002 624.926208,657.060303 
	C627.222534,656.223389 628.974243,655.706421 630.313965,654.661255 
	C632.874268,652.664185 634.927185,649.877197 637.699707,648.330750 
	C640.478577,646.780823 641.368713,644.939819 641.042786,642.082581 
	C641.042786,642.082581 641.001343,642.020569 641.402588,642.014404 
	C643.040405,641.279602 644.688477,640.844360 645.449890,639.776794 
	C653.247925,628.842896 661.141296,617.961548 668.447571,606.701904 
	C670.585510,603.407227 670.939209,598.954834 672.110718,595.033081 
	C672.290405,594.498352 672.470093,593.963684 673.235596,593.210083 
	C674.810242,592.036133 676.323853,591.250793 676.697083,590.096680 
	C678.314331,585.095581 679.861694,580.040771 680.917664,574.899353 
	C681.712036,571.031677 681.720459,567.002686 682.078735,563.045471 
	C680.363281,562.333069 678.649719,561.004456 676.932007,560.999023 
	C639.434448,560.880737 601.936523,560.915039 564.438599,560.907654 
	C546.606567,560.904114 528.774597,560.874878 510.471252,560.428589 
	C509.298676,559.107239 508.597443,558.214600 507.896240,557.321960 
	C507.256592,558.442383 506.616974,559.562805 505.977386,560.683228 
	C504.497467,560.707825 503.017548,560.732422 501.230713,560.246460 
	C500.934082,558.832458 500.944366,557.929077 500.962341,556.625977 
	C500.637970,553.149780 500.305908,550.073242 499.979431,546.528259 
	C499.982178,509.042114 499.979340,472.024414 500.239319,434.832520 
	C501.328491,433.440125 502.154846,432.221893 503.450989,430.996277 
	C606.380554,430.986450 708.840332,430.983398 811.300110,430.983276 
	C818.147034,430.983276 818.157654,430.992371 819.057617,438.127502 
	C819.408936,440.912750 819.463257,443.763031 820.120300,446.470306 
	C820.441589,447.794373 821.833069,448.858765 822.740234,450.040680 
	C822.804688,450.486450 822.869080,450.932190 822.623657,452.021515 
	C822.215393,454.314545 821.944702,455.974731 822.046631,457.611725 
	C822.652649,467.345581 823.957764,477.079681 823.868469,486.803040 
	C823.723999,502.525909 823.206726,518.285461 821.867493,533.945740 
	C820.590149,548.881775 818.417419,563.770264 815.945435,578.563965 
	C814.508972,587.160522 811.888428,595.580872 809.474976,603.987000 
	C806.700745,613.649170 803.702820,623.253723 800.508972,632.785095 
	C799.504700,635.782227 797.350159,638.374146 796.083618,641.307617 
	C793.951477,646.245667 792.082581,651.298584 790.150818,656.321533 
	C788.049988,661.783997 786.003845,667.267395 783.933838,672.741699 
	C770.041016,699.416199 751.854797,722.874023 730.534302,743.979309 
	C728.286499,746.204346 725.957825,748.347717 723.372070,750.621887 
z"/>
<path fill="#FBBA2A" opacity="1.000000" stroke="none" 
	d="
M305.139221,556.729858 
	C298.450806,562.142090 291.845490,567.661072 285.059052,572.947510 
	C260.426544,592.135742 235.753220,611.271667 211.048080,630.366211 
	C205.405869,634.727051 199.574783,638.843506 193.481339,643.116943 
	C188.511398,633.422546 183.301682,623.914307 179.381470,613.901245 
	C167.992569,584.811707 160.863937,554.663086 157.903702,523.505432 
	C155.101196,494.007965 156.060577,464.688507 160.861969,435.475189 
	C166.182785,403.101654 176.120987,372.192291 190.406998,342.672607 
	C190.982773,341.482849 191.807251,340.413483 192.827332,339.119873 
	C200.031677,344.070618 206.999100,349.092529 213.803619,354.326202 
	C235.497940,371.012299 257.155121,387.746918 278.777435,404.526184 
	C287.561554,411.342834 296.218903,418.322845 305.126343,425.816498 
	C305.132782,427.887604 305.032593,429.387451 304.747437,430.851257 
	C302.094177,444.470856 298.841125,458.002350 296.863495,471.718231 
	C293.729645,493.453247 295.810364,515.046143 300.628479,536.403625 
	C302.155762,543.173706 303.636932,549.954163 305.139221,556.729858 
z"/>
<path fill="#698AB0" opacity="1.000000" stroke="none" 
	d="
M500.954651,557.025635 
	C500.944366,557.929077 500.934082,558.832458 500.864166,560.191223 
	C499.737854,559.901428 498.043701,559.348206 497.744171,558.368530 
	C497.231171,556.690613 497.584442,554.746033 497.584534,552.913391 
	C497.586090,513.428040 497.589142,473.942657 497.591827,434.457275 
	C497.591949,432.828552 497.591827,431.199860 497.591827,429.058105 
	C499.706635,429.058105 501.325623,429.058044 502.944641,429.058105 
	C606.906067,429.062042 710.867554,429.092041 814.828857,428.975586 
	C819.014099,428.970886 820.836731,429.911865 821.029663,434.321289 
	C821.247070,439.290253 822.213379,444.226410 822.797119,449.608765 
	C821.833069,448.858765 820.441589,447.794373 820.120300,446.470306 
	C819.463257,443.763031 819.408936,440.912750 819.057617,438.127502 
	C818.157654,430.992371 818.147034,430.983276 811.300110,430.983276 
	C708.840332,430.983398 606.380554,430.986450 503.092896,430.995148 
	C500.538818,431.786072 496.113251,431.028381 499.976501,435.006714 
	C499.979340,472.024414 499.982178,509.042114 499.690979,546.756470 
	C497.808777,550.986877 496.340881,554.501099 500.954651,557.025635 
z"/>
<path fill="#FACEC8" opacity="1.000000" stroke="none" 
	d="
M642.001221,180.547668 
	C633.081665,177.354614 624.194702,173.651398 615.191956,170.255234 
	C585.547058,159.072159 554.864197,152.716446 523.260193,150.620422 
	C480.100616,147.758026 437.799530,152.500916 396.502655,165.296524 
	C368.721649,173.904282 342.481049,186.058868 317.780945,201.470901 
	C315.806671,202.702820 313.793152,203.871857 311.443176,205.104294 
	C312.063751,203.794067 312.773041,202.068298 314.059967,201.170670 
	C319.869934,197.118179 325.805176,193.239990 331.782806,189.436523 
	C333.436188,188.384476 335.416718,187.859772 337.202789,187.000854 
	C346.580505,182.491074 355.797394,177.607361 365.360779,173.536240 
	C372.459595,170.514328 380.023438,168.596786 387.340607,166.072784 
	C395.621277,163.216461 403.851501,160.214218 412.120239,157.322876 
	C413.362549,156.888489 414.681213,156.604141 415.988434,156.436203 
	C420.919159,155.802673 425.883972,155.398911 430.790680,154.622620 
	C437.299683,153.592834 443.802521,152.463730 450.244141,151.080017 
	C469.699219,146.900864 489.416779,148.176880 509.061462,148.153976 
	C517.765015,148.143829 526.532532,148.218155 535.156250,149.230713 
	C544.672607,150.348099 554.039734,152.690811 563.506653,154.293671 
	C568.828369,155.194717 574.220337,155.681030 579.581116,156.350143 
	C580.383728,156.450317 581.242676,156.377151 581.984863,156.640121 
	C589.349182,159.249451 596.634460,162.096786 604.061218,164.510376 
	C611.940613,167.071075 620.136719,168.751556 627.834595,171.742813 
	C632.880676,173.703629 637.287659,177.309189 642.001221,180.547668 
z"/>
<path fill="#698AB0" opacity="1.000000" stroke="none" 
	d="
M784.182861,672.534058 
	C786.003845,667.267395 788.049988,661.783997 790.150818,656.321533 
	C792.082581,651.298584 793.951477,646.245667 796.083618,641.307617 
	C797.350159,638.374146 799.504700,635.782227 800.508972,632.785095 
	C803.702820,623.253723 806.700745,613.649170 809.474976,603.987000 
	C811.888428,595.580872 814.508972,587.160522 815.945435,578.563965 
	C818.417419,563.770264 820.590149,548.881775 821.867493,533.945740 
	C823.206726,518.285461 823.723999,502.525909 823.868469,486.803040 
	C823.957764,477.079681 822.652649,467.345581 822.046631,457.611725 
	C821.944702,455.974731 822.215393,454.314545 822.581055,452.358032 
	C823.715942,461.473938 825.008484,470.879974 825.382935,480.322449 
	C827.981018,545.845154 817.310547,608.694153 787.060913,667.511047 
	C786.224792,669.136841 785.309998,670.722168 784.182861,672.534058 
z"/>
<path fill="#FAD6CF" opacity="1.000000" stroke="none" 
	d="
M305.450317,556.842529 
	C303.636932,549.954163 302.155762,543.173706 300.628479,536.403625 
	C295.810364,515.046143 293.729645,493.453247 296.863495,471.718231 
	C298.841125,458.002350 302.094177,444.470856 304.747437,430.851257 
	C305.032593,429.387451 305.132782,427.887604 305.431030,426.061005 
	C308.700348,418.463898 311.329926,410.919647 315.130737,404.020660 
	C321.825165,391.869293 329.234894,380.111969 336.657654,368.076599 
	C335.854187,372.360413 333.931641,375.839844 330.807098,379.621002 
	C325.380585,386.187927 322.442719,394.817017 318.501709,402.601868 
	C317.500244,404.580048 317.046570,406.976379 315.655609,408.589355 
	C311.868927,412.980530 311.488861,418.300934 310.506134,423.595856 
	C309.997681,426.335388 308.315643,428.861450 307.133606,431.470245 
	C306.184418,433.565094 304.805389,435.546234 304.274567,437.737122 
	C298.872406,460.035431 296.653961,482.710632 298.138611,505.567139 
	C298.809235,515.891602 301.071930,526.169250 303.311432,536.313843 
	C304.665253,542.446289 307.560028,548.224243 309.333008,554.287048 
	C309.881409,556.162231 309.016785,558.450623 308.676514,560.962158 
	C307.623047,559.901306 306.692230,558.428223 305.450317,556.842529 
z"/>
<path fill="#FAD6CF" opacity="1.000000" stroke="none" 
	d="
M353.222076,348.864624 
	C361.161591,341.033478 368.935608,332.523407 377.926605,325.591888 
	C407.265442,302.973419 440.510803,289.441071 477.444244,285.674805 
	C487.651245,284.633942 498.002594,285.008698 508.629211,284.947998 
	C503.264252,285.750854 497.559418,286.356171 491.850922,286.924835 
	C481.339630,287.971924 470.822876,288.965668 460.318695,290.079102 
	C459.221252,290.195435 458.234589,291.160980 457.125122,291.396973 
	C453.877014,292.087738 450.594330,292.617401 447.322021,293.192291 
	C446.044891,293.416656 444.677917,293.377716 443.490875,293.826508 
	C435.571350,296.820770 427.658813,299.839050 419.812988,303.019714 
	C417.296021,304.040070 414.954956,305.518280 412.590576,306.885864 
	C407.628998,309.755798 402.710663,312.700378 397.764282,315.596710 
	C394.226349,317.668396 390.381989,319.340302 387.180481,321.839050 
	C378.686829,328.468231 370.472290,335.454742 362.136566,342.286682 
	C359.353577,344.567535 358.652191,349.531616 353.222076,348.864624 
z"/>
<path fill="#FAD6CF" opacity="1.000000" stroke="none" 
	d="
M578.953735,302.557007 
	C587.069641,306.588928 595.557007,310.436218 603.251709,315.490295 
	C612.097961,321.300659 620.242798,328.179016 629.217834,334.992493 
	C641.758972,322.653137 654.599243,310.019470 667.982910,297.197571 
	C668.708801,297.014954 668.891296,297.020569 669.073730,297.026215 
	C669.101440,297.930786 669.528381,299.184937 669.092041,299.683105 
	C666.293030,302.879333 663.822083,306.857086 660.270569,308.796967 
	C652.935242,312.803528 650.032349,321.055511 643.524109,325.252655 
	C638.772522,328.316925 636.980103,334.268127 630.437500,335.787537 
	C625.352844,336.968384 622.854004,334.408447 620.315613,332.111328 
	C614.800781,327.120605 610.108093,321.257660 602.744873,318.611694 
	C600.815063,317.918243 599.342163,316.045624 597.513733,314.960022 
	C592.063538,311.724060 586.514160,308.654724 581.073364,305.403412 
	C580.191345,304.876312 579.665466,303.753265 578.953735,302.557007 
z"/>
<path fill="#FACEC8" opacity="1.000000" stroke="none" 
	d="
M291.840271,218.270721 
	C284.671539,224.825424 276.609650,230.789108 269.664581,237.851105 
	C255.957764,251.788651 242.869568,266.334595 229.212189,280.735931 
	C229.239609,274.899353 233.483871,271.098846 237.066223,267.265106 
	C245.327332,258.424316 253.902847,249.853073 262.710815,241.554550 
	C270.854523,233.881790 279.438049,226.673050 287.915710,219.361816 
	C288.787140,218.610275 290.258850,218.554733 291.840271,218.270721 
z"/>
<path fill="#FAD6CF" opacity="1.000000" stroke="none" 
	d="
M512.061951,285.635986 
	C525.902344,284.890594 539.383911,287.904480 552.605042,291.873413 
	C561.161194,294.441986 569.379822,298.135071 577.951660,301.605774 
	C574.757935,302.860382 572.195618,301.773621 569.051819,299.969879 
	C564.623108,297.428925 559.236450,296.548370 554.243103,295.010345 
	C553.464478,294.770508 552.368408,295.107635 551.809998,294.674316 
	C544.230408,288.793335 534.618103,290.836243 526.210754,288.098999 
	C521.781311,286.656921 516.884094,286.651886 512.061951,285.635986 
z"/>
<path fill="#FACEC8" opacity="1.000000" stroke="none" 
	d="
M718.459534,247.040665 
	C720.353027,244.458099 722.627502,241.875366 725.679871,238.409363 
	C716.765930,230.893158 707.854187,223.378860 698.807617,215.560013 
	C703.975220,213.857697 706.378601,218.704926 709.782349,220.896332 
	C714.497253,223.931976 718.038391,228.751114 722.651611,231.997375 
	C726.177002,234.478195 728.569885,237.953308 727.222107,241.174561 
	C726.109741,243.833344 721.757263,245.136581 718.459534,247.040665 
z"/>
<path fill="#698AB0" opacity="1.000000" stroke="none" 
	d="
M671.872559,595.279907 
	C670.939209,598.954834 670.585510,603.407227 668.447571,606.701904 
	C661.141296,617.961548 653.247925,628.842896 645.449890,639.776794 
	C644.688477,640.844360 643.040405,641.279602 641.438965,642.022644 
	C653.444397,627.968262 664.205627,612.842224 671.872559,595.279907 
z"/>
<path fill="#FACEC8" opacity="1.000000" stroke="none" 
	d="
M222.433472,288.915588 
	C217.196991,297.591614 211.603180,306.283539 206.013489,314.978149 
	C204.948807,316.634247 203.900284,318.300690 202.545959,320.109009 
	C199.102432,316.017365 203.404190,313.301819 204.897278,310.621826 
	C208.488449,304.175781 213.105606,298.283661 217.528839,292.331573 
	C218.610733,290.875732 220.538635,290.048615 222.433472,288.915588 
z"/>
<path fill="#698AB0" opacity="1.000000" stroke="none" 
	d="
M681.853943,563.339172 
	C681.720459,567.002686 681.712036,571.031677 680.917664,574.899353 
	C679.861694,580.040771 678.314331,585.095581 676.697083,590.096680 
	C676.323853,591.250793 674.810242,592.036133 673.441711,593.009216 
	C675.917664,583.229126 678.773376,573.430969 681.853943,563.339172 
z"/>
<path fill="#FAD3CD" opacity="1.000000" stroke="none" 
	d="
M669.381348,296.863953 
	C668.891296,297.020569 668.708801,297.014954 668.252563,297.004456 
	C673.126892,291.748016 678.275024,286.496429 683.751465,281.193909 
	C682.032593,288.872589 676.517456,293.394531 669.381348,296.863953 
z"/>
<path fill="#FAD6CF" opacity="1.000000" stroke="none" 
	d="
M337.336487,367.973602 
	C342.039215,361.656494 347.112854,355.342468 352.502502,348.931763 
	C351.748199,351.110199 351.098969,353.745453 349.523163,355.588379 
	C345.820038,359.919128 341.674133,363.871307 337.336487,367.973602 
z"/>
<path fill="#FACEC8" opacity="1.000000" stroke="none" 
	d="
M673.038208,197.495575 
	C665.758545,193.818024 658.457703,189.779495 650.978760,185.451736 
	C659.751831,186.284866 666.847351,190.850739 673.038208,197.495575 
z"/>
<path fill="#FAD3CD" opacity="1.000000" stroke="none" 
	d="
M693.766785,270.807129 
	C695.527405,269.143219 697.288025,267.479309 699.381165,265.704712 
	C699.077576,267.284637 698.889587,269.427399 697.723389,270.583252 
	C693.803467,274.468445 690.933777,279.756927 684.499756,281.032257 
	C687.180176,277.822205 690.216431,274.567139 693.506836,271.047852 
	C693.760986,270.783691 693.766785,270.807129 693.766785,270.807129 
z"/>
<path fill="#FACEC8" opacity="1.000000" stroke="none" 
	d="
M703.476196,262.038574 
	C707.523071,257.450134 711.963501,252.859894 716.725159,248.173889 
	C717.448303,248.947342 718.151489,249.819580 718.142944,250.684784 
	C718.137573,251.232010 717.155457,252.065750 716.466003,252.263229 
	C710.941528,253.845428 711.244080,262.905609 703.476196,262.038574 
z"/>
<path fill="#698AB0" opacity="1.000000" stroke="none" 
	d="
M640.743042,642.220825 
	C641.368713,644.939819 640.478577,646.780823 637.699707,648.330750 
	C634.927185,649.877197 632.874268,652.664185 630.313965,654.661255 
	C628.974243,655.706421 627.222534,656.223389 625.242432,656.954346 
	C630.033081,652.072815 635.238220,647.215942 640.743042,642.220825 
z"/>
<path fill="#FACEC8" opacity="1.000000" stroke="none" 
	d="
M697.705750,214.058426 
	C693.444885,211.604172 689.239868,208.765884 684.889465,205.639389 
	C690.090515,206.550201 695.106201,208.266586 697.705750,214.058426 
z"/>
<path fill="#FACEC8" opacity="1.000000" stroke="none" 
	d="
M304.683746,209.063110 
	C301.052795,212.123032 297.034943,215.154877 292.682495,218.237579 
	C293.656860,214.312454 300.306030,209.163269 304.683746,209.063110 
z"/>
<path fill="#FACEC8" opacity="1.000000" stroke="none" 
	d="
M228.479614,280.929138 
	C227.071915,283.479309 225.302963,286.049255 223.217773,288.710144 
	C223.714539,285.568512 223.799622,281.852325 228.479614,280.929138 
z"/>
<path fill="#FACEC8" opacity="1.000000" stroke="none" 
	d="
M650.003906,184.515198 
	C647.756531,183.828278 645.459106,182.798004 642.963135,181.491257 
	C646.141602,179.816422 648.728699,180.338684 650.003906,184.515198 
z"/>
<path fill="#FACEC8" opacity="1.000000" stroke="none" 
	d="
M310.166595,205.325684 
	C308.893066,206.684021 307.325897,207.849319 305.422394,209.048630 
	C305.645874,206.510727 306.194214,203.924896 310.166595,205.325684 
z"/>
<path fill="#5D82B4" opacity="1.000000" stroke="none" 
	d="
M506.375305,560.780212 
	C506.616974,559.562805 507.256592,558.442383 507.896240,557.321960 
	C508.597443,558.214600 509.298676,559.107239 510.011963,560.341553 
	C508.940399,560.747925 507.856812,560.812561 506.375305,560.780212 
z"/>
<path fill="#FACEC8" opacity="1.000000" stroke="none" 
	d="
M684.754883,205.019363 
	C683.347351,204.488312 682.096313,203.716614 680.721313,202.644684 
	C682.035278,203.155869 683.473328,203.967285 684.754883,205.019363 
z"/>
<path fill="#FACEC8" opacity="1.000000" stroke="none" 
	d="
M677.976990,200.561966 
	C676.695374,200.206772 675.354309,199.509079 673.859619,198.522919 
	C675.109802,198.896118 676.513672,199.557800 677.976990,200.561966 
z"/>
<path fill="#FACEC8" opacity="1.000000" stroke="none" 
	d="
M700.350891,264.959595 
	C700.261536,264.750031 700.395874,264.461914 700.777344,264.124756 
	C701.003235,264.416107 700.853271,264.684509 700.350891,264.959595 
z"/>
<path fill="#FACEC8" opacity="1.000000" stroke="none" 
	d="
M679.840698,201.825531 
	C679.622559,201.966461 679.286377,201.849823 678.820557,201.487854 
	C679.034851,201.351013 679.378723,201.459473 679.840698,201.825531 
z"/>
<path fill="#FACEC8" opacity="1.000000" stroke="none" 
	d="
M693.771362,270.753357 
	C693.766785,270.807129 693.760986,270.783691 693.781128,270.780518 
	C693.801208,270.777313 693.775940,270.699585 693.771362,270.753357 
z"/>
<path fill="#5D82B4" opacity="1.000000" stroke="none" 
	d="
M500.962341,556.625977 
	C496.340881,554.501099 497.808777,550.986877 499.685394,547.224915 
	C500.305908,550.073242 500.637970,553.149780 500.962341,556.625977 
z"/>
<path fill="#5D82B4" opacity="1.000000" stroke="none" 
	d="
M500.239319,434.832520 
	C496.113251,431.028381 500.538818,431.786072 502.623108,431.002563 
	C502.154846,432.221893 501.328491,433.440125 500.239319,434.832520 
z"/>
</svg>