<?xml version="1.0" ?><svg xmlns="http://www.w3.org/2000/svg" width="222.5506mm" height="211.6516mm" viewBox="0 0 222.5506 211.6516">
    <path d="m 13102.928,11455.251 c -18.601,0.16 -37.415,1.256 -38.267,5.004 -1.705,7.497 -0.974,245.71 1.705,250.52 0,0 80.37,4.95 81.101,0.14 0.73,-4.809 -7.551,-255.044 -7.551,-255.044 0,0 -18.387,-0.779 -36.988,-0.62 z m -170.758,65.83 c 0,0 -0.728,183.611 7.309,199.454 0,0 80.612,-3.819 79.394,-15.418 -1.218,-11.6 -14.125,-181.489 -14.125,-181.489 z m -413.386,103.083 c -9.985,30.979 -13.306,89.863 -4.295,103.867 0,0 38.968,21.501 77.449,25.603 38.48,4.102 58.693,-33.666 66.486,-47.953 7.793,-14.287 24.966,-85.682 14.007,-111.002 -63.773,-92.005 -130.397,-46.967 -153.647,29.485 z m 362.73,-16.37 -71.603,2.688 c 0,0 -0.487,106.516 -1.948,111.467 -1.218,11.599 86.701,7.779 86.701,-0.85 0,-8.629 -13.15,-113.305 -13.15,-113.305 z m -359.904,179.639 c -21.16,0.16 -41.036,2.999 -52.178,7.508 -29.713,12.023 -47.246,67.047 -48.951,81.476 -1.705,14.428 -11.934,140.326 -11.203,171.163 0,0 -1.949,23.764 1.705,33.525 3.653,9.76 119.58,-18.674 119.58,-18.674 l 182.66,36.639 c 0,0 279.105,-43.851 291.525,-51.207 12.421,-7.356 24.842,-201.291 24.842,-201.291 l -5.115,-50.217 -280.078,15.984 -28.494,175.828 -84.998,25.887 -33.123,-8.062 c 0,0 18.509,-161.542 5.845,-192.379 -7.915,-19.274 -46.75,-26.447 -82.017,-26.18 z" fill="#FFFFFF" paint-order="fill markers stroke" transform="translate(-67.428029,12.698741) matrix(0.26458333,0,0,0.26458333,-3189.6106,-3005.9109)"/>
    <path d="m 12935.756,11312.928 c -2.239,0 -3.936,9.1 -3.936,12.201 0,3.1 -4.714,2.072 -10.31,5.738 -5.596,3.667 -10.174,10.328 -10.174,14.801 0,4.726 4.558,9.504 10.174,12.77 12.758,7.417 10.247,4.595 10.545,15.972 0.243,9.29 -1.99,7.707 -9.867,7.707 -5.223,0 -10.701,1.205 -12.174,2.678 -4.181,4.18 4.04,14.26 16.617,14.629 5.435,0.159 5.963,0.535 5.963,7.775 0,5.596 0.888,11.547 3.084,11.547 2.196,0 6.184,-2.878 6.545,-10.176 0.322,-6.511 -1.844,-10.274 6.105,-10.174 7.488,0.09 6.016,3.049 6.106,10.174 0.144,11.51 9.22,10.763 9.22,0.701 0,-1.874 -0.307,-11.448 3.158,-12.39 5.08,-1.381 8.185,-3.005 11.905,-6.414 13.494,-8.305 16.781,-30.341 -3.01,-34.858 -13.497,-3.081 -12.119,-2.401 -11.74,-11.98 0.308,-7.818 2.925,-6.281 8.674,-6.281 7.774,0 11.928,-9.339 -3.053,-11.715 -2.283,-0.362 -6.059,-0.107 -6.039,-5.358 0.05,-10.398 -7.429,-7.089 -8.664,-0.748 -1.34,6.884 -4.203,7.208 -8.936,6.424 -2.933,-0.486 -5.446,1.991 -5.217,-1.621 0.726,-11.473 -2.738,-11.402 -4.976,-11.402 z m 13.314,25.379 c 4.23,-0.06 5.16,1.431 4.826,7.463 -0.254,4.584 -3.956,3.787 -5.931,3.787 -5.699,0 -6.031,-1.611 -6.451,-6.946 -0.449,-5.701 2.401,-4.234 7.556,-4.304 z m 161.504,12.131 c -9.119,-0.635 -21.652,1.372 -36.136,6.123 -28.232,9.26 -31.822,17.368 -7.766,17.544 l 17.635,0.129 -12.209,8.803 c -6.715,4.841 -30.526,26.626 -52.91,48.41 l -40.7,39.61 -9.607,-7.84 c -17.742,-14.477 -25.164,-10.638 -77.268,39.98 l -49.224,47.823 -13.235,-9.159 c -7.279,-5.037 -17.238,-9.158 -22.133,-9.158 -9.151,0 -54.414,34.042 -54.414,40.924 0,7.62 13.918,1.166 37.725,-17.496 l 15.34,-12.024 16.215,14.649 c 8.917,8.057 18.498,14.556 21.289,14.445 2.792,-0.112 12.401,-9.248 21.355,-20.303 8.954,-11.055 31.495,-34.077 50.092,-51.16 l 33.813,-31.06 9.183,8.629 c 5.052,4.746 11.656,8.629 14.676,8.629 3.021,0 17.556,-10.66 32.299,-23.688 29.511,-26.077 89.309,-73.992 92.344,-73.992 1.056,0 1.394,4.844 0.75,10.765 -0.648,5.957 1.131,11.572 3.982,12.571 6.35,2.225 26.308,-41.189 24.56,-53.426 -0.83,-5.817 -6.536,-9.094 -15.656,-9.728 z m -161.592,16.416 c 6.716,-0.111 4.91,2.065 5.086,7.123 0.222,6.398 -2.14,7.263 -5.086,7.123 -5.387,-0.256 -5.127,-1.877 -5.087,-7.123 0.05,-6.353 -3.158,-6.987 5.087,-7.123 z m 150.012,72.449 c -18.179,-0.153 -36.246,0.775 -39.256,2.908 -6.496,4.603 -5.443,255.417 1.1,261.967 2.761,2.768 6.061,3.984 7.336,2.709 3.055,-3.055 2.42,-233.185 -0.666,-241.227 -2.017,-5.254 2.634,-6.215 30.072,-6.215 h 32.459 l 1.828,121.285 c 1.005,66.706 3.188,123.482 4.848,126.168 1.66,2.685 5.656,4.883 8.881,4.883 4.97,0 5.82,-16.916 5.568,-110.904 -0.316,-117.942 -2.966,-152.13 -12.246,-158.004 -3.455,-2.187 -21.745,-3.418 -39.924,-3.57 z m -156.529,69.797 c -12.694,-0.05 -21.636,3.149 -21.967,20.507 -0.514,26.993 -0.342,47.961 -0.584,65.487 -0.4,29.036 5.954,103.343 9.891,115.67 v 0 c 0.894,2.798 4.642,5.087 8.33,5.087 5.958,0 6.42,-4.651 4.148,-41.716 -1.407,-22.944 -3.665,-66.066 -5.019,-95.825 l -2.463,-54.105 32.019,1.197 32.018,1.198 2.035,83.433 c 1.12,45.888 3.571,85.813 5.449,88.719 2.775,4.291 4.591,4.307 9.684,0.08 5.4,-4.481 5.873,-14.527 3.418,-72.551 -1.568,-37.042 -5.011,-78.286 -7.649,-91.656 -1.64,-26.726 -11.634,-25.537 -43.461,-24.309 -9.267,0 -18.233,-1.193 -25.849,-1.22 z m -353.694,17.408 c -15.717,-0.408 -30.991,2.718 -44.335,9.635 -36.204,18.765 -51.218,35.006 -74.842,80.964 -12.304,23.936 -38.033,64.581 -57.176,90.323 -19.143,25.743 -36.112,51.382 -37.709,56.978 -5.284,18.511 -2.935,58.445 4.277,72.729 3.774,7.473 5.775,12.677 5.506,17.679 -25.39,36.383 -43.981,75.643 -58.707,123.545 -18.912,61.517 -19.896,72.569 -7.555,84.91 12.571,12.571 35.12,17.198 58.135,11.932 l 17.422,-3.986 2.731,14.547 c 1.501,8.001 4.567,17.98 6.814,22.179 v 0 c 6.255,11.688 12.938,1.951 15.438,-22.494 l 2.138,-20.912 42.735,-15.402 c 50.249,-18.111 54.821,-18.867 49.072,-8.125 -6.12,11.436 8.047,27.013 31.359,34.478 10.604,3.396 46.962,11.777 80.795,18.625 79.943,16.186 113.306,16.2 196.305,0.09 181.564,-35.24 185.289,-36.168 189.523,-47.201 3.275,-8.536 -13.881,-8.342 -64.767,0.729 -17.907,3.192 -70.105,11.287 -115.994,17.986 -45.888,6.701 -89.015,13.152 -95.838,14.338 l -12.405,2.154 1.151,-25.467 c 7.206,-159.482 13.304,-222.386 23.099,-238.234 1.289,-2.086 22.089,-4.918 46.221,-6.293 139.356,-7.94 218.209,-11.241 223.164,-9.34 6.715,2.577 5.658,19.608 -8.601,138.567 -7.336,61.209 -8.584,82.474 -5.084,86.691 10.469,12.614 15.254,-4.73 23.539,-85.32 9.887,-96.168 10.607,-140.795 2.451,-151.905 -5.413,-7.37 -10.904,-7.859 -82.416,-7.308 -76.269,0.586 -191.137,10.401 -204.324,17.459 -17.464,9.346 -28.728,49.105 -34.092,120.328 -2.528,33.577 -6.224,62.164 -8.213,63.527 -1.989,1.363 -13.428,4.674 -25.42,7.358 -18.46,4.131 -23.683,3.907 -34.064,-1.461 -10.013,-5.072 -20.348,-5.634 -30.35,-8.19 0,-9.085 13.407,-101.046 14.873,-102.512 0.577,-0.578 10.046,19.198 21.041,43.944 11.828,26.619 23.748,47.454 29.191,51.021 9.463,6.2 17.7,4.374 17.7,-3.922 0,-9.125 -73.337,-152.506 -91.571,-180.181 v -0.02 c -0.973,-1.481 -1.899,-2.858 -2.718,-4.011 0,0 -0.01,-0.02 -0.02,-0.02 -0.264,-0.32 -0.936,-1.495 -1.137,-1.683 -0.137,-0.13 -0.326,-0.234 -0.467,-0.362 -0.14,-0.165 -0.35,-0.476 -0.474,-0.605 -8.481,-8.852 -9.845,-15.269 -4.584,-18.139 1.078,-0.05 2.414,0 3.293,-0.135 21.208,-3.843 39.483,-20.837 53.711,-36.547 13.686,8.671 25.614,-3.131 11.406,-15.757 2.728,-4.513 6.879,-11.659 9.783,-17.899 0.128,-0.275 0.391,-1.04 0.533,-1.363 4.003,-5.718 9.212,-12.242 16.594,-20.578 15.447,-17.444 16.948,-30.206 7.719,-65.637 -7.562,-29.034 -11.19,-35.366 -29.443,-51.393 -21.785,-19.126 -49.216,-29.624 -75.413,-30.304 z m 276.827,69.926 c -11.719,-0.235 -28.679,1.034 -50.924,3.804 -16.378,2.039 -17.297,2.86 -17.297,15.442 0,17.523 0.01,100.694 2.371,107.632 1.014,2.984 4.131,4.651 6.928,3.704 5.852,-1.982 8.198,-39.177 7.666,-73.092 l -0.625,-39.82 h 28.381 c 32.96,0 29.695,-5.419 36.789,61.048 4.592,43.029 9.315,56.759 14.699,42.731 2.991,-7.796 -4.139,-105.167 -8.512,-116.238 -1.28,-3.24 -7.758,-4.977 -19.476,-5.211 z m -225.645,27.236 c 4.814,0.07 7.71,3.671 13.693,14.246 6.208,10.97 9.785,15.814 9.903,21.697 -4.8,18.455 -13.171,32.873 -18.373,42.01 -11.188,-5.488 -18.957,5.202 -12.469,13.014 -12.085,10.486 -22.732,20.091 -39.227,13.258 -6.601,-2.734 -13.653,-7.921 -15.671,-11.526 -2.017,-3.605 -5.145,-5.077 -6.95,-3.273 -1.805,1.805 -0.194,8.657 3.577,15.228 6.703,11.678 6.654,11.948 -2.112,11.858 -1.139,-0.01 -2.514,-0.244 -3.869,-0.457 l -0.05,-0.106 c -1.309,-0.154 -2.622,-0.425 -3.931,-0.724 -0.635,-0.16 -1.269,-0.32 -1.928,-0.508 -1.01,-0.285 -2.017,-0.58 -3.014,-0.944 -0.479,-0.159 -1.009,-0.432 -1.496,-0.603 -8.728,-3.558 -16.645,-9.991 -21.062,-17.861 -5.532,-9.857 -5.124,-12.992 5.062,-38.956 6.093,-15.531 16.607,-33.532 23.365,-40.007 10.489,-10.049 15.688,-11.823 35.514,-12.108 12.775,-0.183 27.806,-1.648 33.402,-3.254 2.217,-0.636 4.034,-1.006 5.639,-0.984 z m -36.926,34.853 c -4.621,1.172 -9.146,10.231 -9.146,15.706 0,9.279 14.141,4.638 16.121,-4.102 1.119,-4.939 2.182,-9.519 -5,-11.59 -0.651,-0.188 -1.314,-0.181 -1.975,-0.01 z m 35.739,8.6 c -4.135,0.161 -6.372,3.832 -8.573,10.684 -2.906,9.05 7.033,12.884 12.67,3.277 2.205,-3.758 5.395,-11.099 0.739,-12.939 -1.869,-0.739 -3.458,-1.076 -4.836,-1.022 z m -99.45,127.342 c 46.935,-0.495 56.583,12.533 56.592,59.574 0,34.863 -8.749,131.056 -12.367,131.166 -34.989,1.062 -79.999,13.21 -112.15,25.647 -21.05,8.143 -41.771,15.901 -46.047,17.24 -7.498,2.349 -7.687,0.127 -5.326,-62.313 1.421,-37.607 5.458,-78.393 9.632,-97.304 6.417,-29.073 9.198,-34.575 25.965,-51.358 2.956,-2.958 5.717,-5.44 8.418,-7.703 1.907,1.184 3.414,11.421 3.414,23.918 0,51.161 16.295,60.661 34.494,20.109 6.152,-13.709 12.143,-32.049 13.311,-40.757 1.263,-9.421 4.065,-14.924 10.518,-17.627 4.611,-0.23 9.505,-0.55 13.546,-0.592 z m -137.304,88.637 c 0.573,0.259 0.04,2.764 -1.057,7.755 -1.233,5.596 -3.474,41.518 -4.98,79.825 l -2.737,69.646 -20.052,4.629 c -26.575,6.134 -31.425,5.858 -34.424,-1.957 -6.164,-16.063 35.487,-127.368 57.693,-154.178 3.308,-3.993 4.984,-5.98 5.557,-5.72 z m 299.72,110.896 2.573,10.496 c 1.414,5.773 2.787,24.691 3.052,42.039 0.559,36.648 5.113,34.642 -52.427,23.1 -21.265,-4.265 -57.737,-10.599 -81.049,-14.074 -23.312,-3.476 -44.375,-7.561 -46.805,-9.08 -2.431,-1.519 5.654,-5.012 17.965,-7.762 22.053,-4.925 22.516,-4.837 31.268,5.986 7.394,9.143 10.126,10.21 16.281,6.346 4.51,-2.832 7.096,-8.787 6.629,-15.264 -1.123,-15.558 5.508,-12.967 15.142,5.918 9.221,18.075 21.292,20.636 23.528,4.992 1.131,-7.908 2.402,-8.396 11.302,-4.341 14.552,6.63 21.248,-0.961 15.137,-17.153 -4.485,-11.881 -4.239,-12.201 16.428,-21.631 z" transform="translate(-67.428029,12.698741) matrix(0.26458333,0,0,0.26458333,-3189.6106,-3005.9109)" fill="#170E3D"/>
</svg>