<?xml version="1.0" ?><svg xmlns="http://www.w3.org/2000/svg" width="208.536mm" height="294.47101mm" viewBox="0 0 208.536 294.47101">
    <path d="m 10205.186,12447.582 c -11.899,0.252 -24.604,2.497 -38.584,7.639 -31.687,50.698 -63.961,80.734 -63.961,80.734 -29.068,3.916 -70.884,1.862 -78.537,20.588 -6.281,15.371 -18.712,35.938 -13.915,86.775 1.341,14.206 -33.96,25.021 -1.984,69.139 9.009,12.615 4.174,28.978 17,36.648 15.286,4.35 23.891,15.455 16.833,32.412 -19.44,38.262 -33.859,137.84 -34.075,183.128 -0.216,45.287 18.359,55.825 63.07,69.875 0,0 47.951,6.147 76.029,-19.194 28.079,-25.341 2.376,-104.878 6.264,-141.887 3.887,-37.008 38.664,-129.591 42.768,-146.402 0.404,-1.657 0.71,-3.56 1.002,-5.478 6.833,-18.059 8.583,-34.865 3.603,-43.114 -4.848,-8.029 -37.795,-41.384 -66.321,-46.325 12.2,-9.025 27.497,-20.301 28.744,-19.823 18.359,7.025 55.002,24.791 78.761,11.367 23.759,-13.423 61.558,-91.326 61.558,-91.326 0,0 39.332,-23.893 -26.5,-67.123 -23.315,-9.096 -45.58,-18.187 -71.755,-17.633 z m 174.933,217.984 c 0,0 -37.799,0.628 -42.551,5.145 -4.752,4.516 -0.648,81.918 -0.648,81.918 1.296,60.468 59.182,42.779 82.725,30.736 23.543,-12.043 -2.375,-83.676 -2.375,-83.676 l -33.264,-3.386 z" fill="#FFFFFF" paint-order="fill markers stroke" transform="translate(26.242538,153.52789) matrix(0.26458333,0,0,0.26458333,-2635.0601,-3444.2127)"/>
    <path d="m 9862.3933,13548.024 c -10.093,-10.093 14.011,-44.86 54.411,-78.482 29.832,-24.826 30.292,-24.86 112.1607,-8.23 33.366,6.777 76.84,14.954 96.609,18.17 l 35.943,5.848 45.852,-47.678 c 25.219,-26.222 55.619,-58.32 67.556,-71.328 11.937,-13.008 24.912,-25.368 28.832,-27.467 3.921,-2.098 36.1,-5.57 71.509,-7.715 101.797,-6.167 108.895,-7.418 116.663,-20.568 3.66,-6.196 26.73,-38.419 51.266,-71.607 24.536,-33.188 44.086,-60.867 43.443,-61.51 -0.642,-0.642 -10.169,1.563 -21.171,4.9 -26.505,8.041 -34.248,7.773 -34.248,-1.184 0,-5.415 13.307,-13.55 50.73,-31.015 27.902,-13.021 53.312,-22.684 56.465,-21.474 8.356,3.206 11.795,28.101 8.768,63.461 -3.58,41.826 -5.02,45.932 -15.582,44.427 -8.054,-1.147 -8.91,-3.987 -10.003,-33.176 l -1.196,-31.922 -54.424,82.796 c -29.933,45.538 -56.867,86.087 -59.853,90.11 -4.839,6.518 -15.33,7.586 -96.436,9.813 l -91.006,2.499 -18.569,20.711 c -34.565,38.554 -123.781,125.054 -132.187,128.164 -10.85,4.014 -61.473,-4.128 -146.689,-23.591 l -68.3937,-15.621 -39.398,42.191 c -37.434,40.088 -44.77,45.76 -51.052,39.478 z m 129.953,-111.217 c -38.814,-12.396 -39.088,-15.942 -6.956,-89.876 52.5187,-120.839 61.4347,-153.927 67.7557,-251.458 l 2.929,-45.195 -21.454,-19.289 c -27.318,-24.562 -32.493,-37.326 -32.493,-80.141 0,-62.718 16.464,-143.121 35.145,-171.631 6.011,-9.175 5.725,-9.726 -8.024,-15.471 -16.957,-7.085 -24.495,-19.38 -22.059,-35.979 1.125,-7.662 -0.198,-12.878 -3.594,-14.181 -8.8507,-3.397 -21.8177,-27.796 -21.8177,-41.055 0,-8.726 3.558,-15.378 12.042,-22.518 10.9907,-9.248 11.6897,-11.321 8.0107,-23.763 -5.4287,-18.365 -0.807,-49.795 9.193,-62.508 11.268,-14.325 32.947,-24.389 65.534,-30.422 15.195,-2.814 31.193,-8.1 35.553,-11.748 4.359,-3.647 13.538,-15.84 22.267,-32.629 12.714,-24.452 18.827,-33.451 33.274,-40.348 35.739,-17.06 91.775,-15.236 118.136,7.708 16.121,14.031 41.934,44.926 41.934,60.565 0,11.953 -10.237,28.596 -17.59,28.596 -7.885,0 -18.955,34.255 -24.037,43.813 12.725,10.211 7.43,25.229 -8.125,12.735 -2.933,4.474 -6.826,11.688 -11.455,16.447 -25.71,26.433 -55.851,31.476 -84.547,9.695 -12.045,-9.143 -14.212,-9.591 -20.349,-4.208 -3.778,3.313 -10.531,7.141 -15.008,8.506 -6.716,2.047 -8.145,6.036 -8.169,22.802 -0.03,16.467 -2.048,22.34 -10.676,30.967 -5.855,5.856 -16.831,11.903 -24.391,13.437 -12.867,2.612 -13.826,3.948 -15.044,20.946 -1.381,19.287 -16.859,44.637 -27.253,44.637 -8.371,0 -12.934,10.723 -24.564,57.722 -13.948,56.364 -18.507,145.673 -8.431,165.158 3.708,7.171 11.95,15.731 18.316,19.023 11.006,5.691 11.797,5.495 16.123,-4.001 7.87,-17.271 21.005,-10.582 21.005,10.696 0,6.624 2.994,7.688 19.755,7.807 31.071,0.22 40.836,-21.755 40.179,-38.791 l -1.668,-43.257 c -2.162,-56.095 -1.507,-65.7 6.452,-94.602 8.107,-29.437 8.478,-35.484 4.37,-71.224 -5.273,-45.879 -3.937,-94.725 2.651,-96.9 5.961,-1.968 8.647,5.554 13.835,38.733 6.962,44.532 8.286,46.392 16.49,23.181 14.13,-39.977 8.728,-62.333 -21.109,-87.349 -7.591,-6.363 -12.405,-12.993 -10.698,-14.732 5.113,-5.209 29.954,9.034 40.945,23.476 14.37,18.885 16.478,31.267 10.924,64.194 -4.388,26.01 -4.121,29.9 2.87,41.87 12.204,20.896 23.867,22.625 59.433,8.81 24.805,-9.635 31.888,-14.415 37.908,-25.581 4.072,-7.552 11.566,-16.458 16.654,-19.792 8.203,-5.375 9.167,-9.062 8.519,-32.584 -0.815,-29.589 2.787,-34.86 26.921,-39.388 19.697,-3.695 34.884,3.208 34.884,15.856 0,9.286 1.578,10.276 16.38,10.276 13.839,0 16.996,1.62 20.35,10.44 2.183,5.742 3.969,15.815 3.969,22.384 0,10.028 1.633,11.945 10.175,11.945 7.358,0 10.175,2.187 10.175,7.9 0,4.345 -1.992,9.13 -4.425,10.634 -2.433,1.504 -3.526,6.169 -2.429,10.367 5.817,22.242 -39.578,46.994 -93.516,50.991 -35.276,2.614 -36.338,3.003 -54.765,20.059 -41.792,38.68 -84.285,49.183 -114.908,28.402 l -14.773,-10.025 -2.754,10.972 c -3.247,12.937 -3.724,35.626 -2.386,113.354 l 0.99,57.472 20.09,2.666 c 11.049,1.465 35.316,10.284 53.926,19.597 42.015,21.024 72.321,49.956 81.959,78.242 11.725,34.41 8.107,106.237 -7.983,158.488 -2.191,7.116 -0.557,7.452 23.669,4.857 32.317,-3.461 49.256,1.84 47.38,14.828 -1.683,11.653 -14.988,14.101 -61.927,11.392 -47.485,-2.742 -47.464,-2.706 -35.829,-61.903 10.618,-54.02 11.606,-98.914 2.65,-120.413 -13.318,-31.968 -64.536,-70.088 -115.47,-85.94 -21.632,-6.733 -26.425,-6.994 -39.926,-2.177 -8.438,3.011 -21.945,5.555 -30.013,5.653 l -14.671,0.18 -2.863,55.208 c -1.575,30.365 -5.342,69.304 -8.371,86.532 -6.741,38.34 -44.948,134.901 -82.5917,208.732 -0.699,1.371 9.5427,4.62 22.7587,7.221 25.236,4.965 40.041,15.999 35.911,26.764 -3.319,8.648 -31.019,7.809 -61.2777,-1.855 z m 262.1167,-613.71 c 22.988,-13.016 45.568,-29.925 43.167,-32.326 -1.003,-1.003 -15.554,2.915 -32.336,8.707 -36.653,12.651 -45.424,12.983 -62.821,2.377 -17.568,-10.712 -18.667,-10.38 -15.648,4.715 6.532,32.658 29.316,38.225 67.638,16.527 z m 130.238,-55.822 c 0,-4.576 -4.331,-5.933 -17.297,-5.42 8.021,1.031 10.365,2.493 8.924,7.686 -1.283,4.621 -4.623,3.726 1.251,3.777 3.917,0.03 7.122,-2.685 7.122,-6.043 z m 22.385,2.035 c 1.383,-2.238 -0.34,-4.069 -3.83,-4.069 -3.489,0 -6.345,1.831 -6.345,4.069 0,2.239 1.724,4.07 3.83,4.07 2.106,0 4.962,-1.831 6.345,-4.07 z m 10.175,-16.279 c 0,-2.239 -4.687,-4.07 -10.415,-4.07 -5.907,0 -9.327,1.762 -7.9,4.07 1.384,2.238 6.07,4.07 10.415,4.07 4.345,0 7.9,-1.832 7.9,-4.07 z m -357.928,-8.261 c 11.133,-5.958 20.893,-26.855 19.379,-41.493 -1.211,-11.701 -0.1,-12.821 17.994,-18.098 22.83,-6.66 31.59,-19.877 31.59,-47.665 0,-14.531 1.619,-18.756 7.961,-20.769 4.378,-1.39 12.833,-8.317 18.787,-15.393 9.987,-11.87 10.626,-14.816 8.247,-38.04 -3.929,-23.216 -4.484,-24.525 16.579,-31.701 19.413,-6.615 37.962,-20.575 37.966,-28.573 0,-2.639 9.739,-4.378 24.518,-4.378 23.11,0 25.352,0.886 39.101,15.455 25.62,27.15 35.942,2.913 13.024,-24.162 -14.925,-17.634 -37.164,-30.491 -79.67,-30.966 -41.94,-0.469 -46.811,3.446 -63.137,37.791 -23.086,48.564 -25.523,48.738 -99.671,59.365 -19.733,2.828 -33.807,17.071 -37.653,38.103 -4.701,25.709 -1.092,44.347 8.122,41.938 14.146,-3.699 12.005,6.443 -4.043,19.153 -19.5897,15.516 -21.1477,28.364 -6.124,50.502 5.596,8.247 10.174,18.472 10.174,22.722 0,8.102 14.202,20.4 23.558,20.4 3.007,0 8.991,-1.886 13.298,-4.191 z m 321.299,0.122 c 0,-2.238 -6.41,-4.069 -14.245,-4.069 -7.835,0 -14.245,1.831 -14.245,4.069 0,2.239 6.41,4.07 14.245,4.07 7.835,0 14.245,-1.831 14.245,-4.07 z m 34.83,-11.827 c -1.253,-2.029 -5.94,-2.731 -10.415,-1.561 -11.198,2.929 -10.191,5.248 2.279,5.248 5.729,0 9.389,-1.659 8.136,-3.687 z m -39.918,-4.397 c 2.798,-0.03 5.082,-1.429 5.076,-3.108 0,-1.679 -6.417,-3.19 -14.245,-3.358 -9.823,-0.21 -14.233,1.513 -14.233,5.563 0,4.098 2.761,5.127 9.157,3.413 5.037,-1.35 11.447,-2.479 14.245,-2.51 z m 41.717,-12.265 c 0,-2.239 -4.579,-4.07 -10.175,-4.07 -5.596,0 -10.175,1.831 -10.175,4.07 0,2.238 4.579,4.07 10.175,4.07 5.596,0 10.175,-1.832 10.175,-4.07 z m -36.629,-8.14 c 0,-2.238 -6.41,-4.07 -14.245,-4.07 -7.835,0 -14.245,1.832 -14.245,4.07 0,2.238 6.41,4.07 14.245,4.07 7.835,0 14.245,-1.832 14.245,-4.07 z m -2.308,-16.721 c -3.561,-5.761 -26.182,-4.327 -26.182,1.659 0,3.644 4.418,4.772 14.212,3.628 7.817,-0.912 13.203,-3.292 11.97,-5.287 z m -1.762,-15.839 c 0,-2.238 -6.41,-4.069 -14.245,-4.069 -7.835,0 -14.245,1.831 -14.245,4.069 0,2.239 6.41,4.071 14.245,4.071 7.835,0 14.245,-1.832 14.245,-4.071 z m -155.443,-60.031 c -10.484,-12.207 -7.306,-25.331 -2.303,-26.827 3.158,-0.944 4.336,5.141 11.823,11.441 11.822,9.948 13.116,10.201 20.046,3.93 4.074,-3.687 13.436,-18.331 20.804,-32.542 7.973,-15.921 17.9,-21.642 4.609,-34.025 -4.834,-4.503 -9.971,-11.913 -11.416,-16.465 -2.151,-6.776 -6.083,-8.273 -21.685,-8.252 -16.746,0.03 -19.869,1.453 -25.75,11.791 -3.839,6.748 -12.964,14.033 -21.398,17.083 -14.656,5.299 -14.696,5.381 -12.162,24.48 1.819,13.712 0.665,22.925 -4.058,32.391 -3.629,7.276 -6.066,13.762 -5.415,14.413 4.288,4.289 23.706,9.229 37.129,9.447 14.762,0.238 15.458,-0.251 9.776,-6.865 z m 29.962,-54.54 c 0.749,-5.266 4.66,-10.11 8.801,-10.899 5.77,-1.101 7.148,0.719 6.105,8.057 -0.749,5.265 -4.661,10.109 -8.801,10.898 -5.77,1.101 -7.149,-0.719 -6.105,-8.056 z" transform="translate(26.242538,153.52789) matrix(0.26458333,0,0,0.26458333,-2635.0601,-3444.2127)" fill="#170E3D"/>
</svg>