<svg version="1.1" id="Layer_1" xmlns="http://www.w3.org/2000/svg" xmlns:xlink="http://www.w3.org/1999/xlink" x="0px" y="0px"
	 width="100%" viewBox="0 0 2560 1940" enable-background="new 0 0 2560 1940" xml:space="preserve">
<path fill="#D52B1E" opacity="1.000000" stroke="none" 
	d="
M2.000002,1834.000000 
	C2.000000,1259.938232 2.000000,685.876343 2.716495,110.769440 
	C4.426317,106.991707 5.641845,104.317528 6.378526,101.517372 
	C13.582011,74.136627 27.232664,50.811440 49.066071,32.434380 
	C64.332016,19.585119 81.705154,11.047499 100.870979,5.869133 
	C102.962318,5.304077 106.352516,5.992564 106.000000,2.000000 
	C888.728516,2.000000 1671.457031,2.000000 2455.209961,2.546097 
	C2456.822998,2.728111 2457.411377,2.364029 2458.000000,1.999973 
	C2458.888916,2.000000 2459.777832,2.000000 2460.899902,2.698739 
	C2462.867676,4.264495 2464.514648,5.460901 2466.350098,5.949905 
	C2502.253174,15.514858 2529.496094,36.365047 2547.587158,68.796898 
	C2551.769775,76.295006 2554.538330,84.577881 2558.038818,92.463539 
	C2558.791992,94.160309 2558.362549,97.437111 2562.000000,96.000000 
	C2562.000000,676.728516 2562.000000,1257.457031 2561.458984,1839.204834 
	C2561.278809,1840.816040 2561.639404,1841.407959 2562.000000,1842.000000 
	C2562.000000,1843.500000 2562.000000,1845.000000 2561.321533,1846.796753 
	C2559.923340,1848.175903 2558.915283,1849.163940 2558.525635,1850.354370 
	C2543.636963,1895.841064 2513.305420,1925.284546 2467.267334,1938.569824 
	C2465.957520,1938.947754 2465.079346,1940.822998 2464.000000,1942.000000 
	C1677.271484,1942.000000 890.543030,1942.000000 103.382927,1941.333252 
	C95.291252,1937.690430 87.415504,1935.170044 80.007034,1931.662720 
	C40.287373,1912.858032 15.169613,1882.217651 5.595304,1839.078003 
	C5.181043,1837.211182 3.233384,1835.684937 2.000002,1834.000000 
M1563.654907,203.315521 
	C1550.292358,193.962372 1537.495483,183.640793 1523.458984,175.441360 
	C1484.542603,152.708450 1443.543213,149.761444 1401.269043,165.296326 
	C1379.769165,173.197128 1360.578735,185.082291 1343.006836,199.692459 
	C1313.999634,223.810577 1290.796265,252.916168 1270.370850,284.370422 
	C1233.847656,340.614746 1206.961426,401.528290 1184.293457,464.368378 
	C1140.610107,585.467529 1111.987915,710.339478 1091.927124,837.310974 
	C1090.297241,847.627625 1088.692139,857.948303 1087.071167,868.295349 
	C1085.766968,868.021606 1085.223022,868.001892 1085.203125,867.889832 
	C1083.533813,858.410767 1081.760742,848.946899 1080.295776,839.435608 
	C1068.470093,762.652527 1052.815063,686.662903 1032.996948,611.544067 
	C1011.457581,529.901062 985.646423,449.720703 949.918945,373.028900 
	C926.473267,322.700714 899.295898,274.628479 862.470215,232.617264 
	C838.929077,205.761261 812.213379,182.875351 779.037781,168.686554 
	C740.804688,152.334747 702.267822,150.581696 663.620483,167.681061 
	C641.442444,177.493637 621.892944,191.257156 603.740723,207.133286 
	C570.626160,236.095734 543.447876,270.194702 518.690247,306.304321 
	C472.896759,373.095093 436.489075,444.984833 404.092010,518.994507 
	C359.653473,620.512329 323.734741,725.077759 293.017059,831.479126 
	C253.971741,966.726318 223.617996,1103.918457 201.836777,1242.977661 
	C195.034622,1286.404907 189.138916,1329.989014 183.687714,1373.608765 
	C179.186752,1409.624878 175.463135,1445.756592 172.302185,1481.916382 
	C169.401718,1515.096313 167.071320,1548.354858 165.648590,1581.628296 
	C163.727142,1626.564941 162.892166,1671.548584 161.677795,1716.514404 
	C161.601837,1719.326538 162.278900,1722.159302 162.574188,1724.710815 
	C178.271240,1726.802734 388.838196,1726.053711 396.847748,1723.795532 
	C397.026520,1719.818970 397.296326,1715.567993 397.397186,1711.313110 
	C399.071198,1640.682617 399.588257,1570.001343 402.720490,1499.435913 
	C405.511475,1436.557617 410.734253,1373.770996 415.752655,1311.013306 
	C419.203583,1267.857910 423.129303,1224.691528 428.641388,1181.760986 
	C437.547638,1112.394653 447.139099,1043.094604 457.886047,973.991394 
	C473.098602,876.174194 493.220764,779.300842 518.091919,683.460632 
	C539.372131,601.457886 563.756775,520.447327 598.095276,442.786835 
	C612.537537,410.124146 628.598755,378.295105 650.280457,349.666260 
	C660.190063,336.581390 671.151733,324.559296 685.270081,315.769775 
	C696.215271,308.955719 707.991272,306.404816 720.683105,308.574646 
	C730.654785,310.279449 739.876526,314.022614 748.411316,319.480011 
	C759.752869,326.732147 769.478516,335.778473 778.048950,346.097992 
	C800.658752,373.321899 816.496765,404.456482 830.013672,436.865875 
	C858.487244,505.136810 876.690674,576.448975 891.815552,648.605469 
	C907.542542,723.634399 919.582275,799.295166 928.277466,875.452820 
	C934.511169,930.051819 940.378784,984.702759 945.494690,1039.416016 
	C949.153503,1078.546021 951.281128,1117.818726 954.148560,1157.023682 
	C954.333496,1159.551880 955.005432,1162.044312 955.443420,1164.511475 
	C957.444885,1164.923096 958.725586,1165.416016 960.006714,1165.416992 
	C1043.005737,1165.477539 1126.004761,1165.503662 1209.003784,1165.491089 
	C1210.970703,1165.490723 1212.940308,1165.036987 1214.901611,1164.747192 
	C1215.189331,1164.704590 1215.454346,1164.413696 1215.699585,1164.202637 
	C1215.950928,1163.986084 1216.164917,1163.726074 1216.736572,1163.128174 
	C1216.967285,1161.920654 1217.442993,1160.320557 1217.557861,1158.694946 
	C1218.966675,1138.756226 1220.127686,1118.797974 1221.732300,1098.875366 
	C1225.182007,1056.043823 1227.992065,1013.136292 1232.645264,970.432129 
	C1238.885986,913.159607 1246.058228,855.972839 1253.857056,798.889587 
	C1263.964111,724.912781 1277.782837,651.590698 1296.042969,579.156189 
	C1309.663696,525.124939 1325.729004,471.884186 1348.806396,421.013794 
	C1361.096680,393.921356 1375.259277,367.900116 1394.670532,345.089447 
	C1404.907104,333.059937 1416.475342,322.602936 1430.683594,315.383026 
	C1453.473145,303.802490 1474.894531,305.395325 1495.014282,321.753326 
	C1507.301758,331.743500 1517.304932,343.718140 1526.419189,356.508148 
	C1544.881470,382.415833 1559.229248,410.617554 1572.241455,439.533722 
	C1596.359009,493.128876 1615.177979,548.654114 1631.946289,604.897705 
	C1659.103149,695.985535 1680.185425,788.533997 1697.923706,881.868774 
	C1714.285767,967.962097 1727.821045,1054.498901 1738.403442,1141.496094 
	C1739.352173,1149.295410 1740.695312,1157.046631 1741.794800,1164.415527 
	C1757.651001,1166.753174 1948.519287,1165.922363 1956.060181,1163.467773 
	C1955.768311,1160.705444 1955.657227,1157.756470 1955.123901,1154.885986 
	C1941.671021,1082.479980 1926.034912,1010.549072 1907.958618,939.154358 
	C1872.492188,799.074524 1829.086548,661.617920 1771.887085,528.749512 
	C1741.004150,457.011475 1706.307373,387.240265 1663.398438,321.805756 
	C1635.156372,278.737518 1603.972900,238.095551 1563.654907,203.315521 
M1997.743652,1457.415161 
	C1996.968384,1451.898315 1996.193115,1446.381348 1995.378418,1440.583984 
	C1918.840698,1440.583984 1843.120728,1440.583984 1766.579834,1440.583984 
	C1766.579834,1444.552734 1766.418701,1447.802856 1766.607056,1451.032471 
	C1767.537598,1466.982788 1768.964722,1482.914795 1769.477417,1498.876831 
	C1771.240967,1553.785156 1772.784546,1608.700928 1774.215454,1663.619019 
	C1774.657837,1680.594360 1774.422363,1697.586548 1774.617432,1714.569580 
	C1774.657471,1718.052124 1775.234863,1721.528687 1775.560059,1724.960083 
	C1854.258789,1724.960083 1931.695190,1724.960083 2009.598877,1724.960083 
	C2009.892090,1721.682739 2010.373779,1719.087524 2010.317871,1716.503784 
	C2009.415405,1674.893066 2008.540039,1633.281494 2007.430542,1591.676147 
	C2007.102417,1579.369995 2006.251221,1567.068970 2005.325195,1554.789307 
	C2002.922363,1522.929932 2000.344482,1491.083862 1997.743652,1457.415161 
M576.740784,1230.070068 
	C572.976929,1216.021729 569.213013,1201.973511 565.525940,1188.211792 
	C537.708374,1188.211792 510.901489,1188.211792 483.602539,1188.211792 
	C471.708862,1264.729370 459.907288,1340.654297 448.013702,1417.171387 
	C470.894287,1417.171387 493.013611,1417.171387 515.366333,1417.171387 
	C521.116821,1374.065308 526.782715,1331.593262 532.448608,1289.121216 
	C533.195190,1289.107666 533.941772,1289.093994 534.688354,1289.080322 
	C546.454590,1331.926025 558.220825,1374.771606 569.906311,1417.323120 
	C591.122620,1417.323120 611.330933,1417.323120 631.825623,1417.323120 
	C644.224731,1374.364380 654.992615,1331.370850 667.456848,1288.873291 
	C668.115967,1288.976318 668.775146,1289.079468 669.434265,1289.182617 
	C675.118225,1331.848389 680.802185,1374.514282 686.502136,1417.300049 
	C709.333130,1417.300049 731.188965,1417.300049 753.798584,1417.300049 
	C741.885010,1340.459595 730.072937,1264.274048 718.256042,1188.057251 
	C690.329712,1188.057251 663.446472,1188.057251 636.336304,1188.057251 
	C624.744385,1231.191772 613.268799,1273.893311 601.793213,1316.594849 
	C601.168823,1316.536255 600.544434,1316.477661 599.920044,1316.419067 
	C592.379822,1288.149780 584.839539,1259.880371 576.740784,1230.070068 
M1061.000000,1439.848633 
	C1050.343750,1439.848633 1039.687622,1439.848755 1029.031372,1439.848755 
	C1018.708313,1439.848877 1008.381592,1439.678711 998.063110,1439.896118 
	C987.598633,1440.116577 977.021729,1438.867310 966.137756,1440.892456 
	C966.137756,1445.854980 966.081970,1449.826050 966.146606,1453.795288 
	C966.688782,1487.087036 967.373230,1520.376831 967.769592,1553.670288 
	C968.051025,1577.310791 967.922729,1600.956055 968.056091,1624.598755 
	C968.075806,1628.091919 968.530945,1631.582520 968.783997,1635.066528 
	C971.634827,1635.379761 973.269348,1635.716431 974.903870,1635.716431 
	C1049.495728,1635.718018 1124.087646,1635.692139 1198.679565,1635.640381 
	C1199.652832,1635.639648 1200.635010,1635.298340 1201.593384,1635.041992 
	C1201.878540,1634.965698 1202.106201,1634.647217 1202.342041,1634.420898 
	C1202.580322,1634.192383 1202.796387,1633.940552 1203.333496,1633.365967 
	C1203.940552,1569.567139 1204.550781,1505.433350 1205.174805,1439.848511 
	C1157.325195,1439.848511 1110.162598,1439.848511 1061.000000,1439.848633 
M1013.010071,1187.522827 
	C1001.807312,1187.522827 990.604553,1187.522827 979.561584,1187.522827 
	C977.579712,1213.514038 978.487915,1409.769287 980.559937,1417.475098 
	C981.808716,1417.593384 983.123230,1417.826904 984.437683,1417.826660 
	C1023.412170,1417.821777 1062.389771,1418.057617 1101.358887,1417.590454 
	C1111.595825,1417.467773 1122.031128,1416.088013 1131.989990,1413.687500 
	C1173.236938,1403.744995 1202.201538,1379.797363 1214.933105,1338.337158 
	C1219.274292,1324.200317 1220.488159,1309.624023 1219.796631,1294.871826 
	C1217.555664,1247.065308 1188.609131,1208.998779 1143.183350,1194.395386 
	C1129.479492,1189.989868 1115.394043,1187.640991 1100.950439,1187.634155 
	C1072.302734,1187.620850 1043.655029,1187.562622 1013.010071,1187.522827 
M2003.738892,1278.897827 
	C1996.223022,1302.640747 1995.582520,1326.821899 2000.914673,1350.901123 
	C2014.136963,1410.611450 2079.303467,1437.134644 2130.609863,1404.104004 
	C2131.311035,1403.652710 2132.426025,1403.844604 2133.343262,1403.736816 
	C2133.742676,1406.516479 2134.108643,1409.064575 2134.447021,1411.419922 
	C2157.082520,1411.419922 2179.217773,1411.419922 2201.486084,1411.419922 
	C2201.486084,1336.639771 2201.486084,1262.556885 2201.486084,1188.115967 
	C2178.839600,1188.115967 2156.743408,1188.115967 2133.653320,1188.115967 
	C2133.653320,1203.423340 2133.653320,1218.174683 2133.653320,1232.837769 
	C2124.580322,1229.229248 2116.625732,1224.703857 2108.096191,1222.906860 
	C2069.496582,1214.774902 2020.890015,1228.523438 2003.738892,1278.897827 
M1599.484741,1406.745117 
	C1598.764771,1412.506470 1602.687622,1412.173584 1606.491455,1412.166992 
	C1624.816162,1412.135376 1643.140869,1412.177368 1661.465332,1412.106323 
	C1663.313721,1412.099121 1665.159912,1411.509155 1666.894531,1411.209106 
	C1667.167725,1409.579956 1667.469849,1408.617554 1667.470459,1407.655029 
	C1667.501709,1360.010986 1667.540894,1312.366943 1667.492432,1264.722900 
	C1667.479980,1252.434448 1662.486938,1242.147583 1654.133179,1233.354370 
	C1646.887451,1225.727539 1638.347046,1219.681396 1628.397949,1216.632812 
	C1597.458130,1207.151978 1567.357422,1208.453369 1538.921387,1225.475708 
	C1536.747803,1226.776855 1534.498901,1227.952637 1531.697754,1229.513794 
	C1531.173950,1224.656860 1530.753906,1220.760986 1530.283447,1216.398438 
	C1508.154785,1216.398438 1486.365112,1216.398438 1464.105713,1216.398438 
	C1464.105713,1281.675415 1464.105713,1346.439697 1464.105713,1411.613647 
	C1486.430176,1411.613647 1508.219849,1411.613647 1530.958862,1411.613647 
	C1530.958862,1407.471924 1530.958984,1403.866699 1530.958984,1400.261353 
	C1530.959106,1376.605835 1530.952393,1352.950317 1530.962280,1329.294800 
	C1530.965942,1320.632812 1530.604004,1311.946533 1531.124756,1303.314453 
	C1531.978760,1289.159058 1543.448242,1275.988770 1557.223633,1272.539551 
	C1571.372070,1268.996826 1586.650269,1275.267456 1594.471069,1287.765747 
	C1598.520508,1294.236938 1599.500488,1301.372559 1599.488892,1308.825684 
	C1599.438965,1340.810547 1599.470337,1372.795532 1599.484741,1406.745117 
M1880.696655,1398.625244 
	C1880.695312,1356.646973 1880.598999,1314.668213 1880.733887,1272.690430 
	C1880.798584,1252.566772 1872.138306,1237.216675 1855.240479,1227.012085 
	C1847.376465,1222.262939 1838.528198,1218.686523 1829.679321,1216.115845 
	C1807.574951,1209.694702 1784.878296,1210.003906 1762.279785,1212.825317 
	C1747.316162,1214.693481 1732.895142,1218.825195 1720.465210,1227.975952 
	C1706.389526,1238.338135 1699.351196,1252.179443 1699.405762,1270.138428 
	C1720.975220,1270.138428 1741.790894,1270.138428 1763.023071,1270.138428 
	C1763.955322,1263.185181 1767.749023,1258.757568 1773.706299,1256.389404 
	C1782.771851,1252.785645 1791.938965,1252.715942 1800.899536,1256.756104 
	C1808.901489,1260.364136 1812.703613,1266.355469 1812.154663,1273.849487 
	C1811.601318,1281.403564 1807.226562,1286.368774 1797.987305,1288.235962 
	C1791.851440,1289.476196 1785.458008,1289.680542 1779.165771,1289.865234 
	C1759.021851,1290.456787 1739.305054,1293.073608 1720.997925,1302.113281 
	C1695.021118,1314.939697 1684.318481,1337.970825 1686.872681,1363.348022 
	C1689.569092,1390.139526 1709.852905,1411.245117 1736.736328,1416.231445 
	C1760.543823,1420.647095 1782.325684,1415.259644 1801.923828,1401.058594 
	C1804.991211,1398.835938 1808.009033,1396.544800 1812.517090,1393.194824 
	C1812.517090,1400.621826 1812.517090,1405.855835 1812.517090,1411.606201 
	C1835.401978,1411.606201 1857.569702,1411.606201 1879.642456,1411.606201 
	C1879.991089,1410.730713 1880.420410,1410.123901 1880.450195,1409.498413 
	C1880.591675,1406.506348 1880.624756,1403.509277 1880.696655,1398.625244 
M1387.972046,1220.840454 
	C1367.008301,1211.301270 1344.963623,1209.625732 1322.432495,1212.123413 
	C1281.006958,1216.715698 1249.360107,1244.905640 1239.912476,1285.350342 
	C1236.074951,1301.778320 1235.645508,1318.288818 1238.102417,1334.967529 
	C1243.990234,1374.938232 1270.845947,1404.586792 1310.006104,1414.247192 
	C1327.425537,1418.544434 1345.002441,1419.185913 1362.537109,1415.748413 
	C1401.271851,1408.154419 1427.069458,1385.911865 1438.318359,1347.581055 
	C1442.998657,1331.632568 1443.722046,1315.302979 1441.737183,1299.042358 
	C1437.513916,1264.441284 1421.444092,1237.456665 1387.972046,1220.840454 
M2343.486328,1417.457642 
	C2355.791992,1416.944946 2368.161621,1417.047119 2380.387207,1415.768677 
	C2396.760498,1414.056519 2412.201172,1409.219971 2426.147461,1399.867554 
	C2453.145020,1381.762451 2462.370850,1329.605713 2420.858154,1308.447632 
	C2411.772949,1303.817139 2401.766113,1300.620972 2391.843750,1298.106201 
	C2380.581787,1295.252075 2368.871582,1294.215454 2357.488037,1291.774780 
	C2351.709717,1290.535767 2345.714844,1288.792847 2340.705566,1285.794922 
	C2330.011230,1279.395020 2330.539551,1263.795776 2341.144775,1257.601807 
	C2356.325684,1248.735474 2374.506592,1256.678589 2378.117920,1273.722046 
	C2378.306152,1274.611572 2378.925537,1275.409790 2379.272217,1276.105957 
	C2400.436035,1276.105957 2421.322998,1276.105957 2442.688965,1276.105957 
	C2442.918945,1258.597900 2436.338135,1245.027466 2422.113770,1235.932251 
	C2415.485107,1231.693726 2407.953369,1228.334595 2400.372803,1226.216675 
	C2377.617432,1219.859619 2354.326172,1218.924438 2331.023682,1222.479126 
	C2314.282715,1225.032959 2298.961670,1231.059570 2286.705078,1243.557251 
	C2264.280518,1266.422974 2265.186035,1315.220337 2308.558594,1327.702148 
	C2312.072510,1328.713379 2315.652832,1329.509521 2319.224854,1330.302856 
	C2331.247070,1332.973022 2343.420166,1335.098022 2355.250488,1338.441162 
	C2361.507080,1340.209229 2367.830322,1343.216064 2372.955566,1347.175415 
	C2381.122314,1353.484497 2380.945801,1366.432129 2373.595215,1372.717896 
	C2359.626953,1384.662964 2336.169189,1377.042114 2331.978027,1359.208862 
	C2331.472168,1357.055054 2330.850830,1354.928345 2330.192383,1352.447754 
	C2319.016113,1352.447754 2308.375977,1352.413940 2297.736328,1352.457275 
	C2287.236572,1352.500122 2276.718506,1352.249878 2266.389893,1352.636963 
	C2264.662109,1379.870850 2277.416992,1400.014038 2301.544678,1409.609375 
	C2314.406738,1414.724609 2327.991699,1416.142456 2343.486328,1417.457642 
M769.809509,1270.844482 
	C763.846802,1286.656006 761.679077,1303.070068 762.288635,1319.869873 
	C764.188354,1372.228149 798.148010,1410.759277 849.252319,1417.046387 
	C892.261841,1422.337769 936.920471,1400.238525 953.187805,1350.896240 
	C953.788940,1349.072632 953.854492,1347.072388 954.254211,1344.639893 
	C932.972534,1344.639893 912.199890,1344.639893 891.733093,1344.639893 
	C889.785950,1348.107666 888.345764,1351.125610 886.506165,1353.876221 
	C873.874207,1372.763306 846.844910,1372.714966 834.482910,1353.632812 
	C831.807861,1349.503662 829.671936,1344.794800 828.357727,1340.056274 
	C823.632874,1323.019653 823.647766,1305.813965 828.310913,1288.758789 
	C829.522888,1284.326050 831.478943,1279.941040 833.879761,1276.015137 
	C846.274780,1255.746582 874.311707,1255.592285 887.038635,1275.608276 
	C888.797546,1278.374634 890.245483,1281.338623 891.710388,1283.982056 
	C908.025146,1285.721558 947.555176,1285.113525 954.766602,1282.963379 
	C954.133118,1280.445190 953.636597,1277.863770 952.836060,1275.380127 
	C940.570740,1237.328491 910.379639,1214.333496 868.712585,1211.421753 
	C822.014343,1208.158447 785.804199,1230.177979 769.809509,1270.844482 
M1954.965088,1412.138062 
	C1961.870239,1412.138062 1968.775391,1412.138062 1976.068726,1412.138062 
	C1976.068726,1336.882324 1976.068726,1262.741089 1976.068726,1188.105957 
	C1953.466553,1188.105957 1931.349731,1188.105957 1908.763428,1188.105957 
	C1908.763428,1262.799683 1908.763428,1336.931885 1908.763428,1412.138062 
	C1923.831909,1412.138062 1938.401733,1412.138062 1954.965088,1412.138062 
M2138.872314,1694.112427 
	C2140.197266,1694.240356 2141.521973,1694.372559 2142.847412,1694.495728 
	C2195.548828,1699.394531 2237.317627,1650.438599 2224.224609,1599.117310 
	C2213.991943,1559.008789 2174.412109,1534.232422 2133.811035,1542.519897 
	C2094.458252,1550.552246 2067.430420,1589.091797 2073.446289,1628.594971 
	C2078.675049,1662.931519 2102.128662,1686.973145 2138.872314,1694.112427 
M2259.817139,1244.730835 
	C2264.608643,1225.931641 2269.400391,1207.132324 2274.245361,1188.124512 
	C2258.126953,1188.124512 2243.337402,1188.124512 2227.965820,1188.124512 
	C2226.995605,1208.403442 2226.052979,1228.101929 2225.079590,1248.447754 
	C2236.013428,1248.447754 2245.611084,1248.534668 2255.203857,1248.351807 
	C2256.600830,1248.325195 2257.973145,1247.009888 2259.817139,1244.730835 
z"/>
<path fill="#030100" opacity="1.000000" stroke="none" 
	d="
M105.062683,2.000000 
	C106.352516,5.992564 102.962318,5.304077 100.870979,5.869133 
	C81.705154,11.047499 64.332016,19.585119 49.066071,32.434380 
	C27.232664,50.811440 13.582011,74.136627 6.378526,101.517372 
	C5.641845,104.317528 4.426317,106.991707 2.716495,109.862167 
	C2.000000,74.149223 2.000000,38.298443 2.000000,2.000000 
	C36.040482,2.000000 70.082924,2.000000 105.062683,2.000000 
z"/>
<path fill="#030000" opacity="1.000000" stroke="none" 
	d="
M2.000002,1834.937256 
	C3.233384,1835.684937 5.181043,1837.211182 5.595304,1839.078003 
	C15.169613,1882.217651 40.287373,1912.858032 80.007034,1931.662720 
	C87.415504,1935.170044 95.291252,1937.690430 102.475662,1941.333252 
	C68.807510,1942.000000 35.615021,1942.000000 2.000000,1942.000000 
	C2.000000,1906.625977 2.000000,1871.250366 2.000002,1834.937256 
z"/>
<path fill="#030100" opacity="1.000000" stroke="none" 
	d="
M2562.000000,95.062683 
	C2558.362549,97.437111 2558.791992,94.160309 2558.038818,92.463539 
	C2554.538330,84.577881 2551.769775,76.295006 2547.587158,68.796898 
	C2529.496094,36.365047 2502.253174,15.514858 2466.350098,5.949905 
	C2464.514648,5.460901 2462.867676,4.264495 2461.566406,2.698739 
	C2495.182373,2.000000 2528.364502,2.000000 2562.000000,2.000000 
	C2562.000000,32.706970 2562.000000,63.416168 2562.000000,95.062683 
z"/>
<path fill="#030000" opacity="1.000000" stroke="none" 
	d="
M2464.937256,1942.000000 
	C2465.079346,1940.822998 2465.957520,1938.947754 2467.267334,1938.569824 
	C2513.305420,1925.284546 2543.636963,1895.841064 2558.525635,1850.354370 
	C2558.915283,1849.163940 2559.923340,1848.175903 2561.321533,1847.546753 
	C2562.000000,1879.189819 2562.000000,1910.379761 2562.000000,1942.000000 
	C2529.959473,1942.000000 2497.916992,1942.000000 2464.937256,1942.000000 
z"/>
<path fill="#030100" opacity="1.000000" stroke="none" 
	d="
M2457.500000,1.999973 
	C2457.411377,2.364029 2456.822998,2.728111 2456.117188,2.546097 
	C2456.000000,2.000000 2457.000000,2.000000 2457.500000,1.999973 
z"/>
<path fill="#030000" opacity="1.000000" stroke="none" 
	d="
M2562.000000,1841.500000 
	C2561.639404,1841.407959 2561.278809,1840.816040 2561.458984,1840.112061 
	C2562.000000,1840.000000 2562.000000,1841.000000 2562.000000,1841.500000 
z"/>
<path fill="#FDC72F" opacity="1.000000" stroke="none" 
	d="
M1564.199829,203.770264 
	C1603.972900,238.095551 1635.156372,278.737518 1663.398438,321.805756 
	C1706.307373,387.240265 1741.004150,457.011475 1771.887085,528.749512 
	C1829.086548,661.617920 1872.492188,799.074524 1907.958618,939.154358 
	C1926.034912,1010.549072 1941.671021,1082.479980 1955.123901,1154.885986 
	C1955.657227,1157.756470 1955.768311,1160.705444 1956.060181,1163.467773 
	C1948.519287,1165.922363 1757.651001,1166.753174 1741.794800,1164.415527 
	C1740.695312,1157.046631 1739.352173,1149.295410 1738.403442,1141.496094 
	C1727.821045,1054.498901 1714.285767,967.962097 1697.923706,881.868774 
	C1680.185425,788.533997 1659.103149,695.985535 1631.946289,604.897705 
	C1615.177979,548.654114 1596.359009,493.128876 1572.241455,439.533722 
	C1559.229248,410.617554 1544.881470,382.415833 1526.419189,356.508148 
	C1517.304932,343.718140 1507.301758,331.743500 1495.014282,321.753326 
	C1474.894531,305.395325 1453.473145,303.802490 1430.683594,315.383026 
	C1416.475342,322.602936 1404.907104,333.059937 1394.670532,345.089447 
	C1375.259277,367.900116 1361.096680,393.921356 1348.806396,421.013794 
	C1325.729004,471.884186 1309.663696,525.124939 1296.042969,579.156189 
	C1277.782837,651.590698 1263.964111,724.912781 1253.857056,798.889587 
	C1246.058228,855.972839 1238.885986,913.159607 1232.645264,970.432129 
	C1227.992065,1013.136292 1225.182007,1056.043823 1221.732300,1098.875366 
	C1220.127686,1118.797974 1218.966675,1138.756226 1217.557861,1158.694946 
	C1217.442993,1160.320557 1216.967285,1161.920654 1216.736572,1163.128174 
	C1216.164917,1163.726074 1215.950928,1163.986084 1215.699585,1164.202637 
	C1215.454346,1164.413696 1215.189331,1164.704590 1214.901611,1164.747192 
	C1212.940308,1165.036987 1210.970703,1165.490723 1209.003784,1165.491089 
	C1126.004761,1165.503662 1043.005737,1165.477539 960.006714,1165.416992 
	C958.725586,1165.416016 957.444885,1164.923096 955.443420,1164.511475 
	C955.005432,1162.044312 954.333496,1159.551880 954.148560,1157.023682 
	C951.281128,1117.818726 949.153503,1078.546021 945.494690,1039.416016 
	C940.378784,984.702759 934.511169,930.051819 928.277466,875.452820 
	C919.582275,799.295166 907.542542,723.634399 891.815552,648.605469 
	C876.690674,576.448975 858.487244,505.136810 830.013672,436.865875 
	C816.496765,404.456482 800.658752,373.321899 778.048950,346.097992 
	C769.478516,335.778473 759.752869,326.732147 748.411316,319.480011 
	C739.876526,314.022614 730.654785,310.279449 720.683105,308.574646 
	C707.991272,306.404816 696.215271,308.955719 685.270081,315.769775 
	C671.151733,324.559296 660.190063,336.581390 650.280457,349.666260 
	C628.598755,378.295105 612.537537,410.124146 598.095276,442.786835 
	C563.756775,520.447327 539.372131,601.457886 518.091919,683.460632 
	C493.220764,779.300842 473.098602,876.174194 457.886047,973.991394 
	C447.139099,1043.094604 437.547638,1112.394653 428.641388,1181.760986 
	C423.129303,1224.691528 419.203583,1267.857910 415.752655,1311.013306 
	C410.734253,1373.770996 405.511475,1436.557617 402.720490,1499.435913 
	C399.588257,1570.001343 399.071198,1640.682617 397.397186,1711.313110 
	C397.296326,1715.567993 397.026520,1719.818970 396.847748,1723.795532 
	C388.838196,1726.053711 178.271240,1726.802734 162.574188,1724.710815 
	C162.278900,1722.159302 161.601837,1719.326538 161.677795,1716.514404 
	C162.892166,1671.548584 163.727142,1626.564941 165.648590,1581.628296 
	C167.071320,1548.354858 169.401718,1515.096313 172.302185,1481.916382 
	C175.463135,1445.756592 179.186752,1409.624878 183.687714,1373.608765 
	C189.138916,1329.989014 195.034622,1286.404907 201.836777,1242.977661 
	C223.617996,1103.918457 253.971741,966.726318 293.017059,831.479126 
	C323.734741,725.077759 359.653473,620.512329 404.092010,518.994507 
	C436.489075,444.984833 472.896759,373.095093 518.690247,306.304321 
	C543.447876,270.194702 570.626160,236.095734 603.740723,207.133286 
	C621.892944,191.257156 641.442444,177.493637 663.620483,167.681061 
	C702.267822,150.581696 740.804688,152.334747 779.037781,168.686554 
	C812.213379,182.875351 838.929077,205.761261 862.470215,232.617264 
	C899.295898,274.628479 926.473267,322.700714 949.918945,373.028900 
	C985.646423,449.720703 1011.457581,529.901062 1032.996948,611.544067 
	C1052.815063,686.662903 1068.470093,762.652527 1080.295776,839.435608 
	C1081.760742,848.946899 1083.533813,858.410767 1085.203125,867.889832 
	C1085.223022,868.001892 1085.766968,868.021606 1087.071167,868.295349 
	C1088.692139,857.948303 1090.297241,847.627625 1091.927124,837.310974 
	C1111.987915,710.339478 1140.610107,585.467529 1184.293457,464.368378 
	C1206.961426,401.528290 1233.847656,340.614746 1270.370850,284.370422 
	C1290.796265,252.916168 1313.999634,223.810577 1343.006836,199.692459 
	C1360.578735,185.082291 1379.769165,173.197128 1401.269043,165.296326 
	C1443.543213,149.761444 1484.542603,152.708450 1523.458984,175.441360 
	C1537.495483,183.640793 1550.292358,193.962372 1564.199829,203.770264 
z"/>
<path fill="#FDC72F" opacity="1.000000" stroke="none" 
	d="
M1997.790039,1458.323730 
	C2000.344482,1491.083862 2002.922363,1522.929932 2005.325195,1554.789307 
	C2006.251221,1567.068970 2007.102417,1579.369995 2007.430542,1591.676147 
	C2008.540039,1633.281494 2009.415405,1674.893066 2010.317871,1716.503784 
	C2010.373779,1719.087524 2009.892090,1721.682739 2009.598877,1724.960083 
	C1931.695190,1724.960083 1854.258789,1724.960083 1775.560059,1724.960083 
	C1775.234863,1721.528687 1774.657471,1718.052124 1774.617432,1714.569580 
	C1774.422363,1697.586548 1774.657837,1680.594360 1774.215454,1663.619019 
	C1772.784546,1608.700928 1771.240967,1553.785156 1769.477417,1498.876831 
	C1768.964722,1482.914795 1767.537598,1466.982788 1766.607056,1451.032471 
	C1766.418701,1447.802856 1766.579834,1444.552734 1766.579834,1440.583984 
	C1843.120728,1440.583984 1918.840698,1440.583984 1995.378418,1440.583984 
	C1996.193115,1446.381348 1996.968384,1451.898315 1997.790039,1458.323730 
z"/>
<path fill="#FFFDFD" opacity="1.000000" stroke="none" 
	d="
M577.020020,1230.840576 
	C584.839539,1259.880371 592.379822,1288.149780 599.920044,1316.419067 
	C600.544434,1316.477661 601.168823,1316.536255 601.793213,1316.594849 
	C613.268799,1273.893311 624.744385,1231.191772 636.336304,1188.057251 
	C663.446472,1188.057251 690.329712,1188.057251 718.256042,1188.057251 
	C730.072937,1264.274048 741.885010,1340.459595 753.798584,1417.300049 
	C731.188965,1417.300049 709.333130,1417.300049 686.502136,1417.300049 
	C680.802185,1374.514282 675.118225,1331.848389 669.434265,1289.182617 
	C668.775146,1289.079468 668.115967,1288.976318 667.456848,1288.873291 
	C654.992615,1331.370850 644.224731,1374.364380 631.825623,1417.323120 
	C611.330933,1417.323120 591.122620,1417.323120 569.906311,1417.323120 
	C558.220825,1374.771606 546.454590,1331.926025 534.688354,1289.080322 
	C533.941772,1289.093994 533.195190,1289.107666 532.448608,1289.121216 
	C526.782715,1331.593262 521.116821,1374.065308 515.366333,1417.171387 
	C493.013611,1417.171387 470.894287,1417.171387 448.013702,1417.171387 
	C459.907288,1340.654297 471.708862,1264.729370 483.602539,1188.211792 
	C510.901489,1188.211792 537.708374,1188.211792 565.525940,1188.211792 
	C569.213013,1201.973511 572.976929,1216.021729 577.020020,1230.840576 
z"/>
<path fill="#FDC72F" opacity="1.000000" stroke="none" 
	d="
M1062.000000,1439.848633 
	C1110.162598,1439.848511 1157.325195,1439.848511 1205.174805,1439.848511 
	C1204.550781,1505.433350 1203.940552,1569.567139 1203.333496,1633.365967 
	C1202.796387,1633.940552 1202.580322,1634.192383 1202.342041,1634.420898 
	C1202.106201,1634.647217 1201.878540,1634.965698 1201.593384,1635.041992 
	C1200.635010,1635.298340 1199.652832,1635.639648 1198.679565,1635.640381 
	C1124.087646,1635.692139 1049.495728,1635.718018 974.903870,1635.716431 
	C973.269348,1635.716431 971.634827,1635.379761 968.783997,1635.066528 
	C968.530945,1631.582520 968.075806,1628.091919 968.056091,1624.598755 
	C967.922729,1600.956055 968.051025,1577.310791 967.769592,1553.670288 
	C967.373230,1520.376831 966.688782,1487.087036 966.146606,1453.795288 
	C966.081970,1449.826050 966.137756,1445.854980 966.137756,1440.892456 
	C977.021729,1438.867310 987.598633,1440.116577 998.063110,1439.896118 
	C1008.381592,1439.678711 1018.708313,1439.848877 1029.031372,1439.848755 
	C1039.687622,1439.848755 1050.343750,1439.848633 1062.000000,1439.848633 
z"/>
<path fill="#FFFDFC" opacity="1.000000" stroke="none" 
	d="
M1014.008667,1187.522949 
	C1043.655029,1187.562622 1072.302734,1187.620850 1100.950439,1187.634155 
	C1115.394043,1187.640991 1129.479492,1189.989868 1143.183350,1194.395386 
	C1188.609131,1208.998779 1217.555664,1247.065308 1219.796631,1294.871826 
	C1220.488159,1309.624023 1219.274292,1324.200317 1214.933105,1338.337158 
	C1202.201538,1379.797363 1173.236938,1403.744995 1131.989990,1413.687500 
	C1122.031128,1416.088013 1111.595825,1417.467773 1101.358887,1417.590454 
	C1062.389771,1418.057617 1023.412170,1417.821777 984.437683,1417.826660 
	C983.123230,1417.826904 981.808716,1417.593384 980.559937,1417.475098 
	C978.487915,1409.769287 977.579712,1213.514038 979.561584,1187.522827 
	C990.604553,1187.522827 1001.807312,1187.522827 1014.008667,1187.522949 
M1073.205566,1363.478638 
	C1079.537476,1363.468384 1085.877686,1363.662842 1092.199951,1363.411987 
	C1117.935059,1362.391357 1134.557007,1348.924316 1140.683838,1323.882935 
	C1144.477539,1308.378174 1144.258057,1292.745117 1139.723022,1277.452026 
	C1134.140137,1258.625366 1121.823486,1245.650757 1102.156616,1243.111694 
	C1087.521240,1241.222046 1072.446045,1242.739502 1057.050415,1242.739502 
	C1057.050415,1282.735962 1057.050415,1322.527100 1057.050415,1363.478516 
	C1062.148438,1363.478516 1066.720337,1363.478516 1073.205566,1363.478638 
z"/>
<path fill="#FFFDFD" opacity="1.000000" stroke="none" 
	d="
M2003.936279,1278.133911 
	C2020.890015,1228.523438 2069.496582,1214.774902 2108.096191,1222.906860 
	C2116.625732,1224.703857 2124.580322,1229.229248 2133.653320,1232.837769 
	C2133.653320,1218.174683 2133.653320,1203.423340 2133.653320,1188.115967 
	C2156.743408,1188.115967 2178.839600,1188.115967 2201.486084,1188.115967 
	C2201.486084,1262.556885 2201.486084,1336.639771 2201.486084,1411.419922 
	C2179.217773,1411.419922 2157.082520,1411.419922 2134.447021,1411.419922 
	C2134.108643,1409.064575 2133.742676,1406.516479 2133.343262,1403.736816 
	C2132.426025,1403.844604 2131.311035,1403.652710 2130.609863,1404.104004 
	C2079.303467,1437.134644 2014.136963,1410.611450 2000.914673,1350.901123 
	C1995.582520,1326.821899 1996.223022,1302.640747 2003.936279,1278.133911 
M2095.800049,1370.142822 
	C2107.614502,1371.223755 2118.313477,1368.820068 2127.108887,1360.270020 
	C2131.583740,1355.920166 2134.166748,1351.137207 2133.968262,1344.454102 
	C2133.522949,1329.473633 2133.533203,1314.462891 2133.921143,1299.479248 
	C2134.239014,1287.193481 2128.041016,1279.302246 2117.918701,1274.046509 
	C2098.650635,1264.041870 2076.395752,1271.955078 2068.089844,1292.210938 
	C2060.587402,1310.508057 2060.719971,1329.312744 2067.894043,1347.757690 
	C2072.535400,1359.691528 2081.136719,1367.538452 2095.800049,1370.142822 
z"/>
<path fill="#FFFEFD" opacity="1.000000" stroke="none" 
	d="
M1599.478271,1405.762695 
	C1599.470337,1372.795532 1599.438965,1340.810547 1599.488892,1308.825684 
	C1599.500488,1301.372559 1598.520508,1294.236938 1594.471069,1287.765747 
	C1586.650269,1275.267456 1571.372070,1268.996826 1557.223633,1272.539551 
	C1543.448242,1275.988770 1531.978760,1289.159058 1531.124756,1303.314453 
	C1530.604004,1311.946533 1530.965942,1320.632812 1530.962280,1329.294800 
	C1530.952393,1352.950317 1530.959106,1376.605835 1530.958984,1400.261353 
	C1530.958984,1403.866699 1530.958862,1407.471924 1530.958862,1411.613647 
	C1508.219849,1411.613647 1486.430176,1411.613647 1464.105713,1411.613647 
	C1464.105713,1346.439697 1464.105713,1281.675415 1464.105713,1216.398438 
	C1486.365112,1216.398438 1508.154785,1216.398438 1530.283447,1216.398438 
	C1530.753906,1220.760986 1531.173950,1224.656860 1531.697754,1229.513794 
	C1534.498901,1227.952637 1536.747803,1226.776855 1538.921387,1225.475708 
	C1567.357422,1208.453369 1597.458130,1207.151978 1628.397949,1216.632812 
	C1638.347046,1219.681396 1646.887451,1225.727539 1654.133179,1233.354370 
	C1662.486938,1242.147583 1667.479980,1252.434448 1667.492432,1264.722900 
	C1667.540894,1312.366943 1667.501709,1360.010986 1667.470459,1407.655029 
	C1667.469849,1408.617554 1667.167725,1409.579956 1666.894531,1411.209106 
	C1665.159912,1411.509155 1663.313721,1412.099121 1661.465332,1412.106323 
	C1643.140869,1412.177368 1624.816162,1412.135376 1606.491455,1412.166992 
	C1602.687622,1412.173584 1598.764771,1412.506470 1599.478271,1405.762695 
z"/>
<path fill="#FFFDFD" opacity="1.000000" stroke="none" 
	d="
M1880.696533,1399.569580 
	C1880.624756,1403.509277 1880.591675,1406.506348 1880.450195,1409.498413 
	C1880.420410,1410.123901 1879.991089,1410.730713 1879.642456,1411.606201 
	C1857.569702,1411.606201 1835.401978,1411.606201 1812.517090,1411.606201 
	C1812.517090,1405.855835 1812.517090,1400.621826 1812.517090,1393.194824 
	C1808.009033,1396.544800 1804.991211,1398.835938 1801.923828,1401.058594 
	C1782.325684,1415.259644 1760.543823,1420.647095 1736.736328,1416.231445 
	C1709.852905,1411.245117 1689.569092,1390.139526 1686.872681,1363.348022 
	C1684.318481,1337.970825 1695.021118,1314.939697 1720.997925,1302.113281 
	C1739.305054,1293.073608 1759.021851,1290.456787 1779.165771,1289.865234 
	C1785.458008,1289.680542 1791.851440,1289.476196 1797.987305,1288.235962 
	C1807.226562,1286.368774 1811.601318,1281.403564 1812.154663,1273.849487 
	C1812.703613,1266.355469 1808.901489,1260.364136 1800.899536,1256.756104 
	C1791.938965,1252.715942 1782.771851,1252.785645 1773.706299,1256.389404 
	C1767.749023,1258.757568 1763.955322,1263.185181 1763.023071,1270.138428 
	C1741.790894,1270.138428 1720.975220,1270.138428 1699.405762,1270.138428 
	C1699.351196,1252.179443 1706.389526,1238.338135 1720.465210,1227.975952 
	C1732.895142,1218.825195 1747.316162,1214.693481 1762.279785,1212.825317 
	C1784.878296,1210.003906 1807.574951,1209.694702 1829.679321,1216.115845 
	C1838.528198,1218.686523 1847.376465,1222.262939 1855.240479,1227.012085 
	C1872.138306,1237.216675 1880.798584,1252.566772 1880.733887,1272.690430 
	C1880.598999,1314.668213 1880.695312,1356.646973 1880.696533,1399.569580 
M1803.925903,1354.856934 
	C1813.435181,1344.895630 1813.374146,1332.982178 1811.667603,1321.806396 
	C1802.297119,1321.806396 1793.682983,1321.829590 1785.069092,1321.799683 
	C1776.819580,1321.770996 1769.236816,1323.802979 1762.861328,1329.226196 
	C1755.431396,1335.546143 1753.889282,1343.796631 1756.113525,1352.798218 
	C1757.952148,1360.239746 1764.878662,1365.015869 1774.456055,1365.649048 
	C1785.218140,1366.360718 1794.806763,1363.213257 1803.925903,1354.856934 
z"/>
<path fill="#FFFDFD" opacity="1.000000" stroke="none" 
	d="
M1388.635742,1221.197510 
	C1421.444092,1237.456665 1437.513916,1264.441284 1441.737183,1299.042358 
	C1443.722046,1315.302979 1442.998657,1331.632568 1438.318359,1347.581055 
	C1427.069458,1385.911865 1401.271851,1408.154419 1362.537109,1415.748413 
	C1345.002441,1419.185913 1327.425537,1418.544434 1310.006104,1414.247192 
	C1270.845947,1404.586792 1243.990234,1374.938232 1238.102417,1334.967529 
	C1235.645508,1318.288818 1236.074951,1301.778320 1239.912476,1285.350342 
	C1249.360107,1244.905640 1281.006958,1216.715698 1322.432495,1212.123413 
	C1344.963623,1209.625732 1367.008301,1211.301270 1388.635742,1221.197510 
M1373.009399,1345.581787 
	C1380.896973,1324.091919 1381.313477,1302.582642 1372.060913,1281.480347 
	C1365.982056,1267.615845 1354.594482,1260.895020 1339.533081,1260.935547 
	C1324.927368,1260.974854 1313.615479,1267.309692 1307.614502,1280.804565 
	C1297.650146,1303.212280 1297.613647,1325.970581 1307.794678,1348.366577 
	C1311.958740,1357.526611 1319.144409,1363.720703 1329.145386,1366.459839 
	C1347.431152,1371.468262 1362.313721,1364.822876 1373.009399,1345.581787 
z"/>
<path fill="#FEFCFC" opacity="1.000000" stroke="none" 
	d="
M2342.550293,1417.398804 
	C2327.991699,1416.142456 2314.406738,1414.724609 2301.544678,1409.609375 
	C2277.416992,1400.014038 2264.662109,1379.870850 2266.389893,1352.636963 
	C2276.718506,1352.249878 2287.236572,1352.500122 2297.736328,1352.457275 
	C2308.375977,1352.413940 2319.016113,1352.447754 2330.192383,1352.447754 
	C2330.850830,1354.928345 2331.472168,1357.055054 2331.978027,1359.208862 
	C2336.169189,1377.042114 2359.626953,1384.662964 2373.595215,1372.717896 
	C2380.945801,1366.432129 2381.122314,1353.484497 2372.955566,1347.175415 
	C2367.830322,1343.216064 2361.507080,1340.209229 2355.250488,1338.441162 
	C2343.420166,1335.098022 2331.247070,1332.973022 2319.224854,1330.302856 
	C2315.652832,1329.509521 2312.072510,1328.713379 2308.558594,1327.702148 
	C2265.186035,1315.220337 2264.280518,1266.422974 2286.705078,1243.557251 
	C2298.961670,1231.059570 2314.282715,1225.032959 2331.023682,1222.479126 
	C2354.326172,1218.924438 2377.617432,1219.859619 2400.372803,1226.216675 
	C2407.953369,1228.334595 2415.485107,1231.693726 2422.113770,1235.932251 
	C2436.338135,1245.027466 2442.918945,1258.597900 2442.688965,1276.105957 
	C2421.322998,1276.105957 2400.436035,1276.105957 2379.272217,1276.105957 
	C2378.925537,1275.409790 2378.306152,1274.611572 2378.117920,1273.722046 
	C2374.506592,1256.678589 2356.325684,1248.735474 2341.144775,1257.601807 
	C2330.539551,1263.795776 2330.011230,1279.395020 2340.705566,1285.794922 
	C2345.714844,1288.792847 2351.709717,1290.535767 2357.488037,1291.774780 
	C2368.871582,1294.215454 2380.581787,1295.252075 2391.843750,1298.106201 
	C2401.766113,1300.620972 2411.772949,1303.817139 2420.858154,1308.447632 
	C2462.370850,1329.605713 2453.145020,1381.762451 2426.147461,1399.867554 
	C2412.201172,1409.219971 2396.760498,1414.056519 2380.387207,1415.768677 
	C2368.161621,1417.047119 2355.791992,1416.944946 2342.550293,1417.398804 
z"/>
<path fill="#FEFCFC" opacity="1.000000" stroke="none" 
	d="
M770.039001,1270.102051 
	C785.804199,1230.177979 822.014343,1208.158447 868.712585,1211.421753 
	C910.379639,1214.333496 940.570740,1237.328491 952.836060,1275.380127 
	C953.636597,1277.863770 954.133118,1280.445190 954.766602,1282.963379 
	C947.555176,1285.113525 908.025146,1285.721558 891.710388,1283.982056 
	C890.245483,1281.338623 888.797546,1278.374634 887.038635,1275.608276 
	C874.311707,1255.592285 846.274780,1255.746582 833.879761,1276.015137 
	C831.478943,1279.941040 829.522888,1284.326050 828.310913,1288.758789 
	C823.647766,1305.813965 823.632874,1323.019653 828.357727,1340.056274 
	C829.671936,1344.794800 831.807861,1349.503662 834.482910,1353.632812 
	C846.844910,1372.714966 873.874207,1372.763306 886.506165,1353.876221 
	C888.345764,1351.125610 889.785950,1348.107666 891.733093,1344.639893 
	C912.199890,1344.639893 932.972534,1344.639893 954.254211,1344.639893 
	C953.854492,1347.072388 953.788940,1349.072632 953.187805,1350.896240 
	C936.920471,1400.238525 892.261841,1422.337769 849.252319,1417.046387 
	C798.148010,1410.759277 764.188354,1372.228149 762.288635,1319.869873 
	C761.679077,1303.070068 763.846802,1286.656006 770.039001,1270.102051 
z"/>
<path fill="#FFFEFD" opacity="1.000000" stroke="none" 
	d="
M1953.968262,1412.138062 
	C1938.401733,1412.138062 1923.831909,1412.138062 1908.763428,1412.138062 
	C1908.763428,1336.931885 1908.763428,1262.799683 1908.763428,1188.105957 
	C1931.349731,1188.105957 1953.466553,1188.105957 1976.068726,1188.105957 
	C1976.068726,1262.741089 1976.068726,1336.882324 1976.068726,1412.138062 
	C1968.775391,1412.138062 1961.870239,1412.138062 1953.968262,1412.138062 
z"/>
<path fill="#FABC2E" opacity="1.000000" stroke="none" 
	d="
M2138.026367,1694.019775 
	C2102.128662,1686.973145 2078.675049,1662.931519 2073.446289,1628.594971 
	C2067.430420,1589.091797 2094.458252,1550.552246 2133.811035,1542.519897 
	C2174.412109,1534.232422 2213.991943,1559.008789 2224.224609,1599.117310 
	C2237.317627,1650.438599 2195.548828,1699.394531 2142.847412,1694.495728 
	C2141.521973,1694.372559 2140.197266,1694.240356 2138.026367,1694.019775 
M2081.412354,1618.939331 
	C2080.825928,1656.719727 2114.272705,1687.698730 2150.861084,1686.236450 
	C2178.684814,1685.124390 2199.339600,1672.224487 2211.233398,1647.292480 
	C2223.337891,1621.919312 2220.306641,1597.070435 2202.728271,1575.139526 
	C2185.367432,1553.479492 2162.017090,1545.881226 2134.936768,1551.235840 
	C2102.217773,1557.705688 2080.539551,1588.135864 2081.412354,1618.939331 
z"/>
<path fill="#FEFCFC" opacity="1.000000" stroke="none" 
	d="
M2259.586914,1245.510864 
	C2257.973145,1247.009888 2256.600830,1248.325195 2255.203857,1248.351807 
	C2245.611084,1248.534668 2236.013428,1248.447754 2225.079590,1248.447754 
	C2226.052979,1228.101929 2226.995605,1208.403442 2227.965820,1188.124512 
	C2243.337402,1188.124512 2258.126953,1188.124512 2274.245361,1188.124512 
	C2269.400391,1207.132324 2264.608643,1225.931641 2259.586914,1245.510864 
z"/>
<path fill="#D62F22" opacity="1.000000" stroke="none" 
	d="
M1072.248901,1363.478516 
	C1066.720337,1363.478516 1062.148438,1363.478516 1057.050415,1363.478516 
	C1057.050415,1322.527100 1057.050415,1282.735962 1057.050415,1242.739502 
	C1072.446045,1242.739502 1087.521240,1241.222046 1102.156616,1243.111694 
	C1121.823486,1245.650757 1134.140137,1258.625366 1139.723022,1277.452026 
	C1144.258057,1292.745117 1144.477539,1308.378174 1140.683838,1323.882935 
	C1134.557007,1348.924316 1117.935059,1362.391357 1092.199951,1363.411987 
	C1085.877686,1363.662842 1079.537476,1363.468384 1072.248901,1363.478516 
z"/>
<path fill="#D62E22" opacity="1.000000" stroke="none" 
	d="
M2094.943848,1370.051025 
	C2081.136719,1367.538452 2072.535400,1359.691528 2067.894043,1347.757690 
	C2060.719971,1329.312744 2060.587402,1310.508057 2068.089844,1292.210938 
	C2076.395752,1271.955078 2098.650635,1264.041870 2117.918701,1274.046509 
	C2128.041016,1279.302246 2134.239014,1287.193481 2133.921143,1299.479248 
	C2133.533203,1314.462891 2133.522949,1329.473633 2133.968262,1344.454102 
	C2134.166748,1351.137207 2131.583740,1355.920166 2127.108887,1360.270020 
	C2118.313477,1368.820068 2107.614502,1371.223755 2094.943848,1370.051025 
z"/>
<path fill="#D63023" opacity="1.000000" stroke="none" 
	d="
M1803.408447,1355.377441 
	C1794.806763,1363.213257 1785.218140,1366.360718 1774.456055,1365.649048 
	C1764.878662,1365.015869 1757.952148,1360.239746 1756.113525,1352.798218 
	C1753.889282,1343.796631 1755.431396,1335.546143 1762.861328,1329.226196 
	C1769.236816,1323.802979 1776.819580,1321.770996 1785.069092,1321.799683 
	C1793.682983,1321.829590 1802.297119,1321.806396 1811.667603,1321.806396 
	C1813.374146,1332.982178 1813.435181,1344.895630 1803.408447,1355.377441 
z"/>
<path fill="#D62E21" opacity="1.000000" stroke="none" 
	d="
M1372.659546,1346.261963 
	C1362.313721,1364.822876 1347.431152,1371.468262 1329.145386,1366.459839 
	C1319.144409,1363.720703 1311.958740,1357.526611 1307.794678,1348.366577 
	C1297.613647,1325.970581 1297.650146,1303.212280 1307.614502,1280.804565 
	C1313.615479,1267.309692 1324.927368,1260.974854 1339.533081,1260.935547 
	C1354.594482,1260.895020 1365.982056,1267.615845 1372.060913,1281.480347 
	C1381.313477,1302.582642 1380.896973,1324.091919 1372.659546,1346.261963 
z"/>
<path fill="#D62F1E" opacity="1.000000" stroke="none" 
	d="
M2081.411865,1618.002319 
	C2080.539551,1588.135864 2102.217773,1557.705688 2134.936768,1551.235840 
	C2162.017090,1545.881226 2185.367432,1553.479492 2202.728271,1575.139526 
	C2220.306641,1597.070435 2223.337891,1621.919312 2211.233398,1647.292480 
	C2199.339600,1672.224487 2178.684814,1685.124390 2150.861084,1686.236450 
	C2114.272705,1687.698730 2080.825928,1656.719727 2081.411865,1618.002319 
M2166.601318,1636.493164 
	C2169.194824,1644.559937 2171.788330,1652.626831 2174.462891,1660.945557 
	C2179.534668,1660.945557 2185.001953,1660.945557 2190.375000,1660.945557 
	C2192.229736,1642.796265 2187.940430,1634.075928 2171.478027,1622.362549 
	C2173.781982,1621.234497 2175.798340,1620.242920 2177.818359,1619.259155 
	C2186.303467,1615.127930 2191.414795,1608.502686 2191.691162,1598.958374 
	C2191.979980,1588.983887 2187.112549,1581.284058 2178.264893,1577.397095 
	C2171.735596,1574.528564 2164.335938,1572.922607 2157.194580,1572.337646 
	C2146.941162,1571.497925 2136.569580,1572.046631 2126.249023,1572.116089 
	C2123.032959,1572.137695 2119.819580,1572.526978 2116.873779,1572.729370 
	C2114.420166,1584.853882 2114.994873,1653.830933 2117.443115,1660.884033 
	C2121.866699,1660.884033 2126.315430,1660.884033 2132.067871,1660.884033 
	C2132.067871,1650.293091 2132.067871,1640.491211 2132.067871,1629.826904 
	C2144.449219,1629.957153 2155.864746,1626.652344 2166.601318,1636.493164 
z"/>
<path fill="#FBC22E" opacity="1.000000" stroke="none" 
	d="
M2166.088867,1635.904541 
	C2155.864746,1626.652344 2144.449219,1629.957153 2132.067871,1629.826904 
	C2132.067871,1640.491211 2132.067871,1650.293091 2132.067871,1660.884033 
	C2126.315430,1660.884033 2121.866699,1660.884033 2117.443115,1660.884033 
	C2114.994873,1653.830933 2114.420166,1584.853882 2116.873779,1572.729370 
	C2119.819580,1572.526978 2123.032959,1572.137695 2126.249023,1572.116089 
	C2136.569580,1572.046631 2146.941162,1571.497925 2157.194580,1572.337646 
	C2164.335938,1572.922607 2171.735596,1574.528564 2178.264893,1577.397095 
	C2187.112549,1581.284058 2191.979980,1588.983887 2191.691162,1598.958374 
	C2191.414795,1608.502686 2186.303467,1615.127930 2177.818359,1619.259155 
	C2175.798340,1620.242920 2173.781982,1621.234497 2171.478027,1622.362549 
	C2187.940430,1634.075928 2192.229736,1642.796265 2190.375000,1660.945557 
	C2185.001953,1660.945557 2179.534668,1660.945557 2174.462891,1660.945557 
	C2171.788330,1652.626831 2169.194824,1644.559937 2166.088867,1635.904541 
M2145.012207,1586.301880 
	C2140.860840,1586.498047 2136.709473,1586.694092 2132.742676,1586.881592 
	C2132.742676,1596.698486 2132.742676,1605.132690 2132.742676,1614.544678 
	C2138.250244,1614.544678 2142.860596,1614.723633 2147.450928,1614.497559 
	C2152.734863,1614.237549 2158.167725,1614.275757 2163.234619,1612.993774 
	C2169.855469,1611.318604 2172.742188,1606.375488 2172.582275,1599.445068 
	C2172.428223,1592.769531 2169.949463,1589.329346 2162.663574,1587.754150 
	C2157.532959,1586.644775 2152.140869,1586.743530 2145.012207,1586.301880 
z"/>
<path fill="#D62F1E" opacity="1.000000" stroke="none" 
	d="
M2145.938965,1586.302246 
	C2152.140869,1586.743530 2157.532959,1586.644775 2162.663574,1587.754150 
	C2169.949463,1589.329346 2172.428223,1592.769531 2172.582275,1599.445068 
	C2172.742188,1606.375488 2169.855469,1611.318604 2163.234619,1612.993774 
	C2158.167725,1614.275757 2152.734863,1614.237549 2147.450928,1614.497559 
	C2142.860596,1614.723633 2138.250244,1614.544678 2132.742676,1614.544678 
	C2132.742676,1605.132690 2132.742676,1596.698486 2132.742676,1586.881592 
	C2136.709473,1586.694092 2140.860840,1586.498047 2145.938965,1586.302246 
z"/>
</svg>