<svg version="1.1" id="Layer_1" xmlns="http://www.w3.org/2000/svg" xmlns:xlink="http://www.w3.org/1999/xlink" x="0px" y="0px"
	 width="100%" viewBox="0 0 512 512" enable-background="new 0 0 512 512" xml:space="preserve">
<path fill="#4D6FA9" opacity="1.000000" stroke="none" 
	d="
M0.999999,486.000000 
	C1.000000,333.644653 1.000000,181.289307 1.341754,28.314224 
	C3.692366,20.123688 7.043385,13.285421 13.748576,8.862871 
	C18.263578,5.884907 23.233561,3.596751 28.000000,1.000000 
	C180.355347,1.000000 332.710693,1.000000 485.685791,1.341753 
	C493.876312,3.692351 500.714600,7.043370 505.137146,13.748550 
	C508.115143,18.263546 510.403259,23.233549 513.000000,27.999996 
	C513.000000,180.355347 513.000000,332.710693 512.658264,485.685791 
	C510.307587,493.876282 506.956665,500.714569 500.251434,505.137115 
	C495.736420,508.115082 490.766449,510.403259 486.000000,513.000000 
	C436.311310,513.000000 386.622650,513.000000 336.611145,512.550659 
	C336.322784,509.936127 336.387146,507.771027 336.387360,505.605896 
	C336.393036,451.107208 336.448334,396.608368 336.290314,342.110138 
	C336.276947,337.495972 337.557831,336.250793 342.133667,336.289185 
	C367.631256,336.503052 393.131592,336.398560 418.630981,336.377838 
	C420.553986,336.376282 422.476837,336.179474 424.367310,336.075226 
	C424.367310,306.481781 424.367310,277.437195 424.367310,248.034760 
	C394.965363,248.034760 366.001556,248.034760 336.391937,248.034760 
	C336.391937,245.896027 336.391937,244.106094 336.391937,242.316177 
	C336.391968,227.983185 336.377899,213.650192 336.395782,199.317215 
	C336.414856,184.029724 342.738708,177.636566 357.878387,177.624802 
	C381.377808,177.606552 404.877991,177.524841 428.375977,177.708237 
	C432.516907,177.740555 433.738098,176.571533 433.709412,172.398651 
	C433.530731,146.400513 433.624634,120.400528 433.606201,94.401176 
	C433.605042,92.791084 433.416992,91.181122 433.292114,89.192146 
	C425.516968,89.192146 418.207916,89.187630 410.898865,89.192993 
	C389.066528,89.209015 367.149780,88.000107 345.418732,89.492798 
	C293.779236,93.039864 252.600861,134.439926 248.856430,186.098709 
	C247.509949,204.674866 248.296860,223.405792 248.115219,242.066132 
	C248.096527,243.985764 248.112701,245.905731 248.112701,248.312500 
	C224.251358,248.312500 201.160400,248.312500 178.027374,248.312500 
	C178.027374,277.868439 178.027374,306.924744 178.027374,336.522949 
	C201.535400,336.522949 224.630280,336.522949 247.732559,336.522949 
	C247.906494,337.706055 248.086273,338.357422 248.086060,339.008728 
	C248.066269,397.005829 248.032684,455.002899 248.000000,513.000000 
	C174.977997,513.000000 101.955978,513.000000 28.314226,512.658203 
	C20.123665,510.307648 13.285409,506.956604 8.862868,500.251373 
	C5.884934,495.736389 3.596745,490.766418 0.999999,486.000000 
z"/>
<path fill="#FEFEFF" opacity="1.000000" stroke="none" 
	d="
M248.468658,513.000000 
	C248.032684,455.002899 248.066269,397.005829 248.086060,339.008728 
	C248.086273,338.357422 247.906494,337.706055 247.732559,336.522949 
	C224.630280,336.522949 201.535400,336.522949 178.027374,336.522949 
	C178.027374,306.924744 178.027374,277.868439 178.027374,248.312500 
	C201.160400,248.312500 224.251358,248.312500 248.112701,248.312500 
	C248.112701,245.905731 248.096527,243.985764 248.115219,242.066132 
	C248.296860,223.405792 247.509949,204.674866 248.856430,186.098709 
	C252.600861,134.439926 293.779236,93.039864 345.418732,89.492798 
	C367.149780,88.000107 389.066528,89.209015 410.898865,89.192993 
	C418.207916,89.187630 425.516968,89.192146 433.292114,89.192146 
	C433.416992,91.181122 433.605042,92.791084 433.606201,94.401176 
	C433.624634,120.400528 433.530731,146.400513 433.709412,172.398651 
	C433.738098,176.571533 432.516907,177.740555 428.375977,177.708237 
	C404.877991,177.524841 381.377808,177.606552 357.878387,177.624802 
	C342.738708,177.636566 336.414856,184.029724 336.395782,199.317215 
	C336.377899,213.650192 336.391968,227.983185 336.391937,242.316177 
	C336.391937,244.106094 336.391937,245.896027 336.391937,248.034760 
	C366.001556,248.034760 394.965363,248.034760 424.367310,248.034760 
	C424.367310,277.437195 424.367310,306.481781 424.367310,336.075226 
	C422.476837,336.179474 420.553986,336.376282 418.630981,336.377838 
	C393.131592,336.398560 367.631256,336.503052 342.133667,336.289185 
	C337.557831,336.250793 336.276947,337.495972 336.290314,342.110138 
	C336.448334,396.608368 336.393036,451.107208 336.387360,505.605896 
	C336.387146,507.771027 336.322784,509.936127 336.144165,512.550659 
	C306.979095,513.000000 277.958221,513.000000 248.468658,513.000000 
z"/>
<path fill="#FFFFFF" opacity="1.000000" stroke="none" 
	d="
M27.531338,1.000000 
	C23.233561,3.596751 18.263578,5.884907 13.748576,8.862871 
	C7.043385,13.285421 3.692366,20.123688 1.341754,27.847239 
	C1.000000,19.073568 1.000000,10.147137 1.000000,1.000000 
	C9.686316,1.000000 18.374496,1.000000 27.531338,1.000000 
z"/>
<path fill="#FFFFFF" opacity="1.000000" stroke="none" 
	d="
M513.000000,27.531334 
	C510.403259,23.233549 508.115143,18.263546 505.137146,13.748550 
	C500.714600,7.043370 493.876312,3.692351 486.152771,1.341753 
	C494.926422,1.000000 503.852875,1.000000 513.000000,1.000000 
	C513.000000,9.686316 513.000000,18.374496 513.000000,27.531334 
z"/>
<path fill="#FFFFFF" opacity="1.000000" stroke="none" 
	d="
M0.999999,486.468658 
	C3.596745,490.766418 5.884934,495.736389 8.862868,500.251373 
	C13.285409,506.956604 20.123665,510.307648 27.847240,512.658203 
	C19.073566,513.000000 10.147134,513.000000 1.000000,513.000000 
	C1.000000,504.313690 1.000000,495.625488 0.999999,486.468658 
z"/>
<path fill="#FFFFFF" opacity="1.000000" stroke="none" 
	d="
M486.468658,513.000000 
	C490.766449,510.403259 495.736420,508.115082 500.251434,505.137115 
	C506.956665,500.714569 510.307587,493.876282 512.658264,486.152771 
	C513.000000,494.926422 513.000000,503.852875 513.000000,513.000000 
	C504.313690,513.000000 495.625488,513.000000 486.468658,513.000000 
z"/>
</svg>