<svg version="1.1" id="Layer_1" xmlns="http://www.w3.org/2000/svg" xmlns:xlink="http://www.w3.org/1999/xlink" x="0px" y="0px"
	 width="100%" viewBox="0 0 568 320" enable-background="new 0 0 568 320" xml:space="preserve">
<path fill="#1528A1" opacity="1.000000" stroke="none" 
	d="
M535.000000,321.000000 
	C365.977356,321.000000 196.954727,321.000000 27.165512,320.833984 
	C25.641039,320.111115 24.961060,319.345337 24.113396,319.029144 
	C13.710576,315.149353 6.636457,308.029938 2.865360,297.576538 
	C2.519607,296.618134 1.634605,295.854218 1.000002,295.000000 
	C1.000000,205.977356 1.000000,116.954720 1.341349,27.404957 
	C6.017999,14.799082 13.649457,6.013387 26.276373,2.174728 
	C26.606146,2.074475 26.762676,1.404358 27.000000,1.000000 
	C197.022629,1.000000 367.045258,1.000000 537.909973,1.000500 
	C552.979370,3.949203 563.047058,11.717398 567.659851,25.863539 
	C567.814453,26.337608 568.540405,26.625391 569.000000,27.000002 
	C569.000000,114.022644 569.000000,201.045288 568.634766,288.601685 
	C566.558228,294.478180 564.847046,299.820923 563.094788,305.102295 
	C563.053711,305.040955 563.174866,305.125305 562.761597,305.096313 
	C561.830078,306.207001 561.311829,307.346710 560.736389,308.579163 
	C560.679138,308.671844 560.519531,308.820221 560.162476,308.585510 
	C557.916565,307.886078 556.027649,307.421387 554.093872,306.945648 
	C554.719055,309.766632 555.134583,311.641724 555.502991,313.512634 
	C555.455872,313.508514 555.432922,313.600311 555.091187,313.461975 
	C554.209717,313.942230 553.669922,314.560852 553.083252,315.115417 
	C553.036316,315.051392 553.165771,315.143280 552.790955,315.100311 
	C550.233093,314.893738 548.050110,314.730133 545.850403,314.565277 
	C544.595337,315.353821 543.013672,316.395844 541.385132,317.358673 
	C539.276245,318.605469 537.130127,319.789124 535.000000,321.000000 
M403.684143,181.930786 
	C403.744934,181.818420 403.879395,181.682144 403.852203,181.598312 
	C403.780090,181.375916 403.638123,181.176193 403.418152,180.366318 
	C403.462921,179.963211 403.507721,179.560089 403.925903,179.087036 
	C403.790558,178.671707 403.655212,178.256378 403.397369,176.939911 
	C403.426086,172.341660 403.454834,167.743408 403.924957,162.990906 
	C403.778534,162.278397 403.632111,161.565887 403.382599,159.960983 
	C403.420685,156.356262 403.458771,152.751541 404.011963,148.871643 
	C403.840820,147.531982 403.669678,146.192322 403.398956,144.288605 
	C403.431885,143.909622 403.464813,143.530655 404.071960,142.809631 
	C403.736053,140.867477 403.400177,138.925308 402.589844,136.799164 
	C402.436768,136.726044 402.283722,136.652939 401.789307,135.930252 
	C398.497498,136.229050 395.205719,136.527847 391.923187,136.917572 
	C391.923187,136.917572 391.831787,136.916656 391.128937,137.207336 
	C390.805511,144.364166 390.482086,151.520996 390.158630,158.677826 
	C388.317902,155.430374 387.570160,151.980057 386.706696,148.558945 
	C385.796204,144.951370 385.327209,141.088516 383.665833,137.849930 
	C381.489532,133.607574 367.944031,133.376373 363.998779,137.003525 
	C363.998779,137.003525 364.111908,137.104416 363.397736,137.266525 
	C362.836853,139.427948 361.507843,141.716888 361.841980,143.729752 
	C363.763123,155.302856 364.114227,166.783813 361.835907,178.364426 
	C361.530884,179.914978 363.614319,183.477386 364.032837,183.391312 
	C368.526886,182.466843 374.206818,186.572266 377.464142,180.553085 
	C377.757477,180.011093 376.995697,178.984085 376.989319,178.180206 
	C376.942780,172.331726 376.964264,166.482712 376.964264,160.633850 
	C379.456940,165.173203 380.633667,169.954330 382.314850,174.550949 
	C383.330475,177.327805 385.129120,179.818268 387.302307,182.764328 
	C392.181580,183.141800 397.060852,183.519287 402.531006,183.919022 
	C402.745148,183.410309 402.959290,182.901581 403.185059,182.200745 
	C403.185059,182.200745 403.326508,182.070221 403.684143,181.930786 
M122.915260,167.446259 
	C122.915260,167.446259 122.792313,167.873169 122.108887,168.142166 
	C120.113953,173.181854 121.376801,179.454865 125.330757,182.742584 
	C131.964218,188.258347 139.740372,189.637863 147.703629,187.006348 
	C151.402145,185.784164 156.581314,182.985291 157.271973,180.013885 
	C158.597717,174.310165 157.730652,167.878204 156.663651,161.947983 
	C156.255447,159.679291 152.814285,157.949738 150.739822,155.990829 
	C149.978668,155.272064 149.172928,154.600540 148.387512,153.907471 
	C149.404129,153.272003 150.346497,152.329788 151.452148,152.062103 
	C154.115585,151.417343 156.855423,151.088303 161.111649,150.371262 
	C156.735733,143.135788 153.192963,137.277878 150.342453,132.564606 
	C144.335663,133.170074 140.215714,134.013840 136.116974,133.921097 
	C121.724983,133.595474 119.919037,143.842224 121.259163,154.039185 
	C121.506462,155.920853 122.030334,158.175903 125.214485,157.444138 
	C125.414238,157.706909 125.667236,157.899902 126.065361,158.688248 
	C127.405518,160.128998 128.745682,161.569748 130.050659,163.701370 
	C129.711029,164.509552 129.371414,165.317734 128.359467,165.765671 
	C126.571953,166.180313 124.784447,166.594955 122.915260,167.446259 
M353.708344,144.893051 
	C353.490906,143.924194 353.273468,142.955338 353.028503,141.130585 
	C353.019409,139.415405 353.010315,137.700241 352.999786,135.280762 
	C352.832520,134.410873 352.665253,133.540985 352.767609,134.073257 
	C348.460327,134.073257 344.748657,133.711044 341.158569,134.214920 
	C339.143311,134.497803 336.280823,135.812317 335.681396,137.380936 
	C334.875977,139.488739 335.731384,142.320145 336.190063,144.782028 
	C336.398956,145.903397 337.876404,146.870148 337.904388,147.930084 
	C338.070709,154.234207 338.292328,160.567566 337.839081,166.843704 
	C337.630219,169.735977 336.654785,173.355179 332.001801,171.256973 
	C332.007416,170.502899 332.013031,169.748840 332.646149,169.047195 
	C333.619354,168.879227 334.592590,168.711258 335.565796,168.543304 
	C334.697510,167.681641 333.829254,166.819992 332.830627,165.146988 
	C332.566559,161.096069 332.302490,157.045151 332.595917,153.584930 
	C332.875580,156.510193 333.155273,159.435440 333.434967,162.360703 
	C333.925629,162.338287 334.416321,162.315887 334.906982,162.293472 
	C334.906982,157.307617 334.986115,152.318512 334.781097,147.341110 
	C334.761230,146.858337 332.983673,146.447968 332.002960,145.204147 
	C332.007690,144.137772 332.012421,143.071381 332.450409,141.702469 
	C332.307129,141.132736 332.163879,140.563004 332.000549,139.298584 
	C331.620483,138.533127 331.240417,137.767654 330.726135,136.921631 
	C330.726135,136.921631 330.674408,136.773880 330.825134,135.986420 
	C330.368713,135.209274 330.028381,133.869858 329.436737,133.747726 
	C326.020325,133.042435 322.555939,132.450058 319.081451,132.224350 
	C318.137360,132.163025 316.869415,133.323608 316.167877,134.242386 
	C315.288422,135.394196 315.026642,137.010254 314.172363,138.189941 
	C310.376465,143.431915 310.334320,143.401398 314.307861,145.760880 
	C317.100922,149.053360 308.703186,153.506195 316.947845,155.876556 
	C316.939423,157.578110 316.930969,159.279678 316.092651,160.996292 
	C313.798920,160.893311 311.337952,161.084503 312.187988,164.182266 
	C312.517181,165.381943 314.711884,166.069702 316.136963,167.720779 
	C316.423828,169.157745 316.710693,170.594696 316.999084,172.860291 
	C316.586670,175.404556 316.174255,177.948837 315.769806,180.444031 
	C311.003357,180.647629 309.979279,178.352966 309.843140,174.344482 
	C309.739410,171.290726 312.061218,167.309296 307.780304,165.156204 
	C307.780304,165.156204 307.729584,165.266525 307.897430,164.472916 
	C307.262543,158.579651 299.742706,152.933258 292.982239,153.054749 
	C292.982239,153.054749 292.850311,153.187317 293.048523,152.443420 
	C296.735992,150.602402 302.385712,151.864960 304.788422,155.444229 
	C305.897644,153.063873 306.892548,150.928818 307.875275,148.036392 
	C306.930359,142.751389 304.959167,137.638733 299.270630,136.603836 
	C294.060486,135.655945 288.260406,135.283737 283.227814,136.599365 
	C273.662872,139.099838 271.532135,151.513855 279.021027,158.025848 
	C280.636597,159.430649 282.394501,160.671753 283.913757,162.674515 
	C281.948212,163.798279 279.982635,164.922058 277.382111,165.757797 
	C275.699646,166.378616 273.343445,166.512421 272.471283,167.718979 
	C270.494843,170.453262 273.441956,181.828903 276.226227,184.010864 
	C281.907257,188.462906 294.988647,189.011215 301.370514,185.487564 
	C303.694519,184.204407 307.161926,182.706085 309.143402,183.555466 
	C313.521606,185.432220 316.600525,184.909912 319.232910,181.082901 
	C326.354462,190.683426 344.226166,188.773468 354.457245,177.877945 
	C353.951324,175.841187 353.477814,173.935028 352.999969,171.084961 
	C353.021088,162.395111 353.042206,153.705276 353.708344,144.893051 
M179.386932,170.719864 
	C179.386932,170.719864 179.350250,170.606979 180.159805,170.488068 
	C180.447525,169.435043 180.695602,168.369263 181.029953,167.331253 
	C182.359344,163.204071 183.715668,159.085587 185.334671,155.608932 
	C186.606674,163.826538 187.807816,172.056442 189.231064,180.247772 
	C189.432617,181.407761 190.627884,183.198868 191.513351,183.293518 
	C194.885315,183.654007 198.318802,183.438934 202.178238,183.438934 
	C199.633224,168.246277 197.236908,153.941269 194.932648,138.777527 
	C195.353821,135.642654 194.478760,134.515686 190.893463,134.833588 
	C186.027786,135.265060 181.066010,134.502991 176.162720,134.694626 
	C174.889420,134.744400 173.680359,136.438019 172.349365,137.456573 
	C172.349365,137.456573 172.462219,137.408722 171.660278,137.250748 
	C170.838516,138.145935 169.391357,138.977905 169.293472,139.946274 
	C168.477097,148.021500 167.909180,156.121857 167.362289,164.099014 
	C167.362289,164.099014 167.458435,164.214493 166.693207,164.425262 
	C165.159317,170.223343 163.569153,176.008408 162.220337,181.849228 
	C162.132034,182.231613 163.891876,183.040771 164.872940,183.628220 
	C164.872940,183.628220 164.956619,183.637238 165.433838,184.354233 
	C169.766922,184.741425 174.100006,185.128616 179.505646,185.611649 
	C179.505646,180.397324 179.505646,175.558640 179.386932,170.719864 
M238.173065,148.032837 
	C233.138000,147.186356 235.226395,143.190002 235.049393,140.454117 
	C234.684143,134.808594 232.967957,133.356750 227.440948,133.943039 
	C224.270462,134.279373 220.982819,134.063492 217.807434,133.644775 
	C214.676193,133.231857 209.138260,136.983231 209.207306,139.926743 
	C209.467300,151.009705 209.839615,162.091080 209.964676,173.175369 
	C209.995102,175.872055 209.243179,178.577545 208.762741,181.886826 
	C210.775711,183.690262 212.435989,188.615555 217.603683,183.492218 
	C218.045227,183.558380 218.486771,183.624542 219.017578,184.335266 
	C219.726761,184.805725 221.023941,185.728561 221.060272,185.681335 
	C222.441254,183.886429 224.300919,182.158310 224.842545,180.092453 
	C225.586060,177.256531 225.318924,174.155640 225.484863,171.168274 
	C226.172089,171.185959 226.859314,171.203644 227.546555,171.221329 
	C227.779465,175.628586 228.012375,180.035828 228.252274,184.575027 
	C234.600204,185.820297 240.488968,187.948639 246.088699,183.301315 
	C246.901123,182.627060 248.657181,183.089813 250.177109,183.759171 
	C253.130386,184.497849 256.054688,185.682358 259.043335,185.876511 
	C264.252319,186.214890 266.434174,183.221161 265.850006,178.044159 
	C265.053040,170.981155 264.390564,163.891083 264.030853,156.794342 
	C263.736115,150.978836 264.183807,145.123764 263.837616,139.313919 
	C263.731445,137.532532 262.153290,134.394836 261.141144,134.350586 
	C255.438339,134.101288 249.305222,131.584305 243.573120,136.738174 
	C243.350037,136.825653 243.126953,136.913116 242.160797,137.168671 
	C241.101120,140.808777 240.041443,144.448868 238.173065,148.032837 
M414.310364,153.404739 
	C413.876434,154.934143 413.247955,156.437759 413.041412,157.997269 
	C412.001282,165.850281 415.657471,173.859344 411.464600,181.776123 
	C409.725067,185.060654 412.842560,188.313187 416.777863,187.874405 
	C419.773773,187.540375 423.206696,184.571198 425.470764,185.408661 
	C433.542450,188.394363 440.831116,183.424545 449.173859,184.664612 
	C448.963684,180.752304 448.778625,177.307800 448.593536,172.952942 
	C448.742432,168.969986 448.891296,164.987030 449.730560,160.859222 
	C448.720306,155.238663 457.306915,149.352936 449.270203,143.871140 
	C448.902466,143.620316 449.053314,142.608261 448.963806,141.950592 
	C448.214478,136.443665 444.309113,134.142502 439.512482,133.155655 
	C435.015900,132.230515 430.417694,131.799149 425.776276,131.137985 
	C425.266907,134.082169 416.698273,138.762482 412.417267,137.677002 
	C409.341034,143.790054 409.566437,144.873978 415.212036,150.728287 
	C415.140625,151.490387 415.069214,152.252502 414.310364,153.404739 
z"/>
<path fill="#F2F5FA" opacity="1.000000" stroke="none" 
	d="
M569.000000,26.531336 
	C568.540405,26.625391 567.814453,26.337608 567.659851,25.863539 
	C563.047058,11.717398 552.979370,3.949203 538.376038,1.000500 
	C548.253357,1.000000 558.506714,1.000000 569.000000,1.000000 
	C569.000000,9.352695 569.000000,17.707682 569.000000,26.531336 
z"/>
<path fill="#F5F7FB" opacity="1.000000" stroke="none" 
	d="
M26.531334,1.000000 
	C26.762676,1.404358 26.606146,2.074475 26.276373,2.174728 
	C13.649457,6.013387 6.017999,14.799082 1.341349,26.938915 
	C1.000000,18.406929 1.000000,9.813859 1.000000,1.000000 
	C9.352930,1.000000 17.707798,1.000000 26.531334,1.000000 
z"/>
<path fill="#F5F7FB" opacity="1.000000" stroke="none" 
	d="
M1.000002,295.468658 
	C1.634605,295.854218 2.519607,296.618134 2.865360,297.576538 
	C6.636457,308.029938 13.710576,315.149353 24.113396,319.029144 
	C24.961060,319.345337 25.641039,320.111115 26.699471,320.833984 
	C18.406927,321.000000 9.813854,321.000000 1.000000,321.000000 
	C1.000000,312.647064 1.000000,304.292206 1.000002,295.468658 
z"/>
<path fill="#F5F7FB" opacity="1.000000" stroke="none" 
	d="
M569.000000,295.000000 
	C569.000000,303.593048 569.000000,312.186127 569.000000,321.000000 
	C560.647095,321.000000 552.292236,321.000000 543.557861,320.647400 
	C546.507507,318.577606 549.836670,316.860443 553.165771,315.143311 
	C553.165771,315.143280 553.036316,315.051392 553.372925,315.072479 
	C554.283936,314.595825 554.858459,314.098053 555.432922,313.600311 
	C555.432922,313.600311 555.455872,313.508514 555.805542,313.404419 
	C557.609924,311.806915 559.064697,310.313568 560.519531,308.820221 
	C560.519531,308.820221 560.679138,308.671844 560.983521,308.416870 
	C561.916870,307.149719 562.545837,306.137512 563.174866,305.125305 
	C563.174866,305.125305 563.053711,305.040955 563.396240,304.933350 
	C565.492432,301.550476 567.246216,298.275238 569.000000,295.000000 
z"/>
<path fill="#2C3897" opacity="1.000000" stroke="none" 
	d="
M552.790955,315.100342 
	C549.836670,316.860443 546.507507,318.577606 543.089233,320.647400 
	C540.629456,321.000000 538.258850,321.000000 535.444153,321.000000 
	C537.130127,319.789124 539.276245,318.605469 541.385132,317.358673 
	C543.013672,316.395844 544.595337,315.353821 545.850403,314.565277 
	C548.050110,314.730133 550.233093,314.893738 552.790955,315.100342 
z"/>
<path fill="#2C3897" opacity="1.000000" stroke="none" 
	d="
M569.000000,294.571533 
	C567.246216,298.275238 565.492432,301.550476 563.437256,304.994690 
	C564.847046,299.820923 566.558228,294.478180 568.634766,289.067688 
	C569.000000,290.714355 569.000000,292.428711 569.000000,294.571533 
z"/>
<path fill="#F2F4FA" opacity="1.000000" stroke="none" 
	d="
M242.903870,137.000595 
	C243.126953,136.913116 243.350037,136.825653 244.312683,136.652222 
	C250.645950,136.566284 256.239655,136.566284 262.471558,136.566284 
	C262.471558,152.527954 262.471558,167.590424 262.471558,182.898743 
	C258.822632,182.898743 255.055634,182.898743 251.287231,182.437653 
	C251.285812,171.786987 251.285812,161.597412 251.285812,151.407837 
	C250.828537,151.333588 250.371262,151.259338 249.913986,151.185104 
	C249.588089,152.450714 249.262192,153.716339 248.709412,155.281052 
	C247.248672,162.256531 246.204849,168.975128 244.733810,175.598831 
	C242.811661,184.253830 245.194427,183.025589 235.510666,183.311707 
	C232.446304,183.402252 231.130859,182.411560 230.608887,179.282822 
	C229.421249,172.164200 227.812607,165.115829 226.508453,157.724976 
	C225.873810,152.951370 225.105774,148.491684 224.337738,144.032013 
	C224.053070,144.071167 223.768417,144.110321 223.483749,144.149460 
	C223.483749,148.810074 223.483749,153.470673 223.422394,158.483368 
	C223.395996,159.547104 223.430939,160.258743 223.361679,161.233856 
	C223.324173,161.674042 223.390869,161.850769 223.397736,162.448822 
	C223.372330,164.570175 223.406738,166.270172 223.338348,168.233521 
	C223.290421,168.677216 223.345291,168.857529 223.337723,169.497101 
	C223.245377,172.756134 222.955246,175.583801 223.251404,178.348648 
	C223.621399,181.802750 222.426285,183.571289 218.928314,183.690704 
	C218.486771,183.624542 218.045227,183.558380 216.905640,183.465942 
	C212.530350,183.772980 211.156113,182.201981 211.643402,178.486649 
	C211.986877,175.867935 211.758881,173.172348 211.760345,170.511063 
	C211.766510,159.409851 211.762939,148.308640 211.762939,136.938736 
	C219.021851,136.938736 225.103104,136.938736 231.576508,136.938736 
	C233.206985,147.073807 234.815689,157.073532 236.424393,167.073257 
	C236.972687,167.113770 237.520966,167.154297 238.069260,167.194809 
	C238.618683,163.798248 239.168106,160.401688 239.850510,156.602936 
	C240.956940,149.800705 241.930405,143.400650 242.903870,137.000595 
z"/>
<path fill="#F1F5FA" opacity="1.000000" stroke="none" 
	d="
M401.940125,183.896759 
	C397.060852,183.519287 392.181580,183.141800 386.868958,182.227585 
	C382.967285,170.172974 379.498932,158.655090 376.030579,147.137222 
	C375.669678,147.232361 375.308777,147.327484 374.947876,147.422623 
	C374.947876,158.980011 374.947876,170.537415 374.947876,182.192780 
	C371.247833,182.192780 367.999725,182.192780 364.111908,182.192780 
	C364.111908,166.951874 364.111908,152.028137 364.111908,137.104416 
	C364.111908,137.104416 363.998779,137.003525 364.511108,136.994537 
	C368.679352,136.957596 372.374969,137.256439 375.981049,136.818390 
	C380.413300,136.279968 381.993683,138.280182 383.047394,142.254303 
	C385.547394,151.683044 388.499359,160.991943 391.268616,170.349274 
	C391.456360,170.287262 391.644073,170.225250 391.831787,170.163239 
	C391.831787,159.081039 391.831787,147.998856 391.831787,136.916656 
	C391.831787,136.916656 391.923187,136.917572 392.382202,136.881241 
	C395.937744,136.756561 399.034210,136.668213 402.130707,136.579849 
	C402.283722,136.652939 402.436768,136.726044 402.820251,137.335678 
	C403.199677,139.632019 403.348724,141.391846 403.497742,143.151672 
	C403.464813,143.530655 403.431885,143.909622 403.287537,144.982330 
	C403.283020,146.832977 403.389954,147.989899 403.496857,149.146820 
	C403.458771,152.751541 403.420685,156.356262 403.284973,160.779404 
	C403.286041,162.113602 403.384796,162.629379 403.483551,163.145157 
	C403.454834,167.743408 403.426086,172.341660 403.351196,177.722290 
	C403.387573,178.722107 403.470062,178.939545 403.552521,179.156982 
	C403.507721,179.560089 403.462921,179.963211 403.333923,180.926636 
	C403.275330,181.681366 403.300903,181.875793 403.326508,182.070221 
	C403.326508,182.070221 403.185059,182.200745 402.932129,182.366547 
	C402.432861,182.987167 402.186493,183.441971 401.940125,183.896759 
z"/>
<path fill="#EDF0F8" opacity="1.000000" stroke="none" 
	d="
M330.674408,136.773880 
	C330.674408,136.773880 330.726135,136.921631 330.765869,137.426941 
	C330.855621,149.283554 330.905670,160.634857 330.895477,172.403259 
	C331.787109,176.566391 334.850342,175.346725 336.929718,174.858536 
	C337.968231,174.614670 339.117767,172.204514 339.151245,170.749664 
	C339.361237,161.629150 339.271332,152.501740 339.279602,143.376602 
	C339.281616,141.146378 339.279877,138.916138 339.279877,136.064850 
	C343.785980,136.456177 347.359528,136.766510 350.966187,137.539307 
	C351.190277,148.048874 351.381165,158.095993 351.579102,168.428925 
	C351.564056,169.095291 351.542023,169.475861 351.335632,170.148071 
	C351.204987,171.349472 351.258728,172.259201 351.233032,173.537796 
	C349.335388,176.731720 348.157257,180.545578 345.587250,182.209259 
	C334.923798,189.112152 321.747284,183.975891 318.171570,171.537430 
	C318.212219,159.737274 318.178467,148.399887 318.446503,136.907959 
	C322.723694,136.760239 326.699036,136.767059 330.674408,136.773880 
z"/>
<path fill="#F2F5FA" opacity="1.000000" stroke="none" 
	d="
M194.840591,139.636261 
	C197.236908,153.941269 199.633224,168.246277 202.178238,183.438934 
	C198.318802,183.438934 194.885315,183.654007 191.513351,183.293518 
	C190.627884,183.198868 189.432617,181.407761 189.231064,180.247772 
	C187.807816,172.056442 186.606674,163.826538 185.278976,154.940643 
	C184.702133,151.256424 184.180969,148.240479 183.659821,145.224533 
	C183.282471,145.160110 182.905136,145.095688 182.527786,145.031265 
	C181.468613,153.556503 180.409424,162.081741 179.350250,170.606979 
	C179.350250,170.606979 179.386932,170.719864 179.205475,171.020477 
	C178.357742,175.038742 178.914734,180.180405 176.693817,182.088181 
	C174.297150,184.146881 169.301926,183.179825 165.440582,183.536331 
	C165.277542,183.551376 165.117859,183.602783 164.956619,183.637238 
	C164.956619,183.637238 164.872940,183.628220 164.719345,183.279449 
	C165.529984,176.691956 166.494202,170.453217 167.458435,164.214493 
	C167.458435,164.214493 167.362289,164.099014 167.570511,163.851181 
	C169.339890,154.871811 170.901062,146.140259 172.462219,137.408722 
	C172.462219,137.408722 172.349365,137.456573 172.729950,137.224884 
	C179.130539,136.857224 185.155792,136.546799 191.166290,136.727554 
	C192.419083,136.765228 193.617249,138.619278 194.840591,139.636261 
z"/>
<path fill="#EFF2F9" opacity="1.000000" stroke="none" 
	d="
M449.040192,161.004074 
	C448.891296,164.987030 448.742432,168.969986 448.385223,173.676132 
	C445.364410,182.150284 439.052185,185.164810 428.219299,183.930405 
	C419.687134,182.958176 415.554993,178.448929 415.353760,169.862411 
	C415.222168,164.246780 415.115570,158.630554 414.997803,153.014603 
	C415.069214,152.252502 415.140625,151.490387 415.226990,149.982178 
	C415.518372,143.280762 417.612427,137.967285 423.764313,136.641876 
	C428.779816,135.561295 434.322388,135.524765 439.384308,136.420654 
	C445.553314,137.512466 448.872009,142.603760 448.420074,148.892181 
	C448.316559,150.332230 446.141571,151.623383 444.503052,152.885010 
	C442.088531,152.847855 440.090912,152.908752 437.864838,152.860016 
	C437.226349,152.467728 436.816315,152.185074 436.447144,151.478394 
	C435.816559,143.784088 433.611664,142.198425 428.500427,145.328125 
	C428.494324,145.341736 428.465057,145.325851 428.180420,145.621155 
	C427.658112,154.627045 427.241669,163.340881 427.400787,172.044205 
	C427.421570,173.179962 430.344299,175.007248 432.029114,175.137207 
	C433.428223,175.245132 435.829346,173.607162 436.282745,172.242844 
	C437.073883,169.862244 436.708649,167.097336 436.836365,164.311798 
	C435.056946,163.979065 433.677643,163.721176 431.692535,163.349991 
	C432.146027,160.920517 432.552277,158.744141 433.333862,156.680908 
	C434.479614,156.719574 435.250061,156.645081 436.464508,156.695709 
	C440.885895,156.976669 444.863312,157.132507 448.817566,157.661713 
	C448.876373,159.024750 448.958282,160.014404 449.040192,161.004074 
z"/>
<path fill="#F0F4FA" opacity="1.000000" stroke="none" 
	d="
M284.086853,161.988251 
	C282.394501,160.671753 280.636597,159.430649 279.021027,158.025848 
	C271.532135,151.513855 273.662872,139.099838 283.227814,136.599365 
	C288.260406,135.283737 294.060486,135.655945 299.270630,136.603836 
	C304.959167,137.638733 306.930359,142.751389 307.494873,148.589432 
	C303.330933,149.661636 299.547333,150.180801 295.410156,150.748489 
	C295.212219,148.983826 295.436768,147.772125 294.933105,147.149063 
	C293.802673,145.750626 292.474335,144.083801 290.905487,143.625671 
	C289.934143,143.341995 287.377350,144.988419 287.295105,145.923447 
	C287.146179,147.616837 287.995728,149.655319 289.040405,151.110397 
	C289.800323,152.168884 291.544800,152.520538 292.850311,153.187317 
	C292.850311,153.187317 292.982239,153.054749 293.088074,153.391678 
	C298.039124,157.574585 302.884338,161.420563 307.729584,165.266525 
	C307.729584,165.266525 307.780304,165.156204 307.718079,165.608932 
	C308.790436,176.485626 306.559235,182.034195 299.100281,183.576279 
	C293.955811,184.639862 288.294067,184.261475 283.039001,183.424973 
	C277.997620,182.622498 275.480011,178.493088 274.568481,173.521027 
	C273.993713,170.385818 274.048615,167.638885 278.376831,167.061310 
	C282.362000,167.759079 285.973389,168.268433 288.788971,168.665543 
	C288.450989,170.992828 287.344116,173.749695 288.108917,174.443634 
	C289.381653,175.598404 292.063324,176.153839 293.776520,175.660065 
	C296.818695,174.783264 296.755493,169.710342 293.613434,167.512939 
	C290.615997,165.416718 287.276154,163.810104 284.086853,161.988251 
z"/>
<path fill="#2B3790" opacity="1.000000" stroke="none" 
	d="
M124.981178,157.022629 
	C122.030334,158.175903 121.506462,155.920853 121.259163,154.039185 
	C119.919037,143.842224 121.724983,133.595474 136.116974,133.921097 
	C140.215714,134.013840 144.335663,133.170074 150.342453,132.564606 
	C153.192963,137.277878 156.735733,143.135788 161.111649,150.371262 
	C156.855423,151.088303 154.115585,151.417343 151.452148,152.062103 
	C150.346497,152.329788 149.404129,153.272003 148.387512,153.907471 
	C149.172928,154.600540 149.978668,155.272064 150.739822,155.990829 
	C152.814285,157.949738 156.255447,159.679291 156.663651,161.947983 
	C157.730652,167.878204 158.597717,174.310165 157.271973,180.013885 
	C156.581314,182.985291 151.402145,185.784164 147.703629,187.006348 
	C139.740372,189.637863 131.964218,188.258347 125.330757,182.742584 
	C121.376801,179.454865 120.113953,173.181854 122.521294,168.063080 
	C122.933701,167.984009 123.082741,168.079163 123.086967,168.499268 
	C123.194252,180.061340 128.002075,184.926300 139.206100,185.121094 
	C141.191345,185.155624 143.220627,185.102341 145.162292,184.734467 
	C150.723648,183.680862 155.193436,181.262085 156.438690,175.064713 
	C157.712921,168.722946 156.947861,163.063446 151.037277,159.278778 
	C147.267624,156.864990 143.069946,155.055649 139.547211,152.347061 
	C137.760910,150.973587 136.807922,148.285950 136.062408,146.001755 
	C135.928375,145.591080 138.629135,143.511169 140.044846,143.484955 
	C143.600342,143.419098 143.958084,146.351242 144.159851,149.126480 
	C144.178909,149.388657 144.505295,149.628494 144.690460,149.880692 
	C148.281738,149.880692 151.853104,149.880692 155.375198,149.880692 
	C156.185120,143.061005 154.557053,139.338776 149.925812,136.991608 
	C143.207397,133.586670 131.433197,134.788483 126.840637,139.347992 
	C122.702965,143.455887 122.306381,149.454880 125.530563,156.545532 
	C125.346916,156.703979 124.981178,157.022629 124.981178,157.022629 
z"/>
<path fill="#1F2E95" opacity="1.000000" stroke="none" 
	d="
M278.003021,166.872925 
	C274.048615,167.638885 273.993713,170.385818 274.568481,173.521027 
	C275.480011,178.493088 277.997620,182.622498 283.039001,183.424973 
	C288.294067,184.261475 293.955811,184.639862 299.100281,183.576279 
	C306.559235,182.034195 308.790436,176.485626 307.658539,165.620682 
	C312.061218,167.309296 309.739410,171.290726 309.843140,174.344482 
	C309.979279,178.352966 311.003357,180.647629 315.769806,180.444031 
	C316.174255,177.948837 316.586670,175.404556 317.273315,172.440430 
	C317.730743,172.013748 317.913971,172.006958 318.097168,172.000183 
	C321.747284,183.975891 334.923798,189.112152 345.587250,182.209259 
	C348.157257,180.545578 349.335388,176.731720 351.422485,173.382416 
	C351.828918,172.561340 351.966858,172.264694 352.329712,171.986969 
	C352.554260,172.005737 353.004333,172.028854 353.004333,172.028854 
	C353.477814,173.935028 353.951324,175.841187 354.457245,177.877945 
	C344.226166,188.773468 326.354462,190.683426 319.232910,181.082901 
	C316.600525,184.909912 313.521606,185.432220 309.143402,183.555466 
	C307.161926,182.706085 303.694519,184.204407 301.370514,185.487564 
	C294.988647,189.011215 281.907257,188.462906 276.226227,184.010864 
	C273.441956,181.828903 270.494843,170.453262 272.471283,167.718979 
	C273.343445,166.512421 275.699646,166.378616 277.695312,166.108307 
	C278.008514,166.458801 278.003021,166.872925 278.003021,166.872925 
z"/>
<path fill="#2E3C9A" opacity="1.000000" stroke="none" 
	d="
M223.441147,167.970169 
	C223.406738,166.270172 223.372330,164.570175 223.533096,162.348267 
	C223.761017,161.718597 223.850113,161.585571 223.815353,161.508087 
	C223.728912,161.315384 223.586060,161.147980 223.465866,160.970398 
	C223.430939,160.258743 223.395996,159.547104 223.781921,158.399658 
	C224.926880,157.988876 225.650970,158.013901 226.375061,158.038910 
	C227.812607,165.115829 229.421249,172.164200 230.608887,179.282822 
	C231.130859,182.411560 232.446304,183.402252 235.510666,183.311707 
	C245.194427,183.025589 242.811661,184.253830 244.733810,175.598831 
	C246.204849,168.975128 247.248672,162.256531 249.008575,155.574387 
	C249.684723,164.717941 249.834793,173.867279 249.990143,183.010834 
	C249.995438,183.005066 249.976578,183.026428 249.976578,183.026428 
	C248.657181,183.089813 246.901123,182.627060 246.088699,183.301315 
	C240.488968,187.948639 234.600204,185.820297 228.252274,184.575027 
	C228.012375,180.035828 227.779465,175.628586 227.546555,171.221329 
	C226.859314,171.203644 226.172089,171.185959 225.484863,171.168274 
	C225.318924,174.155640 225.586060,177.256531 224.842545,180.092453 
	C224.300919,182.158310 222.441254,183.886429 221.060272,185.681335 
	C221.023941,185.728561 219.726761,184.805725 218.972946,184.012985 
	C222.426285,183.571289 223.621399,181.802750 223.251404,178.348648 
	C222.955246,175.583801 223.245377,172.756134 223.480392,169.399414 
	C223.724411,168.734116 223.823700,168.599808 223.790451,168.522476 
	C223.705505,168.324844 223.561523,168.152573 223.441147,167.970169 
z"/>
<path fill="#2E3C9A" opacity="1.000000" stroke="none" 
	d="
M239.717529,157.005127 
	C239.168106,160.401688 238.618683,163.798248 238.069260,167.194809 
	C237.520966,167.154297 236.972687,167.113770 236.424393,167.073257 
	C234.815689,157.073532 233.206985,147.073807 231.576508,136.938736 
	C225.103104,136.938736 219.021851,136.938736 211.762939,136.938736 
	C211.762939,148.308640 211.766510,159.409851 211.760345,170.511063 
	C211.758881,173.172348 211.986877,175.867935 211.643402,178.486649 
	C211.156113,182.201981 212.530350,183.772980 216.624435,183.654266 
	C212.435989,188.615555 210.775711,183.690262 208.762741,181.886826 
	C209.243179,178.577545 209.995102,175.872055 209.964676,173.175369 
	C209.839615,162.091080 209.467300,151.009705 209.207306,139.926743 
	C209.138260,136.983231 214.676193,133.231857 217.807434,133.644775 
	C220.982819,134.063492 224.270462,134.279373 227.440948,133.943039 
	C232.967957,133.356750 234.684143,134.808594 235.049393,140.454117 
	C235.226395,143.190002 233.138000,147.186356 238.582153,148.448898 
	C238.707748,150.577057 238.424240,152.289139 238.097107,153.659805 
	C237.803009,152.663818 237.552567,152.009262 237.302124,151.354721 
	C237.010971,151.418213 236.719833,151.481705 236.428680,151.545197 
	C236.726654,153.692078 237.024612,155.838959 237.322586,157.985840 
	C237.542664,157.816635 237.788498,157.670883 237.972397,157.468765 
	C238.071091,157.360306 238.063400,157.155029 238.372711,156.994385 
	C239.000305,156.998596 239.358917,157.001862 239.717529,157.005127 
z"/>
<path fill="#606BB1" opacity="1.000000" stroke="none" 
	d="
M363.754822,137.185471 
	C364.111908,152.028137 364.111908,166.951874 364.111908,182.192780 
	C367.999725,182.192780 371.247833,182.192780 374.947876,182.192780 
	C374.947876,170.537415 374.947876,158.980011 374.947876,147.422623 
	C375.308777,147.327484 375.669678,147.232361 376.030579,147.137222 
	C379.498932,158.655090 382.967285,170.172974 386.505768,182.064133 
	C385.129120,179.818268 383.330475,177.327805 382.314850,174.550949 
	C380.633667,169.954330 379.456940,165.173203 376.964264,160.633850 
	C376.964264,166.482712 376.942780,172.331726 376.989319,178.180206 
	C376.995697,178.984085 377.757477,180.011093 377.464142,180.553085 
	C374.206818,186.572266 368.526886,182.466843 364.032837,183.391312 
	C363.614319,183.477386 361.530884,179.914978 361.835907,178.364426 
	C364.114227,166.783813 363.763123,155.302856 361.841980,143.729752 
	C361.507843,141.716888 362.836853,139.427948 363.754822,137.185471 
z"/>
<path fill="#1D29AA" opacity="1.000000" stroke="none" 
	d="
M414.654083,153.209671 
	C415.115570,158.630554 415.222168,164.246780 415.353760,169.862411 
	C415.554993,178.448929 419.687134,182.958176 428.219299,183.930405 
	C439.052185,185.164810 445.364410,182.150284 448.385254,174.131317 
	C448.778625,177.307800 448.963684,180.752304 449.173859,184.664612 
	C440.831116,183.424545 433.542450,188.394363 425.470764,185.408661 
	C423.206696,184.571198 419.773773,187.540375 416.777863,187.874405 
	C412.842560,188.313187 409.725067,185.060654 411.464600,181.776123 
	C415.657471,173.859344 412.001282,165.850281 413.041412,157.997269 
	C413.247955,156.437759 413.876434,154.934143 414.654083,153.209671 
M415.279816,183.085098 
	C415.772491,183.030899 416.265167,182.976700 416.757843,182.922501 
	C416.644623,182.483032 416.531372,182.043564 416.418121,181.604111 
	C415.996826,181.901550 415.575531,182.199005 415.279816,183.085098 
z"/>
<path fill="#1D29AA" opacity="1.000000" stroke="none" 
	d="
M444.919922,152.983047 
	C446.141571,151.623383 448.316559,150.332230 448.420074,148.892181 
	C448.872009,142.603760 445.553314,137.512466 439.384308,136.420654 
	C434.322388,135.524765 428.779816,135.561295 423.764313,136.641876 
	C417.612427,137.967285 415.518372,143.280762 415.109985,149.613724 
	C409.566437,144.873978 409.341034,143.790054 412.417267,137.677002 
	C416.698273,138.762482 425.266907,134.082169 425.776276,131.137985 
	C430.417694,131.799149 435.015900,132.230515 439.512482,133.155655 
	C444.309113,134.142502 448.214478,136.443665 448.963806,141.950592 
	C449.053314,142.608261 448.902466,143.620316 449.270203,143.871140 
	C457.306915,149.352936 448.720306,155.238663 449.385376,160.931641 
	C448.958282,160.014404 448.876373,159.024750 448.817627,157.298248 
	C447.533844,155.368622 446.226898,154.175827 444.919922,152.983047 
z"/>
<path fill="#2E3C9A" opacity="1.000000" stroke="none" 
	d="
M251.288635,182.898743 
	C255.055634,182.898743 258.822632,182.898743 262.471558,182.898743 
	C262.471558,167.590424 262.471558,152.527954 262.471558,136.566284 
	C256.239655,136.566284 250.645950,136.566284 244.613220,136.455078 
	C249.305222,131.584305 255.438339,134.101288 261.141144,134.350586 
	C262.153290,134.394836 263.731445,137.532532 263.837616,139.313919 
	C264.183807,145.123764 263.736115,150.978836 264.030853,156.794342 
	C264.390564,163.891083 265.053040,170.981155 265.850006,178.044159 
	C266.434174,183.221161 264.252319,186.214890 259.043335,185.876511 
	C256.054688,185.682358 253.130386,184.497849 250.076843,183.392792 
	C249.976578,183.026428 249.995438,183.005066 250.316437,182.984879 
	C250.854507,182.942703 251.071579,182.920731 251.288635,182.898743 
z"/>
<path fill="#606BB1" opacity="1.000000" stroke="none" 
	d="
M391.480347,137.061996 
	C391.831787,147.998856 391.831787,159.081039 391.831787,170.163239 
	C391.644073,170.225250 391.456360,170.287262 391.268616,170.349274 
	C388.499359,160.991943 385.547394,151.683044 383.047394,142.254303 
	C381.993683,138.280182 380.413300,136.279968 375.981049,136.818390 
	C372.374969,137.256439 368.679352,136.957596 364.566650,137.047028 
	C367.944031,133.376373 381.489532,133.607574 383.665833,137.849930 
	C385.327209,141.088516 385.796204,144.951370 386.706696,148.558945 
	C387.570160,151.980057 388.317902,155.430374 390.158630,158.677826 
	C390.482086,151.520996 390.805511,144.364166 391.480347,137.061996 
z"/>
<path fill="#1F2E95" opacity="1.000000" stroke="none" 
	d="
M350.933044,137.076843 
	C347.359528,136.766510 343.785980,136.456177 339.279877,136.064850 
	C339.279877,138.916138 339.281616,141.146378 339.279602,143.376602 
	C339.271332,152.501740 339.361237,161.629150 339.151245,170.749664 
	C339.117767,172.204514 337.968231,174.614670 336.929718,174.858536 
	C334.850342,175.346725 331.787109,176.566391 331.160767,172.416107 
	C331.663361,172.011765 331.840424,172.011703 332.017487,172.011627 
	C336.654785,173.355179 337.630219,169.735977 337.839081,166.843704 
	C338.292328,160.567566 338.070709,154.234207 337.904388,147.930084 
	C337.876404,146.870148 336.398956,145.903397 336.190063,144.782028 
	C335.731384,142.320145 334.875977,139.488739 335.681396,137.380936 
	C336.280823,135.812317 339.143311,134.497803 341.158569,134.214920 
	C344.748657,133.711044 348.460327,134.073257 352.767609,134.073257 
	C352.665253,133.540985 352.832520,134.410873 352.786926,135.745193 
	C352.325714,136.423935 352.137756,136.682205 351.736053,136.950897 
	C351.285614,136.970535 351.109344,137.023697 350.933044,137.076843 
z"/>
<path fill="#1F2E95" opacity="1.000000" stroke="none" 
	d="
M330.749756,136.380157 
	C326.699036,136.767059 322.723694,136.760239 318.111298,137.157394 
	C317.280548,143.384033 317.086823,149.206696 316.893097,155.029358 
	C308.703186,153.506195 317.100922,149.053360 314.307861,145.760880 
	C310.334320,143.401398 310.376465,143.431915 314.172363,138.189941 
	C315.026642,137.010254 315.288422,135.394196 316.167877,134.242386 
	C316.869415,133.323608 318.137360,132.163025 319.081451,132.224350 
	C322.555939,132.450058 326.020325,133.042435 329.436737,133.747726 
	C330.028381,133.869858 330.368713,135.209274 330.749756,136.380157 
z"/>
<path fill="#263585" opacity="1.000000" stroke="none" 
	d="
M278.376831,167.061310 
	C278.003021,166.872925 278.008514,166.458801 278.012817,166.252319 
	C279.982635,164.922058 281.948212,163.798279 284.000305,162.331390 
	C287.276154,163.810104 290.615997,165.416718 293.613434,167.512939 
	C296.755493,169.710342 296.818695,174.783264 293.776520,175.660065 
	C292.063324,176.153839 289.381653,175.598404 288.108917,174.443634 
	C287.344116,173.749695 288.450989,170.992828 288.788971,168.665543 
	C285.973389,168.268433 282.362000,167.759079 278.376831,167.061310 
z"/>
<path fill="#1F2E95" opacity="1.000000" stroke="none" 
	d="
M292.949402,152.815369 
	C291.544800,152.520538 289.800323,152.168884 289.040405,151.110397 
	C287.995728,149.655319 287.146179,147.616837 287.295105,145.923447 
	C287.377350,144.988419 289.934143,143.341995 290.905487,143.625671 
	C292.474335,144.083801 293.802673,145.750626 294.933105,147.149063 
	C295.436768,147.772125 295.212219,148.983826 295.410156,150.748489 
	C299.547333,150.180801 303.330933,149.661636 307.500977,148.968109 
	C306.892548,150.928818 305.897644,153.063873 304.788422,155.444229 
	C302.385712,151.864960 296.735992,150.602402 292.949402,152.815369 
z"/>
<path fill="#1F2E95" opacity="1.000000" stroke="none" 
	d="
M172.061249,137.329742 
	C170.901062,146.140259 169.339890,154.871811 167.522507,163.908981 
	C167.909180,156.121857 168.477097,148.021500 169.293472,139.946274 
	C169.391357,138.977905 170.838516,138.145935 172.061249,137.329742 
z"/>
<path fill="#1F2E95" opacity="1.000000" stroke="none" 
	d="
M179.755035,170.547516 
	C180.409424,162.081741 181.468613,153.556503 182.527786,145.031265 
	C182.905136,145.095688 183.282471,145.160110 183.659821,145.224533 
	C184.180969,148.240479 184.702133,151.256424 185.142654,154.618118 
	C183.715668,159.085587 182.359344,163.204071 181.029953,167.331253 
	C180.695602,168.369263 180.447525,169.435043 179.755035,170.547516 
z"/>
<path fill="#1F2E95" opacity="1.000000" stroke="none" 
	d="
M332.021973,146.003983 
	C332.983673,146.447968 334.761230,146.858337 334.781097,147.341110 
	C334.986115,152.318512 334.906982,157.307617 334.906982,162.293472 
	C334.416321,162.315887 333.925629,162.338287 333.434967,162.360703 
	C333.155273,159.435440 332.875580,156.510193 332.304108,152.853027 
	C332.015533,150.082062 332.018768,148.043030 332.021973,146.003983 
z"/>
<path fill="#1F2E95" opacity="1.000000" stroke="none" 
	d="
M307.813507,164.869720 
	C302.884338,161.420563 298.039124,157.574585 293.009155,153.441833 
	C299.742706,152.933258 307.262543,158.579651 307.813507,164.869720 
z"/>
<path fill="#0A1679" opacity="1.000000" stroke="none" 
	d="
M316.920471,155.452957 
	C317.086823,149.206696 317.280548,143.384033 317.809479,137.311920 
	C318.178467,148.399887 318.212219,159.737274 318.171570,171.537430 
	C317.913971,172.006958 317.730743,172.013748 317.272552,172.026108 
	C316.710693,170.594696 316.423828,169.157745 316.242981,167.005341 
	C316.540192,164.520355 316.731384,162.750793 316.922546,160.981232 
	C316.930969,159.279678 316.939423,157.578110 316.920471,155.452957 
z"/>
<path fill="#0A1679" opacity="1.000000" stroke="none" 
	d="
M332.012451,145.604065 
	C332.018768,148.043030 332.015533,150.082062 332.025330,152.557678 
	C332.302490,157.045151 332.566559,161.096069 332.908722,165.565460 
	C332.986816,165.983948 332.977966,165.973923 332.760254,166.080139 
	C332.281677,166.397476 332.110779,166.665863 332.022522,167.325409 
	C332.016357,168.104431 332.017517,168.549591 332.018677,168.994766 
	C332.013031,169.748840 332.007416,170.502899 332.009644,171.634308 
	C331.840424,172.011703 331.663361,172.011765 331.221008,171.999008 
	C330.905670,160.634857 330.855621,149.283554 330.832977,137.467209 
	C331.240417,137.767654 331.620483,138.533127 332.000641,139.981201 
	C332.006226,141.110870 332.011719,141.557938 332.017181,142.005005 
	C332.012421,143.071381 332.007690,144.137772 332.012451,145.604065 
z"/>
<path fill="#1F2E95" opacity="1.000000" stroke="none" 
	d="
M165.195221,183.995743 
	C165.117859,183.602783 165.277542,183.551376 165.440582,183.536331 
	C169.301926,183.179825 174.297150,184.146881 176.693817,182.088181 
	C178.914734,180.180405 178.357742,175.038742 179.264832,171.020523 
	C179.505646,175.558640 179.505646,180.397324 179.505646,185.611649 
	C174.100006,185.128616 169.766922,184.741425 165.195221,183.995743 
z"/>
<path fill="#0A1679" opacity="1.000000" stroke="none" 
	d="
M352.010193,136.984406 
	C352.137756,136.682205 352.325714,136.423935 352.787598,136.097351 
	C353.010315,137.700241 353.019409,139.415405 353.024750,141.937073 
	C353.035095,143.500839 353.049225,144.258133 353.063324,145.015427 
	C353.042206,153.705276 353.021088,162.395111 353.002136,171.556915 
	C353.004333,172.028854 352.554260,172.005737 352.279358,171.619461 
	C351.842957,170.774261 351.681488,170.315338 351.519989,169.856415 
	C351.542023,169.475861 351.564056,169.095291 351.744202,167.975616 
	C351.938263,157.152481 351.974243,147.068436 352.010193,136.984406 
z"/>
<path fill="#313B8F" opacity="1.000000" stroke="none" 
	d="
M239.850494,156.602936 
	C239.358917,157.001862 239.000305,156.998596 238.346619,156.620621 
	C238.081284,155.497681 238.111008,154.749451 238.140747,154.001236 
	C238.424240,152.289139 238.707748,150.577057 238.986511,148.476959 
	C240.041443,144.448868 241.101120,140.808777 242.532349,137.084625 
	C241.930405,143.400650 240.956940,149.800705 239.850494,156.602936 
z"/>
<path fill="#1F2E95" opacity="1.000000" stroke="none" 
	d="
M167.075821,164.319885 
	C166.494202,170.453217 165.529984,176.691956 164.678894,183.291046 
	C163.891876,183.040771 162.132034,182.231613 162.220337,181.849228 
	C163.569153,176.008408 165.159317,170.223343 167.075821,164.319885 
z"/>
<path fill="#1F2E95" opacity="1.000000" stroke="none" 
	d="
M194.886627,139.206894 
	C193.617249,138.619278 192.419083,136.765228 191.166290,136.727554 
	C185.155792,136.546799 179.130539,136.857224 172.776154,137.184891 
	C173.680359,136.438019 174.889420,134.744400 176.162720,134.694626 
	C181.066010,134.502991 186.027786,135.265060 190.893463,134.833588 
	C194.478760,134.515686 195.353821,135.642654 194.886627,139.206894 
z"/>
<path fill="#1F2E95" opacity="1.000000" stroke="none" 
	d="
M316.507599,160.988770 
	C316.731384,162.750793 316.540192,164.520355 316.202881,166.640289 
	C314.711884,166.069702 312.517181,165.381943 312.187988,164.182266 
	C311.337952,161.084503 313.798920,160.893311 316.507599,160.988770 
z"/>
<path fill="#2C3897" opacity="1.000000" stroke="none" 
	d="
M560.162476,308.585510 
	C559.064697,310.313568 557.609924,311.806915 555.852661,313.408539 
	C555.134583,311.641724 554.719055,309.766632 554.093872,306.945648 
	C556.027649,307.421387 557.916565,307.886078 560.162476,308.585510 
z"/>
<path fill="#2E3C9A" opacity="1.000000" stroke="none" 
	d="
M129.031784,166.125916 
	C129.371414,165.317734 129.711029,164.509552 130.400131,163.350586 
	C131.504654,162.645874 132.259689,162.291931 133.332886,162.005127 
	C134.698563,162.782089 135.746063,163.491959 136.488266,164.526794 
	C134.459686,165.774033 132.736404,166.696289 130.678680,167.712372 
	C129.891998,167.727844 129.439743,167.649490 128.988800,167.329285 
	C129.003845,166.766922 129.017746,166.446426 129.031784,166.125916 
z"/>
<path fill="#2B3790" opacity="1.000000" stroke="none" 
	d="
M133.014740,161.938004 
	C132.259689,162.291931 131.504654,162.645874 130.417725,163.005157 
	C128.745682,161.569748 127.405518,160.128998 126.163437,158.182953 
	C126.261520,157.677643 126.547493,157.330460 126.843567,157.486069 
	C129.098007,159.073792 131.056366,160.505905 133.014740,161.938004 
z"/>
<path fill="#606BB1" opacity="1.000000" stroke="none" 
	d="
M401.960022,136.255051 
	C399.034210,136.668213 395.937744,136.756561 392.377563,136.835785 
	C395.205719,136.527847 398.497498,136.229050 401.960022,136.255051 
z"/>
<path fill="#2B3790" opacity="1.000000" stroke="none" 
	d="
M128.695618,165.945801 
	C129.017746,166.446426 129.003845,166.766922 128.582275,167.427826 
	C126.787132,167.714218 125.399788,167.660248 123.870293,167.465057 
	C123.509239,167.161285 123.265511,167.056549 122.996941,167.009583 
	C124.784447,166.594955 126.571953,166.180313 128.695618,165.945801 
z"/>
<path fill="#606BB1" opacity="1.000000" stroke="none" 
	d="
M403.784851,142.980652 
	C403.348724,141.391846 403.199677,139.632019 403.057465,137.427673 
	C403.400177,138.925308 403.736053,140.867477 403.784851,142.980652 
z"/>
<path fill="#1F2E95" opacity="1.000000" stroke="none" 
	d="
M332.332397,169.020981 
	C332.017517,168.549591 332.016357,168.104431 332.234589,167.212509 
	C332.717743,166.560791 332.892426,166.296844 332.977966,165.973923 
	C332.977966,165.973923 332.986816,165.983948 332.973877,165.971130 
	C333.829254,166.819992 334.697510,167.681641 335.565796,168.543304 
	C334.592590,168.711258 333.619354,168.879227 332.332397,169.020981 
z"/>
<path fill="#606BB1" opacity="1.000000" stroke="none" 
	d="
M403.754395,149.009232 
	C403.389954,147.989899 403.283020,146.832977 403.337311,145.264359 
	C403.669678,146.192322 403.840820,147.531982 403.754395,149.009232 
z"/>
<path fill="#2C3897" opacity="1.000000" stroke="none" 
	d="
M562.761597,305.096313 
	C562.545837,306.137512 561.916870,307.149719 561.040771,308.324188 
	C561.311829,307.346710 561.830078,306.207001 562.761597,305.096313 
z"/>
<path fill="#1F2E95" opacity="1.000000" stroke="none" 
	d="
M353.385864,144.954239 
	C353.049225,144.258133 353.035095,143.500839 353.038513,142.365021 
	C353.273468,142.955338 353.490906,143.924194 353.385864,144.954239 
z"/>
<path fill="#606BB1" opacity="1.000000" stroke="none" 
	d="
M403.704254,163.068024 
	C403.384796,162.629379 403.286041,162.113602 403.336487,161.225601 
	C403.632111,161.565887 403.778534,162.278397 403.704254,163.068024 
z"/>
<path fill="#2C3897" opacity="1.000000" stroke="none" 
	d="
M555.091187,313.461975 
	C554.858459,314.098053 554.283936,314.595825 553.419800,315.136505 
	C553.669922,314.560852 554.209717,313.942230 555.091187,313.461975 
z"/>
<path fill="#606BB1" opacity="1.000000" stroke="none" 
	d="
M403.739197,179.122009 
	C403.470062,178.939545 403.387573,178.722107 403.412445,178.172867 
	C403.655212,178.256378 403.790558,178.671707 403.739197,179.122009 
z"/>
<path fill="#606BB1" opacity="1.000000" stroke="none" 
	d="
M402.235565,183.907898 
	C402.186493,183.441971 402.432861,182.987167 402.926331,182.462616 
	C402.959290,182.901581 402.745148,183.410309 402.235565,183.907898 
z"/>
<path fill="#1F2E95" opacity="1.000000" stroke="none" 
	d="
M332.233795,141.853729 
	C332.011719,141.557938 332.006226,141.110870 332.010681,140.328537 
	C332.163879,140.563004 332.307129,141.132736 332.233795,141.853729 
z"/>
<path fill="#606BB1" opacity="1.000000" stroke="none" 
	d="
M403.505310,182.000504 
	C403.300903,181.875793 403.275330,181.681366 403.386841,181.227203 
	C403.638123,181.176193 403.780090,181.375916 403.852203,181.598312 
	C403.879395,181.682144 403.744934,181.818420 403.505310,182.000504 
z"/>
<path fill="#2B3790" opacity="1.000000" stroke="none" 
	d="
M126.117500,157.850372 
	C125.667236,157.899902 125.414238,157.706909 125.097832,157.233383 
	C124.981178,157.022629 125.346916,156.703979 125.720131,156.652542 
	C126.326599,156.793243 126.477982,157.036362 126.547493,157.330460 
	C126.547493,157.330460 126.261520,157.677643 126.117500,157.850372 
z"/>
<path fill="#2E3C9A" opacity="1.000000" stroke="none" 
	d="
M122.956100,167.227936 
	C123.265511,167.056549 123.509239,167.161285 123.643829,167.595123 
	C123.400589,167.937332 123.241661,168.008255 123.082741,168.079163 
	C123.082741,168.079163 122.933701,167.984009 122.863007,167.928589 
	C122.792313,167.873169 122.915260,167.446259 122.956100,167.227936 
z"/>
<path fill="#606BB1" opacity="1.000000" stroke="none" 
	d="
M226.508453,157.724976 
	C225.650970,158.013901 224.926880,157.988876 223.843262,158.047562 
	C223.483749,153.470673 223.483749,148.810074 223.483749,144.149460 
	C223.768417,144.110321 224.053070,144.071167 224.337738,144.032013 
	C225.105774,148.491684 225.873810,152.951370 226.508453,157.724976 
z"/>
<path fill="#0A1679" opacity="1.000000" stroke="none" 
	d="
M251.287231,182.437653 
	C251.071579,182.920731 250.854507,182.942703 250.311157,182.990646 
	C249.834793,173.867279 249.684723,164.717941 249.235474,155.275284 
	C249.262192,153.716339 249.588089,152.450714 249.913986,151.185104 
	C250.371262,151.259338 250.828537,151.333588 251.285812,151.407837 
	C251.285812,161.597412 251.285812,171.786987 251.287231,182.437653 
z"/>
<path fill="#606BB1" opacity="1.000000" stroke="none" 
	d="
M223.361679,161.233856 
	C223.586060,161.147980 223.728912,161.315384 223.815353,161.508087 
	C223.850113,161.585571 223.761017,161.718597 223.592926,161.926910 
	C223.390869,161.850769 223.324173,161.674042 223.361679,161.233856 
z"/>
<path fill="#606BB1" opacity="1.000000" stroke="none" 
	d="
M223.338348,168.233521 
	C223.561523,168.152573 223.705505,168.324844 223.790451,168.522476 
	C223.823700,168.599808 223.724411,168.734116 223.542816,168.940155 
	C223.345291,168.857529 223.290421,168.677216 223.338348,168.233521 
z"/>
<path fill="#848DCD" opacity="1.000000" stroke="none" 
	d="
M351.736053,136.950897 
	C351.974243,147.068436 351.938263,157.152481 351.737183,167.689819 
	C351.381165,158.095993 351.190277,148.048874 350.966187,137.539307 
	C351.109344,137.023697 351.285614,136.970535 351.736053,136.950897 
z"/>
<path fill="#848DCD" opacity="1.000000" stroke="none" 
	d="
M351.335632,170.148071 
	C351.681488,170.315338 351.842957,170.774261 352.054810,171.600693 
	C351.966858,172.264694 351.828918,172.561340 351.501892,173.013550 
	C351.258728,172.259201 351.204987,171.349472 351.335632,170.148071 
z"/>
<path fill="#313B8F" opacity="1.000000" stroke="none" 
	d="
M432.958527,156.567764 
	C432.552277,158.744141 432.146027,160.920517 431.692535,163.349991 
	C433.677643,163.721176 435.056946,163.979065 436.836365,164.311798 
	C436.708649,167.097336 437.073883,169.862244 436.282745,172.242844 
	C435.829346,173.607162 433.428223,175.245132 432.029114,175.137207 
	C430.344299,175.007248 427.421570,173.179962 427.400787,172.044205 
	C427.241669,163.340881 427.658112,154.627045 428.314636,146.087158 
	C428.733521,149.778961 428.733521,153.300110 428.733521,156.821243 
	C429.472076,157.317535 430.210602,157.813812 430.949158,158.310104 
	C431.209656,156.828659 431.470154,155.347214 431.730652,153.865753 
	C432.054047,154.138229 432.377441,154.410690 432.700867,154.683167 
	C432.786743,155.311371 432.872650,155.939560 432.958527,156.567764 
M431.246918,172.961136 
	C436.641205,170.108292 436.428131,169.089737 427.964661,162.543594 
	C428.989319,166.797516 429.723206,169.844315 431.246918,172.961136 
z"/>
<path fill="#1D29AA" opacity="1.000000" stroke="none" 
	d="
M433.333862,156.680908 
	C432.872650,155.939560 432.786743,155.311371 432.700867,154.683167 
	C432.377441,154.410690 432.054047,154.138229 431.730652,153.865753 
	C431.470154,155.347214 431.209656,156.828659 430.949158,158.310104 
	C430.210602,157.813812 429.472076,157.317535 428.733521,156.821243 
	C428.733521,153.300110 428.733521,149.778961 428.599304,145.791840 
	C428.465057,145.325851 428.494324,145.341736 428.881134,145.523529 
	C430.430328,146.667755 431.611511,147.608551 432.750031,148.598419 
	C433.989441,149.675995 435.189240,150.799149 436.406281,151.902420 
	C436.816315,152.185074 437.226349,152.467728 437.804138,153.165558 
	C437.321472,154.577362 436.670990,155.573990 436.020508,156.570602 
	C435.250061,156.645081 434.479614,156.719574 433.333862,156.680908 
z"/>
<path fill="#313B8F" opacity="1.000000" stroke="none" 
	d="
M436.464508,156.695709 
	C436.670990,155.573990 437.321472,154.577362 438.032593,153.275208 
	C440.090912,152.908752 442.088531,152.847855 444.503052,152.885010 
	C446.226898,154.175827 447.533844,155.368622 448.840759,156.924881 
	C444.863312,157.132507 440.885895,156.976669 436.464508,156.695709 
z"/>
<path fill="#313B8F" opacity="1.000000" stroke="none" 
	d="
M436.447144,151.478394 
	C435.189240,150.799149 433.989441,149.675995 432.750031,148.598419 
	C431.611511,147.608551 430.430328,146.667755 428.887268,145.509918 
	C433.611664,142.198425 435.816559,143.784088 436.447144,151.478394 
z"/>
<path fill="#F0F4FA" opacity="1.000000" stroke="none" 
	d="
M123.086967,168.499268 
	C123.241661,168.008255 123.400589,167.937332 123.785988,167.736343 
	C125.399788,167.660248 126.787132,167.714218 128.580994,167.669678 
	C129.439743,167.649490 129.891998,167.727844 131.020874,167.793747 
	C132.160217,167.729065 132.622925,167.676849 133.449860,167.741760 
	C134.579620,169.244598 135.345139,170.630310 136.031708,172.418549 
	C137.418533,173.970749 138.777283,175.801605 140.384048,176.054047 
	C141.663788,176.255096 144.579117,174.241074 144.463974,173.709259 
	C143.960403,171.383163 142.617065,169.238861 141.408127,166.754486 
	C139.756393,165.720856 138.274994,164.961334 136.793579,164.201813 
	C135.746063,163.491959 134.698563,162.782089 133.332886,162.005127 
	C131.056366,160.505905 129.098007,159.073792 126.843567,157.486069 
	C126.477982,157.036362 126.326599,156.793243 125.903778,156.494095 
	C122.306381,149.454880 122.702965,143.455887 126.840637,139.347992 
	C131.433197,134.788483 143.207397,133.586670 149.925812,136.991608 
	C154.557053,139.338776 156.185120,143.061005 155.375198,149.880692 
	C151.853104,149.880692 148.281738,149.880692 144.690460,149.880692 
	C144.505295,149.628494 144.178909,149.388657 144.159851,149.126480 
	C143.958084,146.351242 143.600342,143.419098 140.044846,143.484955 
	C138.629135,143.511169 135.928375,145.591080 136.062408,146.001755 
	C136.807922,148.285950 137.760910,150.973587 139.547211,152.347061 
	C143.069946,155.055649 147.267624,156.864990 151.037277,159.278778 
	C156.947861,163.063446 157.712921,168.722946 156.438690,175.064713 
	C155.193436,181.262085 150.723648,183.680862 145.162292,184.734467 
	C143.220627,185.102341 141.191345,185.155624 139.206100,185.121094 
	C128.002075,184.926300 123.194252,180.061340 123.086967,168.499268 
z"/>
<path fill="#1528A1" opacity="1.000000" stroke="none" 
	d="
M238.097107,153.659805 
	C238.111008,154.749451 238.081284,155.497681 238.077637,156.619659 
	C238.063400,157.155029 238.071091,157.360306 237.972397,157.468765 
	C237.788498,157.670883 237.542664,157.816635 237.322586,157.985840 
	C237.024612,155.838959 236.726654,153.692078 236.428680,151.545197 
	C236.719833,151.481705 237.010971,151.418213 237.302124,151.354721 
	C237.552567,152.009262 237.803009,152.663818 238.097107,153.659805 
z"/>
<path fill="#1528A1" opacity="1.000000" stroke="none" 
	d="
M415.217041,182.790771 
	C415.575531,182.199005 415.996826,181.901550 416.418121,181.604111 
	C416.531372,182.043564 416.644623,182.483032 416.757843,182.922501 
	C416.265167,182.976700 415.772491,183.030899 415.217041,182.790771 
z"/>
<path fill="#1528A1" opacity="1.000000" stroke="none" 
	d="
M332.760254,166.080139 
	C332.892426,166.296844 332.717743,166.560791 332.241943,166.878662 
	C332.110779,166.665863 332.281677,166.397476 332.760254,166.080139 
z"/>
<path fill="#2B3790" opacity="1.000000" stroke="none" 
	d="
M136.488266,164.526794 
	C138.274994,164.961334 139.756393,165.720856 141.144440,166.753479 
	C140.699615,167.019547 140.348160,167.012512 139.592194,167.006805 
	C137.153641,167.213623 135.119644,167.419113 133.085632,167.624603 
	C132.622925,167.676849 132.160217,167.729065 131.355316,167.699921 
	C132.736404,166.696289 134.459686,165.774033 136.488266,164.526794 
z"/>
<path fill="#1D29AA" opacity="1.000000" stroke="none" 
	d="
M430.852020,172.926117 
	C429.723206,169.844315 428.989319,166.797516 427.964661,162.543594 
	C436.428131,169.089737 436.641205,170.108292 430.852020,172.926117 
z"/>
<path fill="#263585" opacity="1.000000" stroke="none" 
	d="
M139.996719,167.005493 
	C140.348160,167.012512 140.699615,167.019547 141.314758,167.027588 
	C142.617065,169.238861 143.960403,171.383163 144.463974,173.709259 
	C144.579117,174.241074 141.663788,176.255096 140.384048,176.054047 
	C138.777283,175.801605 137.418533,173.970749 136.368423,172.479919 
	C138.192993,172.517258 139.601898,172.895798 141.010803,173.274323 
	C140.969391,171.775040 141.007614,170.267212 140.848312,168.780563 
	C140.782410,168.165527 140.293335,167.595810 139.996719,167.005493 
z"/>
<path fill="#2E3C9A" opacity="1.000000" stroke="none" 
	d="
M139.592194,167.006805 
	C140.293335,167.595810 140.782410,168.165527 140.848312,168.780563 
	C141.007614,170.267212 140.969391,171.775040 141.010803,173.274323 
	C139.601898,172.895798 138.192993,172.517258 136.447388,172.077377 
	C135.345139,170.630310 134.579620,169.244598 133.449860,167.741745 
	C135.119644,167.419113 137.153641,167.213623 139.592194,167.006805 
z"/>
</svg>