<svg version="1.1" id="Layer_1" xmlns="http://www.w3.org/2000/svg" xmlns:xlink="http://www.w3.org/1999/xlink" x="0px" y="0px"
	 width="100%" viewBox="0 0 502 337" enable-background="new 0 0 502 337" xml:space="preserve">
<path fill="#180F3E" opacity="1.000000" stroke="none" 
	d="
M363.000000,338.000000 
	C242.000015,338.000000 121.500031,338.000000 1.000032,338.000000 
	C1.000022,225.666687 1.000022,113.333389 1.000011,1.000062 
	C168.333282,1.000042 335.666565,1.000042 502.999878,1.000021 
	C502.999939,113.333275 502.999939,225.666550 502.999969,337.999908 
	C456.500000,338.000000 410.000000,338.000000 363.000000,338.000000 
M209.287842,202.424286 
	C210.045197,198.836258 207.963242,198.587662 205.355423,199.185867 
	C197.407928,201.008957 191.829941,205.637466 189.085678,213.391159 
	C188.687057,214.517395 188.965363,215.883209 188.572357,217.884018 
	C188.572357,225.437485 188.572357,232.990952 188.573868,240.544388 
	C200.962692,239.879807 209.073883,231.632996 209.146179,219.551880 
	C209.179016,214.063232 209.091171,208.573883 209.287842,202.424286 
M238.897522,172.017715 
	C239.103699,170.023575 239.113327,168.627914 236.202225,168.759048 
	C226.820328,169.181702 218.086914,178.255463 217.911224,188.952133 
	C217.623932,190.043945 217.083466,191.136871 217.088226,192.227417 
	C217.139542,204.021927 217.287262,215.815964 217.384521,227.610336 
	C217.419724,231.879532 217.390182,236.149261 217.390182,240.396347 
	C229.329025,240.614990 238.676590,231.780579 238.806427,220.220825 
	C238.983719,204.435593 238.769424,188.645935 238.897522,172.017715 
M247.029205,170.771774 
	C247.029205,193.991211 247.029205,217.210663 247.029205,240.470078 
	C259.546692,239.606140 267.977112,231.745438 268.040863,220.813080 
	C268.176727,197.524124 268.018280,174.233475 268.206299,150.347046 
	C268.819489,147.626297 268.255219,146.452896 264.978790,146.795197 
	C255.619751,147.772964 245.317444,157.827423 247.029205,170.771774 
M327.208893,127.161392 
	C327.662964,122.639214 324.502808,123.859787 322.311005,124.332138 
	C312.068146,126.539543 305.600739,135.658051 306.026642,147.745789 
	C306.026642,178.647842 306.026642,209.549896 306.026642,240.467529 
	C318.284515,240.073776 327.002563,231.757462 327.045074,220.360657 
	C327.159851,189.574799 327.039795,158.788040 327.208893,127.161392 
M297.839417,117.033073 
	C297.226013,115.778793 296.597565,113.426277 296.001465,113.434456 
	C286.581787,113.563606 275.810669,123.369759 276.579224,133.852921 
	C276.391235,134.810211 276.037811,135.767776 276.039368,136.724747 
	C276.085999,165.000961 276.169922,193.277084 276.242188,221.553238 
	C276.255371,226.709961 276.292969,231.867416 276.224823,237.023270 
	C276.184387,240.085373 277.198242,241.065109 280.460663,240.413895 
	C290.649384,238.380142 297.764648,230.021408 297.864777,219.079712 
	C297.991089,205.274033 297.926697,191.466278 297.889252,177.659546 
	C297.835114,157.702774 297.731293,137.746124 297.839417,117.033073 
M325.764099,89.883530 
	C326.077911,88.909904 326.969086,87.469673 326.617065,87.034111 
	C322.677094,82.158859 318.545502,77.438454 313.525970,71.579773 
	C313.769562,74.465752 313.878326,75.754120 313.850555,77.988731 
	C313.856995,80.240234 313.863434,82.491730 312.950409,84.710648 
	C299.021576,84.825623 285.030823,84.146477 271.177338,85.227249 
	C245.395142,87.238625 223.469421,97.664597 207.190750,118.324989 
	C199.339508,128.289536 193.113358,139.173798 190.942886,152.795120 
	C189.840134,159.008163 188.737381,165.221207 187.634628,171.434235 
	C188.127930,171.580368 188.621246,171.726486 189.114548,171.872620 
	C221.596832,131.372375 262.510864,104.105133 313.925812,91.597580 
	C313.925812,96.365067 313.925812,100.382591 313.925812,104.400108 
	C314.279877,104.496490 314.633911,104.592865 314.987976,104.689247 
	C318.363159,99.840973 321.738342,94.992691 325.764099,89.883530 
M181.318283,226.179977 
	C178.449921,219.170868 176.513123,211.577362 172.547852,205.256378 
	C157.427048,181.152557 151.655807,155.296249 157.323822,127.435143 
	C168.734787,71.344841 222.092346,35.781658 278.713837,46.031010 
	C333.768311,55.996712 371.825409,112.219528 360.675598,167.038116 
	C357.546265,182.423477 351.408844,196.427017 342.221924,209.165131 
	C336.383087,217.260910 333.358185,226.305237 333.633942,236.854095 
	C367.815826,209.466827 386.263275,158.585892 368.891632,108.526405 
	C352.156311,60.300629 304.512115,28.688780 252.056137,31.152205 
	C201.853912,33.509792 157.639481,70.460480 145.423553,120.169022 
	C133.801331,167.461700 154.688370,213.671265 182.155350,234.663330 
	C181.913040,231.952271 181.692780,229.487961 181.318283,226.179977 
M385.002502,307.443451 
	C385.002502,302.789612 385.002502,298.135773 385.002502,293.481903 
	C388.250671,298.318115 390.625275,303.229370 393.049744,308.115875 
	C396.940796,315.958435 396.954742,315.951508 405.790771,314.457367 
	C405.790771,300.722046 405.790771,286.986755 405.790771,273.268738 
	C402.420410,273.268738 399.344604,273.268738 395.858704,273.268738 
	C395.858704,279.892273 395.858704,286.256012 395.858704,292.619781 
	C392.787079,288.457672 390.553802,284.095551 388.349945,279.718597 
	C384.564728,272.201080 384.572449,272.197205 375.818817,273.469604 
	C375.818817,287.218475 375.818817,300.981232 375.818817,314.685730 
	C378.998291,314.685730 381.907349,314.685730 385.002502,314.685730 
	C385.002502,312.387665 385.002502,310.404938 385.002502,307.443451 
M327.078979,279.569031 
	C327.078979,277.466187 327.078979,275.363312 327.078979,273.260498 
	C323.436615,273.260498 320.360992,273.260498 316.877991,273.260498 
	C316.877991,279.878174 316.877991,286.244873 316.877991,292.611572 
	C313.797699,288.465454 311.561127,284.111969 309.361908,279.739685 
	C305.587860,272.236511 305.597626,272.231598 296.810425,273.452057 
	C296.810425,287.202942 296.810425,300.970428 296.810425,314.694580 
	C299.977112,314.694580 302.888947,314.694580 306.219849,314.694580 
	C306.219849,307.425629 306.219849,300.458618 306.219849,292.118805 
	C309.248566,298.313843 311.617737,303.226227 314.045105,308.109680 
	C317.937653,315.940826 317.953949,315.932739 327.078979,314.416504 
	C327.078979,303.163971 327.078979,291.860382 327.078979,279.569031 
M174.013229,307.500610 
	C174.013229,304.329865 174.013229,301.159119 174.013229,297.988373 
	C176.445282,301.887604 178.427704,305.731049 179.579926,309.809082 
	C180.788712,314.087341 183.024246,315.861237 187.387863,315.035126 
	C188.596634,314.806244 189.857986,314.855072 191.576263,314.745972 
	C189.043564,308.350128 186.689941,302.406464 184.326126,296.437073 
	C189.315170,292.512451 191.057983,287.666016 189.325073,281.733704 
	C187.847351,276.675110 184.089249,273.941193 179.181641,273.414276 
	C174.354553,272.895966 169.428314,273.301239 164.696686,273.301239 
	C164.696686,287.439911 164.696686,301.128052 164.696686,314.702515 
	C167.998810,314.702515 170.905045,314.702515 174.013229,314.702515 
	C174.013229,312.417175 174.013229,310.440521 174.013229,307.500610 
M143.059509,291.481567 
	C143.037674,295.309601 143.410568,299.201904 142.802505,302.934448 
	C142.554260,304.458252 140.334946,306.345062 138.714600,306.697449 
	C137.783813,306.899872 135.892212,304.542389 135.114792,302.994873 
	C134.510193,301.791351 134.943863,300.058441 134.942917,298.560791 
	C134.937561,290.128296 134.940338,281.695801 134.940338,273.218964 
	C131.451630,273.218964 128.527924,273.218964 125.162369,273.218964 
	C125.162369,279.562164 125.031715,285.683990 125.201904,291.797485 
	C125.349564,297.101654 125.351151,302.485901 126.305038,307.671478 
	C127.378036,313.504486 131.625168,315.952789 138.727676,316.013947 
	C146.103912,316.077454 151.279953,313.583069 151.669724,307.766052 
	C152.439255,296.281647 151.896667,284.709320 151.896667,273.286865 
	C149.174240,273.286865 146.250916,273.286865 143.059509,273.286865 
	C143.059509,279.219208 143.059509,284.853821 143.059509,291.481567 
M366.407776,315.005676 
	C366.948059,314.174896 368.102692,313.189178 367.937988,312.536255 
	C364.623230,299.394897 361.156769,286.291840 357.732056,273.223969 
	C353.975647,273.223969 350.554901,273.223969 346.965332,273.223969 
	C343.287354,287.133484 339.655792,300.867493 335.990509,314.728882 
	C339.423676,314.728882 342.516388,314.728882 345.496521,314.728882 
	C346.140442,312.279236 346.708344,310.118866 347.184937,308.305725 
	C350.927917,308.305725 354.011963,308.305725 357.144104,308.305725 
	C357.757080,310.621887 358.301178,312.677673 358.918060,315.008484 
	C361.223724,315.008484 363.355499,315.008484 366.407776,315.005676 
M215.209030,315.005493 
	C222.563248,314.392883 216.783737,309.154999 219.352921,305.910065 
	C215.171127,305.910065 212.113785,305.910065 209.270203,305.910065 
	C209.270203,303.273682 209.270203,301.206268 209.270203,298.876953 
	C212.060806,298.876953 214.511368,298.876953 217.121613,298.876953 
	C217.121613,295.829437 217.121613,293.053741 217.121613,290.155334 
	C214.314697,290.031677 211.724365,289.917603 209.239746,289.808136 
	C209.239746,287.006012 209.239746,284.603455 209.239746,281.827209 
	C212.471756,281.827209 215.403656,281.827209 218.350021,281.827209 
	C218.350021,278.696472 218.350021,275.966156 218.350021,273.325562 
	C211.955048,273.325562 205.891129,273.325562 199.919403,273.325562 
	C199.919403,287.378876 199.919403,301.097595 199.919403,315.005585 
	C204.949844,315.005585 209.609177,315.005585 215.209030,315.005493 
M449.554932,300.491119 
	C449.554932,305.259918 449.554932,310.028717 449.554932,314.661316 
	C456.264313,314.661316 462.339661,314.661316 468.466980,314.661316 
	C468.466980,311.711060 468.466980,309.106964 468.466980,306.207794 
	C465.217590,306.058105 462.156342,305.917084 459.244812,305.782959 
	C459.244812,303.328125 459.244812,301.256805 459.244812,298.932953 
	C462.014557,298.932953 464.470856,298.932953 467.133850,298.932953 
	C467.133850,295.896606 467.133850,293.121796 467.133850,290.170624 
	C464.357330,290.043884 461.773743,289.925934 459.210358,289.808929 
	C459.210358,287.062256 459.210358,284.660675 459.210358,281.886658 
	C462.409668,281.886658 465.336761,281.886658 468.381897,281.886658 
	C468.381897,278.765503 468.381897,276.035583 468.381897,273.283630 
	C462.015442,273.283630 455.950043,273.283630 449.554993,273.283630 
	C449.554993,282.211334 449.554993,290.852509 449.554932,300.491119 
M75.679214,299.076813 
	C78.122711,299.076813 80.566200,299.076813 83.083710,299.076813 
	C83.083710,295.752411 83.083710,292.987976 83.083710,289.787048 
	C80.236923,289.787048 77.654762,289.787048 75.277145,289.787048 
	C75.277145,286.928833 75.277145,284.530762 75.277145,281.754456 
	C78.546928,281.754456 81.470314,281.754456 84.315323,281.754456 
	C84.315323,278.622681 84.315323,275.899261 84.315323,273.149902 
	C77.978088,273.149902 72.005157,273.149902 65.793800,273.149902 
	C65.793800,287.072601 65.793800,300.840118 65.793800,314.765869 
	C72.067093,314.765869 78.146461,314.765869 84.395233,314.765869 
	C84.395233,311.789612 84.395233,309.057434 84.395233,305.955566 
	C81.182442,305.955566 78.246979,305.955566 75.010841,305.955566 
	C75.010841,303.633636 75.010841,301.679474 75.679214,299.076813 
M34.686951,279.609161 
	C32.710922,285.463379 34.360626,290.397491 38.634773,294.566559 
	C40.653526,296.535675 43.101036,298.109558 44.893749,300.248535 
	C45.876236,301.420776 46.766891,304.141785 46.163239,304.843719 
	C45.130215,306.044952 42.879597,306.709473 41.161716,306.669891 
	C39.392868,306.629120 37.649624,305.477509 35.542320,304.678101 
	C35.542320,306.647400 35.761868,308.016968 35.503162,309.289276 
	C34.538643,314.032806 37.276356,315.419098 41.195831,315.946503 
	C47.065830,316.736328 52.679390,314.174500 55.231228,309.464020 
	C57.914429,304.511017 57.108864,299.040710 52.871845,294.337555 
	C51.544025,292.863617 50.005848,291.572083 48.510437,290.257965 
	C46.228951,288.253021 42.206711,286.612854 44.052311,282.977509 
	C46.107887,278.928528 49.838058,281.663300 52.895962,282.420380 
	C53.159203,282.485565 53.469997,282.358673 53.755013,282.321472 
	C54.467525,273.024872 49.840473,269.375885 41.334892,273.020691 
	C38.836739,274.091187 37.069458,276.867310 34.686951,279.609161 
M418.894928,282.525787 
	C418.333710,288.552094 416.569519,294.763733 417.463470,300.565857 
	C419.287231,312.403137 429.995056,318.590179 440.064087,314.766571 
	C440.064087,312.027100 440.064087,309.285858 440.064087,306.263275 
	C435.403961,307.670441 431.309204,307.324127 428.932343,303.000458 
	C425.759918,297.229797 425.898376,291.171082 428.821899,285.309601 
	C431.194214,280.553162 435.410370,280.399658 440.119293,281.706787 
	C440.209381,280.266602 440.174744,279.116791 440.368927,278.007019 
	C441.242859,273.012146 438.900360,271.633636 434.256866,271.929596 
	C427.241669,272.376709 422.486908,275.919556 418.894928,282.525787 
M113.287903,281.013702 
	C114.535606,281.189514 115.783302,281.365356 117.086395,281.548981 
	C117.086395,278.472717 117.086395,275.705231 117.086395,273.028259 
	C109.151688,270.584106 102.314804,272.910095 97.644249,279.472076 
	C91.870422,287.584167 92.242584,301.657959 98.438148,309.492706 
	C103.136879,315.434601 109.980446,317.392639 117.086205,314.780853 
	C117.086205,312.059326 117.086205,309.315125 117.086205,306.538452 
	C109.631790,307.638672 105.835175,305.958282 104.658264,299.877869 
	C103.868835,295.799408 104.244331,291.293182 105.059357,287.168121 
	C105.756393,283.640259 108.329697,281.014343 113.287903,281.013702 
M265.471680,295.372711 
	C265.471680,293.635223 265.471680,291.897705 265.471680,289.869568 
	C262.276001,289.869568 259.830902,289.869568 257.244629,289.869568 
	C257.244629,287.161713 257.244629,284.759644 257.244629,281.963013 
	C260.386810,281.963013 263.307892,281.963013 266.423523,281.963013 
	C266.423523,278.832275 266.423523,276.102020 266.423523,273.359619 
	C259.949860,273.359619 253.751465,273.359619 247.524338,273.359619 
	C247.524338,287.331421 247.524338,300.926544 247.524338,314.692688 
	C250.775040,314.692688 253.801956,314.692688 257.234497,314.692688 
	C257.234497,309.290253 257.234497,304.208008 257.234497,299.013977 
	C259.471069,299.013977 261.374329,299.324768 263.089844,298.891754 
	C264.044891,298.650665 264.687286,297.170929 265.471680,295.372711 
M275.822876,285.508423 
	C275.822876,295.261414 275.822876,305.014374 275.822876,314.790039 
	C279.222473,314.790039 281.989380,314.790039 284.958618,314.790039 
	C284.958618,300.857147 284.958618,287.132568 284.958618,273.292755 
	C281.839691,273.292755 278.949310,273.292755 275.822876,273.292755 
	C275.822876,277.225769 275.822876,280.869568 275.822876,285.508423 
z"/>
<path fill="#FAFAFB" opacity="1.000000" stroke="none" 
	d="
M181.395401,226.601807 
	C181.692780,229.487961 181.913040,231.952271 182.155350,234.663330 
	C154.688370,213.671265 133.801331,167.461700 145.423553,120.169022 
	C157.639481,70.460480 201.853912,33.509792 252.056137,31.152205 
	C304.512115,28.688780 352.156311,60.300629 368.891632,108.526405 
	C386.263275,158.585892 367.815826,209.466827 333.633942,236.854095 
	C333.358185,226.305237 336.383087,217.260910 342.221924,209.165131 
	C351.408844,196.427017 357.546265,182.423477 360.675598,167.038116 
	C371.825409,112.219528 333.768311,55.996712 278.713837,46.031010 
	C222.092346,35.781658 168.734787,71.344841 157.323822,127.435143 
	C151.655807,155.296249 157.427048,181.152557 172.547852,205.256378 
	C176.513123,211.577362 178.449921,219.170868 181.395401,226.601807 
z"/>
<path fill="#71B7B4" opacity="1.000000" stroke="none" 
	d="
M313.869843,84.743233 
	C313.863434,82.491730 313.856995,80.240234 314.190765,77.701050 
	C318.058502,81.657043 321.585999,85.900734 325.113525,90.144417 
	C321.738342,94.992691 318.363159,99.840973 314.987976,104.689247 
	C314.633911,104.592865 314.279877,104.496490 313.925812,104.400108 
	C313.925812,100.382591 313.925812,96.365067 313.925812,91.597580 
	C262.510864,104.105133 221.596832,131.372375 189.114548,171.872620 
	C188.621246,171.726486 188.127930,171.580368 187.634628,171.434235 
	C188.737381,165.221207 189.840134,159.008163 191.332550,152.267883 
	C192.580521,149.783691 193.491089,147.847824 194.289215,145.866638 
	C204.721756,119.970322 222.919708,102.151108 249.684570,93.864128 
	C268.115021,88.157677 287.179840,87.183083 306.366394,88.527130 
	C309.668152,88.758415 313.289551,89.821396 313.869843,84.743233 
z"/>
<path fill="#1B8090" opacity="1.000000" stroke="none" 
	d="
M297.648682,117.789429 
	C297.731293,137.746124 297.835114,157.702774 297.889252,177.659546 
	C297.926697,191.466278 297.991089,205.274033 297.864777,219.079712 
	C297.764648,230.021408 290.649384,238.380142 280.460663,240.413895 
	C277.198242,241.065109 276.184387,240.085373 276.224823,237.023270 
	C276.292969,231.867416 276.255371,226.709961 276.242188,221.553238 
	C276.169922,193.277084 276.085999,165.000961 276.039368,136.724747 
	C276.037811,135.767776 276.391235,134.810211 277.022400,133.260223 
	C281.257599,123.725739 287.374054,117.937180 297.648682,117.789429 
z"/>
<path fill="#1B8291" opacity="1.000000" stroke="none" 
	d="
M327.012878,128.001648 
	C327.039795,158.788040 327.159851,189.574799 327.045074,220.360657 
	C327.002563,231.757462 318.284515,240.073776 306.026642,240.467529 
	C306.026642,209.549896 306.026642,178.647842 306.309570,146.995575 
	C308.643707,135.312653 314.829102,129.786560 327.012878,128.001648 
z"/>
<path fill="#1B8291" opacity="1.000000" stroke="none" 
	d="
M267.980408,150.943512 
	C268.018280,174.233475 268.176727,197.524124 268.040863,220.813080 
	C267.977112,231.745438 259.546692,239.606140 247.029205,240.470078 
	C247.029205,217.210663 247.029205,193.991211 247.314514,170.030090 
	C250.355759,157.451645 256.452576,151.963821 267.980408,150.943512 
z"/>
<path fill="#6FB3B0" opacity="1.000000" stroke="none" 
	d="
M238.723007,172.858185 
	C238.769424,188.645935 238.983719,204.435593 238.806427,220.220825 
	C238.676590,231.780579 229.329025,240.614990 217.390182,240.396347 
	C217.390182,236.149261 217.419724,231.879532 217.384521,227.610336 
	C217.287262,215.815964 217.139542,204.021927 217.088226,192.227417 
	C217.083466,191.136871 217.623932,190.043945 218.220978,188.360138 
	C222.325851,178.822479 228.773529,173.469131 238.723007,172.858185 
z"/>
<path fill="#FDFDFD" opacity="1.000000" stroke="none" 
	d="
M385.002502,307.932800 
	C385.002502,310.404938 385.002502,312.387665 385.002502,314.685730 
	C381.907349,314.685730 378.998291,314.685730 375.818817,314.685730 
	C375.818817,300.981232 375.818817,287.218475 375.818817,273.469604 
	C384.572449,272.197205 384.564728,272.201080 388.349945,279.718597 
	C390.553802,284.095551 392.787079,288.457672 395.858704,292.619781 
	C395.858704,286.256012 395.858704,279.892273 395.858704,273.268738 
	C399.344604,273.268738 402.420410,273.268738 405.790771,273.268738 
	C405.790771,286.986755 405.790771,300.722046 405.790863,314.458313 
	C396.954742,315.951508 396.940796,315.958435 393.049744,308.115875 
	C390.625275,303.229370 388.250671,298.318115 385.002502,293.481903 
	C385.002502,298.135773 385.002502,302.789612 385.002502,307.932800 
z"/>
<path fill="#FDFDFD" opacity="1.000000" stroke="none" 
	d="
M327.078979,280.062897 
	C327.078979,291.860382 327.078979,303.163971 327.078979,314.416504 
	C317.953949,315.932739 317.937653,315.940826 314.045105,308.109680 
	C311.617737,303.226227 309.248566,298.313843 306.219849,292.118805 
	C306.219849,300.458618 306.219849,307.425629 306.219849,314.694580 
	C302.888947,314.694580 299.977112,314.694580 296.810425,314.694580 
	C296.810425,300.970428 296.810425,287.202942 296.810425,273.452057 
	C305.597626,272.231598 305.587860,272.236511 309.361908,279.739685 
	C311.561127,284.111969 313.797699,288.465454 316.877991,292.611572 
	C316.877991,286.244873 316.877991,279.878174 316.877991,273.260498 
	C320.360992,273.260498 323.436615,273.260498 327.078979,273.260498 
	C327.078979,275.363312 327.078979,277.466187 327.078979,280.062897 
z"/>
<path fill="#F8F8F9" opacity="1.000000" stroke="none" 
	d="
M174.013229,307.982239 
	C174.013229,310.440521 174.013229,312.417175 174.013229,314.702515 
	C170.905045,314.702515 167.998810,314.702515 164.696686,314.702515 
	C164.696686,301.128052 164.696686,287.439911 164.696686,273.301239 
	C169.428314,273.301239 174.354553,272.895966 179.181641,273.414276 
	C184.089249,273.941193 187.847351,276.675110 189.325073,281.733704 
	C191.057983,287.666016 189.315170,292.512451 184.326126,296.437073 
	C186.689941,302.406464 189.043564,308.350128 191.576263,314.745972 
	C189.857986,314.855072 188.596634,314.806244 187.387863,315.035126 
	C183.024246,315.861237 180.788712,314.087341 179.579926,309.809082 
	C178.427704,305.731049 176.445282,301.887604 174.013229,297.988373 
	C174.013229,301.159119 174.013229,304.329865 174.013229,307.982239 
M179.820053,284.008514 
	C178.136932,282.863037 176.453812,281.717590 174.187103,280.174988 
	C174.187103,284.584930 174.187103,287.687775 174.187103,290.901825 
	C178.498474,290.913574 180.601990,289.142273 179.820053,284.008514 
z"/>
<path fill="#F7F7F8" opacity="1.000000" stroke="none" 
	d="
M143.059509,290.984985 
	C143.059509,284.853821 143.059509,279.219208 143.059509,273.286865 
	C146.250916,273.286865 149.174240,273.286865 151.896667,273.286865 
	C151.896667,284.709320 152.439255,296.281647 151.669724,307.766052 
	C151.279953,313.583069 146.103912,316.077454 138.727676,316.013947 
	C131.625168,315.952789 127.378036,313.504486 126.305038,307.671478 
	C125.351151,302.485901 125.349564,297.101654 125.201904,291.797485 
	C125.031715,285.683990 125.162369,279.562164 125.162369,273.218964 
	C128.527924,273.218964 131.451630,273.218964 134.940338,273.218964 
	C134.940338,281.695801 134.937561,290.128296 134.942917,298.560791 
	C134.943863,300.058441 134.510193,301.791351 135.114792,302.994873 
	C135.892212,304.542389 137.783813,306.899872 138.714600,306.697449 
	C140.334946,306.345062 142.554260,304.458252 142.802505,302.934448 
	C143.410568,299.201904 143.037674,295.309601 143.059509,290.984985 
z"/>
<path fill="#FAFAFA" opacity="1.000000" stroke="none" 
	d="
M365.947510,315.007080 
	C363.355499,315.008484 361.223724,315.008484 358.918060,315.008484 
	C358.301178,312.677673 357.757080,310.621887 357.144104,308.305725 
	C354.011963,308.305725 350.927917,308.305725 347.184937,308.305725 
	C346.708344,310.118866 346.140442,312.279236 345.496521,314.728882 
	C342.516388,314.728882 339.423676,314.728882 335.990509,314.728882 
	C339.655792,300.867493 343.287354,287.133484 346.965332,273.223969 
	C350.554901,273.223969 353.975647,273.223969 357.732056,273.223969 
	C361.156769,286.291840 364.623230,299.394897 367.937988,312.536255 
	C368.102692,313.189178 366.948059,314.174896 365.947510,315.007080 
M352.369598,288.059265 
	C351.149750,291.874908 349.929901,295.690552 348.653931,299.681702 
	C351.360687,299.681702 353.227142,299.681702 355.239136,299.681702 
	C354.443665,295.750702 353.720032,292.174713 352.369598,288.059265 
z"/>
<path fill="#FCFBFC" opacity="1.000000" stroke="none" 
	d="
M214.738770,315.005554 
	C209.609177,315.005585 204.949844,315.005585 199.919403,315.005585 
	C199.919403,301.097595 199.919403,287.378876 199.919403,273.325562 
	C205.891129,273.325562 211.955048,273.325562 218.350021,273.325562 
	C218.350021,275.966156 218.350021,278.696472 218.350021,281.827209 
	C215.403656,281.827209 212.471756,281.827209 209.239746,281.827209 
	C209.239746,284.603455 209.239746,287.006012 209.239746,289.808136 
	C211.724365,289.917603 214.314697,290.031677 217.121613,290.155334 
	C217.121613,293.053741 217.121613,295.829437 217.121613,298.876953 
	C214.511368,298.876953 212.060806,298.876953 209.270203,298.876953 
	C209.270203,301.206268 209.270203,303.273682 209.270203,305.910065 
	C212.113785,305.910065 215.171127,305.910065 219.352921,305.910065 
	C216.783737,309.154999 222.563248,314.392883 214.738770,315.005554 
z"/>
<path fill="#FCFBFC" opacity="1.000000" stroke="none" 
	d="
M449.554962,299.992371 
	C449.554993,290.852509 449.554993,282.211334 449.554993,273.283630 
	C455.950043,273.283630 462.015442,273.283630 468.381897,273.283630 
	C468.381897,276.035583 468.381897,278.765503 468.381897,281.886658 
	C465.336761,281.886658 462.409668,281.886658 459.210358,281.886658 
	C459.210358,284.660675 459.210358,287.062256 459.210358,289.808929 
	C461.773743,289.925934 464.357330,290.043884 467.133850,290.170624 
	C467.133850,293.121796 467.133850,295.896606 467.133850,298.932953 
	C464.470856,298.932953 462.014557,298.932953 459.244812,298.932953 
	C459.244812,301.256805 459.244812,303.328125 459.244812,305.782959 
	C462.156342,305.917084 465.217590,306.058105 468.466980,306.207794 
	C468.466980,309.106964 468.466980,311.711060 468.466980,314.661316 
	C462.339661,314.661316 456.264313,314.661316 449.554932,314.661316 
	C449.554932,310.028717 449.554932,305.259918 449.554962,299.992371 
z"/>
<path fill="#FCFBFC" opacity="1.000000" stroke="none" 
	d="
M75.345032,299.401062 
	C75.010841,301.679474 75.010841,303.633636 75.010841,305.955566 
	C78.246979,305.955566 81.182442,305.955566 84.395233,305.955566 
	C84.395233,309.057434 84.395233,311.789612 84.395233,314.765869 
	C78.146461,314.765869 72.067093,314.765869 65.793800,314.765869 
	C65.793800,300.840118 65.793800,287.072601 65.793800,273.149902 
	C72.005157,273.149902 77.978088,273.149902 84.315323,273.149902 
	C84.315323,275.899261 84.315323,278.622681 84.315323,281.754456 
	C81.470314,281.754456 78.546928,281.754456 75.277145,281.754456 
	C75.277145,284.530762 75.277145,286.928833 75.277145,289.787048 
	C77.654762,289.787048 80.236923,289.787048 83.083710,289.787048 
	C83.083710,292.987976 83.083710,295.752411 83.083710,299.076813 
	C80.566200,299.076813 78.122711,299.076813 75.345032,299.401062 
z"/>
<path fill="#FAFAFA" opacity="1.000000" stroke="none" 
	d="
M34.827080,279.235413 
	C37.069458,276.867310 38.836739,274.091187 41.334892,273.020691 
	C49.840473,269.375885 54.467525,273.024872 53.755013,282.321472 
	C53.469997,282.358673 53.159203,282.485565 52.895962,282.420380 
	C49.838058,281.663300 46.107887,278.928528 44.052311,282.977509 
	C42.206711,286.612854 46.228951,288.253021 48.510437,290.257965 
	C50.005848,291.572083 51.544025,292.863617 52.871845,294.337555 
	C57.108864,299.040710 57.914429,304.511017 55.231228,309.464020 
	C52.679390,314.174500 47.065830,316.736328 41.195831,315.946503 
	C37.276356,315.419098 34.538643,314.032806 35.503162,309.289276 
	C35.761868,308.016968 35.542320,306.647400 35.542320,304.678101 
	C37.649624,305.477509 39.392868,306.629120 41.161716,306.669891 
	C42.879597,306.709473 45.130215,306.044952 46.163239,304.843719 
	C46.766891,304.141785 45.876236,301.420776 44.893749,300.248535 
	C43.101036,298.109558 40.653526,296.535675 38.634773,294.566559 
	C34.360626,290.397491 32.710922,285.463379 34.827080,279.235413 
z"/>
<path fill="#FAFAFA" opacity="1.000000" stroke="none" 
	d="
M419.033447,282.177246 
	C422.486908,275.919556 427.241669,272.376709 434.256866,271.929596 
	C438.900360,271.633636 441.242859,273.012146 440.368927,278.007019 
	C440.174744,279.116791 440.209381,280.266602 440.119293,281.706787 
	C435.410370,280.399658 431.194214,280.553162 428.821899,285.309601 
	C425.898376,291.171082 425.759918,297.229797 428.932343,303.000458 
	C431.309204,307.324127 435.403961,307.670441 440.064087,306.263275 
	C440.064087,309.285858 440.064087,312.027100 440.064087,314.766571 
	C429.995056,318.590179 419.287231,312.403137 417.463470,300.565857 
	C416.569519,294.763733 418.333710,288.552094 419.033447,282.177246 
z"/>
<path fill="#FAFAFA" opacity="1.000000" stroke="none" 
	d="
M112.897263,281.011902 
	C108.329697,281.014343 105.756393,283.640259 105.059357,287.168121 
	C104.244331,291.293182 103.868835,295.799408 104.658264,299.877869 
	C105.835175,305.958282 109.631790,307.638672 117.086205,306.538452 
	C117.086205,309.315125 117.086205,312.059326 117.086205,314.780853 
	C109.980446,317.392639 103.136879,315.434601 98.438148,309.492706 
	C92.242584,301.657959 91.870422,287.584167 97.644249,279.472076 
	C102.314804,272.910095 109.151688,270.584106 117.086395,273.028259 
	C117.086395,275.705231 117.086395,278.472717 117.086395,281.548981 
	C115.783302,281.365356 114.535606,281.189514 112.897263,281.011902 
z"/>
<path fill="#71B8B4" opacity="1.000000" stroke="none" 
	d="
M209.058090,203.084854 
	C209.091171,208.573883 209.179016,214.063232 209.146179,219.551880 
	C209.073883,231.632996 200.962692,239.879807 188.573120,240.544403 
	C188.572357,232.990952 188.572357,225.437485 189.053680,217.337143 
	C193.469818,208.556793 199.910782,203.893265 209.058090,203.084854 
z"/>
<path fill="#F7F7F8" opacity="1.000000" stroke="none" 
	d="
M265.471130,295.811066 
	C264.687286,297.170929 264.044891,298.650665 263.089844,298.891754 
	C261.374329,299.324768 259.471069,299.013977 257.234497,299.013977 
	C257.234497,304.208008 257.234497,309.290253 257.234497,314.692688 
	C253.801956,314.692688 250.775040,314.692688 247.524338,314.692688 
	C247.524338,300.926544 247.524338,287.331421 247.524338,273.359619 
	C253.751465,273.359619 259.949860,273.359619 266.423523,273.359619 
	C266.423523,276.102020 266.423523,278.832275 266.423523,281.963013 
	C263.307892,281.963013 260.386810,281.963013 257.244629,281.963013 
	C257.244629,284.759644 257.244629,287.161713 257.244629,289.869568 
	C259.830902,289.869568 262.276001,289.869568 265.471680,289.869568 
	C265.471680,291.897705 265.471680,293.635223 265.471130,295.811066 
z"/>
<path fill="#F0F5F5" opacity="1.000000" stroke="none" 
	d="
M313.410126,84.726944 
	C313.289551,89.821396 309.668152,88.758415 306.366394,88.527130 
	C287.179840,87.183083 268.115021,88.157677 249.684570,93.864128 
	C222.919708,102.151108 204.721756,119.970322 194.289215,145.866638 
	C193.491089,147.847824 192.580521,149.783691 191.392212,151.863235 
	C193.113358,139.173798 199.339508,128.289536 207.190750,118.324989 
	C223.469421,97.664597 245.395142,87.238625 271.177338,85.227249 
	C285.030823,84.146477 299.021576,84.825623 313.410126,84.726944 
z"/>
<path fill="#FFFFFF" opacity="1.000000" stroke="none" 
	d="
M275.822876,285.010925 
	C275.822876,280.869568 275.822876,277.225769 275.822876,273.292755 
	C278.949310,273.292755 281.839691,273.292755 284.958618,273.292755 
	C284.958618,287.132568 284.958618,300.857147 284.958618,314.790039 
	C281.989380,314.790039 279.222473,314.790039 275.822876,314.790039 
	C275.822876,305.014374 275.822876,295.261414 275.822876,285.010925 
z"/>
<path fill="#68AFAE" opacity="1.000000" stroke="none" 
	d="
M268.093384,150.645279 
	C256.452576,151.963821 250.355759,157.451645 247.386383,169.555069 
	C245.317444,157.827423 255.619751,147.772964 264.978790,146.795197 
	C268.255219,146.452896 268.819489,147.626297 268.093384,150.645279 
z"/>
<path fill="#67AEAE" opacity="1.000000" stroke="none" 
	d="
M297.744049,117.411255 
	C287.374054,117.937180 281.257599,123.725739 277.190155,132.882843 
	C275.810669,123.369759 286.581787,113.563606 296.001465,113.434456 
	C296.597565,113.426277 297.226013,115.778793 297.744049,117.411255 
z"/>
<path fill="#F0F4F5" opacity="1.000000" stroke="none" 
	d="
M209.172974,202.754578 
	C199.910782,203.893265 193.469818,208.556793 189.232727,216.964203 
	C188.965363,215.883209 188.687057,214.517395 189.085678,213.391159 
	C191.829941,205.637466 197.407928,201.008957 205.355423,199.185867 
	C207.963242,198.587662 210.045197,198.836258 209.172974,202.754578 
z"/>
<path fill="#ECF3F4" opacity="1.000000" stroke="none" 
	d="
M238.810272,172.437958 
	C228.773529,173.469131 222.325851,178.822479 218.224304,187.943878 
	C218.086914,178.255463 226.820328,169.181702 236.202225,168.759048 
	C239.113327,168.627914 239.103699,170.023575 238.810272,172.437958 
z"/>
<path fill="#6AB2B0" opacity="1.000000" stroke="none" 
	d="
M327.110901,127.581520 
	C314.829102,129.786560 308.643707,135.312653 306.387421,146.519592 
	C305.600739,135.658051 312.068146,126.539543 322.311005,124.332138 
	C324.502808,123.859787 327.662964,122.639214 327.110901,127.581520 
z"/>
<path fill="#ECF1F3" opacity="1.000000" stroke="none" 
	d="
M325.438812,90.013977 
	C321.585999,85.900734 318.058502,81.657043 314.259033,77.227921 
	C313.878326,75.754120 313.769562,74.465752 313.525970,71.579773 
	C318.545502,77.438454 322.677094,82.158859 326.617065,87.034111 
	C326.969086,87.469673 326.077911,88.909904 325.438812,90.013977 
z"/>
<path fill="#1F1644" opacity="1.000000" stroke="none" 
	d="
M179.904175,284.412994 
	C180.601990,289.142273 178.498474,290.913574 174.187103,290.901825 
	C174.187103,287.687775 174.187103,284.584930 174.187103,280.174988 
	C176.453812,281.717590 178.136932,282.863037 179.904175,284.412994 
z"/>
<path fill="#251D49" opacity="1.000000" stroke="none" 
	d="
M352.682983,288.328979 
	C353.720032,292.174713 354.443665,295.750702 355.239136,299.681702 
	C353.227142,299.681702 351.360687,299.681702 348.653931,299.681702 
	C349.929901,295.690552 351.149750,291.874908 352.682983,288.328979 
z"/>
</svg>