<svg version="1.1" id="Layer_1" xmlns="http://www.w3.org/2000/svg" xmlns:xlink="http://www.w3.org/1999/xlink" x="0px" y="0px"
	 width="100%" viewBox="0 0 980 980" enable-background="new 0 0 980 980" xml:space="preserve">
<path fill="#FFFFFF" opacity="1.000000" stroke="none" 
	d="
M628.000000,981.000000 
	C418.666656,981.000000 209.833328,981.000000 1.000000,981.000000 
	C1.000000,654.333313 1.000000,327.666656 1.000000,1.000000 
	C327.666656,1.000000 654.333313,1.000000 981.000000,1.000000 
	C981.000000,327.666656 981.000000,654.333313 981.000000,981.000000 
	C863.500000,981.000000 746.000000,981.000000 628.000000,981.000000 
M598.755066,817.255005 
	C613.095459,811.469299 627.887634,806.594604 641.700562,799.745117 
	C713.910278,763.938049 767.829773,709.710815 802.095703,636.668884 
	C835.892151,564.627686 843.291870,489.423218 825.348999,412.024719 
	C810.259766,346.935394 778.135376,291.188538 730.291443,244.506958 
	C701.382324,216.300156 668.538147,193.835648 631.660950,177.442535 
	C571.299072,150.609711 508.310760,141.665024 442.855865,150.880051 
	C373.600922,160.630081 312.981903,189.150589 261.002167,235.785187 
	C223.400864,269.519897 194.634186,309.754242 174.857254,356.309082 
	C154.410049,404.441742 145.492218,454.636688 147.830109,506.886505 
	C148.920898,531.264587 152.376328,555.286804 158.684525,578.818237 
	C172.575607,630.635986 197.063263,676.874817 232.465286,717.296143 
	C261.224609,750.132935 294.928955,776.709656 333.727142,796.580933 
	C386.961700,823.846069 443.565521,836.453979 503.441254,834.268921 
	C535.771545,833.089050 567.294373,827.664062 598.755066,817.255005 
z"/>
<path fill="#3793CF" opacity="1.000000" stroke="none" 
	d="
M598.383301,817.391846 
	C567.294373,827.664062 535.771545,833.089050 503.441254,834.268921 
	C443.565521,836.453979 386.961700,823.846069 333.727142,796.580933 
	C294.928955,776.709656 261.224609,750.132935 232.465286,717.296143 
	C197.063263,676.874817 172.575607,630.635986 158.684525,578.818237 
	C152.376328,555.286804 148.920898,531.264587 147.830109,506.886505 
	C145.492218,454.636688 154.410049,404.441742 174.857254,356.309082 
	C194.634186,309.754242 223.400864,269.519897 261.002167,235.785187 
	C312.981903,189.150589 373.600922,160.630081 442.855865,150.880051 
	C508.310760,141.665024 571.299072,150.609711 631.660950,177.442535 
	C668.538147,193.835648 701.382324,216.300156 730.291443,244.506958 
	C778.135376,291.188538 810.259766,346.935394 825.348999,412.024719 
	C843.291870,489.423218 835.892151,564.627686 802.095703,636.668884 
	C767.829773,709.710815 713.910278,763.938049 641.700562,799.745117 
	C627.887634,806.594604 613.095459,811.469299 598.383301,817.391846 
M697.345703,342.944458 
	C697.053040,343.205078 696.760376,343.465729 695.950195,343.696991 
	C695.634949,343.830017 695.319702,343.963043 694.274170,344.125000 
	C685.679382,347.320038 677.084595,350.515106 668.188660,353.603912 
	C668.188660,353.603912 667.917480,353.772369 667.089539,353.771759 
	C665.790588,354.043976 664.451782,354.195892 663.199829,354.610138 
	C658.815369,356.060699 655.697876,355.188049 651.727478,352.022339 
	C643.490723,345.455017 634.584717,339.419495 625.181030,334.707581 
	C615.262085,329.737518 604.293579,327.283325 592.204041,327.469452 
	C591.151794,327.539093 590.099487,327.608704 588.203003,327.357239 
	C572.567871,327.513611 557.939880,331.524475 544.433167,339.309204 
	C532.057129,346.442261 521.305786,355.425140 514.000000,368.000000 
	C514.000000,368.000000 514.007385,368.010895 513.412537,368.328094 
	C499.180084,389.833588 495.345367,413.368896 500.271240,439.082367 
	C497.108398,438.939178 494.465179,439.055573 491.899414,438.664246 
	C477.599121,436.483215 463.317596,434.179199 448.624207,431.495789 
	C448.056549,431.407532 447.488861,431.319275 446.386017,430.737122 
	C433.257935,426.167358 420.129852,421.597565 406.730621,416.817749 
	C406.730621,416.817749 406.388092,416.799164 405.918549,416.269653 
	C402.271240,414.577179 398.623932,412.884705 394.682861,410.929871 
	C394.682861,410.929871 394.298798,410.842651 394.010986,410.390900 
	C393.675323,410.303314 393.339661,410.215729 392.612854,409.669556 
	C391.868835,409.380859 391.124786,409.092194 389.929108,408.263367 
	C387.218384,406.665497 384.431335,405.182983 381.810547,403.449127 
	C372.155426,397.061676 362.555389,390.590973 352.629120,383.634155 
	C352.128510,383.316071 351.627899,382.998016 350.883667,382.114319 
	C349.709595,381.303436 348.535522,380.492523 347.335632,379.733948 
	C347.335632,379.733948 347.286530,379.702515 347.106476,379.218658 
	C346.809326,379.062897 346.512177,378.907135 346.276184,378.811462 
	C346.276184,378.811462 346.247955,378.730286 346.026642,378.116119 
	C342.640625,375.179138 339.254608,372.242188 335.832275,369.142395 
	C335.832275,369.142395 335.665436,369.144226 335.510712,368.564789 
	C334.732300,367.976074 333.953918,367.387329 333.020050,366.957031 
	C333.020050,366.957031 333.199493,366.826416 333.005737,366.193359 
	C331.055176,364.403961 329.104584,362.614563 327.020447,360.973083 
	C327.020447,360.973083 327.177673,360.850677 327.012085,360.200256 
	C322.342865,355.017914 317.673676,349.835571 312.214508,343.776459 
	C309.819031,349.614349 307.898590,354.294586 305.511780,359.543701 
	C305.248322,360.504089 304.999359,361.468719 304.719299,362.424225 
	C293.507233,400.672852 304.790375,437.055634 335.668610,462.243896 
	C336.870239,463.224121 338.011017,464.278931 339.733551,465.781830 
	C325.235413,465.284485 312.565338,461.091064 299.216492,454.669189 
	C302.289307,502.261688 326.373596,531.534119 370.361176,545.292725 
	C370.255341,545.823608 370.149506,546.354492 370.043671,546.885376 
	C357.468475,546.885376 344.893280,546.885376 331.713013,546.885376 
	C336.492981,560.903259 343.074341,572.464417 353.074860,582.547424 
	C353.357330,582.721619 353.639801,582.895813 354.003326,583.035156 
	C354.003326,583.035156 353.934021,583.091187 354.125641,583.715637 
	C355.997864,585.230408 357.870056,586.745239 359.964539,588.107178 
	C359.964539,588.107178 359.745361,588.250061 359.958130,588.876892 
	C365.645020,592.565430 371.331879,596.254028 377.015564,600.004944 
	C377.015564,600.004944 377.067657,599.970581 377.434570,600.545959 
	C385.638855,603.222351 393.843140,605.898804 402.693054,608.764465 
	C403.139587,608.770020 403.586121,608.775574 404.796722,609.080322 
	C408.182098,609.363525 411.567505,609.646729 415.039062,610.049255 
	C415.039062,610.049255 415.180389,610.008301 415.379913,610.412415 
	C415.379913,610.412415 415.725281,610.702026 415.240082,611.222778 
	C415.116913,611.425598 414.993774,611.628357 414.199677,611.979797 
	C407.262634,616.363281 400.325592,620.746826 392.563019,625.053528 
	C391.312561,625.399414 390.006165,625.612732 388.820679,626.112671 
	C381.163696,629.341858 373.503601,632.567505 365.916443,635.955444 
	C364.213501,636.715820 362.795990,638.115356 361.187683,639.191467 
	C361.187683,639.191467 361.169098,639.127930 360.684998,639.201843 
	C360.366516,639.339600 360.151337,639.572693 359.470062,640.096680 
	C359.069855,640.117615 358.669678,640.138550 357.381805,640.054260 
	C354.160858,640.455444 350.822540,640.457092 347.749146,641.360352 
	C344.024933,642.454956 340.524628,644.311401 337.010712,645.996765 
	C337.010712,645.996765 337.067139,646.166870 336.371613,646.065430 
	C335.902924,646.049988 335.434265,646.034485 334.466248,645.440674 
	C329.242767,645.704590 324.015778,645.913696 318.796509,646.244141 
	C308.520935,646.894592 298.256500,648.538330 288.025543,645.384888 
	C286.761566,644.995300 284.759186,647.001404 282.910095,648.344727 
	C291.236450,652.969360 299.562836,657.593994 307.913666,662.115906 
	C307.913666,662.115906 307.817963,662.160522 308.049622,662.611328 
	C308.364777,662.702759 308.679932,662.794250 309.321106,663.105286 
	C309.321106,663.105286 309.712891,663.136475 310.021942,663.549866 
	C310.343811,663.635559 310.665649,663.721313 311.336975,664.060974 
	C311.336975,664.060974 311.764374,664.123901 312.211914,664.666565 
	C314.411530,665.522766 316.611145,666.379028 318.825745,667.222351 
	C318.825745,667.222351 318.831573,667.210388 319.227142,667.768860 
	C322.821716,669.140747 326.416321,670.512695 330.448029,672.147766 
	C330.778961,672.201172 331.109863,672.254578 331.969299,672.831787 
	C338.556427,675.058228 345.049225,677.632446 351.747559,679.448914 
	C376.353058,686.121582 401.343079,689.950806 427.835510,688.821411 
	C431.553619,688.576050 435.271729,688.330627 439.627777,688.426147 
	C449.695312,687.271362 459.825104,686.493164 469.810669,684.842590 
	C477.787415,683.524048 485.588562,681.143372 494.110474,679.278015 
	C494.729309,679.110474 495.348145,678.942993 496.726776,678.744812 
	C503.404816,676.461121 510.082825,674.177490 516.881897,671.950134 
	C516.881897,671.950134 516.938721,671.829285 517.684631,671.835632 
	C530.656250,665.519958 544.053894,659.932129 556.468750,652.665222 
	C566.969727,646.518555 576.332703,638.427612 586.152649,631.026123 
	C586.152649,631.026123 586.156067,631.203430 586.673950,631.088196 
	C586.871521,630.809082 587.069092,630.529968 587.280518,630.282288 
	C587.280518,630.282288 587.313782,630.291260 587.950134,630.113159 
	C589.689758,628.440979 591.429321,626.768738 593.053406,625.078003 
	C593.053406,625.078003 593.136841,625.160034 593.783569,624.981628 
	C597.967163,620.778564 602.150818,616.575439 606.377258,612.240234 
	C606.377258,612.240234 606.293213,612.350830 606.851746,612.237732 
	C607.183228,611.801453 607.514709,611.365234 607.950989,610.954041 
	C607.950989,610.954041 607.955322,610.846436 608.425476,610.801147 
	C608.741028,610.623047 608.869385,610.355164 609.066284,609.726257 
	C609.066284,609.726257 609.158508,609.364929 609.675354,609.155945 
	C609.879700,608.860474 610.084045,608.565002 610.324158,608.294128 
	C610.324158,608.294128 610.364868,608.309082 610.967468,608.072693 
	C617.750244,599.458801 624.532959,590.844910 631.353638,582.172913 
	C631.353638,582.172913 631.390320,582.231812 631.972839,581.973572 
	C638.759338,570.423096 645.545776,558.872681 652.319519,547.275330 
	C652.319519,547.275330 652.280945,547.245605 652.722839,546.982178 
	C652.795776,546.655396 652.868652,546.328674 653.157166,545.729858 
	C653.157166,545.729858 653.194885,545.384766 653.756226,544.941895 
	C655.594543,540.707275 657.432800,536.472717 659.216003,532.237061 
	C659.216003,532.237061 659.242920,532.188965 659.789917,531.774414 
	C663.829102,519.844971 667.868225,507.915527 672.017517,495.921387 
	C672.017517,495.921387 671.952637,495.811432 672.203430,495.706299 
	C672.203430,495.706299 672.288086,495.452179 672.288086,495.452179 
	C672.288086,495.452179 672.068848,495.298492 672.441772,494.575958 
	C672.529724,494.044983 672.617676,493.513977 673.102478,492.322479 
	C673.587219,490.572601 674.264465,488.851013 674.526062,487.068390 
	C676.487122,473.703827 678.366150,460.327240 680.559265,446.153076 
	C680.603699,444.449036 680.648132,442.744965 680.963928,440.131409 
	C681.008179,433.833557 680.838867,427.522583 681.223633,421.245605 
	C681.343079,419.296814 682.527283,416.963470 683.979919,415.628906 
	C688.728699,411.266083 694.068237,407.535431 698.719727,403.080536 
	C703.211853,398.778229 707.132874,393.879486 711.032104,389.220520 
	C711.032104,389.220520 711.298828,389.281433 711.924377,389.099121 
	C713.275452,387.398529 714.626526,385.697968 716.005066,383.999451 
	C716.005066,383.999451 715.994690,383.973694 716.596619,383.684937 
	C719.136841,380.143616 721.677002,376.602264 724.217224,373.060944 
	C724.013550,372.657196 723.809875,372.253479 723.606140,371.849731 
	C716.718628,374.220032 709.831116,376.590332 702.440247,378.992157 
	C702.286926,379.061005 702.133606,379.129883 701.422913,379.154999 
	C701.118164,379.355103 700.813477,379.555206 700.209290,379.670929 
	C700.209290,379.670929 699.945679,379.836060 699.112976,379.826660 
	C692.546082,381.118500 685.979187,382.410370 679.683472,383.648895 
	C687.704285,374.326843 695.478394,365.291595 703.240601,356.120911 
	C703.240601,356.120911 703.188782,356.246582 703.817566,355.997955 
	C707.391968,349.147675 710.966309,342.297394 714.540710,335.447083 
	C714.041809,335.113037 713.542908,334.778961 713.044006,334.444916 
	C709.525635,336.542572 706.007202,338.640259 702.193054,340.733398 
	C702.193054,340.733398 701.974854,340.933014 701.402161,341.000183 
	C701.112305,341.243164 700.822449,341.486115 700.231384,341.713654 
	C700.231384,341.713654 699.998596,341.905518 699.386658,341.911621 
	C698.896118,342.245300 698.405518,342.578979 697.976562,342.999359 
	C697.976562,342.999359 697.944458,342.898041 697.345703,342.944458 
z"/>
<path fill="#FDFFFE" opacity="1.000000" stroke="none" 
	d="
M309.712891,663.136475 
	C309.712891,663.136475 309.321106,663.105286 309.028748,662.783081 
	C308.482513,662.201111 308.176392,662.101013 307.817963,662.160522 
	C307.817963,662.160522 307.913666,662.115906 307.774170,661.844360 
	C302.975616,658.219543 298.316589,654.866272 292.927856,650.987854 
	C298.730774,650.987854 303.926666,651.142883 309.103638,650.898132 
	C310.767090,650.819458 312.380646,649.686035 314.378784,648.962891 
	C315.476562,648.884521 316.212555,648.878296 317.195770,649.177856 
	C322.930511,649.270325 328.429993,649.196838 333.895691,648.728394 
	C335.017761,648.632202 336.013275,647.059143 337.067139,646.166870 
	C337.067139,646.166870 337.010712,645.996765 337.308228,645.961182 
	C338.061462,645.919739 338.517120,645.913818 339.210693,646.200806 
	C342.691040,646.254456 346.045319,646.444702 349.140015,645.638428 
	C351.563263,645.007141 353.664856,643.141296 356.124207,641.639648 
	C356.886322,641.326233 357.433594,641.197083 358.237427,641.330994 
	C364.135864,640.065979 369.805145,638.626831 375.387695,636.906433 
	C376.155365,636.669800 376.492645,635.036804 377.021393,634.022095 
	C377.013611,633.994019 377.053009,634.037537 377.476685,634.043030 
	C380.672791,633.503845 384.863922,635.616333 385.274384,630.084106 
	C385.834137,629.830322 386.170959,629.722839 386.950531,629.717651 
	C389.408173,629.463013 391.991913,629.773254 393.334808,628.628235 
	C397.974548,624.672363 402.750458,621.352722 409.052307,620.916138 
	C409.491516,620.885620 409.912750,620.596008 410.474335,620.374878 
	C410.118866,619.417358 409.802917,618.566223 409.486938,617.715088 
	C409.955261,617.936340 410.423553,618.157593 410.891846,618.378784 
	C412.218109,616.196228 413.544373,614.013672 414.870667,611.831177 
	C414.993774,611.628357 415.116913,611.425598 415.515228,610.843811 
	C415.692871,610.180359 415.489563,610.028137 415.180389,610.008301 
	C415.180389,610.008301 415.039062,610.049255 414.745728,609.716125 
	C410.979156,609.182373 407.505920,608.981750 404.032654,608.781189 
	C403.586121,608.775574 403.139587,608.770020 402.302795,608.339966 
	C400.602112,607.116028 399.346436,606.198242 397.962158,605.558716 
	C397.031860,605.128845 395.904785,605.147278 394.891296,604.871338 
	C388.945892,603.253113 383.008057,601.607178 377.067657,599.970581 
	C377.067657,599.970581 377.015564,600.004944 376.973999,599.615356 
	C373.529022,591.925476 365.848236,591.323181 359.745361,588.250061 
	C359.745361,588.250061 359.964539,588.107178 359.932617,587.789551 
	C359.955963,583.227539 356.331177,583.995361 353.934021,583.091187 
	C353.934021,583.091187 354.003326,583.035156 353.889069,582.810791 
	C353.501617,582.403259 353.228455,582.220093 352.955292,582.036926 
	C343.074341,572.464417 336.492981,560.903259 331.713013,546.885376 
	C344.893280,546.885376 357.468475,546.885376 370.043671,546.885376 
	C370.149506,546.354492 370.255341,545.823608 370.361176,545.292725 
	C326.373596,531.534119 302.289307,502.261688 299.216492,454.669189 
	C312.565338,461.091064 325.235413,465.284485 339.733551,465.781830 
	C338.011017,464.278931 336.870239,463.224121 335.668610,462.243896 
	C304.790375,437.055634 293.507233,400.672852 304.719299,362.424225 
	C304.999359,361.468719 305.248322,360.504089 306.109070,359.231995 
	C308.941284,355.595917 311.176239,352.271515 313.548676,348.742615 
	C315.327637,350.632538 316.666260,352.321075 318.270569,353.700684 
	C321.155548,356.181763 324.199890,358.477509 327.177673,360.850677 
	C327.177673,360.850677 327.020447,360.973083 327.032410,361.323669 
	C326.172729,366.884094 330.288513,366.135590 333.199493,366.826416 
	C333.199493,366.826416 333.020050,366.957031 333.068359,367.221130 
	C333.966248,368.038239 334.815857,368.591248 335.665436,369.144226 
	C335.665436,369.144226 335.832275,369.142395 335.882263,369.585876 
	C337.288971,375.397888 341.471436,377.416229 346.247955,378.730286 
	C346.247955,378.730286 346.276184,378.811462 346.289734,379.061096 
	C346.631012,379.441315 346.958771,379.571930 347.286530,379.702515 
	C347.286530,379.702515 347.335632,379.733948 347.239380,380.100159 
	C347.359467,383.205200 347.949005,385.272369 351.127319,382.679932 
	C351.627899,382.998016 352.128510,383.316071 352.796509,384.250671 
	C354.516479,386.673645 355.807129,388.830200 357.669037,390.223236 
	C364.188751,395.101074 370.682953,400.084045 377.636139,404.283142 
	C381.415833,406.565735 386.102936,407.345795 390.380768,408.803528 
	C391.124786,409.092194 391.868835,409.380859 392.959290,410.115540 
	C393.636719,410.655243 393.967743,410.748962 394.298798,410.842651 
	C394.298798,410.842651 394.682861,410.929871 394.841095,411.425903 
	C397.763397,415.957947 401.832581,416.946381 406.388092,416.799164 
	C406.388092,416.799164 406.730621,416.817749 406.916382,417.268097 
	C407.383118,418.113495 407.577026,418.704285 407.958313,418.873779 
	C412.523895,420.903992 417.016266,423.164673 421.726471,424.788940 
	C429.292877,427.398102 436.999207,429.605560 444.676880,431.880005 
	C445.305725,432.066284 446.167603,431.465912 446.921204,431.231018 
	C447.488861,431.319275 448.056549,431.407532 449.033539,432.005707 
	C452.877869,433.991058 456.191681,436.244232 459.769714,436.801727 
	C472.454132,438.778137 485.219116,440.264343 497.984741,441.649109 
	C499.203918,441.781342 501.778107,439.900970 501.770081,438.971802 
	C501.742035,435.725006 500.421234,432.491882 500.374390,429.242279 
	C500.189819,416.440216 500.128540,403.622040 504.989716,391.406464 
	C506.259064,388.216736 507.113342,384.862823 508.359161,381.662537 
	C510.145233,377.074371 512.115662,372.557953 514.007446,368.010895 
	C514.007385,368.010895 514.000000,368.000000 514.375427,368.003784 
	C516.332642,366.933746 518.179688,366.105743 519.446106,364.739563 
	C523.090088,360.808563 526.176331,356.313965 530.073486,352.674530 
	C536.669495,346.514709 544.081543,341.303955 552.558411,338.042297 
	C558.772400,335.651306 565.219482,333.828888 571.635986,332.012207 
	C577.387695,330.383759 583.239563,329.109070 589.047241,327.678345 
	C590.099487,327.608704 591.151794,327.539093 592.735474,327.900604 
	C598.086121,329.280396 603.189941,329.524353 607.662415,331.331207 
	C615.801147,334.619232 624.615295,335.852570 632.241333,340.945526 
	C638.483643,345.114380 645.712830,347.813812 650.136047,354.339478 
	C653.162048,358.803894 663.956604,359.725372 667.471619,355.659180 
	C667.846313,355.225677 667.779480,354.410492 667.917480,353.772369 
	C667.917480,353.772369 668.188660,353.603912 668.728516,353.762085 
	C670.606262,353.847534 672.007141,354.004639 673.270386,353.659027 
	C677.014893,352.634766 680.637024,350.912567 684.433960,350.395355 
	C689.037964,349.768250 692.182312,347.366425 695.004456,344.096100 
	C695.319702,343.963043 695.634949,343.830017 696.520569,343.714111 
	C697.375427,343.453491 697.659973,343.175781 697.944458,342.898041 
	C697.944458,342.898041 697.976562,342.999359 698.263428,342.979187 
	C699.033020,342.607849 699.515808,342.256683 699.998596,341.905518 
	C699.998596,341.905518 700.231384,341.713654 700.746216,341.812439 
	C701.508606,341.939148 701.756165,341.967102 702.056763,342.131897 
	C702.192871,342.318329 702.276001,342.367950 702.359131,342.417572 
	C702.237793,342.279694 702.116455,342.141815 701.997314,341.736084 
	C701.991272,341.289795 701.983032,341.111389 701.974854,340.933014 
	C701.974854,340.933014 702.193054,340.733398 702.772461,340.812439 
	C705.070496,341.008423 706.789185,341.125366 708.189819,341.220703 
	C706.421143,346.534729 704.804932,351.390656 703.188782,356.246582 
	C703.188782,356.246582 703.240601,356.120911 702.865662,356.113342 
	C701.741638,356.347656 700.710449,356.356323 700.287598,356.867889 
	C696.517883,361.429047 692.894104,366.110657 689.130188,370.676697 
	C688.352600,371.620056 687.150940,372.205841 686.179016,372.998505 
	C682.215149,376.231415 678.244629,379.457214 674.351135,382.773285 
	C674.073914,383.009430 674.398499,383.952332 674.450073,384.659302 
	C678.281189,384.659302 681.918091,384.942017 685.492981,384.591370 
	C690.530762,384.097198 695.547974,380.515900 700.532104,384.793274 
	C700.621094,384.869598 701.077271,384.518097 701.356323,384.361908 
	C700.882263,382.850433 700.414001,381.343231 699.945679,379.836060 
	C699.945679,379.836060 700.209290,379.670929 700.643677,379.743866 
	C701.378784,379.610809 701.679504,379.404785 701.980225,379.198792 
	C702.133606,379.129883 702.286926,379.061005 703.093506,379.015808 
	C707.124939,380.045258 710.344849,380.461304 713.429077,377.929749 
	C714.128479,377.355652 715.782776,377.944977 716.998779,377.999390 
	C717.000000,378.000000 717.002441,378.001221 716.963745,378.380096 
	C716.614929,380.497223 716.304810,382.235443 715.994690,383.973694 
	C715.994690,383.973694 716.005066,383.999451 715.615112,383.998108 
	C712.136475,384.435974 710.629700,386.050415 711.298828,389.281433 
	C711.298828,389.281433 711.032104,389.220520 710.879761,389.221497 
	C709.253296,389.710205 707.189758,389.740051 706.398438,390.758362 
	C700.239685,398.683990 693.448364,405.797821 684.713379,411.015259 
	C681.595154,412.877808 679.655823,415.767670 679.848999,420.120331 
	C680.111145,426.028931 679.285400,431.979980 679.139954,437.918060 
	C679.114807,438.945709 680.148132,439.999298 680.692505,441.040924 
	C680.648132,442.744965 680.603699,444.449036 680.123535,446.714172 
	C679.130920,449.307892 678.417480,451.312195 678.043396,453.377899 
	C675.968323,464.834656 673.911255,476.295776 672.027161,487.784760 
	C671.756348,489.436005 672.455444,491.246307 672.705688,492.983002 
	C672.617676,493.513977 672.529724,494.044983 672.217834,495.015869 
	C671.993896,495.455780 671.952637,495.811432 671.952637,495.811432 
	C671.952637,495.811432 672.017517,495.921387 671.605469,496.000793 
	C670.422363,497.045868 669.307617,497.895020 668.934570,498.995605 
	C665.870544,508.036163 662.882751,517.104187 660.026917,526.212463 
	C659.434753,528.100891 659.487427,530.191528 659.242920,532.188965 
	C659.242920,532.188965 659.216003,532.237061 658.868896,532.203857 
	C655.290344,535.988464 652.675293,540.054810 653.194885,545.384766 
	C653.194885,545.384766 653.157166,545.729858 652.828796,546.001953 
	C652.427246,546.597961 652.354126,546.921753 652.280945,547.245605 
	C652.280945,547.245605 652.319519,547.275330 651.953796,547.231384 
	C649.034058,551.076416 646.391479,554.910583 643.945129,558.866089 
	C639.418396,566.185242 635.006714,573.575500 630.398315,581.181702 
	C630.277954,581.054321 630.834167,581.643066 631.390320,582.231812 
	C631.390320,582.231812 631.353638,582.172913 630.979248,582.243042 
	C630.199829,582.588806 629.686584,582.782715 629.406921,583.153076 
	C626.962219,586.390320 624.733887,589.808655 622.101929,592.882568 
	C618.395569,597.211243 614.349915,601.248230 610.586914,605.530823 
	C610.095520,606.090149 610.418884,607.365417 610.364868,608.309082 
	C610.364868,608.309082 610.324158,608.294128 610.004944,608.317505 
	C609.509949,608.682251 609.334229,609.023621 609.158508,609.364929 
	C609.158508,609.364929 609.066284,609.726257 608.749268,609.950073 
	C608.195312,610.342773 608.036377,610.566956 607.955322,610.846436 
	C607.955322,610.846436 607.950989,610.954041 607.598389,610.983154 
	C606.928223,611.458435 606.610718,611.904663 606.293213,612.350830 
	C606.293213,612.350830 606.377258,612.240234 605.977722,612.209534 
	C601.470703,615.697144 597.328186,619.176392 593.307495,622.791199 
	C592.883423,623.172424 593.176453,624.351257 593.136841,625.160034 
	C593.136841,625.160034 593.053406,625.078003 592.741455,625.186768 
	C590.203247,626.427185 586.021362,625.556274 587.313782,630.291260 
	C587.313782,630.291260 587.280518,630.282288 586.992676,630.286377 
	C586.521912,630.594849 586.338989,630.899170 586.156067,631.203430 
	C586.156067,631.203430 586.152649,631.026123 585.795044,631.073853 
	C581.356628,633.254639 577.005005,634.997070 573.251404,637.601562 
	C565.370544,643.069824 558.235352,649.734863 549.987610,654.518127 
	C541.655029,659.350647 532.275146,662.348877 523.513794,666.488770 
	C521.034485,667.660339 519.114929,670.016418 516.938721,671.829224 
	C516.938721,671.829285 516.881897,671.950134 516.408752,671.931213 
	C509.790466,673.308105 503.627319,674.633667 497.524872,676.196411 
	C496.830902,676.374023 496.477997,677.883484 495.966980,678.775513 
	C495.348145,678.942993 494.729309,679.110474 493.311615,679.175659 
	C491.025146,679.064209 489.502075,678.841064 488.055664,679.080750 
	C478.045044,680.739746 468.329071,684.070251 458.039215,684.189636 
	C454.724945,684.228088 451.417053,684.742371 448.104462,685.017273 
	C444.810699,685.290527 440.930908,683.800293 438.989838,688.085266 
	C435.271729,688.330627 431.553619,688.576050 427.060730,688.521606 
	C416.129364,687.484131 405.952484,686.946594 395.824951,685.921692 
	C390.973358,685.430664 386.230133,683.936279 381.411133,683.039673 
	C374.525299,681.758606 367.608215,680.645935 360.718658,679.383972 
	C358.175476,678.918274 355.666595,678.257446 353.152283,677.643738 
	C345.912323,675.876648 338.677582,674.088135 331.440796,672.307983 
	C331.109863,672.254578 330.778961,672.201172 330.223938,671.639404 
	C327.566742,666.150574 323.153961,666.809265 318.831573,667.210388 
	C318.831573,667.210388 318.825745,667.222351 318.825928,666.845215 
	C316.472198,665.686646 314.118286,664.905273 311.764374,664.123901 
	C311.764374,664.123901 311.336975,664.060974 311.012390,663.725342 
	C310.362823,663.305237 310.037842,663.220886 309.712891,663.136475 
z"/>
<path fill="#DDF6FA" opacity="1.000000" stroke="none" 
	d="
M513.709961,368.169495 
	C512.115662,372.557953 510.145233,377.074371 508.359161,381.662537 
	C507.113342,384.862823 506.259064,388.216736 504.989716,391.406464 
	C500.128540,403.622040 500.189819,416.440216 500.374390,429.242279 
	C500.421234,432.491882 501.742035,435.725006 501.770081,438.971802 
	C501.778107,439.900970 499.203918,441.781342 497.984741,441.649109 
	C485.219116,440.264343 472.454132,438.778137 459.769714,436.801727 
	C456.191681,436.244232 452.877869,433.991058 449.236267,432.216431 
	C463.317596,434.179199 477.599121,436.483215 491.899414,438.664246 
	C494.465179,439.055573 497.108398,438.939178 500.271240,439.082367 
	C495.345367,413.368896 499.180084,389.833588 513.709961,368.169495 
z"/>
<path fill="#DDF6FA" opacity="1.000000" stroke="none" 
	d="
M588.625122,327.517792 
	C583.239563,329.109070 577.387695,330.383759 571.635986,332.012207 
	C565.219482,333.828888 558.772400,335.651306 552.558411,338.042297 
	C544.081543,341.303955 536.669495,346.514709 530.073486,352.674530 
	C526.176331,356.313965 523.090088,360.808563 519.446106,364.739563 
	C518.179688,366.105743 516.332642,366.933746 514.380737,368.006958 
	C521.305786,355.425140 532.057129,346.442261 544.433167,339.309204 
	C557.939880,331.524475 572.567871,327.513611 588.625122,327.517792 
z"/>
<path fill="#DDF6FA" opacity="1.000000" stroke="none" 
	d="
M667.503540,353.772064 
	C667.779480,354.410492 667.846313,355.225677 667.471619,355.659180 
	C663.956604,359.725372 653.162048,358.803894 650.136047,354.339478 
	C645.712830,347.813812 638.483643,345.114380 632.241333,340.945526 
	C624.615295,335.852570 615.801147,334.619232 607.662415,331.331207 
	C603.189941,329.524353 598.086121,329.280396 593.106323,328.050385 
	C604.293579,327.283325 615.262085,329.737518 625.181030,334.707581 
	C634.584717,339.419495 643.490723,345.455017 651.727478,352.022339 
	C655.697876,355.188049 658.815369,356.060699 663.199829,354.610138 
	C664.451782,354.195892 665.790588,354.043976 667.503540,353.772064 
z"/>
<path fill="#DDF6FA" opacity="1.000000" stroke="none" 
	d="
M517.311646,671.832397 
	C519.114929,670.016418 521.034485,667.660339 523.513794,666.488770 
	C532.275146,662.348877 541.655029,659.350647 549.987610,654.518127 
	C558.235352,649.734863 565.370544,643.069824 573.251404,637.601562 
	C577.005005,634.997070 581.356628,633.254639 585.818359,631.159424 
	C576.332703,638.427612 566.969727,646.518555 556.468750,652.665222 
	C544.053894,659.932129 530.656250,665.519958 517.311646,671.832397 
z"/>
<path fill="#DDF6FA" opacity="1.000000" stroke="none" 
	d="
M331.705048,672.569885 
	C338.677582,674.088135 345.912323,675.876648 353.152283,677.643738 
	C355.666595,678.257446 358.175476,678.918274 360.718658,679.383972 
	C367.608215,680.645935 374.525299,681.758606 381.411133,683.039673 
	C386.230133,683.936279 390.973358,685.430664 395.824951,685.921692 
	C405.952484,686.946594 416.129364,687.484131 426.613098,688.454834 
	C401.343079,689.950806 376.353058,686.121582 351.747559,679.448914 
	C345.049225,677.632446 338.556427,675.058228 331.705048,672.569885 
z"/>
<path fill="#DDF6FA" opacity="1.000000" stroke="none" 
	d="
M699.529358,379.831360 
	C700.414001,381.343231 700.882263,382.850433 701.356323,384.361908 
	C701.077271,384.518097 700.621094,384.869598 700.532104,384.793274 
	C695.547974,380.515900 690.530762,384.097198 685.492981,384.591370 
	C681.918091,384.942017 678.281189,384.659302 674.450073,384.659302 
	C674.398499,383.952332 674.073914,383.009430 674.351135,382.773285 
	C678.244629,379.457214 682.215149,376.231415 686.179016,372.998505 
	C687.150940,372.205841 688.352600,371.620056 689.130188,370.676697 
	C692.894104,366.110657 696.517883,361.429047 700.287598,356.867889 
	C700.710449,356.356323 701.741638,356.347656 702.871582,356.181061 
	C695.478394,365.291595 687.704285,374.326843 679.683472,383.648895 
	C685.979187,382.410370 692.546082,381.118500 699.529358,379.831360 
M677.520447,383.839264 
	C677.426514,383.589111 677.332581,383.338989 677.238586,383.088867 
	C677.148132,383.341553 677.057678,383.594269 677.520447,383.839264 
z"/>
<path fill="#DDF6FA" opacity="1.000000" stroke="none" 
	d="
M680.828247,440.586182 
	C680.148132,439.999298 679.114807,438.945709 679.139954,437.918060 
	C679.285400,431.979980 680.111145,426.028931 679.848999,420.120331 
	C679.655823,415.767670 681.595154,412.877808 684.713379,411.015259 
	C693.448364,405.797821 700.239685,398.683990 706.398438,390.758362 
	C707.189758,389.740051 709.253296,389.710205 711.016113,389.232635 
	C707.132874,393.879486 703.211853,398.778229 698.719727,403.080536 
	C694.068237,407.535431 688.728699,411.266083 683.979919,415.628906 
	C682.527283,416.963470 681.343079,419.296814 681.223633,421.245605 
	C680.838867,427.522583 681.008179,433.833557 680.828247,440.586182 
z"/>
<path fill="#DDF6FA" opacity="1.000000" stroke="none" 
	d="
M439.308807,688.255737 
	C440.930908,683.800293 444.810699,685.290527 448.104462,685.017273 
	C451.417053,684.742371 454.724945,684.228088 458.039215,684.189636 
	C468.329071,684.070251 478.045044,680.739746 488.055664,679.080750 
	C489.502075,678.841064 491.025146,679.064209 492.990204,679.153687 
	C485.588562,681.143372 477.787415,683.524048 469.810669,684.842590 
	C459.825104,686.493164 449.695312,687.271362 439.308807,688.255737 
z"/>
<path fill="#DDF6FA" opacity="1.000000" stroke="none" 
	d="
M314.017059,649.035156 
	C312.380646,649.686035 310.767090,650.819458 309.103638,650.898132 
	C303.926666,651.142883 298.730774,650.987854 292.927856,650.987854 
	C298.316589,654.866272 302.975616,658.219543 307.761932,661.895691 
	C299.562836,657.593994 291.236450,652.969360 283.427277,648.181396 
	C293.968658,648.357117 303.992859,648.696167 314.017059,649.035156 
z"/>
<path fill="#DDF6FA" opacity="1.000000" stroke="none" 
	d="
M390.154938,408.533447 
	C386.102936,407.345795 381.415833,406.565735 377.636139,404.283142 
	C370.682953,400.084045 364.188751,395.101074 357.669037,390.223236 
	C355.807129,388.830200 354.516479,386.673645 352.949249,384.509399 
	C362.555389,390.590973 372.155426,397.061676 381.810547,403.449127 
	C384.431335,405.182983 387.218384,406.665497 390.154938,408.533447 
z"/>
<path fill="#5392B9" opacity="1.000000" stroke="none" 
	d="
M314.378784,648.962952 
	C303.992859,648.696167 293.968658,648.357117 283.521729,647.957764 
	C284.759186,647.001404 286.761566,644.995300 288.025543,645.384888 
	C298.256500,648.538330 308.520935,646.894592 318.796509,646.244141 
	C324.015778,645.913696 329.242767,645.704590 334.333069,645.840271 
	C328.449463,647.117249 322.699036,647.994629 316.948578,648.872070 
	C316.212555,648.878296 315.476562,648.884521 314.378784,648.962952 
z"/>
<path fill="#DDF6FA" opacity="1.000000" stroke="none" 
	d="
M631.681580,582.102661 
	C630.834167,581.643066 630.277954,581.054321 630.398315,581.181702 
	C635.006714,573.575500 639.418396,566.185242 643.945129,558.866089 
	C646.391479,554.910583 649.034058,551.076416 651.960205,547.254822 
	C645.545776,558.872681 638.759338,570.423096 631.681580,582.102661 
z"/>
<path fill="#DDF6FA" opacity="1.000000" stroke="none" 
	d="
M672.904053,492.652740 
	C672.455444,491.246307 671.756348,489.436005 672.027161,487.784760 
	C673.911255,476.295776 675.968323,464.834656 678.043396,453.377899 
	C678.417480,451.312195 679.130920,449.307892 679.979309,447.114838 
	C678.366150,460.327240 676.487122,473.703827 674.526062,487.068390 
	C674.264465,488.851013 673.587219,490.572601 672.904053,492.652740 
z"/>
<path fill="#DDF6FA" opacity="1.000000" stroke="none" 
	d="
M446.653625,430.984070 
	C446.167603,431.465912 445.305725,432.066284 444.676880,431.880005 
	C436.999207,429.605560 429.292877,427.398102 421.726471,424.788940 
	C417.016266,423.164673 412.523895,420.903992 407.958313,418.873779 
	C407.577026,418.704285 407.383118,418.113495 407.051941,417.373108 
	C420.129852,421.597565 433.257935,426.167358 446.653625,430.984070 
z"/>
<path fill="#DDF6FA" opacity="1.000000" stroke="none" 
	d="
M414.535156,611.905518 
	C413.544373,614.013672 412.218109,616.196228 410.891846,618.378784 
	C410.423553,618.157593 409.955261,617.936340 409.486938,617.715088 
	C409.802917,618.566223 410.118866,619.417358 410.474335,620.374878 
	C409.912750,620.596008 409.491516,620.885620 409.052307,620.916138 
	C402.750458,621.352722 397.974548,624.672363 393.334808,628.628235 
	C391.991913,629.773254 389.408173,629.463013 387.190399,629.470703 
	C389.121185,627.791138 391.254883,626.460754 393.388550,625.130371 
	C400.325592,620.746826 407.262634,616.363281 414.535156,611.905518 
z"/>
<path fill="#DDF6FA" opacity="1.000000" stroke="none" 
	d="
M327.094879,360.525452 
	C324.199890,358.477509 321.155548,356.181763 318.270569,353.700684 
	C316.666260,352.321075 315.327637,350.632538 313.548676,348.742615 
	C311.176239,352.271515 308.941284,355.595917 306.342224,358.947571 
	C307.898590,354.294586 309.819031,349.614349 312.214508,343.776459 
	C317.673676,349.835571 322.342865,355.017914 327.094879,360.525452 
z"/>
<path fill="#DDF6FA" opacity="1.000000" stroke="none" 
	d="
M659.516418,531.981689 
	C659.487427,530.191528 659.434753,528.100891 660.026917,526.212463 
	C662.882751,517.104187 665.870544,508.036163 668.934570,498.995605 
	C669.307617,497.895020 670.422363,497.045868 671.550354,496.033142 
	C667.868225,507.915527 663.829102,519.844971 659.516418,531.981689 
z"/>
<path fill="#DDF6FA" opacity="1.000000" stroke="none" 
	d="
M703.503174,356.122253 
	C704.804932,351.390656 706.421143,346.534729 708.189819,341.220703 
	C706.789185,341.125366 705.070496,341.008423 702.920349,340.814697 
	C706.007202,338.640259 709.525635,336.542572 713.044006,334.444916 
	C713.542908,334.778961 714.041809,335.113037 714.540710,335.447083 
	C710.966309,342.297394 707.391968,349.147675 703.503174,356.122253 
z"/>
<path fill="#DDF6FA" opacity="1.000000" stroke="none" 
	d="
M716.295654,383.829315 
	C716.304810,382.235443 716.614929,380.497223 717.278076,378.357513 
	C718.202515,377.508057 718.773865,377.060059 719.345215,376.612061 
	C719.048828,376.365967 718.752380,376.119873 718.455994,375.873779 
	C717.969849,376.582123 717.483704,377.290466 716.997559,377.998779 
	C715.782776,377.944977 714.128479,377.355652 713.429077,377.929749 
	C710.344849,380.461304 707.124939,380.045258 703.345215,379.000000 
	C709.831116,376.590332 716.718628,374.220032 723.606140,371.849731 
	C723.809875,372.253479 724.013550,372.657196 724.217224,373.060944 
	C721.677002,376.602264 719.136841,380.143616 716.295654,383.829315 
z"/>
<path fill="#DDF6FA" opacity="1.000000" stroke="none" 
	d="
M610.666138,608.190918 
	C610.418884,607.365417 610.095520,606.090149 610.586914,605.530823 
	C614.349915,601.248230 618.395569,597.211243 622.101929,592.882568 
	C624.733887,589.808655 626.962219,586.390320 629.406921,583.153076 
	C629.686584,582.782715 630.199829,582.588806 630.960327,582.272095 
	C624.532959,590.844910 617.750244,599.458801 610.666138,608.190918 
z"/>
<path fill="#5392B9" opacity="1.000000" stroke="none" 
	d="
M392.975769,625.091919 
	C391.254883,626.460754 389.121185,627.791138 386.747650,629.368530 
	C386.170959,629.722839 385.834137,629.830322 384.917236,630.055420 
	C381.909119,631.461182 379.481049,632.749329 377.052979,634.037537 
	C377.053009,634.037537 377.013611,633.994019 376.649902,634.035339 
	C371.273132,635.791382 366.260101,637.506042 361.247070,639.220703 
	C362.795990,638.115356 364.213501,636.715820 365.916443,635.955444 
	C373.503601,632.567505 381.163696,629.341858 388.820679,626.112671 
	C390.006165,625.612732 391.312561,625.399414 392.975769,625.091919 
z"/>
<path fill="#DDF6FA" opacity="1.000000" stroke="none" 
	d="
M377.251099,600.258301 
	C383.008057,601.607178 388.945892,603.253113 394.891296,604.871338 
	C395.904785,605.147278 397.031860,605.128845 397.962158,605.558716 
	C399.346436,606.198242 400.602112,607.116028 401.979980,608.245361 
	C393.843140,605.898804 385.638855,603.222351 377.251099,600.258301 
z"/>
<path fill="#DDF6FA" opacity="1.000000" stroke="none" 
	d="
M694.639282,344.110535 
	C692.182312,347.366425 689.037964,349.768250 684.433960,350.395355 
	C680.637024,350.912567 677.014893,352.634766 673.270386,353.659027 
	C672.007141,354.004639 670.606262,353.847534 668.879028,353.815186 
	C677.084595,350.515106 685.679382,347.320038 694.639282,344.110535 
z"/>
<path fill="#DDF6FA" opacity="1.000000" stroke="none" 
	d="
M359.851746,588.563477 
	C365.848236,591.323181 373.529022,591.925476 376.975586,599.584229 
	C371.331879,596.254028 365.645020,592.565430 359.851746,588.563477 
M370.483704,594.592407 
	C370.483704,594.592407 370.406097,594.469727 370.483704,594.592407 
z"/>
<path fill="#DDF6FA" opacity="1.000000" stroke="none" 
	d="
M361.217377,639.206055 
	C366.260101,637.506042 371.273132,635.791382 376.657654,634.063477 
	C376.492645,635.036804 376.155365,636.669800 375.387695,636.906433 
	C369.805145,638.626831 364.135864,640.065979 358.299591,641.100586 
	C358.105164,640.607056 358.269470,640.159546 358.269470,640.159546 
	C358.669678,640.138550 359.069855,640.117615 360.007568,639.987061 
	C360.753052,639.627625 360.961090,639.377808 361.169098,639.127930 
	C361.169098,639.127930 361.187683,639.191467 361.217377,639.206055 
z"/>
<path fill="#DDF6FA" opacity="1.000000" stroke="none" 
	d="
M593.460205,625.070801 
	C593.176453,624.351257 592.883423,623.172424 593.307495,622.791199 
	C597.328186,619.176392 601.470703,615.697144 605.956299,612.275635 
	C602.150818,616.575439 597.967163,620.778564 593.460205,625.070801 
z"/>
<path fill="#DDF6FA" opacity="1.000000" stroke="none" 
	d="
M496.346863,678.760132 
	C496.477997,677.883484 496.830902,676.374023 497.524872,676.196411 
	C503.627319,674.633667 509.790466,673.308105 516.348267,671.903076 
	C510.082825,674.177490 503.404816,676.461121 496.346863,678.760132 
z"/>
<path fill="#DDF6FA" opacity="1.000000" stroke="none" 
	d="
M317.195770,649.177856 
	C322.699036,647.994629 328.449463,647.117249 334.582764,646.129456 
	C335.434265,646.034485 335.902924,646.049988 336.719360,646.116150 
	C336.013275,647.059143 335.017761,648.632202 333.895691,648.728394 
	C328.429993,649.196838 322.930511,649.270325 317.195770,649.177856 
z"/>
<path fill="#5392B9" opacity="1.000000" stroke="none" 
	d="
M357.825623,640.106934 
	C358.269470,640.159546 358.105164,640.607056 358.042999,640.837524 
	C357.433594,641.197083 356.886322,641.326233 355.719421,641.647827 
	C349.724091,643.196228 344.348450,644.552063 338.972809,645.907959 
	C338.517120,645.913818 338.061462,645.919739 337.266602,645.881897 
	C340.524628,644.311401 344.024933,642.454956 347.749146,641.360352 
	C350.822540,640.457092 354.160858,640.455444 357.825623,640.106934 
z"/>
<path fill="#DDF6FA" opacity="1.000000" stroke="none" 
	d="
M319.029358,667.489624 
	C323.153961,666.809265 327.566742,666.150574 330.005371,671.507812 
	C326.416321,670.512695 322.821716,669.140747 319.029358,667.489624 
z"/>
<path fill="#DDF6FA" opacity="1.000000" stroke="none" 
	d="
M653.475586,545.163330 
	C652.675293,540.054810 655.290344,535.988464 658.896484,532.204346 
	C657.432800,536.472717 655.594543,540.707275 653.475586,545.163330 
z"/>
<path fill="#DDF6FA" opacity="1.000000" stroke="none" 
	d="
M346.137299,378.423218 
	C341.471436,377.416229 337.288971,375.397888 335.900452,369.667267 
	C339.254608,372.242188 342.640625,375.179138 346.137299,378.423218 
z"/>
<path fill="#DDF6FA" opacity="1.000000" stroke="none" 
	d="
M406.153320,416.534424 
	C401.832581,416.946381 397.763397,415.957947 394.987976,411.557129 
	C398.623932,412.884705 402.271240,414.577179 406.153320,416.534424 
z"/>
<path fill="#DDF6FA" opacity="1.000000" stroke="none" 
	d="
M333.102600,366.509888 
	C330.288513,366.135590 326.172729,366.884094 327.099182,361.249725 
	C329.104584,362.614563 331.055176,364.403961 333.102600,366.509888 
z"/>
<path fill="#DDF6FA" opacity="1.000000" stroke="none" 
	d="
M354.029846,583.403442 
	C356.331177,583.995361 359.955963,583.227539 359.821472,587.865967 
	C357.870056,586.745239 355.997864,585.230408 354.029846,583.403442 
z"/>
<path fill="#DDF6FA" opacity="1.000000" stroke="none" 
	d="
M711.611572,389.190277 
	C710.629700,386.050415 712.136475,384.435974 715.601318,383.997101 
	C714.626526,385.697968 713.275452,387.398529 711.611572,389.190277 
z"/>
<path fill="#DDF6FA" opacity="1.000000" stroke="none" 
	d="
M404.414673,608.930786 
	C407.505920,608.981750 410.979156,609.182373 414.702637,609.656494 
	C411.567505,609.646729 408.182098,609.363525 404.414673,608.930786 
z"/>
<path fill="#DDF6FA" opacity="1.000000" stroke="none" 
	d="
M587.631958,630.202209 
	C586.021362,625.556274 590.203247,626.427185 592.799255,625.196045 
	C591.429321,626.768738 589.689758,628.440979 587.631958,630.202209 
z"/>
<path fill="#DDF6FA" opacity="1.000000" stroke="none" 
	d="
M311.988159,664.395264 
	C314.118286,664.905273 316.472198,665.686646 318.818420,666.851685 
	C316.611145,666.379028 314.411530,665.522766 311.988159,664.395264 
z"/>
<path fill="#DDF6FA" opacity="1.000000" stroke="none" 
	d="
M351.005493,382.397125 
	C347.949005,385.272369 347.359467,383.205200 347.252258,380.074005 
	C348.535522,380.492523 349.709595,381.303436 351.005493,382.397125 
z"/>
<path fill="#DDF6FA" opacity="1.000000" stroke="none" 
	d="
M335.588074,368.854492 
	C334.815857,368.591248 333.966248,368.038239 333.146088,367.141937 
	C333.953918,367.387329 334.732300,367.976074 335.588074,368.854492 
z"/>
<path fill="#DDF6FA" opacity="1.000000" stroke="none" 
	d="
M606.572510,612.294312 
	C606.610718,611.904663 606.928223,611.458435 607.546021,610.970642 
	C607.514709,611.365234 607.183228,611.801453 606.572510,612.294312 
z"/>
<path fill="#DDF6FA" opacity="1.000000" stroke="none" 
	d="
M699.692627,341.908569 
	C699.515808,342.256683 699.033020,342.607849 698.232605,342.935791 
	C698.405518,342.578979 698.896118,342.245300 699.692627,341.908569 
z"/>
<path fill="#DDF6FA" opacity="1.000000" stroke="none" 
	d="
M307.933777,662.385925 
	C308.176392,662.101013 308.482513,662.201111 308.865723,662.673340 
	C308.679932,662.794250 308.364777,662.702759 307.933777,662.385925 
z"/>
<path fill="#DDF6FA" opacity="1.000000" stroke="none" 
	d="
M309.867432,663.343140 
	C310.037842,663.220886 310.362823,663.305237 310.837646,663.598328 
	C310.665649,663.721313 310.343811,663.635559 309.867432,663.343140 
z"/>
<path fill="#DDF6FA" opacity="1.000000" stroke="none" 
	d="
M353.015076,582.292175 
	C353.228455,582.220093 353.501617,582.403259 353.848541,582.828186 
	C353.639801,582.895813 353.357330,582.721619 353.015076,582.292175 
z"/>
<path fill="#5392B9" opacity="1.000000" stroke="none" 
	d="
M360.927063,639.164917 
	C360.961090,639.377808 360.753052,639.627625 360.292236,639.889282 
	C360.151337,639.572693 360.366516,639.339600 360.927063,639.164917 
z"/>
<path fill="#DDF6FA" opacity="1.000000" stroke="none" 
	d="
M586.415039,631.145813 
	C586.338989,630.899170 586.521912,630.594849 586.985718,630.270691 
	C587.069092,630.529968 586.871521,630.809082 586.415039,631.145813 
z"/>
<path fill="#DDF6FA" opacity="1.000000" stroke="none" 
	d="
M608.190430,610.823792 
	C608.036377,610.566956 608.195312,610.342773 608.621338,610.085693 
	C608.869385,610.355164 608.741028,610.623047 608.190430,610.823792 
z"/>
<path fill="#DDF6FA" opacity="1.000000" stroke="none" 
	d="
M415.280151,610.210327 
	C415.489563,610.028137 415.692871,610.180359 415.757812,610.583435 
	C415.725281,610.702026 415.379913,610.412415 415.280151,610.210327 
z"/>
<path fill="#DDF6FA" opacity="1.000000" stroke="none" 
	d="
M609.416931,609.260437 
	C609.334229,609.023621 609.509949,608.682251 609.987061,608.305176 
	C610.084045,608.565002 609.879700,608.860474 609.416931,609.260437 
z"/>
<path fill="#DDF6FA" opacity="1.000000" stroke="none" 
	d="
M652.501892,547.113892 
	C652.354126,546.921753 652.427246,546.597961 652.720947,546.138000 
	C652.868652,546.328674 652.795776,546.655396 652.501892,547.113892 
z"/>
<path fill="#DDF6FA" opacity="1.000000" stroke="none" 
	d="
M672.078003,495.758850 
	C671.952637,495.811432 671.993896,495.455780 672.031372,495.377136 
	C672.068848,495.298492 672.288086,495.452179 672.288086,495.452179 
	C672.288086,495.452179 672.203430,495.706299 672.078003,495.758850 
z"/>
<path fill="#DDF6FA" opacity="1.000000" stroke="none" 
	d="
M394.154907,410.616791 
	C393.967743,410.748962 393.636719,410.655243 393.154846,410.344849 
	C393.339661,410.215729 393.675323,410.303314 394.154907,410.616791 
z"/>
<path fill="#DDF6FA" opacity="1.000000" stroke="none" 
	d="
M701.701538,379.176880 
	C701.679504,379.404785 701.378784,379.610809 700.793396,379.786072 
	C700.813477,379.555206 701.118164,379.355103 701.701538,379.176880 
z"/>
<path fill="#DDF6FA" opacity="1.000000" stroke="none" 
	d="
M347.196503,379.460571 
	C346.958771,379.571930 346.631012,379.441315 346.259155,379.031036 
	C346.512177,378.907135 346.809326,379.062897 347.196503,379.460571 
z"/>
<path fill="#DDF6FA" opacity="1.000000" stroke="none" 
	d="
M697.645081,342.921265 
	C697.659973,343.175781 697.375427,343.453491 696.779297,343.728821 
	C696.760376,343.465729 697.053040,343.205078 697.645081,342.921265 
z"/>
<path fill="#DDF6FA" opacity="1.000000" stroke="none" 
	d="
M701.688477,340.966614 
	C701.983032,341.111389 701.991272,341.289795 701.999756,341.734100 
	C702.000000,342.000000 702.003723,341.995056 702.003723,341.995056 
	C701.756165,341.967102 701.508606,341.939148 700.896851,341.820160 
	C700.822449,341.486115 701.112305,341.243164 701.688477,340.966614 
z"/>
<path fill="#DDF6FA" opacity="1.000000" stroke="none" 
	d="
M339.210693,646.200806 
	C344.348450,644.552063 349.724091,643.196228 355.504547,641.832153 
	C353.664856,643.141296 351.563263,645.007141 349.140015,645.638428 
	C346.045319,646.444702 342.691040,646.254456 339.210693,646.200806 
z"/>
<path fill="#DDF6FA" opacity="1.000000" stroke="none" 
	d="
M377.476685,634.043030 
	C379.481049,632.749329 381.909119,631.461182 384.694336,630.201721 
	C384.863922,635.616333 380.672791,633.503845 377.476685,634.043030 
z"/>
<path fill="#DDF6FA" opacity="1.000000" stroke="none" 
	d="
M701.997559,342.001953 
	C702.116455,342.141815 702.237793,342.279694 702.359131,342.417572 
	C702.276001,342.367950 702.192871,342.318329 702.056763,342.131897 
	C702.003723,341.995056 702.000000,342.000000 701.997559,342.001953 
z"/>
<path fill="#3793CF" opacity="1.000000" stroke="none" 
	d="
M677.243835,383.843109 
	C677.057678,383.594269 677.148132,383.341553 677.238586,383.088867 
	C677.332581,383.338989 677.426514,383.589111 677.243835,383.843109 
z"/>
<path fill="#FDFFFE" opacity="1.000000" stroke="none" 
	d="
M716.998779,377.999390 
	C717.483704,377.290466 717.969849,376.582123 718.455994,375.873779 
	C718.752380,376.119873 719.048828,376.365967 719.345215,376.612061 
	C718.773865,377.060059 718.202515,377.508057 717.316772,377.978638 
	C717.002441,378.001221 717.000000,378.000000 716.998779,377.999390 
z"/>
<path fill="#FDFFFE" opacity="1.000000" stroke="none" 
	d="
M370.444885,594.531067 
	C370.406097,594.469727 370.483704,594.592407 370.444885,594.531067 
z"/>
</svg>