<svg version="1.1" id="Layer_1" xmlns="http://www.w3.org/2000/svg" xmlns:xlink="http://www.w3.org/1999/xlink" x="0px" y="0px"
	 width="100%" viewBox="0 0 980 980" enable-background="new 0 0 980 980" xml:space="preserve">
<path fill="#FFFFFF" opacity="1.000000" stroke="none" 
	d="
M570.000000,981.000000 
	C380.000000,981.000000 190.500000,981.000000 1.000000,981.000000 
	C1.000000,654.333313 1.000000,327.666656 1.000000,1.000000 
	C327.666656,1.000000 654.333313,1.000000 981.000000,1.000000 
	C981.000000,327.666656 981.000000,654.333313 981.000000,981.000000 
	C844.166687,981.000000 707.333313,981.000000 570.000000,981.000000 
M424.500000,128.038208 
	C354.338928,128.036179 284.177856,127.996658 214.016830,128.045349 
	C167.486679,128.077637 133.665314,161.939331 133.657867,208.530670 
	C133.627701,397.014679 133.637512,585.498718 133.682648,773.982727 
	C133.683762,778.629578 133.832932,783.354065 134.647690,787.910950 
	C141.747330,827.618652 173.261444,853.883667 213.595612,853.884521 
	C398.413300,853.888184 583.230957,853.883850 768.048645,853.890381 
	C814.372437,853.892029 848.506104,819.897766 848.518555,773.409119 
	C848.568970,585.258423 848.562073,397.107697 848.446106,208.957047 
	C848.441833,202.015274 847.836304,194.894623 846.230042,188.162994 
	C837.644348,152.181107 806.710876,128.068283 769.470825,128.054932 
	C654.813904,128.013809 540.156921,128.038864 424.500000,128.038208 
z"/>
<path fill="#010101" opacity="1.000000" stroke="none" 
	d="
M425.000000,128.038208 
	C540.156921,128.038864 654.813904,128.013809 769.470825,128.054932 
	C806.710876,128.068283 837.644348,152.181107 846.230042,188.162994 
	C847.836304,194.894623 848.441833,202.015274 848.446106,208.957047 
	C848.562073,397.107697 848.568970,585.258423 848.518555,773.409119 
	C848.506104,819.897766 814.372437,853.892029 768.048645,853.890381 
	C583.230957,853.883850 398.413300,853.888184 213.595612,853.884521 
	C173.261444,853.883667 141.747330,827.618652 134.647690,787.910950 
	C133.832932,783.354065 133.683762,778.629578 133.682648,773.982727 
	C133.637512,585.498718 133.627701,397.014679 133.657867,208.530670 
	C133.665314,161.939331 167.486679,128.077637 214.016830,128.045349 
	C284.177856,127.996658 354.338928,128.036179 425.000000,128.038208 
M554.990479,790.000366 
	C554.990479,790.000366 554.903137,790.082275 555.157166,790.601013 
	C555.776672,791.023682 556.396240,791.446350 557.288574,792.383606 
	C557.799011,792.622925 558.309509,792.862244 559.151489,793.652771 
	C559.717896,793.938538 560.284302,794.224304 561.048096,794.882385 
	C561.270386,795.095459 561.531738,795.168274 562.275452,795.642883 
	C568.511353,798.951721 574.849792,801.895142 583.085632,801.450073 
	C590.056763,801.357117 597.027893,801.264160 604.576660,801.627197 
	C611.799805,801.282410 618.705200,799.951355 624.987427,795.190247 
	C625.369629,794.924805 625.751831,794.659424 626.811096,794.274841 
	C627.682678,793.586060 628.554199,792.897278 630.069946,792.030823 
	C632.110168,790.090942 634.150391,788.151062 636.251526,786.399353 
	C636.251526,786.399353 636.198669,786.200439 636.753662,785.795105 
	C637.223206,785.023804 637.692749,784.252441 638.697815,783.177551 
	C638.871582,782.816223 639.045410,782.454834 639.691101,781.746704 
	C639.776062,781.570923 639.861023,781.395142 640.464783,781.101501 
	C640.713135,780.437195 640.961487,779.772949 641.080688,779.058105 
	C641.080688,779.058105 641.170410,779.163940 641.715759,778.849060 
	C642.119507,777.907776 642.523254,776.966431 643.160095,775.723999 
	C643.160095,775.723999 643.166931,775.343262 643.717163,774.930298 
	C643.909912,774.282898 644.102600,773.635498 644.382751,772.834412 
	C644.382751,772.834412 644.331421,772.665222 644.771912,772.392822 
	C644.880615,771.925842 644.989258,771.458923 645.558411,770.398254 
	C645.660767,769.911499 645.763184,769.424744 646.254761,768.614563 
	C646.265747,768.150879 646.276794,767.687256 646.678955,766.527222 
	C646.730774,766.001831 646.782654,765.476501 647.112549,764.352051 
	C647.112854,763.916138 647.113220,763.480286 647.493958,762.443726 
	C647.551392,761.266479 647.608765,760.089172 647.974609,758.085815 
	C647.913574,755.747742 647.852539,753.409668 647.898560,750.228821 
	C647.654175,749.145447 647.409790,748.062073 647.383545,746.287109 
	C645.311768,741.106384 643.239990,735.925598 641.030396,730.076904 
	C636.528381,725.661621 632.026428,721.246277 627.604370,716.463989 
	C627.395264,716.276062 627.186096,716.088196 626.585693,715.322693 
	C626.159851,715.148682 625.733948,714.974670 625.034729,714.364075 
	C624.711121,714.293152 624.387451,714.222168 623.695435,713.897644 
	C623.695435,713.897644 623.249695,713.861816 622.836426,713.337585 
	C622.208984,713.134705 621.581543,712.931824 620.796997,712.659851 
	C620.796997,712.659851 620.652466,712.752441 620.259888,712.195374 
	C619.832886,712.068970 619.405823,711.942566 618.792603,711.628113 
	C618.792603,711.628113 618.532837,711.678894 618.044800,711.116638 
	C613.710754,710.379822 609.376709,709.642944 604.213745,708.790710 
	C595.219299,709.018066 586.224854,709.245422 576.482483,709.153076 
	C575.030640,709.467529 573.543518,709.669678 572.132385,710.113464 
	C555.014099,715.496399 544.094910,726.992798 540.189514,744.384277 
	C536.457397,761.003418 540.359253,775.903748 553.004272,788.678772 
	C553.643066,789.151733 554.281921,789.624634 554.990479,790.000366 
M606.980103,257.019379 
	C606.980103,257.019379 606.948975,257.013916 606.987793,256.307648 
	C606.328918,255.548950 605.670105,254.790268 604.770508,253.756058 
	C604.770508,253.756058 604.787354,253.390564 604.910767,252.588013 
	C603.628540,250.734756 602.346375,248.881500 600.967590,246.999893 
	C600.967590,246.999893 600.987305,246.901215 601.011169,246.079544 
	C600.495850,243.532013 602.370239,239.699890 597.502563,239.431824 
	C597.502563,239.431824 597.513611,239.354645 597.772278,238.525955 
	C597.072510,234.320023 597.332092,229.620239 595.473938,226.010605 
	C591.560852,218.409119 590.520081,210.738297 591.578247,202.451355 
	C591.713257,201.394028 590.019714,200.103241 589.053528,198.919952 
	C589.053528,198.919952 589.082642,198.803741 588.830627,198.050507 
	C587.812683,197.702652 586.819275,197.221695 585.772705,197.029373 
	C580.528137,196.065552 574.151917,199.694260 570.234436,193.141006 
	C570.013855,192.771942 568.680359,193.068161 567.513550,192.445602 
	C567.477905,191.274002 567.442261,190.102386 567.808044,188.359833 
	C567.653198,185.896896 567.498291,183.433945 566.997986,180.462433 
	C566.656799,180.240479 566.315552,180.018524 565.533386,179.305161 
	C564.004700,178.730377 562.475281,177.654709 560.947388,177.656815 
	C541.533081,177.683578 522.119080,177.869904 502.704895,178.003311 
	C498.802185,178.030136 494.899170,178.005692 490.891113,177.726700 
	C490.806427,177.676590 490.721710,177.626480 490.637024,177.576385 
	C490.759674,177.716309 490.882294,177.856247 491.005890,178.694351 
	C491.016876,179.159592 491.027863,179.624832 490.874847,180.585205 
	C490.787354,180.735458 490.699829,180.885696 490.068024,181.414856 
	C488.178497,183.010605 485.722534,184.400467 487.673767,187.536072 
	C488.752777,186.595016 489.685181,185.781830 490.774780,185.810150 
	C490.715942,187.230331 490.657104,188.650528 490.162720,190.753922 
	C490.093262,192.745316 489.963257,194.736710 489.963043,196.728104 
	C489.953552,288.975220 489.969055,381.222351 489.893158,473.469421 
	C489.890778,476.371429 488.762299,479.256195 488.518616,482.179016 
	C488.295624,484.853333 486.216034,488.018829 490.079712,490.680511 
	C489.994324,491.126160 489.908936,491.571808 489.338074,492.533203 
	C489.319824,493.229950 489.301575,493.926727 489.458252,495.227692 
	C489.284515,495.819214 489.110779,496.410767 488.410736,497.491364 
	C488.360748,498.193909 488.310730,498.896454 488.316803,500.225464 
	C488.127014,500.820404 487.937225,501.415375 487.368347,502.301880 
	C487.150452,502.573608 487.089905,502.876831 487.108185,503.060455 
	C487.108185,503.060455 487.236664,503.172180 486.499176,503.149994 
	C483.653107,505.136322 481.683228,507.397522 483.926544,511.711456 
	C482.413300,514.288635 481.041138,516.961792 479.364594,519.427979 
	C465.804535,539.374268 435.643158,551.067383 413.491547,544.373047 
	C412.842926,544.317322 412.194336,544.261597 410.989227,544.228455 
	C410.647705,544.089111 410.306183,543.949768 409.595398,543.401611 
	C409.241638,543.334595 408.887878,543.267578 408.225006,543.299927 
	C408.225006,543.299927 407.978546,543.088501 407.972473,542.338257 
	C407.293976,537.907715 404.599396,541.457397 402.394043,541.026367 
	C402.250183,540.936096 402.106323,540.845764 401.552429,540.372314 
	C401.191345,540.352234 400.830231,540.332153 399.844086,540.326172 
	C398.891205,539.568237 397.938354,538.810242 397.009430,537.281372 
	C395.664398,535.194397 394.319397,533.107361 393.000000,531.000000 
	C393.000000,531.000000 392.977325,531.023499 392.974457,530.402405 
	C392.606354,529.953979 392.238251,529.505493 391.967010,529.021484 
	C391.967010,529.021484 391.905701,529.104492 391.987823,528.250549 
	C390.372467,519.139648 388.757111,510.028778 387.037750,500.331482 
	C387.036743,500.332275 387.781006,499.768433 388.525299,499.204620 
	C388.058411,499.122101 387.591492,499.039581 387.124573,498.957062 
	C387.582825,495.691711 388.428253,492.425507 388.420898,489.161224 
	C388.404205,481.737335 392.019989,475.832306 395.614563,469.808533 
	C397.904968,465.970337 399.884369,461.946533 402.000000,458.000000 
	C402.000000,458.000000 402.006256,458.003510 402.748016,458.020813 
	C407.780334,454.255188 412.830170,450.512329 417.805573,446.672913 
	C418.138641,446.415924 417.907471,445.427734 418.122192,444.603851 
	C418.122192,444.603851 418.371399,444.653717 419.146637,444.884033 
	C420.376465,444.950073 422.425201,445.491791 422.706818,445.006989 
	C424.997528,441.063629 428.701172,442.200867 432.072815,441.959564 
	C433.658386,441.846100 435.502014,441.815552 436.742737,441.004242 
	C442.749725,437.076263 452.888702,436.777863 458.687256,440.628937 
	C462.449738,443.127808 466.023346,442.511353 467.989685,438.988800 
	C467.989685,438.988800 468.025360,438.987366 468.755981,438.896545 
	C472.271179,436.709198 470.082489,433.688477 470.086060,430.872589 
	C470.113373,409.269562 470.266907,387.666199 470.508270,366.064362 
	C470.551453,362.200287 469.217621,360.040619 465.193054,360.010437 
	C462.199280,359.988007 459.205200,360.005249 456.211273,359.998749 
	C447.019958,359.978851 447.143951,359.975128 446.951996,350.752869 
	C446.899567,348.233429 445.857788,345.734619 444.919434,343.555359 
	C444.582397,343.640167 444.280487,343.571320 444.193634,342.689667 
	C443.922180,341.817230 443.650726,340.944763 443.379303,340.072296 
	C442.600769,341.022552 441.822266,341.972778 440.342926,343.037567 
	C439.877411,342.972931 439.411865,342.908325 438.458710,342.361237 
	C436.685730,342.409302 434.912781,342.457367 432.201141,342.623688 
	C428.404419,342.548950 424.607666,342.474213 420.160461,342.089020 
	C417.781830,342.370728 415.403168,342.652435 412.368256,343.188477 
	C411.211060,343.305542 410.053833,343.422638 408.450500,343.204651 
	C407.636261,343.439209 406.822052,343.673798 405.381042,344.127960 
	C404.721954,344.145203 404.062866,344.162445 402.758850,344.070068 
	C402.188232,344.304779 401.617615,344.539520 400.427856,345.041595 
	C399.759827,345.100403 399.091827,345.159210 397.769653,345.098297 
	C397.198425,345.348389 396.627167,345.598511 395.583405,346.087555 
	C395.407166,346.078278 395.230896,346.069000 394.502960,346.006409 
	C394.025665,346.233826 393.548401,346.461243 392.473297,346.989288 
	C391.811676,347.066772 391.150055,347.144257 389.941132,347.176666 
	C389.641998,347.367859 389.342865,347.559021 388.498749,348.011230 
	C388.101562,348.058441 387.704376,348.105652 386.816437,348.151947 
	C386.476196,348.231750 386.224609,348.426208 385.498901,349.007477 
	C385.087769,349.052734 384.676666,349.097961 383.547424,349.000275 
	C381.401764,348.241699 379.283234,347.544281 378.817657,351.251587 
	C378.817657,351.251587 378.509399,351.222961 377.919861,351.209290 
	C377.607605,351.431427 377.295319,351.653534 376.586639,352.291626 
	C376.046204,352.445068 375.505768,352.598480 374.725555,352.494629 
	C374.492340,352.676117 374.259155,352.857605 373.525818,353.528198 
	C321.960419,374.598694 287.192810,425.699585 287.346741,481.782532 
	C287.462494,523.962646 303.373657,559.519592 335.159485,587.621948 
	C337.843628,589.995056 340.951538,591.888733 344.261078,594.554565 
	C347.313507,596.945374 350.365936,599.336243 353.402435,602.395081 
	C358.590851,606.631836 363.779236,610.868591 369.105530,615.278687 
	C369.105530,615.278687 369.326355,615.261353 369.682953,615.872803 
	C373.444733,618.170837 377.206512,620.468872 381.329834,623.139160 
	C381.661926,623.184937 381.993988,623.230713 382.676086,623.833801 
	C383.448700,624.164307 384.221313,624.494873 385.337463,625.098267 
	C385.337463,625.098267 385.775421,625.123535 386.186218,625.684021 
	C391.127014,627.736389 396.067841,629.788757 401.095856,632.054077 
	C401.095856,632.054077 401.323822,632.022949 401.320892,632.294556 
	C401.320892,632.294556 401.520966,632.472534 401.520966,632.472534 
	C401.520966,632.472534 401.788727,632.466248 402.478638,632.944153 
	C412.484070,635.163147 422.430817,637.706970 432.508087,639.528503 
	C449.651001,642.627197 466.678558,640.559265 483.349487,636.450378 
	C506.662933,630.704346 527.258728,619.313171 544.542114,602.742126 
	C552.545227,595.068848 558.850952,585.625366 566.143677,576.676208 
	C566.143677,576.676208 566.116638,576.300049 566.748596,575.988831 
	C567.716003,574.642578 568.778992,573.354309 569.636536,571.941345 
	C583.694702,548.779114 589.283813,523.409058 589.273132,496.571777 
	C589.254578,449.916412 589.264282,403.261078 589.262146,356.605713 
	C589.262024,353.668640 589.262146,350.731537 589.262146,346.414307 
	C621.354248,369.217651 656.464294,378.917877 694.596558,379.951447 
	C694.596558,354.701813 694.596558,329.984131 694.596558,305.068573 
	C689.788574,304.796448 685.332947,304.544281 680.167786,303.966614 
	C677.809814,303.644287 675.451843,303.321960 673.005981,302.838074 
	C673.005981,302.838074 672.863464,302.721954 672.995972,302.052948 
	C672.887451,301.369324 672.778992,300.685699 672.872131,299.100037 
	C672.814087,295.400513 672.756104,291.700989 672.841736,287.312164 
	C671.889404,287.019958 670.937134,286.727753 669.162170,286.245850 
	C667.757568,286.250519 666.353027,286.255188 664.132385,286.038361 
	C655.093201,284.026764 646.053955,282.015137 636.544312,279.598969 
	C635.557373,279.327423 634.570496,279.055878 633.076965,278.230713 
	C628.411987,276.116028 623.747070,274.001373 618.674072,271.432343 
	C617.770142,270.652008 616.866150,269.871674 615.992798,268.325684 
	C614.365784,264.062195 614.113403,258.689911 607.830566,258.176300 
	C607.830566,258.176300 607.843323,258.162720 607.758362,257.658173 
	C607.496704,257.455536 607.235107,257.252869 606.980103,257.019379 
M419.423523,450.975891 
	C418.949005,453.012238 418.126923,455.037659 418.062225,457.086914 
	C417.826752,464.549011 416.678772,465.916962 409.432343,465.973114 
	C405.197174,466.005920 401.797638,466.635834 401.729828,472.061523 
	C401.713684,473.351471 400.165466,474.557953 399.640350,475.925110 
	C399.174225,477.138733 398.896118,478.539246 398.983398,479.826843 
	C399.165009,482.505035 400.135834,485.209259 399.891144,487.819244 
	C399.463715,492.378693 397.625610,496.916382 401.682312,500.910095 
	C402.189423,501.409363 401.655182,503.113892 401.402771,504.213928 
	C399.273102,513.496216 400.847351,522.590088 403.286682,531.491516 
	C403.749298,533.179749 406.889435,534.134155 408.794159,535.427185 
	C409.100403,535.050354 409.406677,534.673584 409.712921,534.296814 
	C409.212860,533.005798 408.712769,531.714783 407.767456,529.274292 
	C410.992554,528.898315 413.831848,527.893738 416.164093,528.589233 
	C417.273987,528.920288 417.775787,532.466431 417.907562,534.596069 
	C418.063293,537.112549 418.175446,539.755432 421.177155,539.745972 
	C424.820648,539.734497 428.472321,538.872253 432.076294,538.156067 
	C432.298859,538.111877 431.995026,536.101685 432.189362,535.053101 
	C432.414032,533.840759 432.588593,531.989075 433.361145,531.619446 
	C436.414948,530.158325 439.634705,528.433655 442.903381,528.168396 
	C448.498444,527.714600 454.199524,528.022949 459.811127,528.519470 
	C463.270966,528.825623 464.879944,528.278809 464.342896,524.426025 
	C463.978302,521.810669 464.155975,519.124084 463.987610,516.475952 
	C463.787323,513.325867 465.086609,512.049438 468.334808,511.941010 
	C476.607330,511.664886 481.344360,505.409149 479.845551,497.099213 
	C479.611572,495.801819 479.043884,494.510376 479.077057,493.227722 
	C479.320923,483.797485 480.031830,474.364685 479.884491,464.943787 
	C479.773224,457.830750 478.610168,450.734161 477.915253,443.630249 
	C477.417603,443.387146 476.919952,443.144012 476.422302,442.900909 
	C475.513306,444.150787 474.722198,445.513428 473.663666,446.620239 
	C472.502045,447.834808 471.140350,449.649658 469.783569,449.725159 
	C466.730347,449.895081 463.604736,449.274872 460.550446,448.737976 
	C458.470886,448.372437 456.382843,446.917999 454.436829,447.143524 
	C448.579865,447.822266 442.800140,449.144714 436.967834,450.075409 
	C435.611725,450.291870 433.843414,450.446686 432.818085,449.779541 
	C428.292603,446.834808 424.141022,448.767181 419.423523,450.975891 
M390.191589,689.525574 
	C389.618927,688.583679 389.063446,686.834167 388.471069,686.821594 
	C380.069061,686.643005 371.661987,686.699951 363.242218,686.699951 
	C363.242218,725.210388 363.242218,762.958618 363.242218,800.932373 
	C372.346588,800.932373 381.234802,800.932373 390.428467,800.932373 
	C390.428467,794.017029 391.019928,787.317810 390.275574,780.770569 
	C389.387878,772.962585 392.371063,767.876343 399.174347,764.176392 
	C407.116913,775.413086 415.041168,786.702026 423.086823,797.903748 
	C424.048340,799.242493 425.642456,801.003174 426.991302,801.045715 
	C435.902405,801.326538 444.826630,801.190796 454.685608,801.190796 
	C441.622162,782.489380 429.097443,764.559204 415.788910,745.506958 
	C426.817200,734.785461 437.800690,724.107544 449.265900,712.961243 
	C439.024506,712.961243 429.556610,712.859985 420.095123,713.061890 
	C418.539062,713.095032 416.691406,714.128906 415.522552,715.261658 
	C407.991913,722.559570 400.620270,730.021240 393.171387,737.403992 
	C392.457428,738.111633 391.571960,738.646301 390.190857,739.700317 
	C390.190857,722.756165 390.190857,706.641479 390.191589,689.525574 
M657.919617,708.500061 
	C657.919617,739.258545 657.919617,770.017090 657.919617,800.990662 
	C667.113708,800.990662 675.976501,800.990662 685.144409,800.990662 
	C685.144409,794.206909 685.761047,787.666870 684.988464,781.295227 
	C684.019653,773.305176 687.100037,768.065125 693.963013,764.204468 
	C701.875305,775.393188 709.814758,786.669983 717.833069,797.890442 
	C718.744995,799.166565 720.072449,801.051880 721.252808,801.086121 
	C730.419861,801.352112 739.598145,801.232971 749.495361,801.232971 
	C736.350891,782.427490 723.816833,764.495300 710.446289,745.366394 
	C721.515442,734.599365 732.485962,723.928284 743.757202,712.964722 
	C734.940186,712.964722 726.614563,713.170532 718.306519,712.877625 
	C714.165649,712.731689 711.203491,713.870361 708.327881,716.963867 
	C701.138794,724.697632 693.558167,732.067322 685.091248,740.639465 
	C685.091248,721.741333 685.091248,704.397522 685.091248,686.907471 
	C675.807617,686.907471 667.069458,686.907471 657.919617,686.907471 
	C657.919617,693.927246 657.919617,700.713684 657.919617,708.500061 
M489.345428,733.499878 
	C489.345428,755.953979 489.345428,778.408081 489.345428,801.153198 
	C498.798157,801.153198 507.854340,801.153198 517.291931,801.153198 
	C517.291931,770.916626 517.291931,740.984375 517.291931,710.482239 
	C523.942383,710.482239 530.227539,710.559265 536.507874,710.418579 
	C537.796814,710.389709 539.904602,709.860107 540.215332,709.029907 
	C542.913086,701.822449 545.286804,694.493713 547.834778,686.971191 
	C518.656738,686.971191 490.246002,686.971191 461.612549,686.971191 
	C461.612549,694.817810 461.612549,702.395142 461.612549,710.540771 
	C470.888885,710.540771 479.942078,710.540771 489.345428,710.540771 
	C489.345428,718.235962 489.345428,725.367920 489.345428,733.499878 
M288.370728,797.515869 
	C288.370728,768.607178 288.370728,739.698486 288.370728,710.474060 
	C295.261505,710.474060 301.404846,710.550476 307.543427,710.412598 
	C308.845490,710.383362 310.985809,709.889160 311.288727,709.071472 
	C313.964935,701.847839 316.313385,694.502747 318.808624,687.044556 
	C289.675812,687.044556 261.271027,687.044556 232.878876,687.044556 
	C232.878876,694.959534 232.878876,702.532715 232.878876,710.687927 
	C242.254120,710.687927 251.308319,710.687927 260.757904,710.687927 
	C260.757904,741.188538 260.757904,771.101440 260.757904,801.407837 
	C269.474731,801.407837 277.772247,801.485718 286.062866,801.282166 
	C286.853760,801.262695 287.601532,799.485779 288.370728,797.515869 
M340.472290,723.095459 
	C335.061920,723.095459 329.651520,723.095459 324.274841,723.095459 
	C324.274841,749.541748 324.274841,775.172180 324.274841,801.064453 
	C333.348267,801.064453 342.270294,801.064453 351.318695,801.064453 
	C351.318695,774.993164 351.318695,749.138062 351.318695,723.095459 
	C347.774780,723.095459 344.616913,723.095459 340.472290,723.095459 
M325.079712,705.075867 
	C329.932465,713.961304 339.217499,716.503906 346.142212,710.843689 
	C351.301453,706.626526 352.756012,699.386169 349.571136,693.776001 
	C346.134216,687.721924 339.258423,685.205994 332.888672,687.671692 
	C326.180847,690.268372 323.195526,696.469177 325.079712,705.075867 
M437.703461,535.568665 
	C437.989288,535.295776 438.275085,535.022949 438.560913,534.750061 
	C438.447754,534.631775 438.242462,534.404480 438.234772,534.410950 
	C437.933350,534.665649 437.649902,534.941589 437.703461,535.568665 
z"/>
<path fill="#FDFDFE" opacity="1.000000" stroke="none" 
	d="
M396.985474,538.052307 
	C397.938354,538.810242 398.891205,539.568237 400.088715,540.483154 
	C400.333344,540.640076 400.416962,540.985474 400.251984,541.250000 
	C400.785370,542.585266 401.312775,543.832214 402.207489,544.700684 
	C418.170715,560.195435 436.732391,567.742493 459.340027,564.158569 
	C490.275208,559.254456 512.836731,534.026245 512.900635,502.741608 
	C513.103394,403.455505 513.044617,304.168854 513.086914,204.882416 
	C513.087646,203.101776 513.087036,201.321121 513.087036,199.066254 
	C531.780518,199.066254 549.881653,199.066254 568.148071,199.416077 
	C571.958679,218.845322 580.122498,235.812988 593.267578,250.043350 
	C598.807556,256.040741 605.733032,260.758270 612.218750,266.304596 
	C613.593201,267.398193 614.777710,268.244781 615.962219,269.091339 
	C616.866150,269.871674 617.770142,270.652008 618.887817,272.005890 
	C622.008118,275.145660 624.914551,277.711884 628.001831,280.542908 
	C629.722595,281.894531 631.262573,282.981354 632.928833,284.306274 
	C633.369324,284.694855 633.683594,284.845398 634.133057,285.078735 
	C634.268250,285.161560 634.583252,285.124573 634.739868,285.376801 
	C635.241577,285.798706 635.586731,285.968353 635.913208,286.099091 
	C635.894592,286.060150 635.841797,286.128479 635.948975,286.449646 
	C637.653809,287.579498 639.251404,288.388214 640.885498,289.172302 
	C640.921936,289.147675 640.856873,289.088501 640.924561,289.360168 
	C641.301453,289.823822 641.610779,290.015839 642.142090,290.454346 
	C644.578918,291.806610 646.793579,292.912476 649.208008,294.145142 
	C649.407715,294.272003 649.871826,294.363953 650.109253,294.570007 
	C651.513672,295.218445 652.680664,295.660797 654.041809,296.343445 
	C654.819946,296.735809 655.404053,296.887939 656.153931,297.110931 
	C656.319763,297.181824 656.679199,297.150330 656.917908,297.428711 
	C658.776550,298.176270 660.396484,298.645447 662.148560,299.181213 
	C662.280701,299.247833 662.565979,299.169189 662.773193,299.470642 
	C666.274780,300.755371 669.569092,301.738647 672.863464,302.721954 
	C672.863464,302.721954 673.005981,302.838074 672.936768,303.333252 
	C672.859680,322.862671 672.851868,341.896912 672.895386,360.928345 
	C672.946716,360.925598 672.914612,360.828003 672.518127,360.919861 
	C670.783264,361.151489 669.444824,361.291260 667.728210,361.321960 
	C666.564880,361.206024 665.779846,361.199188 664.604248,361.068542 
	C661.788025,360.818390 659.362305,360.691986 656.591187,360.413269 
	C655.495178,360.240143 654.744446,360.219330 653.613953,360.046448 
	C649.131714,359.416779 645.029358,358.939178 640.630127,358.307495 
	C639.890503,358.144684 639.447754,358.135986 638.656494,357.952393 
	C625.588989,354.090546 612.869873,350.403595 600.095093,346.805359 
	C600.039307,346.894073 600.193420,346.752075 599.989990,346.482391 
	C598.520630,345.766693 597.254700,345.320679 595.892395,344.785583 
	C595.796021,344.696472 595.538269,344.746185 595.336914,344.454224 
	C585.986023,338.994537 576.836426,333.826782 567.091431,328.322754 
	C567.091431,331.067139 567.091370,333.199158 567.091431,335.331207 
	C567.093506,383.248474 567.255981,431.166718 566.965942,479.082214 
	C566.905945,488.996155 566.156860,499.128235 563.945984,508.750977 
	C561.136780,520.977722 556.513489,532.787720 552.705688,544.844727 
	C552.739014,544.911987 552.743958,544.761841 552.451660,544.937256 
	C548.973328,550.640869 545.787170,556.169067 542.786987,561.719666 
	C542.972839,561.742065 542.606445,561.663940 542.329102,561.781799 
	C541.667908,562.582031 541.283997,563.264404 540.941528,563.965454 
	C540.982971,563.984070 540.936340,563.906067 540.640686,564.064758 
	C536.782104,568.692932 533.219177,573.162415 529.795410,577.773804 
	C529.934631,577.915649 529.632019,577.657898 529.348755,577.782104 
	C528.284546,578.856323 527.503601,579.806396 526.831116,580.842041 
	C526.939636,580.927612 526.753601,580.723145 526.444397,580.817444 
	C524.773682,582.289490 523.412109,583.667236 522.026489,585.021729 
	C522.002441,584.998413 522.043762,585.049927 521.719727,585.141113 
	C518.572021,587.803955 515.748291,590.375610 512.959717,592.969604 
	C512.994812,592.991882 512.953613,592.919617 512.608215,592.971497 
	C510.889465,593.957458 509.498077,594.866211 508.145355,595.829346 
	C479.885437,615.950012 448.432098,624.698303 413.966217,620.999512 
	C402.167053,619.733276 390.610809,616.203125 378.770294,613.568970 
	C378.291138,613.304382 378.009186,613.344788 377.557678,613.278931 
	C375.941437,612.464783 374.518616,611.923584 372.835999,611.211548 
	C372.170868,610.975098 371.765533,610.909424 371.153076,610.608887 
	C370.361938,610.178284 369.777954,609.982483 368.955444,609.534302 
	C363.617371,606.763672 358.517883,604.245361 353.418365,601.727051 
	C350.365936,599.336243 347.313507,596.945374 344.141937,593.936279 
	C343.376892,592.371277 342.793610,591.373901 342.075989,590.485046 
	C320.624725,563.913818 309.559357,533.672180 309.771576,499.410156 
	C309.877747,482.268402 312.728546,465.502411 319.261993,449.767700 
	C333.753235,414.868103 358.022766,388.963959 392.837891,373.522827 
	C409.697845,366.045135 427.270966,361.385315 445.966064,361.721191 
	C446.066986,381.393951 446.066986,400.636719 446.066986,420.333923 
	C443.837524,419.945526 442.386810,419.702881 440.939941,419.439209 
	C425.083191,416.549530 409.739532,417.461426 395.554443,425.959290 
	C365.064697,444.224762 354.380249,480.049377 370.275818,511.830750 
	C375.700134,522.676086 383.436737,531.744690 395.217468,536.976257 
	C395.959167,537.472107 396.472321,537.762207 396.985474,538.052307 
z"/>
<path fill="#5EC5CB" opacity="1.000000" stroke="none" 
	d="
M567.982788,199.066254 
	C549.881653,199.066254 531.780518,199.066254 513.087036,199.066254 
	C513.087036,201.321121 513.087646,203.101776 513.086914,204.882416 
	C513.044617,304.168854 513.103394,403.455505 512.900635,502.741608 
	C512.836731,534.026245 490.275208,559.254456 459.340027,564.158569 
	C436.732391,567.742493 418.170715,560.195435 402.207489,544.700684 
	C401.312775,543.832214 400.785370,542.585266 400.635925,541.172729 
	C401.444031,540.805725 401.703247,540.780579 401.962463,540.755432 
	C402.106323,540.845764 402.250183,540.936096 402.864868,541.316040 
	C404.883301,542.099915 406.430908,542.594238 407.978546,543.088501 
	C407.978546,543.088501 408.225006,543.299927 408.548706,543.479675 
	C409.236450,543.709778 409.600555,543.760132 409.964630,543.810486 
	C410.306183,543.949768 410.647705,544.089111 411.509827,544.440674 
	C412.669250,544.719910 413.308105,544.786804 413.946930,544.853699 
	C435.643158,551.067383 465.804535,539.374268 479.364594,519.427979 
	C481.041138,516.961792 482.413300,514.288635 484.262146,511.158997 
	C485.477417,508.128448 486.357025,505.650299 487.236664,503.172180 
	C487.236664,503.172180 487.108185,503.060455 487.362335,503.011536 
	C487.826172,502.668060 487.869812,502.350616 487.747437,502.010345 
	C487.937225,501.415375 488.127014,500.820404 488.524475,499.649200 
	C488.800446,498.382721 488.868744,497.692535 488.937012,497.002319 
	C489.110779,496.410767 489.284515,495.819214 489.597839,494.655457 
	C489.766113,493.394653 489.794830,492.706055 489.823547,492.017456 
	C489.908936,491.571808 489.994324,491.126160 490.183472,489.961304 
	C490.481903,484.923676 490.845001,480.605286 490.846466,476.286774 
	C490.878754,382.536194 490.872131,288.785614 490.859131,195.035034 
	C490.858887,193.380249 490.688995,191.725479 490.598267,190.070709 
	C490.657104,188.650528 490.715942,187.230331 490.810120,185.005814 
	C490.767731,183.146301 490.690033,182.091110 490.612335,181.035934 
	C490.699829,180.885696 490.787354,180.735458 491.422852,180.343109 
	C499.589691,180.091980 507.208588,180.104538 514.827332,180.069519 
	C531.876404,179.991104 548.925354,179.889023 565.974365,179.796585 
	C566.315552,180.018524 566.656799,180.240479 567.043579,181.146988 
	C567.195007,184.197952 567.300842,186.564377 567.406616,188.930786 
	C567.442261,190.102386 567.477905,191.274002 567.619507,193.153992 
	C567.973755,195.452560 568.222168,197.042740 568.353027,198.746231 
	C568.235535,198.859528 567.982788,199.066254 567.982788,199.066254 
z"/>
<path fill="#EE305D" opacity="1.000000" stroke="none" 
	d="
M566.116638,576.300049 
	C566.116638,576.300049 566.143677,576.676208 565.655396,576.832397 
	C564.509766,577.052979 563.537903,576.860291 563.242981,577.221008 
	C559.734497,581.512024 556.343262,585.898499 552.887024,590.232666 
	C550.701843,592.972961 549.823975,597.422058 544.606140,596.295593 
	C543.976135,596.159546 542.616089,597.994934 542.064880,599.142578 
	C539.303223,604.892639 535.613953,609.529663 528.965576,610.713623 
	C528.624023,610.107544 528.318848,609.785400 528.013672,609.463257 
	C527.832031,609.672913 527.650391,609.882568 527.468689,610.092224 
	C527.978271,610.395508 528.487915,610.698730 528.960815,611.353149 
	C524.344788,619.630127 518.820068,616.714722 513.059509,612.281128 
	C513.274536,613.746033 513.428711,614.465027 513.872498,614.799561 
	C516.857971,617.049805 519.021179,618.967590 513.815369,621.386597 
	C508.429596,623.889221 503.313446,626.968323 498.015320,629.669617 
	C497.500946,629.931946 496.539825,629.293030 495.778839,629.101074 
	C493.065155,628.416748 490.139496,626.757507 487.677368,627.278625 
	C482.913666,628.286804 478.410522,630.526062 473.397644,632.405640 
	C476.028748,632.878357 478.480774,633.318848 481.877960,633.929138 
	C474.012421,638.560547 436.850647,639.317566 433.547546,635.325684 
	C440.936035,634.257446 448.735840,636.467041 455.437073,631.833069 
	C454.029694,631.229675 452.597687,630.849121 451.264587,631.068787 
	C443.670441,632.320374 436.048157,633.478455 428.534363,635.120850 
	C419.113434,637.180054 409.325043,634.064209 404.636261,627.071472 
	C404.341522,626.631897 403.763580,626.382263 402.892242,625.722107 
	C406.670013,624.701294 409.837616,623.845337 413.391205,622.989746 
	C415.195831,623.311157 416.614471,623.632202 418.033997,624.354980 
	C419.049500,628.694763 422.446320,627.484497 423.726624,626.206604 
	C426.754852,623.183960 429.824554,624.269592 433.209839,624.450684 
	C435.774109,624.588013 438.402039,623.536499 441.249207,623.005859 
	C441.496796,622.997681 441.992218,622.992676 442.204559,622.903076 
	C442.685028,622.643005 442.876129,622.409424 443.390503,622.091309 
	C444.859619,622.068787 445.928406,622.067749 447.116516,622.305725 
	C447.700256,622.779419 448.164703,623.013977 448.629150,623.248596 
	C448.755005,622.836975 448.880829,622.425293 449.418640,621.991882 
	C460.038452,620.879578 470.031250,618.347107 479.213715,614.092773 
	C490.089569,609.053894 500.283569,602.529785 510.679169,596.487732 
	C511.762604,595.858032 512.210754,594.135254 512.953613,592.919617 
	C512.953613,592.919617 512.994812,592.991882 513.332153,592.998901 
	C517.410522,591.353455 521.180725,589.731689 522.043762,585.049927 
	C522.043762,585.049927 522.002441,584.998413 522.394775,585.016357 
	C524.109253,583.597229 525.431458,582.160217 526.753662,580.723145 
	C526.753601,580.723145 526.939636,580.927612 527.209961,580.896545 
	C528.197571,579.796265 528.914795,578.727051 529.632019,577.657898 
	C529.632019,577.657898 529.934631,577.915649 530.161377,577.870728 
	C536.004395,574.777405 539.069519,569.795776 540.936340,563.906067 
	C540.936340,563.906067 540.982971,563.984070 541.299683,563.942749 
	C541.946411,563.155579 542.276428,562.409790 542.606445,561.663940 
	C542.606445,561.663940 542.972839,561.742065 543.152100,561.714600 
	C547.984253,556.888123 552.084167,551.781555 552.743958,544.761841 
	C552.743958,544.761841 552.739014,544.911987 553.068726,544.791138 
	C556.272278,538.666321 559.838440,532.887817 561.880920,526.613342 
	C566.672241,511.894836 568.827881,496.582367 568.900085,481.144196 
	C569.123718,433.364655 568.979187,385.583374 568.997498,337.802795 
	C568.998230,335.983551 569.205078,334.164398 569.338684,331.969757 
	C576.112061,335.961365 582.061096,339.467133 587.928589,343.356079 
	C585.362244,344.443451 582.877258,345.147675 578.474548,346.395447 
	C590.661011,349.085602 587.890625,357.545776 587.913940,364.416443 
	C588.069519,410.341125 588.063232,456.266815 587.902954,502.191437 
	C587.884216,507.563110 586.647888,512.936890 585.851440,518.291077 
	C585.755798,518.933960 584.950256,519.558716 584.344421,520.023254 
	C581.645325,522.092712 581.608154,524.438843 582.832703,527.471619 
	C583.550537,529.249268 583.546875,531.583801 583.116150,533.498779 
	C582.429688,536.551025 581.195923,539.493408 580.050964,542.426514 
	C577.970642,547.755554 577.584839,553.927795 572.391174,557.747375 
	C571.742371,558.224548 571.290161,559.389404 571.277222,560.243530 
	C571.185669,566.293518 569.662170,568.255127 563.802307,568.840454 
	C564.596802,571.401245 565.356689,573.850647 566.116638,576.300049 
M546.280701,593.894226 
	C546.185120,593.927856 546.089600,593.961487 545.719727,594.107605 
	C545.814819,594.073792 545.909973,594.039978 546.280701,593.894226 
M417.461090,631.667725 
	C418.788147,634.533875 418.972473,634.531250 422.792297,631.219666 
	C420.924316,631.219666 419.489227,631.219666 417.461090,631.667725 
M469.816437,630.814148 
	C468.612976,630.191284 467.409546,629.568420 466.206085,628.945557 
	C465.983643,629.481506 465.761200,630.017456 465.538757,630.553467 
	C466.722717,630.688293 467.906677,630.823120 469.816437,630.814148 
M535.455322,596.161743 
	C534.708191,596.153503 533.961060,596.145264 533.213928,596.136963 
	C533.609863,596.930176 534.005737,597.723450 534.401672,598.516663 
	C534.858887,597.931213 535.316101,597.345703 535.455322,596.161743 
M520.475952,609.695190 
	C519.511414,609.592407 518.546814,609.489624 517.582275,609.386841 
	C517.603760,609.849670 517.625305,610.312500 517.646851,610.775330 
	C518.587402,610.634888 519.528015,610.494385 520.475952,609.695190 
M496.390900,626.201965 
	C496.785492,626.206116 497.180115,626.210327 497.574707,626.214478 
	C497.576202,626.050781 497.588654,625.744873 497.577606,625.743958 
	C497.185028,625.713745 496.790253,625.712036 496.390900,626.201965 
M582.296326,515.431458 
	C582.010681,515.704224 581.725098,515.976929 581.439453,516.249695 
	C581.552490,516.367981 581.665466,516.486206 581.778503,516.604492 
	C582.064148,516.331421 582.349731,516.058289 582.296326,515.431458 
z"/>
<path fill="#5FC4CB" opacity="1.000000" stroke="none" 
	d="
M445.865143,361.291199 
	C427.270966,361.385315 409.697845,366.045135 392.837891,373.522827 
	C358.022766,388.963959 333.753235,414.868103 319.261993,449.767700 
	C312.728546,465.502411 309.877747,482.268402 309.771576,499.410156 
	C309.559357,533.672180 320.624725,563.913818 342.075989,590.485046 
	C342.793610,591.373901 343.376892,592.371277 343.942688,593.661621 
	C340.951538,591.888733 337.843628,589.995056 335.159485,587.621948 
	C303.373657,559.519592 287.462494,523.962646 287.346741,481.782532 
	C287.192810,425.699585 321.960419,374.598694 374.033875,353.287903 
	C374.683105,352.949005 374.824219,352.850433 374.965332,352.751892 
	C375.505768,352.598480 376.046204,352.445068 377.084076,352.103973 
	C377.890808,351.685181 378.200104,351.454071 378.509399,351.222961 
	C378.509399,351.222961 378.817657,351.251587 379.273438,351.138733 
	C381.241302,350.398315 382.753418,349.770782 384.265533,349.143250 
	C384.676666,349.097961 385.087769,349.052734 386.031982,348.902466 
	C386.812439,348.582581 387.059814,348.367706 387.307190,348.152832 
	C387.704376,348.105652 388.101562,348.058441 389.046936,347.914307 
	C389.892914,347.618805 390.190674,347.420258 390.488434,347.221741 
	C391.150055,347.144257 391.811676,347.066772 393.047058,346.872925 
	C394.098785,346.524292 394.576721,346.291992 395.054657,346.059692 
	C395.230896,346.069000 395.407166,346.078278 396.137848,346.019104 
	C397.269470,345.706451 397.846619,345.462250 398.423798,345.218018 
	C399.091827,345.159210 399.759827,345.100403 401.052551,344.952576 
	C402.252747,344.635590 402.828247,344.407623 403.403778,344.179688 
	C404.062866,344.162445 404.721954,344.145203 406.062622,344.076477 
	C407.461700,343.863251 408.179169,343.701477 408.896637,343.539703 
	C410.053833,343.422638 411.211060,343.305542 413.129486,343.140015 
	C416.197449,342.860840 418.504211,342.630157 420.810944,342.399475 
	C424.607666,342.474213 428.404419,342.548950 433.067200,342.693176 
	C435.604309,342.789673 437.275330,342.816681 438.946350,342.843719 
	C439.411865,342.908325 439.877411,342.972931 440.904663,343.148193 
	C442.315460,343.288818 443.164581,343.318817 444.013672,343.348785 
	C444.280487,343.571320 444.582397,343.640167 445.336639,343.795166 
	C445.985168,349.694458 446.216522,355.354004 446.300781,361.079987 
	C446.153687,361.146454 445.865143,361.291199 445.865143,361.291199 
z"/>
<path fill="#000000" opacity="1.000000" stroke="none" 
	d="
M419.661255,450.633423 
	C424.141022,448.767181 428.292603,446.834808 432.818085,449.779541 
	C433.843414,450.446686 435.611725,450.291870 436.967834,450.075409 
	C442.800140,449.144714 448.579865,447.822266 454.436829,447.143524 
	C456.382843,446.917999 458.470886,448.372437 460.550446,448.737976 
	C463.604736,449.274872 466.730347,449.895081 469.783569,449.725159 
	C471.140350,449.649658 472.502045,447.834808 473.663666,446.620239 
	C474.722198,445.513428 475.513306,444.150787 476.422302,442.900909 
	C476.919952,443.144012 477.417603,443.387146 477.915253,443.630249 
	C478.610168,450.734161 479.773224,457.830750 479.884491,464.943787 
	C480.031830,474.364685 479.320923,483.797485 479.077057,493.227722 
	C479.043884,494.510376 479.611572,495.801819 479.845551,497.099213 
	C481.344360,505.409149 476.607330,511.664886 468.334808,511.941010 
	C465.086609,512.049438 463.787323,513.325867 463.987610,516.475952 
	C464.155975,519.124084 463.978302,521.810669 464.342896,524.426025 
	C464.879944,528.278809 463.270966,528.825623 459.811127,528.519470 
	C454.199524,528.022949 448.498444,527.714600 442.903381,528.168396 
	C439.634705,528.433655 436.414948,530.158325 433.361145,531.619446 
	C432.588593,531.989075 432.414032,533.840759 432.189362,535.053101 
	C431.995026,536.101685 432.298859,538.111877 432.076294,538.156067 
	C428.472321,538.872253 424.820648,539.734497 421.177155,539.745972 
	C418.175446,539.755432 418.063293,537.112549 417.907562,534.596069 
	C417.775787,532.466431 417.273987,528.920288 416.164093,528.589233 
	C413.831848,527.893738 410.992554,528.898315 407.767456,529.274292 
	C408.712769,531.714783 409.212860,533.005798 409.712921,534.296814 
	C409.406677,534.673584 409.100403,535.050354 408.794159,535.427185 
	C406.889435,534.134155 403.749298,533.179749 403.286682,531.491516 
	C400.847351,522.590088 399.273102,513.496216 401.402771,504.213928 
	C401.655182,503.113892 402.189423,501.409363 401.682312,500.910095 
	C397.625610,496.916382 399.463715,492.378693 399.891144,487.819244 
	C400.135834,485.209259 399.165009,482.505035 398.983398,479.826843 
	C398.896118,478.539246 399.174225,477.138733 399.640350,475.925110 
	C400.165466,474.557953 401.713684,473.351471 401.729828,472.061523 
	C401.797638,466.635834 405.197174,466.005920 409.432343,465.973114 
	C416.678772,465.916962 417.826752,464.549011 418.062225,457.086914 
	C418.126923,455.037659 418.949005,453.012238 419.661255,450.633423 
z"/>
<path fill="#FCFCFC" opacity="1.000000" stroke="none" 
	d="
M390.191223,690.026123 
	C390.190857,706.641479 390.190857,722.756165 390.190857,739.700317 
	C391.571960,738.646301 392.457428,738.111633 393.171387,737.403992 
	C400.620270,730.021240 407.991913,722.559570 415.522552,715.261658 
	C416.691406,714.128906 418.539062,713.095032 420.095123,713.061890 
	C429.556610,712.859985 439.024506,712.961243 449.265900,712.961243 
	C437.800690,724.107544 426.817200,734.785461 415.788910,745.506958 
	C429.097443,764.559204 441.622162,782.489380 454.685608,801.190796 
	C444.826630,801.190796 435.902405,801.326538 426.991302,801.045715 
	C425.642456,801.003174 424.048340,799.242493 423.086823,797.903748 
	C415.041168,786.702026 407.116913,775.413086 399.174347,764.176392 
	C392.371063,767.876343 389.387878,772.962585 390.275574,780.770569 
	C391.019928,787.317810 390.428467,794.017029 390.428467,800.932373 
	C381.234802,800.932373 372.346588,800.932373 363.242218,800.932373 
	C363.242218,762.958618 363.242218,725.210388 363.242218,686.699951 
	C371.661987,686.699951 380.069061,686.643005 388.471069,686.821594 
	C389.063446,686.834167 389.618927,688.583679 390.191223,690.026123 
z"/>
<path fill="#FDFDFD" opacity="1.000000" stroke="none" 
	d="
M657.919617,708.000122 
	C657.919617,700.713684 657.919617,693.927246 657.919617,686.907471 
	C667.069458,686.907471 675.807617,686.907471 685.091248,686.907471 
	C685.091248,704.397522 685.091248,721.741333 685.091248,740.639465 
	C693.558167,732.067322 701.138794,724.697632 708.327881,716.963867 
	C711.203491,713.870361 714.165649,712.731689 718.306519,712.877625 
	C726.614563,713.170532 734.940186,712.964722 743.757202,712.964722 
	C732.485962,723.928284 721.515442,734.599365 710.446289,745.366394 
	C723.816833,764.495300 736.350891,782.427490 749.495361,801.232971 
	C739.598145,801.232971 730.419861,801.352112 721.252808,801.086121 
	C720.072449,801.051880 718.744995,799.166565 717.833069,797.890442 
	C709.814758,786.669983 701.875305,775.393188 693.963013,764.204468 
	C687.100037,768.065125 684.019653,773.305176 684.988464,781.295227 
	C685.761047,787.666870 685.144409,794.206909 685.144409,800.990662 
	C675.976501,800.990662 667.113708,800.990662 657.919617,800.990662 
	C657.919617,770.017090 657.919617,739.258545 657.919617,708.000122 
z"/>
<path fill="#FAFBFB" opacity="1.000000" stroke="none" 
	d="
M603.999023,801.171204 
	C597.027893,801.264160 590.056763,801.357117 582.482178,801.062561 
	C576.266113,798.110901 570.653503,795.546753 564.880676,792.716980 
	C564.057495,791.957703 563.394531,791.464050 562.622070,790.726440 
	C562.031250,790.256531 561.549866,790.030518 560.937134,789.542175 
	C559.945923,788.495300 559.085999,787.710754 558.094055,786.693787 
	C557.649048,786.317261 557.336060,786.173157 556.908752,785.702148 
	C555.139526,782.727844 553.399902,780.129211 551.843506,777.425171 
	C540.903625,758.418823 545.255554,732.974304 563.400391,718.729187 
	C567.751221,715.313538 572.606873,712.541077 577.230408,709.472778 
	C586.224854,709.245422 595.219299,709.018066 604.875488,709.095581 
	C609.346558,710.891418 613.155823,712.382324 617.157715,714.082153 
	C618.035217,714.574097 618.720093,714.857056 619.590820,715.407166 
	C620.156738,715.869385 620.536865,716.064453 621.024170,716.467285 
	C621.364624,716.909607 621.646667,717.026550 622.120605,717.289124 
	C622.787415,717.806519 623.311035,718.060791 623.859497,718.241089 
	C623.884216,718.167053 623.728577,718.177856 623.814575,718.460693 
	C624.237732,718.932861 624.574890,719.122253 625.083496,719.588013 
	C625.427124,719.995911 625.599365,720.127441 625.693115,720.291748 
	C625.614563,720.324524 625.851807,720.415405 626.088867,720.699158 
	C630.393738,727.329834 635.560669,733.239380 638.297119,740.116089 
	C643.744507,753.805481 640.911438,767.226990 633.696594,780.025269 
	C633.114136,780.797058 632.772949,781.431885 632.290405,782.120605 
	C632.149109,782.174500 632.103943,782.473572 631.848755,782.608154 
	C631.285095,783.435913 630.976562,784.129028 630.744324,784.843689 
	C630.820618,784.865295 630.795044,784.708801 630.520935,784.779419 
	C630.066528,785.167908 629.886169,785.485657 629.779846,785.804810 
	C629.853882,785.806213 629.787292,785.673950 629.532593,785.725098 
	C628.981628,786.184692 628.685425,786.593140 628.209839,787.098877 
	C628.030396,787.196167 627.871155,787.572083 627.558228,787.719910 
	C625.946899,789.180603 624.648621,790.493408 623.110840,791.822815 
	C622.547729,792.169373 622.224060,792.499390 621.557861,792.914734 
	C615.476624,795.723816 609.737793,798.447510 603.999023,801.171204 
M613.780823,766.097229 
	C614.185974,765.187866 614.633179,764.294617 614.989746,763.366577 
	C618.604309,753.959290 615.942139,743.379822 608.401550,737.125977 
	C600.775940,730.801392 589.843262,729.982605 581.388184,735.102539 
	C572.905151,740.239624 568.541870,750.222656 570.853882,759.993225 
	C573.141052,769.658936 579.419678,775.786804 589.066956,777.622681 
	C599.423157,779.593567 607.578430,775.503113 613.780823,766.097229 
z"/>
<path fill="#E7345E" opacity="1.000000" stroke="none" 
	d="
M394.988922,536.770447 
	C383.436737,531.744690 375.700134,522.676086 370.275818,511.830750 
	C354.380249,480.049377 365.064697,444.224762 395.554443,425.959290 
	C409.739532,417.461426 425.083191,416.549530 440.939941,419.439209 
	C442.386810,419.702881 443.837524,419.945526 446.066986,420.333923 
	C446.066986,400.636719 446.066986,381.393951 445.966064,361.721191 
	C445.865143,361.291199 446.153687,361.146454 446.730103,361.124756 
	C452.775909,361.354248 458.243225,361.702026 463.715485,361.821106 
	C467.109039,361.894989 468.192047,363.325226 468.170349,366.731079 
	C468.016937,390.815857 468.051056,414.901794 468.025360,438.987366 
	C468.025360,438.987366 467.989685,438.988800 467.594940,438.950623 
	C457.819946,438.312836 448.331512,436.589111 439.094543,437.478180 
	C432.022125,438.158844 425.267426,442.140350 418.371399,444.653717 
	C418.371399,444.653717 418.122192,444.603851 417.681458,444.754028 
	C412.162537,449.270599 407.084381,453.637054 402.006226,458.003479 
	C402.006256,458.003510 402.000000,458.000000 401.679810,458.102844 
	C383.012177,477.791412 380.364380,506.383209 391.905701,529.104492 
	C391.905701,529.104492 391.967010,529.021484 391.931946,529.342346 
	C392.257019,530.116638 392.617188,530.570068 392.977325,531.023499 
	C392.977325,531.023499 393.000000,531.000000 393.011597,531.356689 
	C393.678467,533.399048 394.333679,535.084778 394.988922,536.770447 
z"/>
<path fill="#FBFBFB" opacity="1.000000" stroke="none" 
	d="
M489.345428,732.999878 
	C489.345428,725.367920 489.345428,718.235962 489.345428,710.540771 
	C479.942078,710.540771 470.888885,710.540771 461.612549,710.540771 
	C461.612549,702.395142 461.612549,694.817810 461.612549,686.971191 
	C490.246002,686.971191 518.656738,686.971191 547.834778,686.971191 
	C545.286804,694.493713 542.913086,701.822449 540.215332,709.029907 
	C539.904602,709.860107 537.796814,710.389709 536.507874,710.418579 
	C530.227539,710.559265 523.942383,710.482239 517.291931,710.482239 
	C517.291931,740.984375 517.291931,770.916626 517.291931,801.153198 
	C507.854340,801.153198 498.798157,801.153198 489.345428,801.153198 
	C489.345428,778.408081 489.345428,755.953979 489.345428,732.999878 
z"/>
<path fill="#FEFEFE" opacity="1.000000" stroke="none" 
	d="
M288.369995,798.020264 
	C287.601532,799.485779 286.853760,801.262695 286.062866,801.282166 
	C277.772247,801.485718 269.474731,801.407837 260.757904,801.407837 
	C260.757904,771.101440 260.757904,741.188538 260.757904,710.687927 
	C251.308319,710.687927 242.254120,710.687927 232.878876,710.687927 
	C232.878876,702.532715 232.878876,694.959534 232.878876,687.044556 
	C261.271027,687.044556 289.675812,687.044556 318.808624,687.044556 
	C316.313385,694.502747 313.964935,701.847839 311.288727,709.071472 
	C310.985809,709.889160 308.845490,710.383362 307.543427,710.412598 
	C301.404846,710.550476 295.261505,710.474060 288.370728,710.474060 
	C288.370728,739.698486 288.370728,768.607178 288.369995,798.020264 
z"/>
<path fill="#E4345E" opacity="1.000000" stroke="none" 
	d="
M566.432617,576.144409 
	C565.356689,573.850647 564.596802,571.401245 563.802307,568.840454 
	C569.662170,568.255127 571.185669,566.293518 571.277222,560.243530 
	C571.290161,559.389404 571.742371,558.224548 572.391174,557.747375 
	C577.584839,553.927795 577.970642,547.755554 580.050964,542.426514 
	C581.195923,539.493408 582.429688,536.551025 583.116150,533.498779 
	C583.546875,531.583801 583.550537,529.249268 582.832703,527.471619 
	C581.608154,524.438843 581.645325,522.092712 584.344421,520.023254 
	C584.950256,519.558716 585.755798,518.933960 585.851440,518.291077 
	C586.647888,512.936890 587.884216,507.563110 587.902954,502.191437 
	C588.063232,456.266815 588.069519,410.341125 587.913940,364.416443 
	C587.890625,357.545776 590.661011,349.085602 578.474548,346.395447 
	C582.877258,345.147675 585.362244,344.443451 588.276306,343.508362 
	C590.983032,343.767059 593.260681,344.256622 595.538269,344.746185 
	C595.538269,344.746185 595.796021,344.696472 596.040649,345.119995 
	C597.588013,345.946350 598.890686,346.349213 600.193420,346.752075 
	C600.193420,346.752075 600.039307,346.894073 600.213501,347.141479 
	C600.935791,347.756042 601.435486,348.273560 602.039307,348.468109 
	C612.941406,351.980743 623.837402,355.515961 634.794434,358.849915 
	C636.011963,359.220398 637.592651,358.397003 639.004944,358.127258 
	C639.447754,358.135986 639.890503,358.144684 640.761597,358.637604 
	C645.457886,359.480682 649.725830,359.839600 653.993774,360.198486 
	C654.744446,360.219330 655.495178,360.240143 656.743530,360.730408 
	C659.825684,361.197357 662.410217,361.194855 664.994751,361.192322 
	C665.779846,361.199188 666.564880,361.206024 668.002808,361.519745 
	C670.075317,361.493744 671.494934,361.160858 672.914612,360.828003 
	C672.914612,360.828003 672.946716,360.925598 673.230347,360.675659 
	C673.669861,358.631531 673.956421,356.837646 673.960938,355.043030 
	C673.998108,340.290833 673.982849,325.538513 673.983398,310.786224 
	C673.983459,309.020111 673.983398,307.254028 673.983398,305.612122 
	C676.749268,305.082550 678.813293,304.687347 680.877380,304.292114 
	C685.332947,304.544281 689.788574,304.796448 694.596558,305.068573 
	C694.596558,329.984131 694.596558,354.701813 694.596558,379.951447 
	C656.464294,378.917877 621.354248,369.217651 589.262146,346.414307 
	C589.262146,350.731537 589.262024,353.668640 589.262146,356.605713 
	C589.264282,403.261078 589.254578,449.916412 589.273132,496.571777 
	C589.283813,523.409058 583.694702,548.779114 569.636536,571.941345 
	C568.778992,573.354309 567.716003,574.642578 566.432617,576.144409 
z"/>
<path fill="#F8F8F8" opacity="1.000000" stroke="none" 
	d="
M340.965668,723.095459 
	C344.616913,723.095459 347.774780,723.095459 351.318695,723.095459 
	C351.318695,749.138062 351.318695,774.993164 351.318695,801.064453 
	C342.270294,801.064453 333.348267,801.064453 324.274841,801.064453 
	C324.274841,775.172180 324.274841,749.541748 324.274841,723.095459 
	C329.651520,723.095459 335.061920,723.095459 340.965668,723.095459 
z"/>
<path fill="#E0385F" opacity="1.000000" stroke="none" 
	d="
M612.028748,266.057587 
	C605.733032,260.758270 598.807556,256.040741 593.267578,250.043350 
	C580.122498,235.812988 571.958679,218.845322 568.148071,199.416077 
	C567.982788,199.066254 568.235535,198.859528 568.790466,198.791595 
	C575.924500,198.750351 582.503540,198.777054 589.082642,198.803741 
	C589.082642,198.803741 589.053528,198.919952 589.071533,199.380981 
	C589.415771,205.098633 589.044739,210.518402 590.227844,215.574524 
	C592.112305,223.628555 595.031799,231.440384 597.513611,239.354645 
	C597.513611,239.354645 597.502563,239.431824 597.455566,239.811035 
	C598.601440,242.427246 599.794373,244.664230 600.987305,246.901215 
	C600.987305,246.901215 600.967590,246.999893 601.019287,247.353821 
	C602.309814,249.602005 603.548584,251.496292 604.787354,253.390564 
	C604.787354,253.390564 604.770508,253.756058 604.885376,254.207428 
	C605.649841,255.443832 606.299438,256.228882 606.948975,257.013916 
	C606.948975,257.013916 606.980103,257.019379 607.008423,257.294922 
	C607.305603,257.767883 607.574463,257.965302 607.843323,258.162720 
	C607.843323,258.162720 607.830566,258.176300 607.882935,258.518311 
	C609.299744,261.259430 610.664246,263.658508 612.028748,266.057587 
z"/>
<path fill="#E4345E" opacity="1.000000" stroke="none" 
	d="
M529.001953,610.997559 
	C535.613953,609.529663 539.303223,604.892639 542.064880,599.142578 
	C542.616089,597.994934 543.976135,596.159546 544.606140,596.295593 
	C549.823975,597.422058 550.701843,592.972961 552.887024,590.232666 
	C556.343262,585.898499 559.734497,581.512024 563.242981,577.221008 
	C563.537903,576.860291 564.509766,577.052979 565.546631,576.986511 
	C558.850952,585.625366 552.545227,595.068848 544.542114,602.742126 
	C527.258728,619.313171 506.662933,630.704346 483.349487,636.450378 
	C466.678558,640.559265 449.651001,642.627197 432.508087,639.528503 
	C422.430817,637.706970 412.484070,635.163147 402.082397,632.611450 
	C401.686188,632.278687 401.323822,632.022949 401.323822,632.022949 
	C401.323822,632.022949 401.095856,632.054077 401.052429,631.648804 
	C401.001221,630.844543 400.993469,630.445557 400.984741,629.674316 
	C399.757446,627.443359 398.531097,625.584717 397.301941,623.721863 
	C399.819244,623.058838 401.934326,622.501770 404.485382,621.950806 
	C407.615997,622.301086 410.310638,622.645264 413.005249,622.989380 
	C409.837616,623.845337 406.670013,624.701294 402.892242,625.722107 
	C403.763580,626.382263 404.341522,626.631897 404.636261,627.071472 
	C409.325043,634.064209 419.113434,637.180054 428.534363,635.120850 
	C436.048157,633.478455 443.670441,632.320374 451.264587,631.068787 
	C452.597687,630.849121 454.029694,631.229675 455.437073,631.833069 
	C448.735840,636.467041 440.936035,634.257446 433.547546,635.325684 
	C436.850647,639.317566 474.012421,638.560547 481.877960,633.929138 
	C478.480774,633.318848 476.028748,632.878357 473.397644,632.405640 
	C478.410522,630.526062 482.913666,628.286804 487.677368,627.278625 
	C490.139496,626.757507 493.065155,628.416748 495.778839,629.101074 
	C496.539825,629.293030 497.500946,629.931946 498.015320,629.669617 
	C503.313446,626.968323 508.429596,623.889221 513.815369,621.386597 
	C519.021179,618.967590 516.857971,617.049805 513.872498,614.799561 
	C513.428711,614.465027 513.274536,613.746033 513.059509,612.281128 
	C518.820068,616.714722 524.344788,619.630127 528.962036,611.352173 
	C529.000000,611.000000 529.001953,610.997559 529.001953,610.997559 
z"/>
<path fill="#69BEC4" opacity="1.000000" stroke="none" 
	d="
M558.226074,786.926208 
	C559.085999,787.710754 559.945923,788.495300 561.034241,789.806946 
	C561.752258,790.546204 562.241943,790.758301 562.731567,790.970398 
	C563.394531,791.464050 564.057495,791.957703 564.808044,793.074097 
	C563.874451,794.164795 562.853333,794.632751 561.832153,795.100769 
	C561.531738,795.168274 561.270386,795.095459 560.860352,794.355774 
	C560.055115,793.586609 559.437561,793.344055 558.819946,793.101562 
	C558.309509,792.862244 557.799011,792.622925 557.097961,791.812500 
	C556.239258,790.854980 555.571228,790.468628 554.903137,790.082275 
	C554.903137,790.082275 554.990479,790.000366 554.933594,789.702820 
	C554.176575,788.974548 553.476440,788.543762 552.776367,788.113037 
	C540.359253,775.903748 536.457397,761.003418 540.189514,744.384277 
	C544.094910,726.992798 555.014099,715.496399 572.132385,710.113464 
	C573.543518,709.669678 575.030640,709.467529 576.856445,709.312988 
	C572.606873,712.541077 567.751221,715.313538 563.400391,718.729187 
	C545.255554,732.974304 540.903625,758.418823 551.843506,777.425171 
	C553.399902,780.129211 555.139526,782.727844 557.041077,785.929810 
	C557.600525,786.631653 557.913269,786.778931 558.226074,786.926208 
z"/>
<path fill="#F8F8F8" opacity="1.000000" stroke="none" 
	d="
M324.976166,704.698975 
	C323.195526,696.469177 326.180847,690.268372 332.888672,687.671692 
	C339.258423,685.205994 346.134216,687.721924 349.571136,693.776001 
	C352.756012,699.386169 351.301453,706.626526 346.142212,710.843689 
	C339.217499,716.503906 329.932465,713.961304 324.976166,704.698975 
z"/>
<path fill="#DA3B62" opacity="1.000000" stroke="none" 
	d="
M625.771667,720.258911 
	C625.599365,720.127441 625.427124,719.995911 625.002808,719.296387 
	C624.409973,718.544861 624.069275,718.361389 623.728577,718.177856 
	C623.728577,718.177856 623.884216,718.167053 623.780334,717.929321 
	C623.110107,717.469788 622.543762,717.247864 621.977417,717.026001 
	C621.646667,717.026550 621.364624,716.909607 620.884521,716.157471 
	C620.226807,715.473206 619.815857,715.306580 619.404907,715.139954 
	C618.720093,714.857056 618.035217,714.574097 617.229736,713.735596 
	C617.583679,712.679688 618.058228,712.179260 618.532837,711.678894 
	C618.532837,711.678894 618.792603,711.628113 619.070557,712.015625 
	C619.783142,712.519531 620.217773,712.635986 620.652466,712.752441 
	C620.652466,712.752441 620.796997,712.659851 621.045349,713.005737 
	C621.945679,713.521729 622.597717,713.691772 623.249695,713.861816 
	C623.249695,713.861816 623.695435,713.897644 624.023071,714.231689 
	C624.669800,714.643982 624.988953,714.722351 625.308105,714.800659 
	C625.733948,714.974670 626.159851,715.148682 626.804565,715.750671 
	C627.097351,716.469604 627.264343,716.687012 627.524414,716.830994 
	C632.026428,721.246277 636.528381,725.661621 641.074463,730.792847 
	C643.134216,736.665405 645.149780,741.822021 647.165405,746.978699 
	C647.409790,748.062073 647.654175,749.145447 647.600891,750.930115 
	C647.424194,754.058228 647.545227,756.485107 647.666199,758.911926 
	C647.608765,760.089172 647.551392,761.266479 647.062744,762.848328 
	C646.699097,763.818970 646.766785,764.385071 646.834473,764.951111 
	C646.782654,765.476501 646.730774,766.001831 646.339661,766.990295 
	C645.955444,767.948242 645.910522,768.443115 645.865601,768.937988 
	C645.763184,769.424744 645.660767,769.911499 645.100464,770.815430 
	C644.538879,771.710205 644.435181,772.187683 644.331421,772.665222 
	C644.331421,772.665222 644.382751,772.834412 644.017273,773.078979 
	C643.490173,773.996765 643.328552,774.669983 643.166931,775.343262 
	C643.166931,775.343262 643.160095,775.723999 642.749939,776.016235 
	C641.950012,777.260254 641.560181,778.212097 641.170410,779.163940 
	C641.170410,779.163940 641.080688,779.058105 640.881104,779.167114 
	C640.436340,779.923828 640.191162,780.571594 639.945984,781.219360 
	C639.861023,781.395142 639.776062,781.570923 639.157349,782.036865 
	C638.469788,782.711670 638.316040,783.096375 638.162354,783.481079 
	C637.692749,784.252441 637.223206,785.023804 636.484070,786.001465 
	C636.214478,786.207825 636.190674,786.211182 636.190674,786.211182 
	C634.150391,788.151062 632.110168,790.090942 629.368958,792.074036 
	C627.823364,792.876160 626.978699,793.635132 626.134094,794.394043 
	C625.751831,794.659424 625.369629,794.924805 624.360474,795.110229 
	C623.122437,794.296631 622.511414,793.562988 621.900391,792.829346 
	C622.224060,792.499390 622.547729,792.169373 623.494019,791.797974 
	C625.368164,790.361816 626.619690,788.966980 627.871155,787.572083 
	C627.871155,787.572083 628.030396,787.196167 628.480835,787.056458 
	C629.216614,786.502502 629.501953,786.088257 629.787292,785.673950 
	C629.787292,785.673950 629.853882,785.806213 630.072144,785.756958 
	C630.458618,785.374695 630.626831,785.041748 630.795044,784.708801 
	C630.795044,784.708801 630.820618,784.865295 631.051147,784.779236 
	C631.555725,783.953308 631.829834,783.213440 632.103943,782.473572 
	C632.103943,782.473572 632.149109,782.174500 632.568359,782.024414 
	C633.304382,781.212280 633.621094,780.550232 633.937805,779.888245 
	C640.911438,767.226990 643.744507,753.805481 638.297119,740.116089 
	C635.560669,733.239380 630.393738,727.329834 626.078003,720.673645 
	C625.830078,720.364380 625.771667,720.258911 625.771667,720.258911 
z"/>
<path fill="#61BFC7" opacity="1.000000" stroke="none" 
	d="
M632.802612,284.068207 
	C631.262573,282.981354 629.722595,281.894531 628.279785,280.204224 
	C630.112549,279.328613 631.848083,279.056458 633.583557,278.784302 
	C634.570496,279.055878 635.557373,279.327423 636.936768,280.118683 
	C639.209351,281.577942 640.995544,282.913055 642.986572,283.386108 
	C650.193787,285.098450 657.223877,288.448975 664.948425,286.259857 
	C666.353027,286.255188 667.757568,286.250519 669.645020,286.626373 
	C670.984619,287.338409 671.841309,287.669952 672.698059,288.001465 
	C672.756104,291.700989 672.814087,295.400513 672.443970,299.593201 
	C668.865845,299.780670 665.715881,299.474915 662.565979,299.169189 
	C662.565979,299.169189 662.280701,299.247833 661.949036,298.871674 
	C659.971313,298.047119 658.325256,297.598724 656.679199,297.150330 
	C656.679199,297.150330 656.319763,297.181824 655.981201,296.846924 
	C655.044312,296.375763 654.445984,296.239471 653.847717,296.103180 
	C652.680664,295.660797 651.513672,295.218445 650.099731,294.354736 
	C649.571350,293.961700 649.289856,293.990021 649.008301,294.018311 
	C646.793579,292.912476 644.578918,291.806610 642.063965,290.187012 
	C641.461487,289.478363 641.159180,289.283447 640.856873,289.088501 
	C640.856873,289.088501 640.921936,289.147675 640.889893,288.804321 
	C639.185852,287.683472 637.513794,286.905975 635.841797,286.128479 
	C635.841797,286.128479 635.894592,286.060150 635.787598,285.821320 
	C635.314880,285.429840 634.949036,285.277222 634.583252,285.124573 
	C634.583252,285.124573 634.268250,285.161560 634.004822,284.845154 
	C633.428467,284.375244 633.115540,284.221741 632.802612,284.068207 
z"/>
<path fill="#0E0F13" opacity="1.000000" stroke="none" 
	d="
M490.380493,190.412323 
	C490.688995,191.725479 490.858887,193.380249 490.859131,195.035034 
	C490.872131,288.785614 490.878754,382.536194 490.846466,476.286774 
	C490.845001,480.605286 490.481903,484.923676 490.126221,489.623657 
	C486.216034,488.018829 488.295624,484.853333 488.518616,482.179016 
	C488.762299,479.256195 489.890778,476.371429 489.893158,473.469421 
	C489.969055,381.222351 489.953552,288.975220 489.963043,196.728104 
	C489.963257,194.736710 490.093262,192.745316 490.380493,190.412323 
z"/>
<path fill="#1B090D" opacity="1.000000" stroke="none" 
	d="
M468.390686,438.941956 
	C468.051056,414.901794 468.016937,390.815857 468.170349,366.731079 
	C468.192047,363.325226 467.109039,361.894989 463.715485,361.821106 
	C458.243225,361.702026 452.775909,361.354248 446.877197,361.058289 
	C446.216522,355.354004 445.985168,349.694458 445.511902,343.630615 
	C445.857788,345.734619 446.899567,348.233429 446.951996,350.752869 
	C447.143951,359.975128 447.019958,359.978851 456.211273,359.998749 
	C459.205200,360.005249 462.199280,359.988007 465.193054,360.010437 
	C469.217621,360.040619 470.551453,362.200287 470.508270,366.064362 
	C470.266907,387.666199 470.113373,409.269562 470.086060,430.872589 
	C470.082489,433.688477 472.271179,436.709198 468.390686,438.941956 
z"/>
<path fill="#1B090D" opacity="1.000000" stroke="none" 
	d="
M391.946777,528.677490 
	C380.364380,506.383209 383.012177,477.791412 401.681396,458.105835 
	C399.884369,461.946533 397.904968,465.970337 395.614563,469.808533 
	C392.019989,475.832306 388.404205,481.737335 388.420898,489.161224 
	C388.428253,492.425507 387.582825,495.691711 387.124573,498.957062 
	C387.591492,499.039581 388.058411,499.122101 388.525299,499.204620 
	C387.781006,499.768433 387.036743,500.332275 387.037750,500.331482 
	C388.757111,510.028778 390.372467,519.139648 391.946777,528.677490 
z"/>
<path fill="#0E0F13" opacity="1.000000" stroke="none" 
	d="
M565.753906,179.550873 
	C548.925354,179.889023 531.876404,179.991104 514.827332,180.069519 
	C507.208588,180.104538 499.589691,180.091980 491.504883,180.095551 
	C491.027863,179.624832 491.016876,179.159592 491.002930,178.347168 
	C491.000000,178.000000 490.996277,178.004883 490.996277,178.004883 
	C494.899170,178.005692 498.802185,178.030136 502.704895,178.003311 
	C522.119080,177.869904 541.533081,177.683578 560.947388,177.656815 
	C562.475281,177.654709 564.004700,178.730377 565.753906,179.550873 
z"/>
<path fill="#1B090D" opacity="1.000000" stroke="none" 
	d="
M418.759033,444.768860 
	C425.267426,442.140350 432.022125,438.158844 439.094543,437.478180 
	C448.331512,436.589111 457.819946,438.312836 467.594116,438.968445 
	C466.023346,442.511353 462.449738,443.127808 458.687256,440.628937 
	C452.888702,436.777863 442.749725,437.076263 436.742737,441.004242 
	C435.502014,441.815552 433.658386,441.846100 432.072815,441.959564 
	C428.701172,442.200867 424.997528,441.063629 422.706818,445.006989 
	C422.425201,445.491791 420.376465,444.950073 418.759033,444.768860 
z"/>
<path fill="#0E0F13" opacity="1.000000" stroke="none" 
	d="
M597.642944,238.940308 
	C595.031799,231.440384 592.112305,223.628555 590.227844,215.574524 
	C589.044739,210.518402 589.415771,205.098633 589.131409,199.381317 
	C590.019714,200.103241 591.713257,201.394028 591.578247,202.451355 
	C590.520081,210.738297 591.560852,218.409119 595.473938,226.010605 
	C597.332092,229.620239 597.072510,234.320023 597.642944,238.940308 
z"/>
<path fill="#D35071" opacity="1.000000" stroke="none" 
	d="
M680.522583,304.129395 
	C678.813293,304.687347 676.749268,305.082550 673.983398,305.612122 
	C673.983398,307.254028 673.983459,309.020111 673.983398,310.786224 
	C673.982849,325.538513 673.998108,340.290833 673.960938,355.043030 
	C673.956421,356.837646 673.669861,358.631531 673.179016,360.678436 
	C672.851868,341.896912 672.859680,322.862671 672.980713,303.414032 
	C675.451843,303.321960 677.809814,303.644287 680.522583,304.129395 
z"/>
<path fill="#E4345E" opacity="1.000000" stroke="none" 
	d="
M371.360199,610.843689 
	C371.765533,610.909424 372.170868,610.975098 373.015564,611.480835 
	C374.886993,612.464600 376.319031,613.008301 377.751099,613.552002 
	C378.009186,613.344788 378.291138,613.304382 378.778412,613.895386 
	C378.968109,614.577271 378.976410,614.794556 378.682007,615.165955 
	C375.875793,617.994446 378.118408,618.104431 380.063782,619.078674 
	C384.168304,621.134277 388.024353,623.685913 391.593384,625.980713 
	C389.394714,625.659424 387.585083,625.391479 385.775421,625.123535 
	C385.775421,625.123535 385.337463,625.098267 385.086151,624.609619 
	C383.998596,623.839478 383.162323,623.557983 382.326080,623.276489 
	C381.993988,623.230713 381.661926,623.184937 381.113800,622.616516 
	C376.921967,620.017334 374.770142,614.851746 369.326355,615.261353 
	C369.326355,615.261353 369.105530,615.278687 369.066406,614.909302 
	C369.040314,614.350891 369.053314,614.161926 369.359009,613.937927 
	C369.430939,613.266968 369.210175,612.631042 368.987915,611.745361 
	C368.986359,611.495667 368.996796,610.996399 369.391571,610.997681 
	C370.310974,610.947205 370.835571,610.895447 371.360199,610.843689 
z"/>
<path fill="#BF4765" opacity="1.000000" stroke="none" 
	d="
M621.557861,792.914734 
	C622.511414,793.562988 623.122437,794.296631 624.121704,795.117432 
	C618.705200,799.951355 611.799805,801.282410 604.287842,801.399170 
	C609.737793,798.447510 615.476624,795.723816 621.557861,792.914734 
z"/>
<path fill="#CD4969" opacity="1.000000" stroke="none" 
	d="
M369.066345,613.972961 
	C369.053314,614.161926 369.040314,614.350891 368.997437,614.822632 
	C363.779236,610.868591 358.590851,606.631836 353.410400,602.061035 
	C358.517883,604.245361 363.617371,606.763672 368.878296,609.618591 
	C369.039673,609.955200 368.883331,610.121033 368.588989,610.086243 
	C367.798248,610.148315 367.301849,610.245239 366.805450,610.342102 
	C366.818665,610.525879 366.831909,610.709656 366.845123,610.893433 
	C367.564728,610.930237 368.284363,610.967041 369.001984,611.001953 
	C369.000000,611.000000 368.996796,610.996399 368.996796,610.996399 
	C368.996796,610.996399 368.986359,611.495667 368.988403,612.075684 
	C369.015747,613.094788 369.041046,613.533875 369.066345,613.972961 
z"/>
<path fill="#75B7B7" opacity="1.000000" stroke="none" 
	d="
M562.053833,795.371826 
	C562.853333,794.632751 563.874451,794.164795 564.968262,793.339661 
	C570.653503,795.546753 576.266113,798.110901 582.039307,800.953369 
	C574.849792,801.895142 568.511353,798.951721 562.053833,795.371826 
z"/>
<path fill="#0E0F13" opacity="1.000000" stroke="none" 
	d="
M588.956665,198.427124 
	C582.503540,198.777054 575.924500,198.750351 568.907959,198.678284 
	C568.222168,197.042740 567.973755,195.452560 567.795105,193.458557 
	C568.680359,193.068161 570.013855,192.771942 570.234436,193.141006 
	C574.151917,199.694260 580.528137,196.065552 585.772705,197.029373 
	C586.819275,197.221695 587.812683,197.702652 588.956665,198.427124 
z"/>
<path fill="#1B090D" opacity="1.000000" stroke="none" 
	d="
M402.377136,458.012146 
	C407.084381,453.637054 412.162537,449.270599 417.589722,444.841888 
	C417.907471,445.427734 418.138641,446.415924 417.805573,446.672913 
	C412.830170,450.512329 407.780334,454.255188 402.377136,458.012146 
z"/>
<path fill="#75B7B7" opacity="1.000000" stroke="none" 
	d="
M664.540405,286.149109 
	C657.223877,288.448975 650.193787,285.098450 642.986572,283.386108 
	C640.995544,282.913055 639.209351,281.577942 637.171997,280.320984 
	C646.053955,282.015137 655.093201,284.026764 664.540405,286.149109 
z"/>
<path fill="#75B7B7" opacity="1.000000" stroke="none" 
	d="
M633.330261,278.507507 
	C631.848083,279.056458 630.112549,279.328613 628.099060,279.939423 
	C624.914551,277.711884 622.008118,275.145660 619.091858,272.233093 
	C623.747070,274.001373 628.411987,276.116028 633.330261,278.507507 
z"/>
<path fill="#BF4765" opacity="1.000000" stroke="none" 
	d="
M618.288818,711.397766 
	C618.058228,712.179260 617.583679,712.679688 617.037109,713.526611 
	C613.155823,712.382324 609.346558,710.891418 605.289978,709.153320 
	C609.376709,709.642944 613.710754,710.379822 618.288818,711.397766 
z"/>
<path fill="#0E0F13" opacity="1.000000" stroke="none" 
	d="
M612.218750,266.304596 
	C610.664246,263.658508 609.299744,261.259430 607.876831,258.526001 
	C614.113403,258.689911 614.365784,264.062195 615.977539,268.708496 
	C614.777710,268.244781 613.593201,267.398193 612.218750,266.304596 
z"/>
<path fill="#CD4969" opacity="1.000000" stroke="none" 
	d="
M385.980835,625.403809 
	C387.585083,625.391479 389.394714,625.659424 391.819031,626.243958 
	C395.284363,627.722473 398.135040,628.884521 400.985718,630.046570 
	C400.993469,630.445557 401.001221,630.844543 401.008850,631.542358 
	C396.067841,629.788757 391.127014,627.736389 385.980835,625.403809 
z"/>
<path fill="#CD4969" opacity="1.000000" stroke="none" 
	d="
M369.504639,615.567078 
	C374.770142,614.851746 376.921967,620.017334 380.933044,622.430420 
	C377.206512,620.468872 373.444733,618.170837 369.504639,615.567078 
z"/>
<path fill="#BF4765" opacity="1.000000" stroke="none" 
	d="
M647.274475,746.632935 
	C645.149780,741.822021 643.134216,736.665405 641.143433,731.126831 
	C643.239990,735.925598 645.311768,741.106384 647.274475,746.632935 
z"/>
<path fill="#0E0F13" opacity="1.000000" stroke="none" 
	d="
M486.867920,503.161072 
	C486.357025,505.650299 485.477417,508.128448 484.314911,510.810120 
	C481.683228,507.397522 483.653107,505.136322 486.867920,503.161072 
z"/>
<path fill="#75B7B7" opacity="1.000000" stroke="none" 
	d="
M662.773193,299.470642 
	C665.715881,299.474915 668.865845,299.780670 672.343140,300.044250 
	C672.778992,300.685699 672.887451,301.369324 672.929688,302.387451 
	C669.569092,301.738647 666.274780,300.755371 662.773193,299.470642 
z"/>
<path fill="#0E0F13" opacity="1.000000" stroke="none" 
	d="
M600.999268,246.490387 
	C599.794373,244.664230 598.601440,242.427246 597.442871,239.847931 
	C602.370239,239.699890 600.495850,243.532013 600.999268,246.490387 
z"/>
<path fill="#0E0F13" opacity="1.000000" stroke="none" 
	d="
M490.340179,181.225403 
	C490.690033,182.091110 490.767731,183.146301 490.731506,184.585052 
	C489.685181,185.781830 488.752777,186.595016 487.673767,187.536072 
	C485.722534,184.400467 488.178497,183.010605 490.340179,181.225403 
z"/>
<path fill="#1B090D" opacity="1.000000" stroke="none" 
	d="
M395.217468,536.976257 
	C394.333679,535.084778 393.678467,533.399048 392.998779,531.366882 
	C394.319397,533.107361 395.664398,535.194397 396.997437,537.666870 
	C396.472321,537.762207 395.959167,537.472107 395.217468,536.976257 
z"/>
<path fill="#0E0F13" opacity="1.000000" stroke="none" 
	d="
M567.607300,188.645309 
	C567.300842,186.564377 567.195007,184.197952 567.216309,181.401276 
	C567.498291,183.433945 567.653198,185.896896 567.607300,188.645309 
z"/>
<path fill="#0E0F13" opacity="1.000000" stroke="none" 
	d="
M604.849060,252.989288 
	C603.548584,251.496292 602.309814,249.602005 601.067627,247.367981 
	C602.346375,248.881500 603.628540,250.734756 604.849060,252.989288 
z"/>
<path fill="#1B090D" opacity="1.000000" stroke="none" 
	d="
M444.103638,343.019226 
	C443.164581,343.318817 442.315460,343.288818 441.255066,343.090942 
	C441.822266,341.972778 442.600769,341.022552 443.379272,340.072296 
	C443.650726,340.944763 443.922180,341.817230 444.103638,343.019226 
z"/>
<path fill="#1B090D" opacity="1.000000" stroke="none" 
	d="
M407.975525,542.713379 
	C406.430908,542.594238 404.883301,542.099915 403.119141,541.331543 
	C404.599396,541.457397 407.293976,537.907715 407.975525,542.713379 
z"/>
<path fill="#1B090D" opacity="1.000000" stroke="none" 
	d="
M383.906494,349.071777 
	C382.753418,349.770782 381.241302,350.398315 379.372253,351.019562 
	C379.283234,347.544281 381.401764,348.241699 383.906494,349.071777 
z"/>
<path fill="#BF4765" opacity="1.000000" stroke="none" 
	d="
M647.820435,758.498901 
	C647.545227,756.485107 647.424194,754.058228 647.547363,751.351501 
	C647.852539,753.409668 647.913574,755.747742 647.820435,758.498901 
z"/>
<path fill="#1B090D" opacity="1.000000" stroke="none" 
	d="
M420.485718,342.244232 
	C418.504211,342.630157 416.197449,342.860840 413.457642,343.012878 
	C415.403168,342.652435 417.781830,342.370728 420.485718,342.244232 
z"/>
<path fill="#75B7B7" opacity="1.000000" stroke="none" 
	d="
M672.769897,287.656830 
	C671.841309,287.669952 670.984619,287.338409 670.056335,286.721222 
	C670.937134,286.727753 671.889404,287.019958 672.769897,287.656830 
z"/>
<path fill="#1B090D" opacity="1.000000" stroke="none" 
	d="
M438.702515,342.602478 
	C437.275330,342.816681 435.604309,342.789673 433.536560,342.634033 
	C434.912781,342.457367 436.685730,342.409302 438.702515,342.602478 
z"/>
<path fill="#0E0F13" opacity="1.000000" stroke="none" 
	d="
M606.968384,256.660767 
	C606.299438,256.228882 605.649841,255.443832 605.005737,254.345184 
	C605.670105,254.790268 606.328918,255.548950 606.968384,256.660767 
z"/>
<path fill="#BF4765" opacity="1.000000" stroke="none" 
	d="
M626.472595,794.334473 
	C626.978699,793.635132 627.823364,792.876160 629.046875,792.162842 
	C628.554199,792.897278 627.682678,793.586060 626.472595,794.334473 
z"/>
<path fill="#CD4969" opacity="1.000000" stroke="none" 
	d="
M382.501099,623.555176 
	C383.162323,623.557983 383.998596,623.839478 384.914368,624.473145 
	C384.221313,624.494873 383.448700,624.164307 382.501099,623.555176 
z"/>
<path fill="#BF4765" opacity="1.000000" stroke="none" 
	d="
M641.443115,779.006470 
	C641.560181,778.212097 641.950012,777.260254 642.633423,776.166748 
	C642.523254,776.966431 642.119507,777.907776 641.443115,779.006470 
z"/>
<path fill="#000000" opacity="1.000000" stroke="none" 
	d="
M437.533783,535.391724 
	C437.649902,534.941589 437.933350,534.665649 438.234772,534.410950 
	C438.242462,534.404480 438.447754,534.631775 438.560913,534.750061 
	C438.275085,535.022949 437.989288,535.295776 437.533783,535.391724 
z"/>
<path fill="#BF4765" opacity="1.000000" stroke="none" 
	d="
M640.205383,781.160400 
	C640.191162,780.571594 640.436340,779.923828 640.945679,779.192383 
	C640.961487,779.772949 640.713135,780.437195 640.205383,781.160400 
z"/>
<path fill="#BF4765" opacity="1.000000" stroke="none" 
	d="
M646.060181,768.776245 
	C645.910522,768.443115 645.955444,767.948242 646.144104,767.338501 
	C646.276794,767.687256 646.265747,768.150879 646.060181,768.776245 
z"/>
<path fill="#1B090D" opacity="1.000000" stroke="none" 
	d="
M408.673584,343.372192 
	C408.179169,343.701477 407.461700,343.863251 406.376038,343.966675 
	C406.822052,343.673798 407.636261,343.439209 408.673584,343.372192 
z"/>
<path fill="#75B7B7" opacity="1.000000" stroke="none" 
	d="
M555.030151,790.341675 
	C555.571228,790.468628 556.239258,790.854980 556.961548,791.555176 
	C556.396240,791.446350 555.776672,791.023682 555.030151,790.341675 
z"/>
<path fill="#75B7B7" opacity="1.000000" stroke="none" 
	d="
M552.890320,788.395874 
	C553.476440,788.543762 554.176575,788.974548 554.898682,789.751404 
	C554.281921,789.624634 553.643066,789.151733 552.890320,788.395874 
z"/>
<path fill="#1B090D" opacity="1.000000" stroke="none" 
	d="
M403.081299,344.124878 
	C402.828247,344.407623 402.252747,344.635590 401.362122,344.818909 
	C401.617615,344.539520 402.188232,344.304779 403.081299,344.124878 
z"/>
<path fill="#BF4765" opacity="1.000000" stroke="none" 
	d="
M644.551636,772.529053 
	C644.435181,772.187683 644.538879,771.710205 644.870239,771.112305 
	C644.989258,771.458923 644.880615,771.925842 644.551636,772.529053 
z"/>
<path fill="#BF4765" opacity="1.000000" stroke="none" 
	d="
M643.442017,775.136780 
	C643.328552,774.669983 643.490173,773.996765 643.973572,773.155762 
	C644.102600,773.635498 643.909912,774.282898 643.442017,775.136780 
z"/>
<path fill="#BF4765" opacity="1.000000" stroke="none" 
	d="
M627.564392,716.647461 
	C627.264343,716.687012 627.097351,716.469604 627.000183,716.039490 
	C627.186096,716.088196 627.395264,716.276062 627.564392,716.647461 
z"/>
<path fill="#1B090D" opacity="1.000000" stroke="none" 
	d="
M398.096741,345.158142 
	C397.846619,345.462250 397.269470,345.706451 396.374115,345.899658 
	C396.627167,345.598511 397.198425,345.348389 398.096741,345.158142 
z"/>
<path fill="#1B090D" opacity="1.000000" stroke="none" 
	d="
M394.778809,346.033081 
	C394.576721,346.291992 394.098785,346.524292 393.345978,346.722626 
	C393.548401,346.461243 394.025665,346.233826 394.778809,346.033081 
z"/>
<path fill="#75B7B7" opacity="1.000000" stroke="none" 
	d="
M558.985718,793.377136 
	C559.437561,793.344055 560.055115,793.586609 560.761719,794.169678 
	C560.284302,794.224304 559.717896,793.938538 558.985718,793.377136 
z"/>
<path fill="#BF4765" opacity="1.000000" stroke="none" 
	d="
M623.043091,713.599731 
	C622.597717,713.691772 621.945679,713.521729 621.123901,713.040344 
	C621.581543,712.931824 622.208984,713.134705 623.043091,713.599731 
z"/>
<path fill="#0E0F13" opacity="1.000000" stroke="none" 
	d="
M489.580811,492.275330 
	C489.794830,492.706055 489.766113,493.394653 489.510345,494.353363 
	C489.301575,493.926727 489.319824,493.229950 489.580811,492.275330 
z"/>
<path fill="#0E0F13" opacity="1.000000" stroke="none" 
	d="
M488.673889,497.246826 
	C488.868744,497.692535 488.800446,498.382721 488.496399,499.335968 
	C488.310730,498.896454 488.360748,498.193909 488.673889,497.246826 
z"/>
<path fill="#1B090D" opacity="1.000000" stroke="none" 
	d="
M392.975891,530.712952 
	C392.617188,530.570068 392.257019,530.116638 391.883514,529.360107 
	C392.238251,529.505493 392.606354,529.953979 392.975891,530.712952 
z"/>
<path fill="#1B090D" opacity="1.000000" stroke="none" 
	d="
M413.719238,544.613403 
	C413.308105,544.786804 412.669250,544.719910 411.788086,544.429382 
	C412.194336,544.261597 412.842926,544.317322 413.719238,544.613403 
z"/>
<path fill="#BF4765" opacity="1.000000" stroke="none" 
	d="
M646.973511,764.651611 
	C646.766785,764.385071 646.699097,763.818970 646.872498,763.148682 
	C647.113220,763.480286 647.112854,763.916138 646.973511,764.651611 
z"/>
<path fill="#0E0F13" opacity="1.000000" stroke="none" 
	d="
M491.002441,177.998093 
	C490.882294,177.856247 490.759674,177.716309 490.637024,177.576385 
	C490.721710,177.626480 490.806427,177.676590 490.943695,177.865784 
	C490.996277,178.004883 491.000000,178.000000 491.002441,177.998093 
z"/>
<path fill="#BF4765" opacity="1.000000" stroke="none" 
	d="
M636.221069,786.305298 
	C636.190674,786.211182 636.214478,786.207825 636.206543,786.204102 
	C636.198669,786.200439 636.251526,786.399353 636.221069,786.305298 
z"/>
<path fill="#BF4765" opacity="1.000000" stroke="none" 
	d="
M638.430054,783.329346 
	C638.316040,783.096375 638.469788,782.711670 638.921387,782.210205 
	C639.045410,782.454834 638.871582,782.816223 638.430054,783.329346 
z"/>
<path fill="#1B090D" opacity="1.000000" stroke="none" 
	d="
M401.757446,540.563843 
	C401.703247,540.780579 401.444031,540.805725 400.800903,540.908203 
	C400.416962,540.985474 400.333344,540.640076 400.401245,540.476074 
	C400.830231,540.332153 401.191345,540.352234 401.757446,540.563843 
z"/>
<path fill="#1B090D" opacity="1.000000" stroke="none" 
	d="
M390.214783,347.199188 
	C390.190674,347.420258 389.892914,347.618805 389.319458,347.783752 
	C389.342865,347.559021 389.641998,347.367859 390.214783,347.199188 
z"/>
<path fill="#1B090D" opacity="1.000000" stroke="none" 
	d="
M387.061798,348.152405 
	C387.059814,348.367706 386.812439,348.582581 386.313354,348.766357 
	C386.224609,348.426208 386.476196,348.231750 387.061798,348.152405 
z"/>
<path fill="#1B090D" opacity="1.000000" stroke="none" 
	d="
M378.214630,351.216125 
	C378.200104,351.454071 377.890808,351.685181 377.282288,351.895996 
	C377.295319,351.653534 377.607605,351.431427 378.214630,351.216125 
z"/>
<path fill="#1B090D" opacity="1.000000" stroke="none" 
	d="
M374.845459,352.623260 
	C374.824219,352.850433 374.683105,352.949005 374.283936,353.043335 
	C374.259155,352.857605 374.492340,352.676117 374.845459,352.623260 
z"/>
<path fill="#0E0F13" opacity="1.000000" stroke="none" 
	d="
M607.800842,257.910461 
	C607.574463,257.965302 607.305603,257.767883 607.005127,257.310333 
	C607.235107,257.252869 607.496704,257.455536 607.800842,257.910461 
z"/>
<path fill="#0E0F13" opacity="1.000000" stroke="none" 
	d="
M487.557922,502.156128 
	C487.869812,502.350616 487.826172,502.668060 487.401611,503.087097 
	C487.089905,502.876831 487.150452,502.573608 487.557922,502.156128 
z"/>
<path fill="#1B090D" opacity="1.000000" stroke="none" 
	d="
M409.780029,543.606079 
	C409.600555,543.760132 409.236450,543.709778 408.703247,543.429993 
	C408.887878,543.267578 409.241638,543.334595 409.780029,543.606079 
z"/>
<path fill="#CD4969" opacity="1.000000" stroke="none" 
	d="
M401.322357,632.158752 
	C401.323822,632.022949 401.686188,632.278687 401.737457,632.372437 
	C401.788727,632.466248 401.520966,632.472534 401.520966,632.472534 
	C401.520966,632.472534 401.320892,632.294556 401.322357,632.158752 
z"/>
<path fill="#BF4765" opacity="1.000000" stroke="none" 
	d="
M620.456177,712.473877 
	C620.217773,712.635986 619.783142,712.519531 619.163635,712.109619 
	C619.405823,711.942566 619.832886,712.068970 620.456177,712.473877 
z"/>
<path fill="#BF4765" opacity="1.000000" stroke="none" 
	d="
M625.171387,714.582397 
	C624.988953,714.722351 624.669800,714.643982 624.207275,714.358398 
	C624.387451,714.222168 624.711121,714.293152 625.171387,714.582397 
z"/>
<path fill="#D35071" opacity="1.000000" stroke="none" 
	d="
M595.336914,344.454224 
	C593.260681,344.256622 590.983032,343.767059 588.357788,343.125214 
	C582.061096,339.467133 576.112061,335.961365 569.338684,331.969757 
	C569.205078,334.164398 568.998230,335.983551 568.997498,337.802795 
	C568.979187,385.583374 569.123718,433.364655 568.900085,481.144196 
	C568.827881,496.582367 566.672241,511.894836 561.880920,526.613342 
	C559.838440,532.887817 556.272278,538.666321 553.035400,544.723816 
	C556.513489,532.787720 561.136780,520.977722 563.945984,508.750977 
	C566.156860,499.128235 566.905945,488.996155 566.965942,479.082214 
	C567.255981,431.166718 567.093506,383.248474 567.091431,335.331207 
	C567.091370,333.199158 567.091431,331.067139 567.091431,328.322754 
	C576.836426,333.826782 585.986023,338.994537 595.336914,344.454224 
z"/>
<path fill="#CD4969" opacity="1.000000" stroke="none" 
	d="
M378.984680,615.011841 
	C378.976410,614.794556 378.968109,614.577271 378.951721,614.033569 
	C390.610809,616.203125 402.167053,619.733276 413.966217,620.999512 
	C448.432098,624.698303 479.885437,615.950012 508.145355,595.829346 
	C509.498077,594.866211 510.889465,593.957458 512.608215,592.971497 
	C512.210754,594.135254 511.762604,595.858032 510.679169,596.487732 
	C500.283569,602.529785 490.089569,609.053894 479.213715,614.092773 
	C470.031250,618.347107 460.038452,620.879578 449.083405,621.990967 
	C447.889862,622.030090 447.443542,622.048340 446.997223,622.066650 
	C445.928406,622.067749 444.859619,622.068787 443.170837,622.166748 
	C442.276031,622.438721 442.089813,622.681763 441.992218,622.992676 
	C441.992218,622.992676 441.496796,622.997681 440.780701,622.997925 
	C432.720795,623.316467 425.376984,623.634827 418.033142,623.953186 
	C416.614471,623.632202 415.195831,623.311157 413.391205,622.989746 
	C410.310638,622.645264 407.615997,622.301086 404.192688,621.683594 
	C395.304230,619.277405 387.144470,617.144592 378.984680,615.011841 
z"/>
<path fill="#D35071" opacity="1.000000" stroke="none" 
	d="
M638.656494,357.952393 
	C637.592651,358.397003 636.011963,359.220398 634.794434,358.849915 
	C623.837402,355.515961 612.941406,351.980743 602.039307,348.468109 
	C601.435486,348.273560 600.935791,347.756042 600.269287,347.052734 
	C612.869873,350.403595 625.588989,354.090546 638.656494,357.952393 
z"/>
<path fill="#CD4969" opacity="1.000000" stroke="none" 
	d="
M552.451660,544.937256 
	C552.084167,551.781555 547.984253,556.888123 542.966187,561.692200 
	C545.787170,556.169067 548.973328,550.640869 552.451660,544.937256 
z"/>
<path fill="#CD4969" opacity="1.000000" stroke="none" 
	d="
M540.640686,564.064758 
	C539.069519,569.795776 536.004395,574.777405 530.022217,577.728882 
	C533.219177,573.162415 536.782104,568.692932 540.640686,564.064758 
z"/>
<path fill="#D35071" opacity="1.000000" stroke="none" 
	d="
M653.613953,360.046448 
	C649.725830,359.839600 645.457886,359.480682 641.058472,358.791687 
	C645.029358,358.939178 649.131714,359.416779 653.613953,360.046448 
z"/>
<path fill="#CD4969" opacity="1.000000" stroke="none" 
	d="
M521.719727,585.141113 
	C521.180725,589.731689 517.410522,591.353455 513.296997,592.976624 
	C515.748291,590.375610 518.572021,587.803955 521.719727,585.141113 
z"/>
<path fill="#D35071" opacity="1.000000" stroke="none" 
	d="
M664.604248,361.068542 
	C662.410217,361.194855 659.825684,361.197357 657.088867,360.882721 
	C659.362305,360.691986 661.788025,360.818390 664.604248,361.068542 
z"/>
<path fill="#CD4969" opacity="1.000000" stroke="none" 
	d="
M526.444458,580.817444 
	C525.431458,582.160217 524.109253,583.597229 522.418823,585.039612 
	C523.412109,583.667236 524.773682,582.289490 526.444458,580.817444 
z"/>
<path fill="#75B7B7" opacity="1.000000" stroke="none" 
	d="
M635.948975,286.449646 
	C637.513794,286.905975 639.185852,287.683472 640.853455,288.828979 
	C639.251404,288.388214 637.653809,287.579498 635.948975,286.449646 
z"/>
<path fill="#CD4969" opacity="1.000000" stroke="none" 
	d="
M529.348755,577.782104 
	C528.914795,578.727051 528.197571,579.796265 527.101440,580.810913 
	C527.503601,579.806396 528.284546,578.856323 529.348755,577.782104 
z"/>
<path fill="#75B7B7" opacity="1.000000" stroke="none" 
	d="
M656.917908,297.428711 
	C658.325256,297.598724 659.971313,298.047119 661.816895,298.805054 
	C660.396484,298.645447 658.776550,298.176270 656.917908,297.428711 
z"/>
<path fill="#D35071" opacity="1.000000" stroke="none" 
	d="
M599.989990,346.482391 
	C598.890686,346.349213 597.588013,345.946350 596.137024,345.209076 
	C597.254700,345.320679 598.520630,345.766693 599.989990,346.482391 
z"/>
<path fill="#CD4969" opacity="1.000000" stroke="none" 
	d="
M377.557678,613.278931 
	C376.319031,613.008301 374.886993,612.464600 373.275360,611.651611 
	C374.518616,611.923584 375.941437,612.464783 377.557678,613.278931 
z"/>
<path fill="#D35071" opacity="1.000000" stroke="none" 
	d="
M672.518127,360.919830 
	C671.494934,361.160858 670.075317,361.493744 668.381042,361.628845 
	C669.444824,361.291260 670.783264,361.151489 672.518127,360.919830 
z"/>
<path fill="#CD4969" opacity="1.000000" stroke="none" 
	d="
M542.329102,561.781799 
	C542.276428,562.409790 541.946411,563.155579 541.258179,563.924133 
	C541.283997,563.264404 541.667908,562.582031 542.329102,561.781799 
z"/>
<path fill="#CD4969" opacity="1.000000" stroke="none" 
	d="
M371.153076,610.608887 
	C370.835571,610.895447 370.310974,610.947205 369.391571,610.997681 
	C368.996796,610.996399 369.000000,611.000000 368.981537,610.779846 
	C368.963074,610.559692 368.883331,610.121033 368.883331,610.121033 
	C368.883331,610.121033 369.039673,609.955200 369.116821,609.870972 
	C369.777954,609.982483 370.361938,610.178284 371.153076,610.608887 
z"/>
<path fill="#75B7B7" opacity="1.000000" stroke="none" 
	d="
M654.041809,296.343445 
	C654.445984,296.239471 655.044312,296.375763 655.815308,296.776062 
	C655.404053,296.887939 654.819946,296.735809 654.041809,296.343445 
z"/>
<path fill="#75B7B7" opacity="1.000000" stroke="none" 
	d="
M632.928833,284.306274 
	C633.115540,284.221741 633.428467,284.375244 633.869629,284.762329 
	C633.683594,284.845398 633.369324,284.694855 632.928833,284.306274 
z"/>
<path fill="#75B7B7" opacity="1.000000" stroke="none" 
	d="
M634.739868,285.376801 
	C634.949036,285.277222 635.314880,285.429840 635.806274,285.860260 
	C635.586731,285.968353 635.241577,285.798706 634.739868,285.376801 
z"/>
<path fill="#75B7B7" opacity="1.000000" stroke="none" 
	d="
M640.924561,289.360168 
	C641.159180,289.283447 641.461487,289.478363 641.841919,289.940582 
	C641.610779,290.015839 641.301453,289.823822 640.924561,289.360168 
z"/>
<path fill="#75B7B7" opacity="1.000000" stroke="none" 
	d="
M649.208008,294.145172 
	C649.289856,293.990021 649.571350,293.961700 649.862366,294.148682 
	C649.871826,294.363953 649.407715,294.272003 649.208008,294.145172 
z"/>
<path fill="#E4345E" opacity="1.000000" stroke="none" 
	d="
M418.033997,624.354980 
	C425.376984,623.634827 432.720795,623.316467 440.533142,623.006104 
	C438.402039,623.536499 435.774109,624.588013 433.209839,624.450684 
	C429.824554,624.269592 426.754852,623.183960 423.726624,626.206604 
	C422.446320,627.484497 419.049500,628.694763 418.033997,624.354980 
z"/>
<path fill="#E4345E" opacity="1.000000" stroke="none" 
	d="
M417.757629,631.443726 
	C419.489227,631.219666 420.924316,631.219666 422.792297,631.219666 
	C418.972473,634.531250 418.788147,634.533875 417.757629,631.443726 
z"/>
<path fill="#E4345E" opacity="1.000000" stroke="none" 
	d="
M469.453552,630.886108 
	C467.906677,630.823120 466.722717,630.688293 465.538757,630.553467 
	C465.761200,630.017456 465.983643,629.481506 466.206085,628.945557 
	C467.409546,629.568420 468.612976,630.191284 469.453552,630.886108 
z"/>
<path fill="#E4345E" opacity="1.000000" stroke="none" 
	d="
M535.614319,596.460999 
	C535.316101,597.345703 534.858887,597.931213 534.401672,598.516663 
	C534.005737,597.723450 533.609863,596.930176 533.213928,596.136963 
	C533.961060,596.145264 534.708191,596.153503 535.614319,596.460999 
z"/>
<path fill="#E4345E" opacity="1.000000" stroke="none" 
	d="
M520.472290,610.024536 
	C519.528015,610.494385 518.587402,610.634888 517.646851,610.775330 
	C517.625305,610.312500 517.603760,609.849670 517.582275,609.386841 
	C518.546814,609.489624 519.511414,609.592407 520.472290,610.024536 
z"/>
<path fill="#E4345E" opacity="1.000000" stroke="none" 
	d="
M496.393341,625.954163 
	C496.790253,625.712036 497.185028,625.713745 497.577606,625.743958 
	C497.588654,625.744873 497.576202,626.050781 497.574707,626.214478 
	C497.180115,626.210327 496.785492,626.206116 496.393341,625.954163 
z"/>
<path fill="#E4345E" opacity="1.000000" stroke="none" 
	d="
M528.998779,611.000977 
	C528.487915,610.698730 527.978271,610.395508 527.468689,610.092224 
	C527.650391,609.882568 527.832031,609.672913 528.013672,609.463257 
	C528.318848,609.785400 528.624023,610.107544 528.965576,610.713623 
	C529.001953,610.997559 529.000000,611.000000 528.998779,611.000977 
z"/>
<path fill="#E4345E" opacity="1.000000" stroke="none" 
	d="
M582.465820,515.608337 
	C582.349731,516.058289 582.064148,516.331421 581.778503,516.604492 
	C581.665466,516.486206 581.552490,516.367981 581.439453,516.249695 
	C581.725098,515.976929 582.010681,515.704224 582.465820,515.608337 
z"/>
<path fill="#E4345E" opacity="1.000000" stroke="none" 
	d="
M447.116516,622.305664 
	C447.443542,622.048340 447.889862,622.030090 448.671417,622.012756 
	C448.880829,622.425293 448.755005,622.836975 448.629150,623.248596 
	C448.164703,623.013977 447.700256,622.779419 447.116516,622.305664 
z"/>
<path fill="#E4345E" opacity="1.000000" stroke="none" 
	d="
M545.994019,593.995178 
	C546.089600,593.961487 546.185120,593.927856 546.140381,593.947144 
	C546.000000,594.000000 545.994019,593.995178 545.994019,593.995178 
z"/>
<path fill="#E4345E" opacity="1.000000" stroke="none" 
	d="
M546.002563,594.003052 
	C545.909973,594.039978 545.814819,594.073792 545.856873,594.051392 
	C545.994019,593.995178 546.000000,594.000000 546.002563,594.003052 
z"/>
<path fill="#E4345E" opacity="1.000000" stroke="none" 
	d="
M442.204559,622.903076 
	C442.089813,622.681763 442.276031,622.438721 442.770508,622.188232 
	C442.876129,622.409424 442.685028,622.643005 442.204559,622.903076 
z"/>
<path fill="#050505" opacity="1.000000" stroke="none" 
	d="
M613.582397,766.414673 
	C607.578430,775.503113 599.423157,779.593567 589.066956,777.622681 
	C579.419678,775.786804 573.141052,769.658936 570.853882,759.993225 
	C568.541870,750.222656 572.905151,740.239624 581.388184,735.102539 
	C589.843262,729.982605 600.775940,730.801392 608.401550,737.125977 
	C615.942139,743.379822 618.604309,753.959290 614.989746,763.366577 
	C614.633179,764.294617 614.185974,765.187866 613.582397,766.414673 
z"/>
<path fill="#BF4765" opacity="1.000000" stroke="none" 
	d="
M627.558228,787.719910 
	C626.619690,788.966980 625.368164,790.361816 623.733459,791.781494 
	C624.648621,790.493408 625.946899,789.180603 627.558228,787.719910 
z"/>
<path fill="#BF4765" opacity="1.000000" stroke="none" 
	d="
M633.696594,780.025269 
	C633.621094,780.550232 633.304382,781.212280 632.709717,781.970459 
	C632.772949,781.431885 633.114136,780.797058 633.696594,780.025269 
z"/>
<path fill="#BF4765" opacity="1.000000" stroke="none" 
	d="
M631.848755,782.608154 
	C631.829834,783.213440 631.555725,783.953308 630.974854,784.757629 
	C630.976562,784.129028 631.285095,783.435913 631.848755,782.608154 
z"/>
<path fill="#75B7B7" opacity="1.000000" stroke="none" 
	d="
M562.622070,790.726440 
	C562.241943,790.758301 561.752258,790.546204 561.165527,790.069336 
	C561.549866,790.030518 562.031250,790.256531 562.622070,790.726440 
z"/>
<path fill="#BF4765" opacity="1.000000" stroke="none" 
	d="
M622.120605,717.289124 
	C622.543762,717.247864 623.110107,717.469788 623.755615,718.003357 
	C623.311035,718.060791 622.787415,717.806519 622.120605,717.289124 
z"/>
<path fill="#BF4765" opacity="1.000000" stroke="none" 
	d="
M629.532593,785.725098 
	C629.501953,786.088257 629.216614,786.502502 628.660278,786.959229 
	C628.685425,786.593140 628.981628,786.184692 629.532593,785.725098 
z"/>
<path fill="#75B7B7" opacity="1.000000" stroke="none" 
	d="
M558.094055,786.693787 
	C557.913269,786.778931 557.600525,786.631653 557.155396,786.256714 
	C557.336060,786.173157 557.649048,786.317261 558.094055,786.693787 
z"/>
<path fill="#BF4765" opacity="1.000000" stroke="none" 
	d="
M630.520935,784.779419 
	C630.626831,785.041748 630.458618,785.374695 629.998108,785.755554 
	C629.886169,785.485657 630.066528,785.167908 630.520935,784.779419 
z"/>
<path fill="#BF4765" opacity="1.000000" stroke="none" 
	d="
M625.693115,720.291748 
	C625.771667,720.258911 625.830078,720.364380 625.840942,720.389893 
	C625.851807,720.415405 625.614563,720.324524 625.693115,720.291748 
z"/>
<path fill="#BF4765" opacity="1.000000" stroke="none" 
	d="
M619.590820,715.407166 
	C619.815857,715.306580 620.226807,715.473206 620.777344,715.949646 
	C620.536865,716.064453 620.156738,715.869385 619.590820,715.407166 
z"/>
<path fill="#BF4765" opacity="1.000000" stroke="none" 
	d="
M623.814575,718.460693 
	C624.069275,718.361389 624.409973,718.544861 624.831421,719.020020 
	C624.574890,719.122253 624.237732,718.932861 623.814575,718.460693 
z"/>
<path fill="#EE305D" opacity="1.000000" stroke="none" 
	d="
M378.682007,615.165955 
	C387.144470,617.144592 395.304230,619.277405 403.756714,621.677490 
	C401.934326,622.501770 399.819244,623.058838 397.301941,623.721863 
	C398.531097,625.584717 399.757446,627.443359 400.984741,629.674316 
	C398.135040,628.884521 395.284363,627.722473 392.208038,626.297241 
	C388.024353,623.685913 384.168304,621.134277 380.063782,619.078674 
	C378.118408,618.104431 375.875793,617.994446 378.682007,615.165955 
z"/>
<path fill="#EE305D" opacity="1.000000" stroke="none" 
	d="
M369.359009,613.937927 
	C369.041046,613.533875 369.015747,613.094788 368.989960,612.325439 
	C369.210175,612.631042 369.430939,613.266968 369.359009,613.937927 
z"/>
<path fill="#E4345E" opacity="1.000000" stroke="none" 
	d="
M368.588989,610.086243 
	C368.883331,610.121033 368.963074,610.559692 368.983521,610.781738 
	C368.284363,610.967041 367.564728,610.930237 366.845123,610.893433 
	C366.831909,610.709656 366.818665,610.525879 366.805450,610.342102 
	C367.301849,610.245239 367.798248,610.148315 368.588989,610.086243 
z"/>
</svg>