<svg version="1.1" id="Layer_1" xmlns="http://www.w3.org/2000/svg" xmlns:xlink="http://www.w3.org/1999/xlink" x="0px" y="0px"
	 width="100%" viewBox="0 0 193 262" enable-background="new 0 0 193 262" xml:space="preserve">
<path fill="#FEFEFE" opacity="1.000000" stroke="none" 
	d="
M97.000000,263.000000 
	C74.979103,263.000000 52.958210,263.000000 30.397278,262.539246 
	C29.857243,257.729309 29.857243,253.380096 29.857243,248.442673 
	C31.906178,249.568436 33.008175,250.278625 34.191319,250.807144 
	C42.409729,254.478455 51.670788,251.007812 55.094933,243.007401 
	C58.788601,234.377274 54.768742,224.266235 46.342178,220.991898 
	C37.890240,217.707672 28.520243,221.719025 25.645441,230.288467 
	C24.563732,233.512939 24.418762,237.129776 24.300512,240.583282 
	C24.044844,248.050201 24.082394,255.527145 24.000000,263.000000 
	C16.337372,263.000000 8.674744,263.000000 1.009086,263.000000 
	C1.006057,175.716705 1.006057,88.433411 1.006057,1.075058 
	C65.249336,1.075058 129.498779,1.075058 193.874115,1.075058 
	C193.874115,88.333221 193.874115,175.666580 193.874115,263.000000 
	C163.905807,263.000000 133.921555,263.000000 103.403839,262.538818 
	C102.870361,257.674774 102.870361,253.271912 102.870361,248.368179 
	C104.506287,249.263779 105.478760,249.831436 106.481468,250.339417 
	C113.402740,253.845856 121.140457,252.417587 125.874908,246.772766 
	C130.695633,241.025085 130.623459,231.578598 125.712982,225.577957 
	C121.116295,219.960770 112.972824,218.284561 106.300461,221.600586 
	C99.231987,225.113480 97.408714,231.426880 97.298843,238.614792 
	C97.174614,246.742813 97.097565,254.871567 97.000000,263.000000 
M166.739243,251.342285 
	C167.485916,251.263809 168.232574,251.185333 169.844147,250.816772 
	C169.844147,240.960236 169.844147,231.103699 169.844147,221.238892 
	C168.162720,221.238892 166.753998,221.238892 164.972168,221.238892 
	C164.972168,230.873505 164.957077,240.280228 165.016846,249.686462 
	C165.019821,250.155396 165.672913,250.620178 166.739243,251.342285 
M18.983963,54.572529 
	C3.105552,85.898514 4.294008,116.525391 22.569868,146.553528 
	C24.588402,149.870071 26.531191,150.469681 30.231976,149.201874 
	C89.639580,128.850113 129.346771,88.859550 150.109116,29.728563 
	C151.262482,26.443783 150.489380,24.994976 147.837036,23.371300 
	C131.922974,13.629252 115.288574,6.639014 96.021233,8.978758 
	C88.232155,9.924632 80.155708,9.749356 72.679817,11.798339 
	C49.107800,18.258924 31.572767,32.856380 18.983963,54.572529 
M175.252991,61.329044 
	C176.749786,74.320763 173.952103,86.457764 167.631989,97.771980 
	C157.215073,116.420319 140.172791,126.387451 120.434891,131.839691 
	C101.108368,137.178314 81.422073,141.203934 61.939800,145.993423 
	C51.050209,148.670502 40.254349,151.728882 29.115950,154.695419 
	C49.075535,181.149368 88.137024,193.181961 121.921288,183.803482 
	C157.028366,174.057800 182.275116,144.070938 186.803589,106.501915 
	C189.173035,86.844658 181.715546,58.919235 174.179367,54.147961 
	C174.516205,56.338108 174.834122,58.405056 175.252991,61.329044 
M92.061142,231.574356 
	C88.735184,222.805191 82.365616,218.693573 74.171814,220.026642 
	C67.042061,221.186569 61.403751,227.529236 60.976910,234.869858 
	C60.513386,242.841293 65.435822,249.819626 72.874069,251.735977 
	C79.682098,253.489960 87.040222,250.669876 89.938766,245.013306 
	C88.487175,244.291794 87.038002,243.571503 85.689270,242.901123 
	C77.657562,249.111099 70.627945,247.930740 67.228859,239.340469 
	C71.046028,239.340469 74.615280,239.456894 78.173424,239.307968 
	C81.780838,239.156967 85.399033,238.899841 88.972473,238.401932 
	C92.605301,237.895737 93.653755,235.700485 92.061142,231.574356 
M137.001785,249.820435 
	C142.287216,252.697769 147.757278,253.071884 153.264191,250.670853 
	C156.779022,249.138382 159.243713,246.035980 158.319855,242.425232 
	C157.609970,239.650818 155.078903,237.007797 152.714432,235.106262 
	C151.076202,233.788742 148.333328,233.869492 146.102646,233.257629 
	C143.285049,232.484756 139.385315,232.162033 140.324890,228.055786 
	C141.163437,224.391022 144.859253,224.825104 147.859329,225.063889 
	C148.811890,225.139694 149.887207,225.429565 150.637238,225.984940 
	C153.646194,228.212952 155.378143,226.639633 157.174805,224.007431 
	C152.293442,219.579239 146.812195,218.859467 140.939545,220.674683 
	C136.926178,221.915222 134.464478,224.892197 134.332230,229.111664 
	C134.199631,233.343201 137.062042,235.700104 140.739014,237.019180 
	C142.909836,237.797974 145.372925,237.893295 147.398926,238.906906 
	C149.338867,239.877487 150.883621,241.637955 152.602066,243.051270 
	C150.507355,244.341354 148.381332,246.727798 146.325134,246.669052 
	C143.098801,246.576904 139.919617,244.834839 136.300842,243.654663 
	C135.525757,244.371628 134.371933,245.438919 132.990158,246.717041 
	C134.344452,247.776886 135.373642,248.582321 137.001785,249.820435 
M166.798767,217.831055 
	C168.249496,216.642395 169.924164,215.617355 170.995407,214.151382 
	C171.267395,213.779175 169.756317,211.225403 168.821487,211.061691 
	C167.512680,210.832474 164.835281,211.780319 164.763641,212.443054 
	C164.589920,214.049774 165.583923,215.782730 166.798767,217.831055 
z"/>
<path fill="#0C5B93" opacity="1.000000" stroke="none" 
	d="
M24.428463,263.000000 
	C24.082394,255.527145 24.044844,248.050201 24.300512,240.583282 
	C24.418762,237.129776 24.563732,233.512939 25.645441,230.288467 
	C28.520243,221.719025 37.890240,217.707672 46.342178,220.991898 
	C54.768742,224.266235 58.788601,234.377274 55.094933,243.007401 
	C51.670788,251.007812 42.409729,254.478455 34.191319,250.807144 
	C33.008175,250.278625 31.906178,249.568436 29.857243,248.442673 
	C29.857243,253.380096 29.857243,257.729309 29.928621,262.539246 
	C28.285643,263.000000 26.571283,263.000000 24.428463,263.000000 
M50.435055,238.708038 
	C51.441078,229.855865 45.193245,223.413223 37.785988,225.664536 
	C32.566444,227.250916 29.592924,231.796600 30.018520,237.538803 
	C30.370686,242.290268 34.131592,246.292114 38.852417,246.938629 
	C44.226562,247.674622 47.783169,245.323608 50.435055,238.708038 
z"/>
<path fill="#0C5B93" opacity="1.000000" stroke="none" 
	d="
M97.428467,263.000000 
	C97.097565,254.871567 97.174614,246.742813 97.298843,238.614792 
	C97.408714,231.426880 99.231987,225.113480 106.300461,221.600586 
	C112.972824,218.284561 121.116295,219.960770 125.712982,225.577957 
	C130.623459,231.578598 130.695633,241.025085 125.874908,246.772766 
	C121.140457,252.417587 113.402740,253.845856 106.481468,250.339417 
	C105.478760,249.831436 104.506287,249.263779 102.870361,248.368179 
	C102.870361,253.271912 102.870361,257.674774 102.935181,262.538818 
	C101.285645,263.000000 99.571281,263.000000 97.428467,263.000000 
M117.183075,226.040909 
	C112.351456,224.168030 108.354912,225.559479 105.312561,229.481323 
	C102.436264,233.189102 101.969154,237.443802 104.241394,241.578186 
	C106.530487,245.743256 110.363701,247.555466 115.078079,246.905075 
	C119.693245,246.268402 122.328712,243.243301 123.515244,238.907440 
	C124.819168,234.142624 122.902992,229.943710 117.183075,226.040909 
z"/>
<path fill="#EB1D39" opacity="1.000000" stroke="none" 
	d="
M19.158939,54.246349 
	C31.572767,32.856380 49.107800,18.258924 72.679817,11.798339 
	C80.155708,9.749356 88.232155,9.924632 96.021233,8.978758 
	C115.288574,6.639014 131.922974,13.629252 147.837036,23.371300 
	C150.489380,24.994976 151.262482,26.443783 150.109116,29.728563 
	C129.346771,88.859550 89.639580,128.850113 30.231976,149.201874 
	C26.531191,150.469681 24.588402,149.870071 22.569868,146.553528 
	C4.294008,116.525391 3.105552,85.898514 19.158939,54.246349 
z"/>
<path fill="#025891" opacity="1.000000" stroke="none" 
	d="
M175.202515,60.900528 
	C174.834122,58.405056 174.516205,56.338108 174.179367,54.147961 
	C181.715546,58.919235 189.173035,86.844658 186.803589,106.501915 
	C182.275116,144.070938 157.028366,174.057800 121.921288,183.803482 
	C88.137024,193.181961 49.075535,181.149368 29.115950,154.695419 
	C40.254349,151.728882 51.050209,148.670502 61.939800,145.993423 
	C81.422073,141.203934 101.108368,137.178314 120.434891,131.839691 
	C140.172791,126.387451 157.215073,116.420319 167.631989,97.771980 
	C173.952103,86.457764 176.749786,74.320763 175.202515,60.900528 
z"/>
<path fill="#095992" opacity="1.000000" stroke="none" 
	d="
M92.133995,231.952240 
	C93.653755,235.700485 92.605301,237.895737 88.972473,238.401932 
	C85.399033,238.899841 81.780838,239.156967 78.173424,239.307968 
	C74.615280,239.456894 71.046028,239.340469 67.228859,239.340469 
	C70.627945,247.930740 77.657562,249.111099 85.689270,242.901123 
	C87.038002,243.571503 88.487175,244.291794 89.938766,245.013306 
	C87.040222,250.669876 79.682098,253.489960 72.874069,251.735977 
	C65.435822,249.819626 60.513386,242.841293 60.976910,234.869858 
	C61.403751,227.529236 67.042061,221.186569 74.171814,220.026642 
	C82.365616,218.693573 88.735184,222.805191 92.133995,231.952240 
M69.670784,228.085678 
	C68.391335,230.102371 67.111893,232.119049 65.900169,234.028992 
	C73.201973,234.028992 79.988991,234.028992 86.958794,234.028992 
	C84.559464,225.401367 77.983711,223.128677 69.670784,228.085678 
z"/>
<path fill="#085992" opacity="1.000000" stroke="none" 
	d="
M136.702316,249.604095 
	C135.373642,248.582321 134.344452,247.776886 132.990158,246.717041 
	C134.371933,245.438919 135.525757,244.371628 136.300842,243.654663 
	C139.919617,244.834839 143.098801,246.576904 146.325134,246.669052 
	C148.381332,246.727798 150.507355,244.341354 152.602051,243.051270 
	C150.883621,241.637955 149.338867,239.877487 147.398926,238.906906 
	C145.372925,237.893295 142.909836,237.797974 140.739014,237.019180 
	C137.062042,235.700104 134.199631,233.343201 134.332230,229.111664 
	C134.464478,224.892197 136.926178,221.915222 140.939545,220.674683 
	C146.812195,218.859467 152.293442,219.579239 157.174805,224.007431 
	C155.378143,226.639633 153.646194,228.212952 150.637238,225.984940 
	C149.887207,225.429565 148.811890,225.139694 147.859329,225.063889 
	C144.859253,224.825104 141.163437,224.391022 140.324890,228.055786 
	C139.385315,232.162033 143.285049,232.484756 146.102646,233.257629 
	C148.333328,233.869492 151.076202,233.788742 152.714432,235.106262 
	C155.078903,237.007797 157.609970,239.650818 158.319855,242.425232 
	C159.243713,246.035980 156.779022,249.138382 153.264191,250.670853 
	C147.757278,253.071884 142.287216,252.697769 136.702316,249.604095 
z"/>
<path fill="#005891" opacity="1.000000" stroke="none" 
	d="
M168.979248,251.106842 
	C168.232574,251.185333 167.485916,251.263809 166.374756,250.739838 
	C166.007263,245.321793 165.882172,240.502289 166.036758,235.691757 
	C166.181259,231.195007 165.348801,226.543533 166.595078,222.172806 
	C167.389801,222.204529 168.184525,222.236252 168.979248,222.267975 
	C168.979248,231.880936 168.979248,241.493881 168.979248,251.106842 
z"/>
<path fill="#004A8A" opacity="1.000000" stroke="none" 
	d="
M169.411697,250.961807 
	C168.979248,241.493881 168.979248,231.880936 168.979248,222.267975 
	C168.184525,222.236252 167.389801,222.204529 166.595078,222.172806 
	C165.348801,226.543533 166.181259,231.195007 166.036758,235.691757 
	C165.882172,240.502289 166.007263,245.321793 166.016785,250.612137 
	C165.672913,250.620178 165.019821,250.155396 165.016846,249.686462 
	C164.957077,240.280228 164.972168,230.873505 164.972168,221.238892 
	C166.753998,221.238892 168.162720,221.238892 169.844147,221.238892 
	C169.844147,231.103699 169.844147,240.960236 169.411697,250.961807 
z"/>
<path fill="#0A5992" opacity="1.000000" stroke="none" 
	d="
M166.453064,217.647949 
	C165.583923,215.782730 164.589920,214.049774 164.763641,212.443054 
	C164.835281,211.780319 167.512680,210.832474 168.821487,211.061691 
	C169.756317,211.225403 171.267395,213.779175 170.995407,214.151382 
	C169.924164,215.617355 168.249496,216.642395 166.453064,217.647949 
z"/>
<path fill="#F9FAFC" opacity="1.000000" stroke="none" 
	d="
M50.309910,239.077820 
	C47.783169,245.323608 44.226562,247.674622 38.852417,246.938629 
	C34.131592,246.292114 30.370686,242.290268 30.018520,237.538803 
	C29.592924,231.796600 32.566444,227.250916 37.785988,225.664536 
	C45.193245,223.413223 51.441078,229.855865 50.309910,239.077820 
z"/>
<path fill="#FAFBFC" opacity="1.000000" stroke="none" 
	d="
M117.544769,226.169281 
	C122.902992,229.943710 124.819168,234.142624 123.515244,238.907440 
	C122.328712,243.243301 119.693245,246.268402 115.078079,246.905075 
	C110.363701,247.555466 106.530487,245.743256 104.241394,241.578186 
	C101.969154,237.443802 102.436264,233.189102 105.312561,229.481323 
	C108.354912,225.559479 112.351456,224.168030 117.544769,226.169281 
z"/>
<path fill="#F6F8FA" opacity="1.000000" stroke="none" 
	d="
M69.960869,227.848389 
	C77.983711,223.128677 84.559464,225.401367 86.958794,234.028992 
	C79.988991,234.028992 73.201973,234.028992 65.900169,234.028992 
	C67.111893,232.119049 68.391335,230.102371 69.960869,227.848389 
z"/>
</svg>