<svg version="1.1" id="Layer_1" xmlns="http://www.w3.org/2000/svg" xmlns:xlink="http://www.w3.org/1999/xlink" x="0px" y="0px"
	 width="100%" viewBox="0 0 270 187" enable-background="new 0 0 270 187" xml:space="preserve">
<path fill="#FF0000" opacity="1.000000" stroke="none" 
	d="
M109.000000,1.000000 
	C111.041664,1.000000 113.083336,1.000000 115.744156,1.400252 
	C127.261894,1.871235 138.160461,1.959427 149.059082,1.968856 
	C149.705780,1.969416 150.353012,1.337566 151.000000,1.000000 
	C153.041672,1.000000 155.083328,1.000000 157.743851,1.398689 
	C159.688156,1.867910 161.013824,1.934798 162.339050,2.009516 
	C185.580795,3.319930 208.845718,4.319400 232.056305,6.048223 
	C248.502884,7.273235 260.018921,18.008118 263.090576,34.231705 
	C270.534576,73.548935 269.841522,112.993385 263.725159,152.354858 
	C260.761719,171.426132 249.972397,181.274002 230.661285,183.001846 
	C210.796890,184.779236 190.854630,185.682419 170.950104,187.022766 
	C169.617508,187.112518 168.315979,187.663528 167.000000,188.000000 
	C162.310745,188.000000 157.621490,188.000000 152.272385,187.607635 
	C144.545929,187.141724 137.478882,186.997894 130.413040,187.043228 
	C128.606720,187.054810 126.804245,187.664886 125.000000,188.000000 
	C119.977905,188.000000 114.955818,188.000000 109.296013,187.601654 
	C85.923157,185.810684 63.173309,184.619186 40.457664,182.959564 
	C23.328808,181.708115 11.614144,171.795258 8.222788,156.107697 
	C6.822251,149.629181 5.711789,143.041016 5.111763,136.444290 
	C2.148807,103.869362 2.341340,71.340691 6.972681,38.891960 
	C9.834823,18.838831 20.651157,7.795663 40.827686,6.108539 
	C62.361759,4.307898 83.966240,3.352251 105.536598,1.974665 
	C106.707047,1.899915 107.846252,1.336138 109.000000,1.000000 
M115.596207,57.895702 
	C113.915154,56.945232 112.234100,55.994759 110.309402,54.906528 
	C110.309402,81.489189 110.309402,107.599609 110.309402,134.209030 
	C133.484497,120.891830 156.207932,107.834167 179.396896,94.508995 
	C157.939087,82.152374 137.115662,70.161072 115.596207,57.895702 
z"/>
<path fill="#FFFAFA" opacity="1.000000" stroke="none" 
	d="
M167.468658,188.000000 
	C168.315979,187.663528 169.617508,187.112518 170.950104,187.022766 
	C190.854630,185.682419 210.796890,184.779236 230.661285,183.001846 
	C249.972397,181.274002 260.761719,171.426132 263.725159,152.354858 
	C269.841522,112.993385 270.534576,73.548935 263.090576,34.231705 
	C260.018921,18.008118 248.502884,7.273235 232.056305,6.048223 
	C208.845718,4.319400 185.580795,3.319930 162.339050,2.009516 
	C161.013824,1.934798 159.688156,1.867910 158.181351,1.398689 
	C195.625839,1.000000 233.251694,1.000000 270.938782,1.000000 
	C270.938782,63.224903 270.938782,125.449883 270.938782,188.000000 
	C236.646454,188.000000 202.291885,188.000000 167.468658,188.000000 
z"/>
<path fill="#FFFAFA" opacity="1.000000" stroke="none" 
	d="
M108.531342,1.000000 
	C107.846252,1.336138 106.707047,1.899915 105.536598,1.974665 
	C83.966240,3.352251 62.361759,4.307898 40.827686,6.108539 
	C20.651157,7.795663 9.834823,18.838831 6.972681,38.891960 
	C2.341340,71.340691 2.148807,103.869362 5.111763,136.444290 
	C5.711789,143.041016 6.822251,149.629181 8.222788,156.107697 
	C11.614144,171.795258 23.328808,181.708115 40.457664,182.959564 
	C63.173309,184.619186 85.923157,185.810684 108.829147,187.601654 
	C73.039108,188.000000 37.078217,188.000000 1.058663,188.000000 
	C1.058663,125.773537 1.058663,63.547009 1.058663,1.000000 
	C36.686920,1.000000 72.374802,1.000000 108.531342,1.000000 
z"/>
<path fill="#FFDBDB" opacity="1.000000" stroke="none" 
	d="
M150.531342,1.000000 
	C150.353012,1.337566 149.705780,1.969416 149.059082,1.968856 
	C138.160461,1.959427 127.261894,1.871235 116.181656,1.400252 
	C127.354225,1.000000 138.708450,1.000000 150.531342,1.000000 
z"/>
<path fill="#FFCDCD" opacity="1.000000" stroke="none" 
	d="
M125.468658,188.000000 
	C126.804245,187.664886 128.606720,187.054810 130.413040,187.043228 
	C137.478882,186.997894 144.545929,187.141724 151.806274,187.607635 
	C143.312439,188.000000 134.624878,188.000000 125.468658,188.000000 
z"/>
<path fill="#FFFDFD" opacity="1.000000" stroke="none" 
	d="
M115.944221,58.032738 
	C137.115662,70.161072 157.939087,82.152374 179.396896,94.508995 
	C156.207932,107.834167 133.484497,120.891830 110.309402,134.209030 
	C110.309402,107.599609 110.309402,81.489189 110.309402,54.906528 
	C112.234100,55.994759 113.915154,56.945232 115.944221,58.032738 
z"/>
</svg>