<svg version="1.1" id="Layer_1" xmlns="http://www.w3.org/2000/svg" xmlns:xlink="http://www.w3.org/1999/xlink" x="0px" y="0px"
	 width="100%" viewBox="0 0 225 225" enable-background="new 0 0 225 225" xml:space="preserve">
<path fill="#0153A0" opacity="1.000000" stroke="none" 
	d="
M122.000000,226.000000 
	C81.333336,226.000000 41.166672,226.000000 1.000005,226.000000 
	C1.000004,151.000000 1.000004,76.000015 1.000002,1.000015 
	C75.999992,1.000010 150.999985,1.000010 225.999969,1.000005 
	C225.999985,75.999985 225.999985,150.999969 226.000000,225.999969 
	C191.500000,226.000000 157.000000,226.000000 122.000000,226.000000 
M199.748383,67.328636 
	C199.563431,66.780342 199.378479,66.232048 199.177933,64.870079 
	C197.843567,54.328800 194.330322,44.581062 188.045776,35.995800 
	C180.875671,26.200771 170.858261,23.594679 160.037231,29.132774 
	C155.735703,31.334255 152.177139,34.987446 147.729111,38.403843 
	C139.834778,46.609497 137.384628,57.559357 133.042404,67.554405 
	C131.196426,71.803520 129.880463,76.375397 127.460121,80.262985 
	C122.600868,88.067986 113.585388,89.861160 106.370895,84.196960 
	C102.571701,81.214149 99.690041,76.940414 96.793427,72.959045 
	C92.513733,67.076653 88.589783,60.935444 84.192032,54.272362 
	C82.862404,52.790176 81.621635,51.215446 80.189445,49.840057 
	C65.228683,35.472610 48.405247,37.763992 38.068424,55.727680 
	C32.165886,65.985329 29.237242,77.172684 28.448181,89.750526 
	C26.657982,110.761055 31.389313,130.378784 41.654057,148.617004 
	C43.001877,151.011780 47.142990,153.855621 49.186058,153.335022 
	C51.841782,152.658295 54.340012,149.122635 55.675213,146.246140 
	C56.661655,144.120987 56.015503,141.014435 55.496902,138.467239 
	C54.737946,134.739502 53.485683,131.107697 52.367008,127.458511 
	C48.763931,115.705063 44.685516,104.037994 46.803143,91.127556 
	C47.192596,90.894295 47.582047,90.661041 48.661827,90.705841 
	C51.779732,93.374176 55.647972,95.531273 57.878155,98.804459 
	C65.262253,109.641922 71.994171,120.921371 79.089104,131.958740 
	C92.342186,152.576157 119.857948,154.730972 136.426697,136.650406 
	C143.129974,129.335480 145.901840,120.389931 147.985413,111.080009 
	C151.561737,95.100090 159.395065,82.125664 174.866211,73.792931 
	C175.922531,75.051262 177.805603,76.254448 177.893845,77.577354 
	C178.303223,83.714455 178.268997,89.884560 178.290802,96.043213 
	C178.317337,103.537422 177.930847,111.047630 178.307724,118.521431 
	C178.606842,124.452805 181.833755,128.237503 185.998871,128.975632 
	C190.611237,129.793045 195.340332,126.932625 197.804230,121.617424 
	C198.561844,119.983025 199.269424,118.142159 199.301056,116.383270 
	C199.572891,101.257660 199.684509,86.129173 199.994232,70.227226 
	C199.870972,69.453568 199.747711,68.679901 199.748383,67.328636 
M34.571518,197.181000 
	C34.571518,198.660675 34.571518,200.140366 34.571518,201.595673 
	C38.874245,201.856155 38.927216,201.857010 38.982079,198.448151 
	C39.043739,194.617081 39.003677,190.784256 38.995197,186.952209 
	C38.989494,184.375687 38.819050,181.672363 42.603378,181.776199 
	C46.308910,181.877869 46.040413,184.696518 46.079124,187.139633 
	C46.155228,191.941803 46.101521,196.746017 46.101521,201.993912 
	C47.886765,201.847931 49.212749,201.739502 50.723263,201.615997 
	C50.723263,196.149033 50.461906,191.140472 50.877838,186.188828 
	C51.007580,184.644241 52.748547,182.310974 54.135441,181.988602 
	C57.010902,181.320206 58.081104,183.399399 58.008480,186.259262 
	C57.878044,191.395386 57.971664,196.537216 57.971664,201.961060 
	C59.611233,201.865540 60.835705,201.794205 62.349728,201.706009 
	C62.349728,195.933334 62.457867,190.446045 62.320011,184.964920 
	C62.175442,179.216858 57.705891,176.200974 51.983559,177.443466 
	C49.773453,177.923340 47.280613,178.019272 45.094677,177.516235 
	C39.072651,176.130402 34.723507,179.135345 34.587849,185.254852 
	C34.506630,188.918503 34.572014,192.585403 34.571518,197.181000 
M171.031754,178.023621 
	C168.265472,178.023621 165.499191,178.023621 162.958298,178.023621 
	C161.516525,182.928360 164.464523,182.369690 166.984467,182.395950 
	C173.045990,182.459122 173.586014,182.787155 174.654922,186.979294 
	C172.108795,186.979294 169.616547,186.891434 167.132706,186.998489 
	C162.638763,187.192169 159.247391,190.146912 159.059433,194.235626 
	C158.850845,198.773331 161.356873,201.697632 165.670700,202.162735 
	C170.302841,202.662125 175.030518,202.275467 179.581726,202.275467 
	C179.860291,200.916626 180.037857,200.444565 180.041336,199.971237 
	C180.069595,196.141434 180.156113,192.308838 180.049423,188.481995 
	C179.888855,182.722076 177.678543,179.991821 171.031754,178.023621 
M81.850151,201.678207 
	C86.890541,197.273788 89.062248,188.312836 85.494362,182.825699 
	C83.827866,180.262741 80.409622,178.090164 77.386963,177.334717 
	C72.949883,176.225784 68.898697,178.062149 66.597076,182.488525 
	C64.135536,187.222458 64.689140,196.062378 67.863991,199.559341 
	C71.605087,203.679977 76.246216,203.660522 81.850151,201.678207 
M130.602356,178.022476 
	C129.604462,178.023239 128.604538,177.982819 127.609024,178.031799 
	C123.014862,178.257904 120.108925,180.926697 120.070908,184.923187 
	C120.032494,188.960663 122.916054,191.656219 127.545708,191.864532 
	C128.873672,191.924286 130.364120,191.501083 131.498825,191.974030 
	C133.088791,192.636749 134.415527,193.930969 135.854858,194.955048 
	C134.455460,195.853470 133.125412,197.358109 131.642624,197.527756 
	C128.253784,197.915558 124.790237,197.650314 121.274696,197.650314 
	C121.274696,199.374496 121.274696,200.480270 121.274696,201.779709 
	C122.423851,201.861633 123.399300,201.984024 124.375565,201.990921 
	C127.368950,202.012070 130.374756,202.157150 133.353363,201.943008 
	C137.667694,201.632828 140.058426,199.011337 140.130630,194.801559 
	C140.199661,190.776962 137.803757,188.352753 133.874863,187.619492 
	C132.584778,187.378723 131.137619,187.802521 129.913223,187.428421 
	C128.090302,186.871445 126.401428,185.875854 124.655510,185.066910 
	C126.487076,184.170883 128.238708,182.850769 130.170532,182.486710 
	C132.561157,182.036148 135.101303,182.378860 137.746170,182.378860 
	C137.746170,180.759155 137.746170,179.549347 137.746170,178.022461 
	C135.475311,178.022461 133.497482,178.022461 130.602356,178.022476 
M91.102509,192.395752 
	C92.476578,195.208466 93.407150,198.379593 95.325005,200.752869 
	C98.479782,204.656799 102.993538,203.881256 104.689331,199.198776 
	C107.153816,192.393784 109.136093,185.414169 111.382591,178.324051 
	C108.371933,177.693222 106.696594,177.840408 105.836250,181.046707 
	C104.258179,186.927795 102.092392,192.651199 99.772270,199.644043 
	C98.150276,196.944260 96.817238,195.428635 96.266930,193.668289 
	C94.979668,189.550629 93.850029,185.355423 93.074738,181.115143 
	C92.480759,177.866562 90.901466,177.489975 87.804138,178.560135 
	C88.877289,182.973251 89.926971,187.289841 91.102509,192.395752 
M154.338531,178.009048 
	C149.903610,178.009048 145.468689,178.009048 141.061081,178.009048 
	C139.480804,184.586288 145.054977,181.248703 146.814819,182.987686 
	C146.910385,183.246811 147.119415,183.554703 147.123856,183.865540 
	C147.168884,187.021744 147.160355,190.178711 147.205719,193.334915 
	C147.303513,200.136688 149.822800,202.321930 157.431366,201.056229 
	C156.654312,199.609665 155.407578,198.640289 154.304138,197.528656 
	C153.368805,196.586411 151.955231,195.528839 151.872025,194.437027 
	C151.575455,190.545364 151.756104,186.617340 151.756104,182.638550 
	C154.873322,182.446945 157.298508,182.297867 159.840240,182.141647 
	C159.840240,180.677856 159.840240,179.562210 159.840240,178.009033 
	C158.217484,178.009033 156.751205,178.009033 154.338531,178.009048 
M185.431458,179.887787 
	C184.514359,181.943130 182.966202,183.950516 182.805679,186.063339 
	C182.418503,191.159241 182.680161,196.304428 182.680161,201.711319 
	C184.180679,201.788559 185.400208,201.851334 187.016785,201.934540 
	C187.016785,197.202560 187.182175,192.742996 186.971756,188.301254 
	C186.746887,183.554504 188.951065,181.782181 193.486038,181.678314 
	C194.846085,181.647156 196.174118,180.218597 197.516830,179.430222 
	C197.134537,178.560928 196.752243,177.691650 196.369965,176.822372 
	C192.916260,177.673950 189.462570,178.525528 185.431458,179.887787 
M113.430954,197.208282 
	C113.497368,198.675552 113.563782,200.142822 113.639236,201.809937 
	C115.138611,201.809937 116.381691,201.809937 117.827301,201.809937 
	C117.827301,193.899384 117.827301,186.166306 117.827301,178.002716 
	C116.273102,178.149017 114.964905,178.272186 113.430908,178.416595 
	C113.430908,184.686295 113.430908,190.476761 113.430954,197.208282 
z"/>
<path fill="#A5CD3A" opacity="1.000000" stroke="none" 
	d="
M84.514351,54.904446 
	C88.589783,60.935444 92.513733,67.076653 96.793427,72.959045 
	C99.690041,76.940414 102.571701,81.214149 106.370895,84.196960 
	C113.585388,89.861160 122.600868,88.067986 127.460121,80.262985 
	C129.880463,76.375397 131.196426,71.803520 133.042404,67.554405 
	C137.384628,57.559357 139.834778,46.609497 148.372070,38.216148 
	C164.877625,40.830650 174.771729,57.644073 175.697815,72.087379 
	C174.945847,72.735428 174.472778,73.302795 173.999710,73.870163 
	C159.395065,82.125664 151.561737,95.100090 147.985413,111.080009 
	C145.901840,120.389931 143.129974,129.335480 136.426697,136.650406 
	C119.857948,154.730972 92.342186,152.576157 79.089104,131.958740 
	C71.994171,120.921371 65.262253,109.641922 57.878155,98.804459 
	C55.647972,95.531273 51.779732,93.374176 48.312744,90.161835 
	C48.172298,87.307526 48.120876,84.938019 48.631203,82.696404 
	C52.319149,66.497101 65.086037,56.659828 84.514351,54.904446 
z"/>
<path fill="#C1D836" opacity="1.000000" stroke="none" 
	d="
M84.353195,54.588402 
	C65.086037,56.659828 52.319149,66.497101 48.631203,82.696404 
	C48.120876,84.938019 48.172298,87.307526 47.967579,90.022797 
	C47.582047,90.661041 47.192596,90.894295 46.262970,90.967438 
	C40.490337,86.273071 34.728779,86.698792 28.767303,88.998596 
	C29.237242,77.172684 32.165886,65.985329 38.068424,55.727680 
	C48.405247,37.763992 65.228683,35.472610 80.189445,49.840057 
	C81.621635,51.215446 82.862404,52.790176 84.353195,54.588402 
z"/>
<path fill="#C1D836" opacity="1.000000" stroke="none" 
	d="
M175.976746,72.006699 
	C174.771729,57.644073 164.877625,40.830650 148.647690,38.004093 
	C152.177139,34.987446 155.735703,31.334255 160.037231,29.132774 
	C170.858261,23.594679 180.875671,26.200771 188.045776,35.995800 
	C194.330322,44.581062 197.843567,54.328800 199.143753,65.567001 
	C199.281204,66.811363 199.452835,67.358803 199.624451,67.906235 
	C199.747711,68.679901 199.870972,69.453568 199.512451,70.596382 
	C194.192780,71.097519 189.352966,71.181961 184.517746,71.379486 
	C181.666962,71.495941 178.823502,71.791618 175.976746,72.006699 
z"/>
<path fill="#A4CC3B" opacity="1.000000" stroke="none" 
	d="
M175.697815,72.087379 
	C178.823502,71.791618 181.666962,71.495941 184.517746,71.379486 
	C189.352966,71.181961 194.192780,71.097519 199.437317,70.983536 
	C199.684509,86.129173 199.572891,101.257660 199.301056,116.383270 
	C199.269424,118.142159 198.561844,119.983025 197.804230,121.617424 
	C195.340332,126.932625 190.611237,129.793045 185.998871,128.975632 
	C181.833755,128.237503 178.606842,124.452805 178.307724,118.521431 
	C177.930847,111.047630 178.317337,103.537422 178.290802,96.043213 
	C178.268997,89.884560 178.303223,83.714455 177.893845,77.577354 
	C177.805603,76.254448 175.922531,75.051262 174.432953,73.831551 
	C174.472778,73.302795 174.945847,72.735428 175.697815,72.087379 
z"/>
<path fill="#A4CC3B" opacity="1.000000" stroke="none" 
	d="
M28.607742,89.374557 
	C34.728779,86.698792 40.490337,86.273071 45.953617,91.109253 
	C44.685516,104.037994 48.763931,115.705063 52.367008,127.458511 
	C53.485683,131.107697 54.737946,134.739502 55.496902,138.467239 
	C56.015503,141.014435 56.661655,144.120987 55.675213,146.246140 
	C54.340012,149.122635 51.841782,152.658295 49.186058,153.335022 
	C47.142990,153.855621 43.001877,151.011780 41.654057,148.617004 
	C31.389313,130.378784 26.657982,110.761055 28.607742,89.374557 
z"/>
<path fill="#EEF2F8" opacity="1.000000" stroke="none" 
	d="
M34.571510,196.715927 
	C34.572014,192.585403 34.506630,188.918503 34.587849,185.254852 
	C34.723507,179.135345 39.072651,176.130402 45.094677,177.516235 
	C47.280613,178.019272 49.773453,177.923340 51.983559,177.443466 
	C57.705891,176.200974 62.175442,179.216858 62.320011,184.964920 
	C62.457867,190.446045 62.349728,195.933334 62.349728,201.706009 
	C60.835705,201.794205 59.611233,201.865540 57.971664,201.961060 
	C57.971664,196.537216 57.878044,191.395386 58.008480,186.259262 
	C58.081104,183.399399 57.010902,181.320206 54.135441,181.988602 
	C52.748547,182.310974 51.007580,184.644241 50.877838,186.188828 
	C50.461906,191.140472 50.723263,196.149033 50.723263,201.615997 
	C49.212749,201.739502 47.886765,201.847931 46.101521,201.993912 
	C46.101521,196.746017 46.155228,191.941803 46.079124,187.139633 
	C46.040413,184.696518 46.308910,181.877869 42.603378,181.776199 
	C38.819050,181.672363 38.989494,184.375687 38.995197,186.952209 
	C39.003677,190.784256 39.043739,194.617081 38.982079,198.448151 
	C38.927216,201.857010 38.874245,201.856155 34.571518,201.595673 
	C34.571518,200.140366 34.571518,198.660675 34.571510,196.715927 
z"/>
<path fill="#F1F4F9" opacity="1.000000" stroke="none" 
	d="
M171.454102,178.046204 
	C177.678543,179.991821 179.888855,182.722076 180.049423,188.481995 
	C180.156113,192.308838 180.069595,196.141434 180.041336,199.971237 
	C180.037857,200.444565 179.860291,200.916626 179.581726,202.275467 
	C175.030518,202.275467 170.302841,202.662125 165.670700,202.162735 
	C161.356873,201.697632 158.850845,198.773331 159.059433,194.235626 
	C159.247391,190.146912 162.638763,187.192169 167.132706,186.998489 
	C169.616547,186.891434 172.108795,186.979294 174.654922,186.979294 
	C173.586014,182.787155 173.045990,182.459122 166.984467,182.395950 
	C164.464523,182.369690 161.516525,182.928360 162.958298,178.023621 
	C165.499191,178.023621 168.265472,178.023621 171.454102,178.046204 
M163.571762,193.841690 
	C164.401703,197.948471 166.980927,199.461868 171.372894,198.450195 
	C175.378326,197.527557 176.158142,195.085449 174.561783,190.498138 
	C170.936462,191.409454 167.433853,192.289932 163.571762,193.841690 
z"/>
<path fill="#ECF0F7" opacity="1.000000" stroke="none" 
	d="
M81.485886,201.830933 
	C76.246216,203.660522 71.605087,203.679977 67.863991,199.559341 
	C64.689140,196.062378 64.135536,187.222458 66.597076,182.488525 
	C68.898697,178.062149 72.949883,176.225784 77.386963,177.334717 
	C80.409622,178.090164 83.827866,180.262741 85.494362,182.825699 
	C89.062248,188.312836 86.890541,197.273788 81.485886,201.830933 
M73.087700,182.114807 
	C68.238495,184.748932 69.906982,189.395111 70.136452,193.237549 
	C70.241280,194.992859 72.408401,197.731262 74.005409,198.022751 
	C76.205711,198.424332 80.420349,197.454102 80.829636,196.148865 
	C81.951324,192.571747 82.310608,188.305756 81.360817,184.741776 
	C80.959351,183.235352 76.521774,182.804535 73.087700,182.114807 
z"/>
<path fill="#F3F5FA" opacity="1.000000" stroke="none" 
	d="
M131.061005,178.022461 
	C133.497482,178.022461 135.475311,178.022461 137.746170,178.022461 
	C137.746170,179.549347 137.746170,180.759155 137.746170,182.378860 
	C135.101303,182.378860 132.561157,182.036148 130.170532,182.486710 
	C128.238708,182.850769 126.487076,184.170883 124.655510,185.066910 
	C126.401428,185.875854 128.090302,186.871445 129.913223,187.428421 
	C131.137619,187.802521 132.584778,187.378723 133.874863,187.619492 
	C137.803757,188.352753 140.199661,190.776962 140.130630,194.801559 
	C140.058426,199.011337 137.667694,201.632828 133.353363,201.943008 
	C130.374756,202.157150 127.368950,202.012070 124.375565,201.990921 
	C123.399300,201.984024 122.423851,201.861633 121.274696,201.779709 
	C121.274696,200.480270 121.274696,199.374496 121.274696,197.650314 
	C124.790237,197.650314 128.253784,197.915558 131.642624,197.527756 
	C133.125412,197.358109 134.455460,195.853470 135.854858,194.955048 
	C134.415527,193.930969 133.088791,192.636749 131.498825,191.974030 
	C130.364120,191.501083 128.873672,191.924286 127.545708,191.864532 
	C122.916054,191.656219 120.032494,188.960663 120.070908,184.923187 
	C120.108925,180.926697 123.014862,178.257904 127.609024,178.031799 
	C128.604538,177.982819 129.604462,178.023239 131.061005,178.022461 
z"/>
<path fill="#F0F3F9" opacity="1.000000" stroke="none" 
	d="
M91.039581,192.001099 
	C89.926971,187.289841 88.877289,182.973251 87.804138,178.560135 
	C90.901466,177.489975 92.480759,177.866562 93.074738,181.115143 
	C93.850029,185.355423 94.979668,189.550629 96.266930,193.668289 
	C96.817238,195.428635 98.150276,196.944260 99.772270,199.644043 
	C102.092392,192.651199 104.258179,186.927795 105.836250,181.046707 
	C106.696594,177.840408 108.371933,177.693222 111.382591,178.324051 
	C109.136093,185.414169 107.153816,192.393784 104.689331,199.198776 
	C102.993538,203.881256 98.479782,204.656799 95.325005,200.752869 
	C93.407150,198.379593 92.476578,195.208466 91.039581,192.001099 
z"/>
<path fill="#EDF0F7" opacity="1.000000" stroke="none" 
	d="
M154.811722,178.009033 
	C156.751205,178.009033 158.217484,178.009033 159.840240,178.009033 
	C159.840240,179.562210 159.840240,180.677856 159.840240,182.141647 
	C157.298508,182.297867 154.873322,182.446945 151.756104,182.638550 
	C151.756104,186.617340 151.575455,190.545364 151.872025,194.437027 
	C151.955231,195.528839 153.368805,196.586411 154.304138,197.528656 
	C155.407578,198.640289 156.654312,199.609665 157.431366,201.056229 
	C149.822800,202.321930 147.303513,200.136688 147.205719,193.334915 
	C147.160355,190.178711 147.168884,187.021744 147.123856,183.865540 
	C147.119415,183.554703 146.910385,183.246811 146.814819,182.987686 
	C145.054977,181.248703 139.480804,184.586288 141.061081,178.009048 
	C145.468689,178.009048 149.903610,178.009048 154.811722,178.009033 
z"/>
<path fill="#F4F6FB" opacity="1.000000" stroke="none" 
	d="
M185.720154,179.632446 
	C189.462570,178.525528 192.916260,177.673950 196.369965,176.822372 
	C196.752243,177.691650 197.134537,178.560928 197.516830,179.430222 
	C196.174118,180.218597 194.846085,181.647156 193.486038,181.678314 
	C188.951065,181.782181 186.746887,183.554504 186.971756,188.301254 
	C187.182175,192.742996 187.016785,197.202560 187.016785,201.934540 
	C185.400208,201.851334 184.180679,201.788559 182.680161,201.711319 
	C182.680161,196.304428 182.418503,191.159241 182.805679,186.063339 
	C182.966202,183.950516 184.514359,181.943130 185.720154,179.632446 
z"/>
<path fill="#E4E9F3" opacity="1.000000" stroke="none" 
	d="
M113.430931,196.737762 
	C113.430908,190.476761 113.430908,184.686295 113.430908,178.416595 
	C114.964905,178.272186 116.273102,178.149017 117.827301,178.002716 
	C117.827301,186.166306 117.827301,193.899384 117.827301,201.809937 
	C116.381691,201.809937 115.138611,201.809937 113.639236,201.809937 
	C113.563782,200.142822 113.497368,198.675552 113.430931,196.737762 
z"/>
<path fill="#A4CC3B" opacity="1.000000" stroke="none" 
	d="
M199.686432,67.617432 
	C199.452835,67.358803 199.281204,66.811363 199.151550,65.973839 
	C199.378479,66.232048 199.563431,66.780342 199.686432,67.617432 
z"/>
<path fill="#1C5EA6" opacity="1.000000" stroke="none" 
	d="
M163.751495,193.506058 
	C167.433853,192.289932 170.936462,191.409454 174.561783,190.498138 
	C176.158142,195.085449 175.378326,197.527557 171.372894,198.450195 
	C166.980927,199.461868 164.401703,197.948471 163.751495,193.506058 
z"/>
<path fill="#0855A1" opacity="1.000000" stroke="none" 
	d="
M73.503220,181.999817 
	C76.521774,182.804535 80.959351,183.235352 81.360817,184.741776 
	C82.310608,188.305756 81.951324,192.571747 80.829636,196.148865 
	C80.420349,197.454102 76.205711,198.424332 74.005409,198.022751 
	C72.408401,197.731262 70.241280,194.992859 70.136452,193.237549 
	C69.906982,189.395111 68.238495,184.748932 73.503220,181.999817 
z"/>
</svg>