<svg enable-background="new 0 0 1600 1200" viewBox="0 0 1600 1200" xmlns="http://www.w3.org/2000/svg"><path d="m372.9 1005.4h289 81.7c1.9 0 1.9-3 0-3-96.3 0-192.7 0-289 0-27.2 0-54.5 0-81.7 0-1.9 0-1.9 3 0 3z" fill="#e8e8e8"/><path d="m763 1005.4h295.1 83.7c1.9 0 1.9-3 0-3-98.4 0-196.7 0-295.1 0-27.9 0-55.8 0-83.7 0-1.9 0-1.9 3 0 3z" fill="#e8e8e8"/><path d="m834.3 1032.9h231.5c1.9 0 1.9-3 0-3-77.2 0-154.3 0-231.5 0-2 0-2 3 0 3z" fill="#e8e8e8"/><path d="m596.3 1039.4h134.4c1.9 0 1.9-3 0-3-44.8 0-89.6 0-134.4 0-1.9 0-1.9 3 0 3z" fill="#e8e8e8"/><path d="m1193.6 1003.8h106.8c1.9 0 1.9-3 0-3-35.6 0-71.2 0-106.8 0-1.9 0-1.9 3 0 3z" fill="#e8e8e8"/><path d="m415 814.7c12.8 22.3 15.5 49.2 7.5 73.6-.3.8.3 1.6 1 1.8 3 1 6.1 2.3 8.2 4.6 2.7 3 3.3 9-1.3 10.8-.9.4-1.7 1.7-.7 2.5 7.8 6.1 8.7 16.3 9.3 25.5.6 9.1 1.5 18.1 3.7 26.9 4.3 17 12.7 32.8 26.8 43.5 1.5 1.2 3-1.4 1.5-2.6-15.6-11.8-23.6-30.3-27-49.1-2.7-14.6.9-36-12.3-46.3-.2.8-.4 1.7-.7 2.5 4.2-1.7 6.3-6 5.4-10.5-1.2-5.9-7.1-9-12.4-10.7.3.6.7 1.2 1 1.8 8.3-25.2 5.4-53-7.8-75.9-.6-1.6-3.2-.1-2.2 1.6z" fill="#e8e8e8"/><path d="m415.9 812.3c20.4 12.5 36.7 30.1 50.1 49.7 6.5 9.4 12.4 19.3 17.9 29.3 4.6 8.4 15.1 23.4 6.4 32.3-.8.8-.4 2.2.7 2.5 6.8 1.8 9.6 9.5 12.1 15.4 2.6 6.2 4.7 12.6 6.3 19.1 3.4 13.5 4.8 27.4 4.2 41.3-.1 1.9 2.9 1.9 3 0 .6-16-1.2-32-5.8-47.4-2.1-7-4.6-13.9-7.8-20.4-2.4-4.9-5.7-9.4-11.2-10.9.2.8.4 1.7.7 2.5 7.4-7.5 3.3-18.5-.9-26.6-6.1-11.9-12.8-23.5-20.2-34.6-14.3-21.6-31.7-41.2-54-54.8-1.6-1-3.1 1.6-1.5 2.6z" fill="#e8e8e8"/><path d="m417.3 813.2c45.6 52.9 74.6 119.2 82.4 188.6.2 1.9 3.2 1.9 3 0-6.2-54.7-25.3-107.8-55.5-153.8-8.5-12.9-17.8-25.2-27.9-36.9-1.2-1.5-3.3.7-2 2.1z" fill="#e8e8e8"/><path d="m425.9 884.2c25.1 10.9 46.2 29.2 60.5 52.5 1 1.6 3.6.1 2.6-1.5-14.5-23.7-36-42.5-61.6-53.6-1.7-.7-3.2 1.8-1.5 2.6z" fill="#e8e8e8"/><path d="m465.4 859.7c.8 10.6 2 21 3.9 31.5.3 1.9 3.2 1.1 2.9-.8-1.8-10.2-3-20.4-3.8-30.7-.2-1.9-3.2-1.9-3 0z" fill="#e8e8e8"/><path d="m439.4 939.2c23.1 10.4 43.3 26.5 58.5 46.8 1.1 1.5 3.7 0 2.6-1.5-15.5-20.7-35.9-37.2-59.6-47.9-1.7-.7-3.2 1.8-1.5 2.6z" fill="#e8e8e8"/><path d="m479.3 876.7c-.3-24.6 3.6-49 11.4-72.3-.7.3-1.5.6-2.2.9 1.8.9 3.5 1.8 5.3 2.6 1 .5 2.2-.1 2.3-1.3.4-15.2 4.8-29.7 13-42.5-.9-.1-1.8-.2-2.7-.4 6.8 19.4 13.6 38.7 20.4 58.1 3.3 9.4 6.6 18.7 9.9 28.1 2.5 7.1 12.8 27.4-.3 29.6-1.2.2-1.4 1.8-.7 2.5 6.9 7.4 9.5 17.3 10.8 27.1 1.3 10.1 1.5 20.3 1.1 30.4-.9 21.2-5.3 42-12.9 61.8-.7 1.8 2.2 2.6 2.9.8 8.1-21.1 12.6-43.6 13.1-66.2.4-18.3.5-41.7-12.9-55.9-.2.8-.4 1.7-.7 2.5 7.7-1.3 9.6-9.5 8.2-16.2-2.5-11.5-7.8-22.9-11.7-34-8.1-23.1-16.3-46.2-24.4-69.4-.4-1.2-2-1.5-2.7-.4-8.5 13.2-13.1 28.3-13.4 44 .8-.4 1.5-.9 2.3-1.3-1.8-.9-3.5-1.8-5.3-2.6-.9-.5-1.9-.1-2.2.9-7.9 23.6-11.8 48.2-11.5 73.1-.1 2 2.9 2 2.9.1z" fill="#e8e8e8"/><path d="m503.5 766.8c15.7 77.9 5 158 17.9 236.2.3 1.9 3.2 1.1 2.9-.8-12.8-78.2-2.1-158.4-17.9-236.2-.4-1.9-3.3-1.1-2.9.8z" fill="#e8e8e8"/><path d="m480.9 830.5c5.9 28.6 19 54.8 32 80.8.9 1.7 3.5.2 2.6-1.5-12.9-25.7-25.8-51.7-31.7-80-.4-2-3.3-1.2-2.9.7z" fill="#e8e8e8"/><path d="m531.1 830.9c-7.3 13.8-13.2 28.3-17.8 43.2-.6 1.8 2.3 2.6 2.9.8 4.5-14.7 10.4-28.9 17.5-42.5.9-1.7-1.7-3.2-2.6-1.5z" fill="#e8e8e8"/><path d="m973.7 1001.3c2.9-25.1 5.8-50.2 8.7-75.3-.5.5-1 1-1.5 1.5 3-.2 5.3.4 7.8 2.3 1 .8 2.5.3 2.6-1.1.3-5.5.5-10.9.8-16.4-.6.5-1.3 1-1.9 1.4 7.3 1.3 11.2-5.5 13.9-11.1 4.1-8.6 9.3-16.1 15.3-23.4 10.9-13.2 23.3-26.1 27.4-43.3-1 0-1.9 0-2.9 0 5.6 17.7 11.4 35.7 12.3 54.4.7 14.4-.9 35.3-16.7 41.5-.9.4-1.4 1.3-.9 2.2 8.7 16.2-14 27.2-23.9 35.2-11.1 9-20.2 20.2-27 32.7-.9 1.7 1.7 3.2 2.6 1.5 8.7-15.9 20.8-28.4 35.6-38.7 10.2-7.1 22.5-18.7 15.3-32.2-.3.7-.6 1.5-.9 2.2 14.6-5.8 18.6-22.7 19-36.9.5-21.5-6.1-42.4-12.5-62.7-.4-1.4-2.5-1.5-2.9 0-3.7 15.7-14.7 27.7-24.8 39.7-4.7 5.6-9.3 11.3-13.1 17.5-3.1 5.2-7.2 19.9-15.1 18.5-1-.2-1.8.4-1.9 1.4-.3 5.5-.5 10.9-.8 16.4.9-.4 1.7-.7 2.6-1.1-3-2.4-6.1-3.4-10-3.2-.9.1-1.4.6-1.5 1.5-2.9 25.1-5.8 50.2-8.7 75.3-.1 2.1 2.9 2.1 3.1.2z" fill="#e8e8e8"/><path d="m1043.8 839.9c-1.7 28.4-7 57.3-22.2 81.8-7.4 12-17.2 22.5-25.1 34.2-7.6 11.2-13.3 23.5-17.3 36.4-.6 1.8 2.3 2.6 2.9.8 4.4-14.1 10.9-27.3 19.5-39.3 8.4-11.7 18.1-22.4 25.2-35 13.4-24 18.3-51.7 19.9-78.9.2-1.9-2.8-1.9-2.9 0z" fill="#e8e8e8"/><path d="m1010.7 887.8c.2 14 2.3 27.8 6.4 41.2.6 1.8 3.5 1.1 2.9-.8-4-13.1-6.1-26.6-6.3-40.4-.1-1.9-3.1-2-3 0z" fill="#e8e8e8"/><path d="m1036.2 897.6c7.9-3.7 14.9-8.8 20.9-15.1 1.3-1.4-.8-3.5-2.1-2.1-5.9 6.1-12.6 11-20.3 14.6-1.8.8-.2 3.4 1.5 2.6z" fill="#e8e8e8"/><path d="m1025.3 1002.1c-.9-11-2.1-22-3.5-32.9-.2-1.9-3.3-1.9-3 0 1.4 10.9 2.6 21.9 3.5 32.9.1 1.9 3.1 1.9 3 0z" fill="#e8e8e8"/><path d="m1059.9 878.9c10.9-20.6 20.2-42.1 27.8-64.2-1 0-1.9 0-2.9 0 5.7 23.3 11.3 46.6 17 69.9.3-.6.7-1.2 1-1.8-4 1.2-8 2.4-12 3.6-.7.2-1.1.8-1.1 1.4-.2 2.4 1.1 3.8 2.9 5.2 4.2 3.5 5.3 6.3 5 11.8-.3 5-.8 9.9-1.2 14.8-.3 3.8-.1 13.6-6 13.3-.9 0-1.8 1-1.4 1.9 4.5 12.5-.5 25.4-6.4 36.5-5.8 10.9-12.9 21-21.1 30.3-1.3 1.4.8 3.6 2.1 2.1 9.1-10.3 17-21.7 23.2-34 5.5-11 9.5-23.6 5.2-35.7-.5.6-1 1.3-1.4 1.9 9.4.5 8.8-14 9.3-20 .4-5.5 1.6-11.5.7-17-.3-1.8-.9-3.5-2-4.9-1.5-1.9-5.8-3.6-5.6-6.2-.4.5-.7 1-1.1 1.4 4-1.2 8-2.4 12-3.6.8-.2 1.2-1 1-1.8-5.7-23.3-11.3-46.6-17-69.9-.4-1.5-2.4-1.3-2.9 0-7.5 21.9-16.6 43-27.5 63.5-1.1 1.7 1.5 3.2 2.4 1.5z" fill="#e8e8e8"/><path d="m1083.8 821.2c9.4 59.9-32.6 111.4-43.4 168-.4 1.9 2.5 2.7 2.9.8 10.9-57.3 52.9-108.9 43.4-169.6-.3-1.9-3.2-1.1-2.9.8z" fill="#e8e8e8"/><path d="m1063.4 864.3c2.3 11.9 4.5 23.8 6.8 35.8.4 1.9 3.3 1.1 2.9-.8-2.3-11.9-4.5-23.8-6.8-35.8-.4-1.9-3.2-1.1-2.9.8z" fill="#e8e8e8"/><path d="m1081.6 879.6c4.6-6.7 9.8-12.9 15.5-18.7 1.4-1.4-.8-3.5-2.1-2.1-5.9 5.9-11.2 12.4-16 19.3-1.1 1.6 1.5 3.1 2.6 1.5z" fill="#e8e8e8"/><path d="m274.5 722c73.6-16.2 150.8-14.3 223.5 5.7 37.1 10.2 72.1 26.1 107.9 40.1 35.3 13.8 71.4 25.3 108.2 34.5 41.1 10.3 82.9 17.7 125.1 22.2 1.9.2 1.9-2.8 0-3-76.4-8.2-151.8-26.1-223.7-53.3-36.3-13.7-71.5-30.2-108.7-41.2-35.3-10.4-71.9-16.5-108.7-18.3-41.7-2.1-83.6 1.5-124.3 10.4-1.9.4-1.1 3.3.7 2.9z" fill="#e8e8e8"/><path d="m674.5 766.5c78.8 19.4 160.7 11.3 239.4-4.5 81.1-16.3 160.4-41.2 242.2-54 46.4-7.3 93.6-10.4 140.5-5.7 1.9.2 1.9-2.8 0-3-82-8.2-163.6 7.7-243 26.7-80 19.2-159.6 41.8-242 47.7-45.7 3.2-91.7 1-136.3-10-1.9-.6-2.7 2.3-.8 2.8z" fill="#e8e8e8"/><path d="m436.4 637.5c47.4-9.5 94.4 5.9 139.9 17.5 46.1 11.8 93 17.2 140.5 12.5 47.2-4.7 92.8-18.1 139-28.3 47.7-10.6 96.2-17.9 144.9-21.7 54-4.3 108.3-4.3 162.4-.2 1.9.1 1.9-2.9 0-3-96-7.2-192.9-1.3-287.3 17.7-47.5 9.6-94.1 23.8-142.2 30.6-49.1 6.9-98.4 3.9-146.5-7.8-49.5-12.1-100.1-30.4-151.6-20.1-1.8.2-1 3.1.9 2.8z" fill="#e8e8e8"/><path d="m934.9 575.9c53.4 5.5 106.2-6.3 157.9-18.2 26.4-6.1 52.9-12.2 79.7-16.2 27.7-4.1 55.8-5.6 83.8-4.3 31.6 1.5 62.9 6.4 93.5 14.7 1.9.5 2.7-2.4.8-2.9-53.5-14.5-109.6-18.8-164.6-12.3-53.7 6.3-105.5 22.6-158.7 31.6-30.5 5.2-61.4 7.7-92.3 4.5-2-.1-2 2.9-.1 3.1z" fill="#e8e8e8"/><path d="m290.2 579.6c40.3 7 80-7.1 120.1-9.3 42.3-2.4 84.4 4.5 125.9 11.4 1.9.3 2.7-2.6.8-2.9-40.6-6.7-81.6-13.4-122.9-11.7-41 1.7-82 16.8-123.2 9.6-1.8-.3-2.6 2.6-.7 2.9z" fill="#e8e8e8"/><path d="m477 1146h143.5c1.9 0 1.9-3 0-3-47.8 0-95.6 0-143.5 0-1.9 0-1.9 3 0 3z" fill="#161616"/><path d="m588.3 1165h133.2c1.9 0 1.9-3 0-3-44.4 0-88.8 0-133.2 0-1.9 0-1.9 3 0 3z" fill="#161616"/><path d="m361.4 1141.6c-24.9 0-49.8 0-74.7 0-1.9 0-1.9 3 0 3h74.7c1.9 0 1.9-3 0-3z" fill="#161616"/><path d="m690.8 1090.4h234.2c1.9 0 1.9-3 0-3-78.1 0-156.2 0-234.2 0-1.9 0-2 3 0 3z" fill="#161616"/><path d="m1065.6 1068.4h87.8c1.9 0 1.9-3 0-3-29.3 0-58.6 0-87.8 0-2 0-2 3 0 3z" fill="#161616"/><path d="m1217.8 1078.7h134.7c1.9 0 1.9-3 0-3-44.9 0-89.8 0-134.7 0-1.9 0-1.9 3 0 3z" fill="#161616"/><path d="m338.3 1052.2c-.4 5.7-.7 11.3-1.1 17-2.5.7-4.9 1.5-7.4 2.2-.1 4.2-.2 8.4-.4 12.6-3.8 0-7.6 0-11.5 0 .7 5.8 1.5 11.6 2.2 17.4 6.5.1 13.1.2 19.6.4.7 4.7 1.5 9.4 2.2 14.1-4.6 0-9.4-.1-14.4-.4-5.9-.3-11.4-.8-16.6-1.5-.2 6.2-.5 12.3-.7 18.5 16.4-.2 32.8-.5 49.2-.7.5 4.3 1 8.6 1.5 12.9 30.5 3.4 65.4 4.6 103.6 1.1 10.5-1 20.6-2.2 30.3-3.7 0-4.9 0-9.9 0-14.8-3.5 1.4-7.7 2.7-12.6 3.7-8.2 1.6-15.3 1.6-20.7 1.1.6-3.9 1.2-7.9 1.8-11.8.8-2.6 1.6-5.8 1.8-9.6.2-2.5.1-4.7 0-6.7-9.5.1-19 .2-28.5.4-.2-6.5-.5-13.1-.7-19.6 8.8-.7 17.5-1.5 26.3-2.2.2-3.5.5-6.9.7-10.4-4.4-.6-8.9-1.2-13.3-1.8-.2-6.7-.5-13.3-.7-20-36.8.6-73.7 1.2-110.6 1.8z" fill="#5222d0"/><path d="m1140.6 925.9c-.1 4.1-.2 8.2-.3 12.2 9.1.6 18.2 1.2 27.3 1.7v11.5c-3.4.8-6.8 1.6-10.1 2.4-.2 4.4-.5 8.9-.7 13.3-10.6.1-21.2.2-31.8.3-.3 4.4-.7 8.9-1 13.3 12.5.2 25 .5 37.4.7v16.1c-12.7.3-25.4.7-38.1 1-.2 5.1-.5 10.3-.7 15.4 4.1.3 8.2.7 12.2 1 .1 4.5.2 9.1.3 13.6-5.5.5-11 .9-16.4 1.4.2 5.9.5 11.9.7 17.8 6.6-.1 13.3-.2 19.9-.3v18.9c14.9.8 30.4 1.3 46.5 1.4 25.2.1 49.1-.8 71.4-2.4 1.1-4.8 2.1-10.1 2.8-15.7.9-7.1 1.3-13.7 1.4-19.6 2.8-.5 5.6-.9 8.4-1.4.1-4.3.2-8.6.3-12.9-7-.1-14-.2-21-.3.3-5.7.7-11.4 1-17.1 10.6-.3 21.2-.7 31.8-1 .1-5 .2-10 .3-15-8.9 0-17.7 0-26.6 0 .3-4.1.7-8.2 1-12.2 9.7-.6 19.4-1.2 29-1.7.1-5 .2-10 .3-15h12.9c-.2-4.5-.5-9.1-.7-13.6-10.6.2-21.2.5-31.8.7.3-5.5.7-11 1-16.4-12.9-3-27.9-5.4-44.8-6.3-33-2-61.3 2.8-81.9 8.2z" fill="#ec615b"/><g fill="#161616"><path d="m359.1 1131.9c.1 4.2.3 8.5.4 12.7 0 .9.7 1.4 1.5 1.5 44.1 3 88.3 2.7 132.3-1 .6-.1 1.3-.4 1.4-1.1 1.3-5.5 1.6-10.8 1-16.4-.2-1.9-3.2-1.9-3 0 .6 5.3.3 10.4-.9 15.6.5-.4 1-.7 1.4-1.1-44 3.6-88.3 4-132.3 1l1.5 1.5c-.1-4.2-.3-8.5-.4-12.7 0-1.9-3-1.9-2.9 0z"/><path d="m309.2 1113.6v17.7c0 1.9 3 1.9 3 0 0-5.9 0-11.8 0-17.7 0-2-3-2-3 0z"/><path d="m312.5 1134h148.5c1.9 0 1.9-3 0-3-49.5 0-99 0-148.5 0-1.9 0-1.9 3 0 3z"/><path d="m369.4 1134.3c.4 3.3.5 6.5.3 9.8-.1 1.9 2.9 1.9 3 0 .2-3.3.2-6.5-.3-9.8-.2-1.9-3.2-1.9-3 0z"/><path d="m378.9 1134.7c.6 2.5.7 5 .6 7.5-.1 1.9 2.9 1.9 3 0 .2-2.8 0-5.6-.7-8.3-.4-1.8-3.3-1-2.9.8z"/><path d="m463 1132.3c1-3.9 1.5-7.9 1.4-12 0-1.9-3-1.9-3 0 .1 3.8-.3 7.5-1.3 11.2-.5 1.8 2.4 2.6 2.9.8z"/><path d="m312.7 1115.5c49.4 6.9 99.3 8.2 149 3.9 1.9-.2 1.9-3.2 0-3-49.4 4.3-99.1 3.1-148.2-3.8-1.9-.3-2.7 2.6-.8 2.9z"/><path d="m464.1 1133c9.9.9 19.7-.3 29.2-3.3 1.8-.6 1-3.5-.8-2.9-9.3 3-18.7 4.1-28.4 3.2-1.9-.1-1.9 2.9 0 3z"/><path d="m445.5 1134.3v10.4c0 1.9 3 1.9 3 0 0-3.5 0-6.9 0-10.4 0-1.9-3-1.9-3 0z"/><path d="m468.1 1132.3c.6 3.7 1.1 7.4 1.7 11 .3 1.9 3.2 1.1 2.9-.8-.6-3.7-1.1-7.4-1.7-11-.3-1.9-3.1-1.1-2.9.8z"/><path d="m481.9 1131.7c.3 2 .1 4-.4 5.9s2.4 2.7 2.9.8c.7-2.5.8-5 .4-7.5-.3-1.9-3.2-1.1-2.9.8z"/><path d="m323.7 1116c.2 5.3.4 10.6.6 15.9.1 1.9 3.1 1.9 3 0-.2-5.3-.4-10.6-.6-15.9-.1-1.9-3.1-1.9-3 0z"/><path d="m343.6 1117.8c.4 4.1.8 8.2 1.2 12.2.2 1.9 3.2 1.9 3 0-.4-4.1-.8-8.2-1.2-12.2-.2-1.9-3.2-1.9-3 0z"/><path d="m355.1 1120.3c-.3 2.4-.1 4.8.6 7.1.5 1.9 3.4 1.1 2.9-.8-.6-2.1-.7-4.2-.5-6.3.2-1.9-2.8-1.9-3 0z"/><path d="m339.1 1102.6c.1 4.7.5 9.3 1.3 13.8.3 1.9 3.2 1.1 2.9-.8-.8-4.3-1.2-8.7-1.2-13 0-2-3-2-3 0z"/><path d="m342.5 1102.8c40.8.8 81.6 1.7 122.4 2.5-.5-.4-1-.7-1.4-1.1.7 4.2.7 8.3.2 12.6-.2 1.9 2.8 1.9 3 0 .5-4.5.4-8.9-.3-13.4-.1-.7-.8-1.1-1.4-1.1-40.8-.8-81.6-1.7-122.4-2.5-2 0-2 3-.1 3z"/><path d="m315.9 1085.2c1 5.3 1.7 10.7 2.3 16.1.2 1.9 3.2 1.9 3 0-.6-5.7-1.4-11.3-2.4-16.9-.3-1.9-3.2-1.1-2.9.8z"/><path d="m319.2 1085.2c19.4 1.2 38.9.4 58.3.2 19.6-.1 39.2-.3 58.8-.4-.5-.5-1-1-1.5-1.5.2 5.1.4 10.2.5 15.3.1 1.9 3.1 1.9 3 0-.2-5.1-.4-10.2-.5-15.3 0-.8-.7-1.5-1.5-1.5-19.6.1-39.2.3-58.8.4-19.4.1-38.9.9-58.3-.2-1.9-.1-1.9 2.9 0 3z"/><path d="m320.5 1103.3c7.1-.2 14.3-.4 21.4-.6 1.9-.1 1.9-3.1 0-3-7.1.2-14.3.4-21.4.6-1.9 0-2 3 0 3z"/><path d="m325.6 1071.8c.6 4.1 1.2 8.1 1.9 12.2.3 1.9 3.2 1.1 2.9-.8-.6-4.1-1.2-8.1-1.9-12.2-.3-1.9-3.2-1.1-2.9.8z"/><path d="m328.3 1072.6c44.7-6.8 90.2-6.5 134.8 1.1 1.9.3 2.7-2.6.8-2.9-45.1-7.6-91.2-8-136.4-1.1-1.9.3-1.1 3.2.8 2.9z"/><path d="m435.5 1086.1c6.2-.3 12.3-.6 18.5-.8 3-.1 6.6.5 8.6-2.1 1.2-1.5-1.4-3-2.6-1.5-1.2 1.6-10.1.8-11.8.9-4.2.2-8.4.4-12.6.6-2.1 0-2.1 3-.1 2.9z"/><path d="m461.2 1070.3c-.6 3-1 6-1.1 9-.1 1.9 2.9 1.9 3 0 .1-2.8.4-5.5 1-8.2.4-1.9-2.5-2.7-2.9-.8z"/><path d="m338.9 1068.9c0-5.7 0-11.3 0-17 0-1.9-3-1.9-3 0v17c0 2 3 2 3 0z"/><path d="m339.8 1053.3c36.5-1.8 73.1-2.5 109.6-2.2 1.9 0 1.9-3 0-3-36.5-.3-73.1.4-109.6 2.2-1.9.1-1.9 3.1 0 3z"/><path d="m447.9 1050.8c.4 5.7.8 11.3 1.2 17 .1 1.9 3.1 1.9 3 0-.4-5.7-.8-11.3-1.2-17-.1-2-3.1-2-3 0z"/><path d="m342.3 1071.3c.4 3.7.7 7.4 1.1 11.2.2 1.9 3.2 1.9 3 0-.4-3.7-.7-7.4-1.1-11.2-.1-1.9-3.2-1.9-3 0z"/><path d="m354.7 1069.5c-.1 3.1.2 6.1.8 9.2.3 1.9 3.2 1.1 2.9-.8-.5-2.8-.7-5.6-.7-8.4 0-1.9-3-1.9-3 0z"/><path d="m375.6 1087.1c.4 4.1.7 8.2 1.1 12.3.2 1.9 3.2 1.9 3 0-.4-4.1-.7-8.2-1.1-12.3-.1-1.9-3.1-1.9-3 0z"/><path d="m388.3 1085.9c.4 4.1.7 8.2 1.1 12.3.2 1.9 3.2 1.9 3 0-.4-4.1-.7-8.2-1.1-12.3-.2-1.9-3.2-1.9-3 0z"/><path d="m409.2 1085.4c.4 4.7.8 9.4 1.2 14.1.2 1.9 3.2 1.9 3 0-.4-4.7-.8-9.4-1.2-14.1-.1-2-3.1-2-3 0z"/><path d="m415 1104.1c.5 4.7.9 9.4 1.4 14.1.2 1.9 3.2 1.9 3 0-.5-4.7-.9-9.4-1.4-14.1-.2-1.9-3.2-1.9-3 0z"/><path d="m428 1104.5c.7 4.3.8 8.7.6 13.1-.1 1.9 2.9 1.9 3 0 .3-4.7.1-9.3-.7-13.9-.3-1.9-3.2-1.1-2.9.8z"/><path d="m443.8 1103.5c.4 4.5.4 9-.2 13.5-.2 1.9 2.8 1.9 3 0 .5-4.5.6-9 .2-13.5-.1-1.9-3.1-1.9-3 0z"/><path d="m397.6 1121.1c-.3 2.9-.5 5.9-.8 8.8-.2 1.9 2.8 1.9 3 0 .3-2.9.5-5.9.8-8.8.2-1.9-2.8-1.9-3 0z"/><path d="m405.2 1122.7c1 2.4 1.3 4.7 1 7.2-.2 1.9 2.8 1.9 3 0 .3-2.8-.1-5.5-1.1-8-.7-1.8-3.6-1-2.9.8z"/><path d="m399.1 1066.6c.4 4.7.5 9.4.6 14.1 0 1.9 3 1.9 3 0 0-4.7-.2-9.4-.6-14.1-.1-1.9-3.1-1.9-3 0z"/><path d="m411 1068.2c.6 3.2.8 6.3.6 9.6-.1 1.9 2.9 1.9 3 0 .3-3.5 0-6.9-.7-10.4-.4-1.9-3.3-1.1-2.9.8z"/><path d="m366.4 1050.6c1.2 4.7 1.5 9.4 1.2 14.2-.2 1.9 2.8 1.9 3 0 .4-5.1 0-10.1-1.3-15-.5-1.9-3.4-1.1-2.9.8z"/><path d="m378.7 1050.6c.7 3.9 1.3 7.8 2 11.7.3 1.9 3.2 1.1 2.9-.8-.7-3.9-1.3-7.8-2-11.7-.3-1.9-3.2-1.1-2.9.8z"/><path d="m422.1 1051.2c.6 3.9.8 7.9.6 11.9-.1 1.9 2.9 1.9 3 0 .3-4.3 0-8.5-.7-12.7-.3-1.9-3.2-1.1-2.9.8z"/><path d="m1137.6 1050.2c.1 5.8.2 11.6.3 17.3 0 .8.7 1.5 1.5 1.5 25 .2 49.9 0 74.9-.7 12.1-.3 24.3-.8 36.4-1.3 2.9-.1 7.7.6 9.4-2.6.7-1.3.6-3.3.6-4.6.2-3 .3-6.1.4-9.2.1-1.9-2.9-1.9-3 0-.1 2.4-.2 4.9-.3 7.3-.2 3.5-.5 5.2-4.2 5.9-5.3 1-11.3.5-16.7.7-10.8.4-21.7.7-32.5 1-21.7.5-43.4.6-65 .4l1.5 1.5c-.1-5.8-.2-11.6-.3-17.3-.1-1.8-3.1-1.8-3 .1z"/><path d="m1116.8 1031.1c.2 5.4.4 10.8.6 16.3.1 1.9 3.1 1.9 3 0-.2-5.4-.4-10.8-.6-16.3 0-1.9-3-1.9-3 0z"/><path d="m1119.6 1049.5h141.3c1.9 0 1.9-3 0-3-47.1 0-94.2 0-141.3 0-1.9 0-1.9 3 0 3z"/><path d="m1120.7 1031h141.8c1.9 0 1.9-3 0-3-47.3 0-94.6 0-141.8 0-1.9 0-1.9 3 0 3z"/><path d="m1259.9 1030v17.9c0 1.9 3 1.9 3 0 0-6 0-12 0-17.9 0-1.9-3-1.9-3 0z"/><path d="m1136.2 1028.9c0-4.5 0-9 0-13.5 0-1.9-3-1.9-3 0v13.5c0 1.9 3 1.9 3 0z"/><path d="m1135.8 1016.9h136.2c1.9 0 1.9-3 0-3-45.4 0-90.8 0-136.2 0-1.9 0-1.9 3 0 3z"/><path d="m1268.3 1015.4v12.9c0 1.9 3 1.9 3 0 0-4.3 0-8.6 0-12.9 0-1.9-3-1.9-3 0z"/><path d="m1260.9 1030.4h8.4c1.9 0 1.9-3 0-3-2.8 0-5.6 0-8.4 0-2 0-2 3 0 3z"/><path d="m1120.9 999.7v12.3c0 1.9 3 1.9 3 0 0-4.1 0-8.2 0-12.3 0-1.9-3-1.9-3 0z"/><path d="m1123 1000.1h127.3c1.9 0 1.9-3 0-3-42.4 0-84.8 0-127.3 0-2 0-2 3 0 3z"/><path d="m1248.1 999.2v13.5c0 1.9 3 1.9 3 0 0-4.5 0-9 0-13.5 0-1.9-3-2-3 0z"/><path d="m1123 1015.3h125c1.9 0 1.9-3 0-3-41.7 0-83.3 0-125 0-2 0-2 3 0 3z"/><path d="m1162.6 996.9c0-4.3 0-8.6 0-12.9 0-1.9-3-1.9-3 0v12.9c0 2 3 2 3 0z"/><path d="m1161.6 984.4h120.5c1.9 0 1.9-3 0-3-40.2 0-80.4 0-120.5 0-1.9 0-1.9 3 0 3z"/><path d="m1249.1 999h29.7c1.9 0 1.9-3 0-3-9.9 0-19.8 0-29.7 0-1.9 0-1.9 3 0 3z"/><path d="m1280.7 983.5v12.9c0 1.9 3 1.9 3 0 0-4.3 0-8.6 0-12.9 0-1.9-3-1.9-3 0z"/><path d="m1125.8 982.7h130.1c1.9 0 1.9-3 0-3-43.4 0-86.7 0-130.1 0-2 0-2 3 0 3z"/><path d="m1126.1 980.7c0-3.9 0-7.8 0-11.8 0-1.9-3-1.9-3 0v11.8c0 1.9 3 1.9 3 0z"/><path d="m1125.2 969.9h131.2c1.9 0 1.9-3 0-3-43.7 0-87.5 0-131.2 0-1.9 0-1.9 3 0 3z"/><path d="m1255.4 968.4v10.7c0 1.9 3 1.9 3 0 0-3.6 0-7.1 0-10.7 0-2-3-2-3 0z"/><path d="m1158.7 967.2c0-4.3 0-8.6 0-12.9 0-1.9-3-1.9-3 0v12.9c0 2 3 2 3 0z"/><path d="m1158.3 954.7h127.3c1.9 0 1.9-3 0-3-42.4 0-84.8 0-127.3 0-2 0-2 3 0 3z"/><path d="m1284 953.8v6.2c0 1.9 3 1.9 3 0 0-2.1 0-4.1 0-6.2 0-2-3-2-3 0z"/><path d="m1255.8 969.9h29.7c1.9 0 1.9-3 0-3-9.9 0-19.8 0-29.7 0-1.9 0-1.9 3 0 3z"/><path d="m1284 955.5v11.2c0 1.9 3 1.9 3 0 0-3.7 0-7.5 0-11.2 0-2-3-2-3 0z"/><path d="m1168.7 951c0-3.6 0-7.1 0-10.7 0-1.9-3-1.9-3 0v10.7c0 1.9 3 1.9 3 0z"/><path d="m1166.7 941.3h130.6c1.9 0 1.9-3 0-3-43.5 0-87.1 0-130.6 0-1.9 0-2 3 0 3z"/><path d="m1297.3 941.3c1.9 0 1.9-3 0-3s-1.9 3 0 3z"/><path d="m1296.9 939.8v10.7c0 1.9 3 1.9 3 0 0-3.6 0-7.1 0-10.7 0-2-3-2-3 0z"/><path d="m1285 954.2h13.5c1.9 0 1.9-3 0-3-4.5 0-9 0-13.5 0-2 0-2 3 0 3z"/><path d="m1138.8 926.9v11.8c0 1.9 3 1.9 3 0 0-3.9 0-7.8 0-11.8 0-2-3-2-3 0z"/><path d="m1140.3 940.1h32c1.9 0 1.9-3 0-3-10.7 0-21.3 0-32 0-1.9 0-1.9 3 0 3z"/><path d="m1140.6 926.6c41.5-8.8 84.4-9.5 126.2-2 1.9.3 2.7-2.6.8-2.9-42.3-7.6-85.7-6.9-127.8 2-1.9.4-1.1 3.3.8 2.9z"/><path d="m1266.1 924.1v11.8c0 1.9 3 1.9 3 0 0-3.9 0-7.8 0-11.8 0-2-3-2-3 0z"/><path d="m1148.8 927.4c7.1 2.2 14.9 1.3 22.2 1.2 8.2-.1 16.4-.3 24.6-.4 16.7-.3 33.4-.6 50.1-.8 1.9 0 1.9-3 0-3-16.1.3-32.1.5-48.2.8-7.9.1-15.7.3-23.6.4s-16.7 1.4-24.4-1c-1.8-.6-2.6 2.3-.7 2.8z"/><path d="m1162.9 928.5v10.1c0 1.9 3 1.9 3 0 0-3.4 0-6.7 0-10.1 0-1.9-3-1.9-3 0z"/><path d="m1173.1 929.1c.3 2.4.6 4.9.9 7.3.2 1.9 3.2 1.9 3 0-.3-2.4-.6-4.9-.9-7.3-.2-1.9-3.2-1.9-3 0z"/><path d="m1211.6 928.6c.3 3 .6 6 1 9 .2 1.9 3.2 1.9 3 0-.3-3-.6-6-1-9-.2-1.9-3.2-2-3 0z"/><path d="m1223.5 929.7v6.7c0 1.9 3 1.9 3 0 0-2.2 0-4.5 0-6.7 0-2-3-2-3 0z"/><path d="m1215.7 941.4c-.3 3.3-.1 6.6.4 10 .3 1.9 3.2 1.1 2.9-.8-.5-3-.5-6.1-.3-9.2.1-1.9-2.9-1.9-3 0z"/><path d="m1226.8 941.4c.3 2.7.2 5.4-.3 8-.3 1.9 2.5 2.7 2.9.8.5-2.9.7-5.9.4-8.8-.2-1.9-3.2-1.9-3 0z"/><path d="m1165.2 954.9v12.3c0 1.9 3 1.9 3 0 0-4.1 0-8.2 0-12.3 0-1.9-3-1.9-3 0z"/><path d="m1175.8 955.5c0 3.1.3 6.2.8 9.4.3 1.9 3.2 1.1 2.9-.8-.4-2.8-.6-5.7-.6-8.6-.1-2-3.1-2-3.1 0z"/><path d="m1189.7 941.5c.2 3.5.5 7.1.7 10.6.1 1.9 3.1 1.9 3 0-.2-3.5-.5-7.1-.7-10.6-.1-2-3.1-2-3 0z"/><path d="m1246.7 940.3c.4 3.4.7 6.7 1.1 10.1.2 1.9 3.2 1.9 3 0-.4-3.4-.7-6.7-1.1-10.1-.2-1.9-3.2-1.9-3 0z"/><path d="m1272.6 940.9c.1 2.6.2 5.2.3 7.9.1 1.9 3.1 1.9 3 0-.1-2.6-.2-5.2-.3-7.9-.1-2-3.1-2-3 0z"/><path d="m1226.8 954.3v11.8c0 1.9 3 1.9 3 0 0-3.9 0-7.8 0-11.8 0-1.9-3-1.9-3 0z"/><path d="m1198.3 952.7v9.5c0 1.9 3 1.9 3 0 0-3.2 0-6.4 0-9.5 0-2-3-2-3 0z"/><path d="m1140 969.5c-.2 3.9 0 7.7.7 11.6.3 1.9 3.2 1.1 2.9-.8-.6-3.6-.8-7.2-.6-10.8.1-2-2.9-2-3 0z"/><path d="m1160.7 970v10.1c0 1.9 3 1.9 3 0 0-3.4 0-6.7 0-10.1 0-1.9-3-1.9-3 0z"/><path d="m1185.5 971.5c.5 2.7.6 5.3.4 8-.2 1.9 2.8 1.9 3 0 .3-3 .1-5.9-.5-8.8-.4-1.9-3.3-1.1-2.9.8z"/><path d="m1212.3 970c-.3 2.8-.1 5.5.4 8.3.4 1.9 3.3 1.1 2.9-.8-.5-2.5-.6-5-.3-7.5.2-1.9-2.8-1.9-3 0z"/><path d="m1238.1 969.5v7.3c0 1.9 3 1.9 3 0 0-2.4 0-4.9 0-7.3 0-2-3-2-3 0z"/><path d="m1172.4 984.6c.2 4.1.2 8.2-.2 12.4-.2 1.9 2.8 1.9 3 0 .4-4.1.5-8.2.2-12.4-.1-1.9-3.1-1.9-3 0z"/><path d="m1179 984.6c.3 4.3.4 8.6.2 12.9-.1 1.9 2.9 1.9 3 0 .2-4.3.1-8.6-.2-12.9-.2-1.9-3.2-1.9-3 0z"/><path d="m1198.9 982.9c-.2 5-.5 10.1-.7 15.1-.1 1.9 2.9 1.9 3 0 .2-5 .5-10.1.7-15.1.1-1.9-2.9-1.9-3 0z"/><path d="m1204 984c.5 4.3.7 8.6.4 12.9-.1 1.9 2.9 1.9 3 0 .3-4.3.1-8.6-.4-12.9-.2-1.9-3.2-1.9-3 0z"/><path d="m1226.9 983.5c-.3 4.7-.1 9.2.6 13.8.3 1.9 3.2 1.1 2.9-.8-.6-4.3-.7-8.7-.5-13.1.1-1.8-2.9-1.8-3 .1z"/><path d="m1252.5 983.5c.4 3.9.8 7.8 1.2 11.8.2 1.9 3.2 1.9 3 0-.4-3.9-.8-7.8-1.2-11.8-.2-1.9-3.2-1.9-3 0z"/><path d="m1262.1 985.2c.2 2.7.2 5.4-.2 8-.3 1.9 2.6 2.7 2.9.8.5-2.9.6-5.9.3-8.8-.2-1.9-3.2-2-3 0z"/><path d="m1127.6 1000.9v11.8c0 1.9 3 1.9 3 0 0-3.9 0-7.8 0-11.8 0-2-3-2-3 0z"/><path d="m1134.3 1000.3c.4 4.1.7 8.2 1.1 12.3.2 1.9 3.2 1.9 3 0-.4-4.1-.7-8.2-1.1-12.3-.1-1.9-3.1-1.9-3 0z"/><path d="m1149.7 999.2c.3 3.6.6 7.1.9 10.7.2 1.9 3.2 1.9 3 0-.3-3.6-.6-7.1-.9-10.7-.2-1.9-3.2-2-3 0z"/><path d="m1164.2 999.8c.5 4.1 1.1 8.2 1.6 12.3.3 1.9 3.3 1.9 3 0-.5-4.1-1.1-8.2-1.6-12.3-.2-1.9-3.2-1.9-3 0z"/><path d="m1212.3 1000.3v14.6c0 1.9 3 1.9 3 0 0-4.9 0-9.7 0-14.6 0-1.9-3-1.9-3 0z"/><path d="m1235.8 999.2v12.3c0 1.9 3 1.9 3 0 0-4.1 0-8.2 0-12.3 0-1.9-3-2-3 0z"/><path d="m1145.6 1017c.6 3.6.6 7.3-.1 10.9-.3 1.9 2.5 2.7 2.9.8.8-4.2.8-8.3.1-12.5-.4-1.9-3.2-1.1-2.9.8z"/><path d="m1152.9 1018.2c.2 3.4.5 6.7.7 10.1.1 1.9 3.1 1.9 3 0-.2-3.4-.5-6.7-.7-10.1-.2-1.9-3.2-1.9-3 0z"/><path d="m1181.5 1017.1c-.2 4.1 0 8.1.7 12.2.3 1.9 3.2 1.1 2.9-.8-.6-3.8-.8-7.5-.6-11.4.1-1.9-2.9-1.9-3 0z"/><path d="m1189.7 1017.7c.2 3.4.4 6.7.7 10.1.1 1.9 3.1 1.9 3 0-.2-3.4-.4-6.7-.7-10.1-.1-1.9-3.1-1.9-3 0z"/><path d="m1196.2 1018.2c.2 2.4.4 4.9.7 7.3.2 1.9 3.2 1.9 3 0-.2-2.4-.4-4.9-.7-7.3-.1-1.9-3.1-1.9-3 0z"/><path d="m1223 1016c.3 4.1.6 8.2.9 12.4.1 1.9 3.1 1.9 3 0-.3-4.1-.6-8.2-.9-12.4-.2-1.9-3.2-1.9-3 0z"/><path d="m1241.8 1016.6c.2 3.4.4 6.7.7 10.1.1 1.9 3.1 1.9 3 0-.2-3.4-.4-6.7-.7-10.1-.1-1.9-3.1-2-3 0z"/><path d="m1257 1016.7c-.5 3.5-.7 7-.4 10.5.2 1.9 3.2 1.9 3 0-.3-3.3-.2-6.5.3-9.7.3-1.9-2.6-2.7-2.9-.8z"/><path d="m1126.5 1031c.8 5.6 1.3 11.3 1.5 17 .1 1.9 3.1 1.9 3 0-.2-6-.7-11.9-1.6-17.8-.2-1.9-3.1-1.1-2.9.8z"/><path d="m1135.6 1031.1c-.5 5.1-.2 10 .9 15 .4 1.9 3.3 1.1 2.9-.8-1-4.7-1.3-9.4-.8-14.2.2-1.9-2.8-1.9-3 0z"/><path d="m1158.9 1030.6c.5 4.8.7 9.7.7 14.6 0 1.9 3 1.9 3 0 0-4.9-.2-9.7-.7-14.6-.2-1.9-3.2-1.9-3 0z"/><path d="m1200.4 1029.5c.6 5.6.8 11.2.7 16.8 0 1.9 3 1.9 3 0 .1-5.6-.1-11.2-.7-16.8-.2-1.9-3.2-2-3 0z"/><path d="m1208.4 1032.3c-.3 4.5.1 8.9 1.1 13.3.4 1.9 3.3 1.1 2.9-.8-.9-4.1-1.3-8.3-1-12.5.1-2-2.9-2-3 0z"/><path d="m1217.4 1031.1c-.3 5.1-.1 10.1.5 15.1.2 1.9 3.2 1.9 3 0-.7-5-.8-10.1-.5-15.1.1-1.9-2.9-1.9-3 0z"/><path d="m1245.2 1031.7c.2 4.3.5 8.6.7 12.9.1 1.9 3.1 1.9 3 0-.2-4.3-.5-8.6-.7-12.9-.1-1.9-3.1-1.9-3 0z"/><path d="m1148.9 1050.2v15.1c0 1.9 3 1.9 3 0 0-5 0-10.1 0-15.1 0-1.9-3-1.9-3 0z"/><path d="m1171.5 1049.6c.5 5.2.6 10.5.3 15.7-.1 1.9 2.9 1.9 3 0 .3-5.2.2-10.5-.3-15.7-.2-1.9-3.2-1.9-3 0z"/><path d="m1185.4 1050.2c-.3 4.7-.1 9.4.4 14 .2 1.9 3.2 1.9 3 0-.5-4.7-.7-9.3-.4-14 .1-1.9-2.9-1.9-3 0z"/><path d="m1226.7 1050.2c.2 4.9.5 9.7.7 14.6.1 1.9 3.1 1.9 3 0-.2-4.9-.5-9.7-.7-14.6-.1-1.9-3.1-1.9-3 0z"/><path d="m1236.6 1052.3c.7 4 .6 8.1-.1 12.1-.4 1.9 2.5 2.7 2.9.8.9-4.6.9-9.1.1-13.7-.4-1.9-3.3-1.1-2.9.8z"/><path d="m439.8 161.6c-1.9 11.7 3.3 22.7 10.2 31.8 7 9.2 16.5 16.7 28.2 18.4 1.9.3 2.7-2.6.8-2.9-10.1-1.4-18.5-7.4-24.9-15.1-7.1-8.6-13.3-19.8-11.4-31.3.3-2-2.6-2.8-2.9-.9z"/><path d="m442.4 161.6c2.9-2.2 6.2-3.7 9.8-4.4 1.9-.4 1.1-3.3-.8-2.9-4.1.8-7.8 2.6-11.1 5.1-1.5 1.3.6 3.4 2.1 2.2z"/><path d="m452.7 157.4c8.9 2.4 17 12.8 22.1 20 5.3 7.5 9.3 15.8 12 24.5.6 1.8 3.5 1.1 2.9-.8-3.1-10-7.8-19.5-14.2-27.8-5.4-7.1-13.1-16.4-22-18.8-1.9-.5-2.7 2.4-.8 2.9z"/><path d="m478.8 212c3.8-1.9 7.2-4.6 9.9-8 1.2-1.5-.9-3.6-2.1-2.1-2.5 3.2-5.6 5.7-9.2 7.5-1.9.9-.3 3.4 1.4 2.6z"/><path d="m447.1 157.6c-.3 11.5 6.1 23 12.9 31.9 6.4 8.4 15.4 14.8 26.4 14.6 1.9 0 1.9-3 0-3-11.1.2-19.7-7-25.7-15.7-5.5-8.1-10.8-17.7-10.6-27.8 0-1.9-3-1.9-3 0z"/><path d="m443.9 175.3c1.5-1.8 3.3-3.2 5.4-4.3 1.7-.8.2-3.4-1.5-2.6-2.3 1.1-4.4 2.7-6 4.7-1.2 1.5.9 3.7 2.1 2.2z"/><path d="m442.3 168.5c1.9-1.4 3.8-2.4 6.1-3 1.9-.5 1.1-3.4-.8-2.9-2.4.7-4.7 1.8-6.8 3.3-1.5 1.1-.1 3.7 1.5 2.6z"/><path d="m452.9 193.8c2.1-1.7 4.3-3.4 6.4-5.1 1.5-1.2-.6-3.3-2.1-2.1-2.1 1.7-4.3 3.4-6.4 5.1-1.6 1.2.6 3.3 2.1 2.1z"/><path d="m458.9 200.4c1.7-1.3 3.4-2.6 5.1-3.9.6-.5 1-1.3.5-2.1-.4-.6-1.4-1-2.1-.5-1.7 1.3-3.4 2.6-5.1 3.9-.6.5-1 1.3-.5 2.1.4.6 1.4 1 2.1.5z"/><path d="m469.5 207.9c1.7-1.7 3.5-3.3 5.2-5 1.4-1.3-.7-3.5-2.1-2.1-1.7 1.7-3.5 3.3-5.2 5-1.4 1.3.7 3.5 2.1 2.1z"/><path d="m453.2 163.8c1.9 1.7 3.7 3.5 5.6 5.2-.1-.6-.2-1.2-.2-1.8-2 3.2-3.1 7.3-.4 10.5.9 1.1 2.3 2 3.8 2.3.7.1 1.3 0 2 0 .5-.1.9-.3 1.4-.4 5.5-.9 6.5 1.2 2.9 6.2-1.8.7-1 3.6.8 2.9 3.7-1.4 6.3-5.5 4.1-9.3-1-1.8-3.1-3.1-5.1-3.2-.7-.1-1.4.1-2.1.1-2.4 1.3-4.5.3-6.3-2.8.1-1.7.6-3.2 1.6-4.5.3-.5.2-1.4-.2-1.8-1.9-1.7-3.7-3.5-5.6-5.2-1.6-1.6-3.7.5-2.3 1.8z"/><path d="m470.7 187.9c1.7 2 3.3 3.9 5 5.9 1.2 1.5 3.4-.7 2.1-2.1-1.7-2-3.3-3.9-5-5.9-1.2-1.5-3.3.7-2.1 2.1z"/><path d="m537.5 141.3c-8.8-6.9-14.2-26.5-6.8-35.8 8.7-10.7 26-15.3 35.7-3.9 8.1 9.5 8.6 24.4 2.5 35.1-3.7 6.5-9.1 9.6-16.6 9.7-6.5.1-12.7-2.4-17.2-7.2-1.3-1.4-3.4.7-2.1 2.1 7.3 7.8 20.4 10.7 30.1 5.7 10.1-5.3 13.9-19.7 12.7-30.2-1.2-10.6-7.7-22-18.7-24.8-10.6-2.7-26.3 4.9-31 14.8-2.9 6.1-1.8 13.4-.3 19.8s4.1 12.5 9.4 16.6c1.6 1.4 3.8-.7 2.3-1.9z"/><path d="m545.9 103.7c0-.1-.1-.3-.1-.4-.2.6-.5 1.1-.7 1.7-.9-.3-1-.2-.4.6.6 1 1 2 1.4 3.1.3-.6.7-1.2 1-1.8-3.9 1.2-8.8 3.9-7.4 8.8.4 1.5 1.4 2.8 2.9 3.3 1.2.5 1.9 0 3.1-.1 1.8-.9 3.7-.6 5.5 1 1.5 4.4.3 6.6-3.7 6.9-1.2 0-1.8 1.3-1.3 2.3.9 1.7 1.6 3.4 2.2 5.2s3.5 1.1 2.9-.8c-.6-2.1-1.4-4-2.5-5.9-.4.8-.9 1.5-1.3 2.3 4.8-.1 9.4-4.6 7.4-9.6-.9-2.3-3-4.1-5.4-4.6-1.4-.3-2.6.3-3.9.3-2.5 0-3.2-.5-1.9-2.9 1.2-2.2 1.9-2.5 4.2-3.2.7-.2 1.3-1.1 1-1.8-.7-2-1.4-4.8-3.4-5.8-.5-.2-1.1-.3-1.5 0-.1.1-.3.2-.4.3-.6.4-.8 1-.7 1.7 0 .1.1.3.1.4.4 1.6 3.3.8 2.9-1z"/><path d="m555.3 95.2c15.2-3.9 23.1 12.5 23.4 25 .1 5.7-.4 12.1-3.8 16.9-3.7 5.2-10.3 6.8-15.8 9.2-1.8.8-.2 3.4 1.5 2.6 6.6-2.9 13.8-4.8 17.7-11.5 3.7-6.4 4-14.9 3.1-22.1-1.6-13.2-12.1-26.8-26.8-23-1.9.5-1.1 3.4.7 2.9z"/><path d="m572 135.7c1.4-.3 2.8-.6 4.2-.9 1.9-.4 1.1-3.3-.8-2.9-1.4.3-2.8.6-4.2.9-1.9.4-1.1 3.3.8 2.9z"/><path d="m575.6 124.2c1.6-.5 3.2-1 4.7-1.6 1.8-.6 1-3.5-.8-2.9-1.6.5-3.2 1-4.7 1.6-1.8.6-1 3.5.8 2.9z"/><path d="m574.6 115.3c1-.2 2.1-.4 3.1-.6.8-.1 1.2-1.1 1-1.8-.2-.8-1-1.2-1.8-1-1 .2-2.1.4-3.1.6-.8.1-1.2 1.1-1 1.8.2.8 1 1.1 1.8 1z"/><path d="m568.6 102.7c1.9.3 3.7.2 5.5-.4s1-3.5-.8-2.9c-1.3.4-2.6.6-3.9.4-.8-.1-1.6.2-1.8 1-.3.7.2 1.8 1 1.9z"/><path d="m552 291.9c-13.1-3.8-21.6-16.6-21.8-30-.3-15.3 13-28.4 28.2-21.6 12.8 5.7 17.7 20.7 18.1 33.8.2 6.3-.9 13.9-6.6 17.6-5.9 3.9-13.6 2.4-19.9.4-1.8-.6-2.6 2.3-.8 2.9 10.2 3.3 23.1 3.5 28.2-7.9 4.9-10.9 1.8-26.5-3.8-36.5-5.6-10.1-17.6-17.9-29.5-14.4-12.4 3.7-18 17.2-16.6 29.2 1.5 13.5 10.6 25.7 23.8 29.5 1.8.5 2.6-2.4.7-3z"/><path d="m545.4 247.6c2.5 2.7 4.3 5.5 5.6 8.9.6-.6 1.2-1.2 1.8-1.8-4.8-1-7.3 3.1-7 7.5.1 1.5.4 3.3 1.9 4.1 1.1.6 2.7.2 3.8.2 1.2-.1 2.3-.2 3.5-.1 5.3.4 6 2.7 2.2 6.9-1 .1-2 1.2-1.3 2.3 1.8 2.8 3.5 5.7 4.9 8.7.8 1.7 3.4.2 2.6-1.5-1.5-3-3.1-5.9-4.9-8.7-.4.8-.9 1.5-1.3 2.3 4.2-.5 7.7-4.4 5.5-8.7-1-1.9-2.9-3.1-4.8-3.7-1.5-.5-3-.5-4.5-.5-1.2.1-2.3.2-3.5.3-1.9-2.3-1.2-4.3 2.2-6 1 .2 2.3-.7 1.8-1.8-1.5-3.9-3.5-7.2-6.4-10.2-1.3-1.7-3.4.4-2.1 1.8z"/><path d="m535 240.9c-12.9 11.1-16.9 30.2-7.2 44.7 9.4 14.1 28.3 18.2 42.6 9 1.6-1 .1-3.6-1.5-2.6-13.4 8.6-31.1 4.5-39.3-9.2-8-13.4-3.9-29.9 7.6-39.8 1.4-1.2-.7-3.3-2.2-2.1z"/></g><path d="m543 239.6c-1.8 4-4.1 10.8-3.8 19.4.1 2.6.8 17.1 11.3 26.9 7.2 6.7 14.8 7.1 14.5 9.4-.4 2.5-9.8 4.5-18.3 2.4-9.3-2.3-17.6-9.7-21.2-19.4-.9-2.5-4.5-12.5.5-23.4 5.1-10.9 15.1-14.7 17-15.3z" fill="#3f3f3f" opacity=".14"/><path d="m448.7 157.3c.4 3.8 1.4 9.7 4 16.4 2.6 6.4 7.1 17.9 18.8 24.5 2.9 1.6 8.4 4.2 16.4 4.6-.7 1.4-2.4 4.1-5.6 6.2-2.1 1.3-4 1.9-5.4 2.2-4.1-1.2-10.3-3.6-16.7-8.3-4.1-3.1-13.6-10.4-17.7-23.7-2.3-7.5-2.1-14.3-1.3-19.4 2.4-.9 4.9-1.7 7.5-2.5z" fill="#3f3f3f" opacity=".15"/><path d="m557 93c3 1.6 8.2 5 11.8 11.3 5.1 8.7 4 17.3 3.5 21.5-.5 3.8-1.2 9.4-5.4 14.8-2.2 2.9-4.7 4.8-6.5 5.9 2.2-.1 7.8-.8 12.4-5.1 3.6-3.4 4.7-7.3 5.9-11.6 1.9-6.8 1.3-12.3 1.1-14.2-.8-5.8-2.9-9.9-3.5-11-1.9-3.6-4.4-8.2-9.7-10.5-3.9-1.7-7.6-1.4-9.6-1.1z" fill="#3f3f3f" opacity=".14"/><path d="m641.7 909.9c-2.9 22.2-5.8 44.4-8.7 66.7-55.7 12.2-83.3 20.6-82.7 25.3.8 5.7 42.5 5.9 125.3.7 3.6-29.8 7.1-59.6 10.7-89.3-14.9-1.1-29.7-2.3-44.6-3.4z" fill="#161616"/><path d="m762.7 524.6c1 9.7 2 25.8.2 45.6-2.7 29.6-10.3 51.1-12.9 58.8-21.3 62.4-31.6 144.3-36.4 183.1-3.4 27.5-7.2 68.6-6.3 119.8-5.6 3.1-24.2 12.6-48.6 8.7-22.6-3.6-36.7-16.3-41.5-21-2.5-76.9 4-138.5 10.8-181.6 7.2-46.2 17.5-93 29.3-140.2 7-28.2 14-56.3 21.1-84.5 28 3.7 56.2 7.5 84.3 11.3z" fill="#ec615b"/><path d="m761.7 554.7c-3.3 13.1-8.6 32.7-15.8 56.1-23.8 76.6-45.2 116.4-61.3 159-14.4 38-30.4 93.8-35 168.2 5.3 1.7 12.8 3.4 21.8 3.3 16.5-.2 28.9-6.3 35-9.9.7-49.2 3.9-90.5 7.3-122 2.7-25.4 5.4-50.2 11.9-83.1 7.8-39.6 11.7-59.4 19.8-82.5 5.5-15.4 12.1-31.1 15.2-55.4 1.5-14 1.4-25.7 1.1-33.7z" fill="#3f3f3f" opacity=".13"/><path d="m722.8 740.1c-7.3 17.9-14.3 36.6-21.1 56.1-17.8 51.1-31.1 99.8-40.9 145.1 5.3.5 12 .6 19.8-.7 11.6-1.9 20.6-6 26.4-9.2-.5-19.9-.3-40.8.7-62.7 2-47.3 7.7-90.4 15.1-128.6z" fill="#3f3f3f" opacity=".19"/><path d="m825 905.3c5.1 16.7 10.2 33.3 15.3 50-39.9 28.2-58.6 44.7-56 49.3 3.3 5.9 40.4-7 111.3-38.7-10.2-28.4-20.4-56.9-30.7-85.3-13.2 8.2-26.6 16.4-39.9 24.7z" fill="#161616"/><path d="m802.9 503.6c4.2 8.8 10.7 23.6 15.8 42.8 7.6 28.7 7.7 51.5 7.9 59.6 1.2 66 19.5 146.5 28.1 184.5 6.1 27.1 16.6 66.9 34.9 114.8-4.2 4.8-18.5 20-42.8 24.8-22.5 4.4-40.1-2.8-46.1-5.6-28.5-71.5-43.4-131.6-51.8-174.4-9-45.9-15.2-93.4-20.3-141.8-3-28.9-6-57.8-9-86.6 27.8-6.1 55.6-12.1 83.3-18.1z" fill="#ec615b"/><path d="m752.4 515.1c13.5 56.5 26.9 113 40.2 169.5 19.2 81.5 38.1 163.1 56.7 244.7 4.5-.9 10-2.5 15.8-5.3 11.7-5.6 19.4-13.3 23.7-18.5-6.9-18.3-15.3-42.5-23.7-71.2-16.3-55.5-24-99.5-27-118.1-5.5-33.8-8.8-54.1-9.9-83.1-.7-19.6.2-29.3-2.6-49.5-1.2-8.6-4.7-30.1-13.9-56.7-3.4-9.8-6.7-17.9-9.2-23.7-16.6 4-33.3 8-50.1 11.9z" fill="#3f3f3f" opacity=".17"/><path d="m824.3 612.8c-.3 74.7 5.6 158 22.4 247.4 4.2 22.3 8.8 43.8 13.9 64.6 3-.9 6.4-2.1 9.9-4 8.9-4.6 14.9-10.7 18.5-15.2-10.3-28.9-20.2-59.9-29-93-19.5-72.8-30.2-140.3-35.7-199.8z" fill="#3f3f3f" opacity=".15"/><path d="m690.1 294.7c-13.9 11.2-20 25.1-23.6 33.4-11.3 25.9-8.9 49.6-7.5 62.2 3.6 32.3 14.7 37.6 20.2 68 2.9 16.3 4 37.8-2.3 64.6 4.3 3.8 37.4 32.1 81.3 23.6 25.9-5 42.5-20.3 49-27.1 2.3-64.5-1.4-117.7-5.8-156.8-5.1-45.5-10.4-65-27.1-76.3-23.4-15.8-61.2-10.1-84.2 8.4z" fill="#fff" stroke="#000" stroke-miterlimit="10" stroke-width="2"/><path d="m737.3 275.7c6.3 12.6 14 30.2 20.4 52.1 16.2 55.5 12.9 101.4 11.2 117.4-4.6 45-18.5 80.2-29.7 102.9 7 .2 16.1-.4 26.4-3.3 20.9-5.9 34.5-18.3 40.9-25.1.9-34.5.6-63.5 0-85.1 0 0-.8-31.7-6.6-83.8-4-36.2-6.8-48-16.5-58.1-14.2-14.6-34.8-16.8-46.1-17z" fill="#3f3f3f" opacity=".14"/><path d="m794.7 323.2c-1.7.1.4 25.6-2 73.2-3.1 61.6-10.2 86.9-12.5 95-6.8 23.2-15.5 41.2-21.8 52.8 5.4-.4 12.6-1.5 20.4-4.6 14.8-5.9 24-15.7 28.4-21.1.6-19.9.9-49.1-.7-84.4-2.6-57.2-9.4-111.1-11.8-110.9z" fill="#3f3f3f" opacity=".17"/><path d="m669.6 365.2c-7.5 7.3-11.4 15.1-13.3 19.7-4.5 10.8-4.6 20-4.6 24.9 0 13.2 3.6 22.7 7.5 33.3 2.8 7.4 7.3 17.6 14.8 28.9 1.6.5 4 1.1 6.9 1.2 2.8 0 5-.4 6.7-.9-1-6.3-1.9-12.5-2.9-18.8 1.7.4 4.3.9 7.5 1.4 15.1 2.3 27.4.7 34.7-.3 3.4-.5 8.2-1.2 13.9-2.6-.5 3.8-1 7.5-1.4 11.3 5.5 3.1 7.9 1.9 8.7 1.4 1.6-1 1.8-2.8 3.8-9 .9-2.9 1.8-5.2 2.3-6.7 2.2-.9 4.4-1.7 6.7-2.6-.6 2.1-1.2 4.2-1.7 6.4 1.7.4 4.5.9 7.8.3 1.9-.3 3.4-.9 4.6-1.4 1.3-4.7 2.7-9.4 4-14.2 3.8-4.1 7.4-6 10.1-6.9 3-1.1 4-.7 6.4-2 4.9-2.8 6.6-8.1 6.9-9.3.4-1.3 1.7-6.2-.6-11-1.3-2.7-2.2-2.3-4.9-6.4-2.3-3.4-2.2-4.6-4.3-8.4-1.1-1.8-2.8-4.5-5.5-7.5 1.9-5.6 3.6-8.2 4.9-9.5.3-.3 1.2-1.2 1.2-2.3 0-1-.9-1.9-2.3-2.9-3.4-2.4-5.5-3.8-8.4-3.5-3.7.5-5.9 3.4-6.4 4-1.5-2.5-3.7-6-6.9-9.5-10.1-11.1-22.2-15.3-27.5-16.8-20.1-5.6-37.3 1.8-47.7 6.4-5.7 2.4-13.4 5.8-21 13.3z" fill="#fff"/><path d="m659.8 441.5c-6-16.2-8.4-34.1-3.4-50.9 4.8-15.9 15.5-28.5 30.6-35.4 15.2-7 33.6-12.1 50.1-7.9 14.4 3.7 26.8 13.1 34.1 26.1.9 1.7 3.5.2 2.6-1.5-12.3-22-37.6-32.8-62-27.8-13.8 2.8-28.8 7.7-39.7 16.8-9.9 8.3-16.6 20.2-19.6 32.7-3.8 16.3-1.4 33.2 4.4 48.7.7 1.7 3.6 1 2.9-.8z"/><path d="m745.8 402.9c-.4-4.1-.2-14.4 5.3-15.2 3.4-.5 5.6 3.9 9.4 3.6 1.9-.2 1.9-3.2 0-3-2.6.3-4.4-2.4-6.7-3.4-2.2-.9-4.3-.5-6.1 1-4.6 3.8-5.3 11.5-4.8 17 .1 1.9 3.1 1.9 2.9 0z"/><path d="m758.3 388.8c5.7-2.4 9.4 3.8 4 6.8-1.8 1-4 1.6-6 2.3-4 1.4-8.1 2.8-12.1 4.2-1.8.6-1 3.5.8 2.9 5.2-1.8 10.5-3.5 15.7-5.5 2.7-1 5.9-2.4 7.1-5.3 2.9-7.1-5.6-10.3-10.9-8-1.8.7-.3 3.3 1.4 2.6z"/><path d="m775.3 368.4c-2.7 1.6-5.8 4.1-5 7.7.3 1.5 1.3 2.6 2.7 3.3 2.1 1.1 4.2 1.7 6.2 3.2 1.5 1.2 3.6-.9 2.1-2.1-1.8-1.4-3.7-2.4-5.7-3.3-1.5-.7-2.8-1.4-2-3.3.6-1.4 2.1-2.2 3.3-2.9 1.6-1 .1-3.6-1.6-2.6z"/><path d="m773.2 378.5c-.8 5.1 2.6 11 8.5 9.8 2.4-.5 3.9-2.3 4.9-4.4 1.1-2.5 1.3-6 3.8-7.5 1.6-1 .1-3.6-1.5-2.6-2.6 1.6-3.4 4.2-4.3 6.9-.6 1.8-1.3 4-3.3 4.6-3.6 1.1-5.7-3-5.2-6 .2-1.9-2.7-2.8-2.9-.8z"/><path d="m775.4 372c4.3-4.7 10.1.1 13.2 3.5 1.3 1.4 3.4-.7 2.1-2.1-4.3-4.7-12-9.5-17.4-3.5-1.3 1.4.8 3.5 2.1 2.1z"/><path d="m770.6 404.4c-.2 0-.2 0 0 0-.2-.1-.2-.1 0 0-.1 0-.2-.1-.2-.2.1.1.1.1 0 0s-.1-.2 0-.1c0 .1 0 .1 0-.1s0-.2 0 0c0-.1 0-.2 0-.3 0 .2 0 .2 0 0-.1.2-.1.2 0 0-.2.1.2 0-.1.1.2-.1.2-.1 0 0 .2 0 .2 0 0 0h.3c-.1 0-.2 0-.1 0s.1 0 .2.1c-.1-.1-.1 0 0 0 .1.1.2.1 0 0 .1.1.1.2 0 .1 0-.1 0-.1 0 .1 0-.1 0-.2 0-.2-.1.2 0 .2 0 0-.1.1-.1.2 0 0-.1.1-.1.1-.2.2.2-.2-.2.1 0 0-.1 0-.2.1-.3.1.2 0 .2 0 0 0 .1.1.1 0 0 0-1.6-1-3.2 1.6-1.5 2.6 1.6 1 3.7.3 4.6-1.3 1-1.8-.1-3.9-2-4.4-1.7-.5-3.6.4-4.1 2.2-.4 1.7.6 3.6 2.4 4.1 2.1.4 2.9-2.5 1-3z"/><path d="m784.5 395.8c.2.1.4.2.5.4-.1-.2.1.3 0 .1 0-.2 0 .4 0 .1s-.1.4 0 0c.1-.3-.2.3 0 0 .1-.2-.2.2-.1.1-.2.2-.4.3-.7.2-.2-.1-.3-.2-.4-.3s-.1-.1 0 0c0-.1-.1-.1-.1-.2.1.3 0-.4 0-.1s.1-.3 0 0 .1-.2 0-.1c-.1.2 0 0 .1-.1-.1.1-.1.1 0 0s.2-.1.3-.1c-.2.1.3 0 .4 0-.8-.2-1.7.2-1.8 1-.2.8.2 1.7 1 1.8 1.3.3 2.5-.5 2.9-1.8.3-1.3-.2-2.7-1.6-3.1-1.3-.4-2.6.6-2.9 1.8-.4 1.3.3 2.6 1.6 3.1.7.2 1.7-.3 1.8-1 .2-.8-.2-1.5-1-1.8z"/><path d="m782.9 386.7c3.3 3.8 5.4 8.3 6.3 13.3.4 1.9 3.3 1.1 2.9-.8-1-5.5-3.5-10.4-7.1-14.6-1.3-1.5-3.4.7-2.1 2.1z"/><path d="m790.2 401.9c1.3 1.2 2.9 2.1 4.7 2.5 1.9.4 2.7-2.5.8-2.9-1.3-.3-2.4-.8-3.4-1.7-1.4-1.4-3.5.7-2.1 2.1z"/><path d="m795.2 402.4c-7.1.7-13.2 4.8-15.7 11.7-2.1 5.9-1.3 14.6 5.7 16.7 6.1 1.8 11.7-2.6 13.9-8.1s2.9-16.4-3.1-19.9c-1.7-1-3.2 1.6-1.5 2.6 4.1 2.4 3.3 11.5 2.1 15.3-1.4 4.5-5.5 8.8-10.6 7.1-5.9-2-5.2-10-2.9-14.5 2.4-4.6 7-7.2 12-7.8 2-.3 2.1-3.3.1-3.1z"/><path d="m787.8 418.6c0-.2 0-.4 0-.6 0-.8-.7-1.5-1.5-1.5s-1.5.7-1.5 1.5v.6c0 .8.7 1.5 1.5 1.5s1.5-.6 1.5-1.5z"/><path d="m795.8 413.1c-.2-.2-.4-.4-.5-.6-.5-.6-1.6-.6-2.1 0-.6.6-.6 1.5 0 2.1.2.2.4.4.5.6.5.6 1.6.6 2.1 0 .6-.6.5-1.5 0-2.1z"/><path d="m762 416.5c1.9 2.1 5.3 1.6 6.9-.6.5-.7.1-1.7-.5-2.1-.8-.4-1.6-.1-2.1.5-.5.7-1.7.5-2.2-.1-1.2-1.3-3.4.9-2.1 2.3z"/><path d="m765.3 416.8c2.2 6.4 9.6 9.5 15.7 6.6 1.7-.8.2-3.4-1.5-2.6-4.3 2-9.7-.4-11.3-4.8-.7-1.8-3.6-1.1-2.9.8z"/><path d="m784.8 428.4c-3.4 2.7-6.9 5.4-10.3 8.1-1.5 1.2.6 3.3 2.1 2.1 3.4-2.7 6.9-5.4 10.3-8.1 1.6-1.1-.6-3.2-2.1-2.1z"/><path d="m774 437.8c-1.8 4.6-3.2 9.3-4.2 14.1-.4 1.9 2.5 2.7 2.9.8 1-4.8 2.4-9.5 4.2-14.1.7-1.8-2.2-2.6-2.9-.8z"/><path d="m656.1 438.8c2.4 10 6.4 19.6 12.3 28.1 1.7 2.5 3.7 6 6.6 7.2 3.7 1.6 8.8.3 12.6-.3.6-.1 1.2-.9 1.1-1.4-.6-6.3-1.6-12.5-2.9-18.7-.4-1.9-3.3-1.1-2.9.8 1.3 5.9 2.2 11.9 2.8 17.9.4-.5.7-1 1.1-1.4-4.3.7-9.2 1.8-12.7-1.4-2.7-2.5-5-6.8-6.8-10-3.9-6.8-6.6-14-8.4-21.6-.4-1.9-3.3-1.1-2.8.8z"/><path d="m685.5 454.9c9.5 2.1 19.2 3.1 28.9 2.9 8.2-.2 19-.4 26.2-4.6 1.7-1 .2-3.6-1.5-2.6-7.3 4.2-18.4 4.1-26.6 4.2-8.8.1-17.6-.9-26.3-2.8-1.8-.4-2.6 2.5-.7 2.9z"/><path d="m739.6 447.3c-.8 4.6-1.8 9.4-1.9 14.1-.1 3 1.5 4.6 4.5 4.7 2.5.1 7.5-.1 9-2.3 1.2-1.9 1.5-5.2 2.1-7.3.7-2.4 1.5-4.9 2.2-7.3.6-1.9-2.3-2.6-2.9-.8-1.5 4.9-2.9 9.7-4.3 14.6.3-.3.7-.7 1-1-1.7.5-3.7 1.2-5.5 1.1-3-.1-3.2-1.7-2.9-4.2.4-3.6.9-7.2 1.6-10.8.3-1.9-2.6-2.7-2.9-.8z"/><path d="m753.6 450.4c5-1.3 9.4-3.9 13-7.7 1.3-1.4-.8-3.5-2.1-2.1-3.2 3.4-7.1 5.7-11.7 6.9-1.8.5-1.1 3.4.8 2.9z"/><path d="m758.5 446.3c-.9 2.5-1.3 5-1.2 7.6 0 .8.7 1.5 1.5 1.5 3.3 0 6.6-.4 9.9-1 1.9-.4 1.1-3.2-.8-2.9-3 .6-6 .8-9.1.9l1.5 1.5c-.1-2.4.2-4.6 1-6.8.8-1.8-2.1-2.6-2.8-.8z"/><path d="m684.1 366.9c13-5.1 26.6-7.9 40.5-8.5 1.9-.1 1.9-3.1 0-3-14.2.5-28.1 3.4-41.3 8.6-1.8.7-1 3.6.8 2.9z"/><path d="m684.8 363.3c-.1-.1-.1-.1-.2-.2.1.6.2 1.2.2 1.8 1.2-2.8 7.4-3.4 10-3.9 3.4-.7 6.8-1.3 10.2-1.8 7.6-1.2 15.3-2 22.9-2.5 1.9-.1 1.9-3.1 0-3-8.9.6-17.7 1.6-26.5 3.1-4.6.8-17 1.5-19.2 6.6-.3.6-.3 1.3.2 1.8l.2.2c1.4 1.3 3.6-.8 2.2-2.1z"/><path d="m770.4 368.8c-.4 10.9-3.8 16.6-7 19.7-1.7 1.7-2.4 1.7-8.9 7-9.2 7.4-9.8 9-10.1 10.1-1.1 5.3 4.6 7.7 5 13.9.5 7.1-6.4 13.1-10.1 16.2-18.5 15.9-56.1 12.6-62.3 12 1.4 8.4 2.8 16.8 4.3 25.1 1.8.5 4.3.9 5.4-.4 1.1-1.2.4-3.2-.4-7.3-1.1-5.8-1.6-8.8-.8-10.1 2.2-3.4 11.6-.2 19.7 1.2 7.7 1.3 19 1.6 33.7-3.1.3 3.4.5 6.7.8 10.1h10.1c1.2-4.4 2.3-8.8 3.5-13.2 2.3-1.3 4.6-2.6 7-3.9-.5 2.6-1 5.2-1.5 7.7 3.6-.1 7.2-.3 10.8-.4.1-2.9.9-8.9 5-14.7 1.5-2.1 4.2-5.8 8.9-7.7 3-1.2 3.9-.5 7-1.9 1.4-.6 5.2-2.7 7.7-7 2.4-4.1 3.8-10.7.8-15.1-1.6-2.3-2.6-1.4-5.4-4.3-3.1-3.2-2.4-4.9-6.2-12-2.6-4.9-3.5-5.1-3.5-7 .2-4.8 6.3-6.3 5.8-9.7-.5-4.1-9.9-5.7-10.4-5.8-3.7-.4-6.8.1-8.9.6z" fill="#3f3f3f" opacity=".12"/><path d="m767.7 392c-.4 2.2-1.4 5.9-4.3 9.3-1.6 1.9-3.6 4.2-7 4.6-3.7.5-6.6-1.7-7.3-2.3 6.3-3.9 12.4-7.7 18.6-11.6z" fill="#3f3f3f" opacity=".14"/><path d="m750.7 445.9c-2.1 1.2-3.7 3.8-3.5 6 .5 4.7 9.6 6.9 9.3 7.9-.3.9-6.8-1.9-13.7.6-1.1.4-4.7 1.7-5 4-.2 1.8 1.8 2.3 2.3 5.2.4 2-.5 2.2-.6 5.8-.1 2.4-.1 3.9.8 5.4 1.2 1.9 2.6 1.5 3.7 3.3 1.3 2.1-.4 3.4.6 6 1 2.7 3.9 4.4 6.2 5 2.6.7 4-.2 4.8.8 1.2 1.5-1.6 4.1-.6 6.6.9 2.2 4.2 2.8 5.4 2.9 8.3.6 15.6-18.4 16-19.5 3.1 0 6.8-.3 10.8-1.3 9.3-2.4 15.2-7.7 22.4-14.1 3.7-3.3 8.3-7.5 13.1-14.1 6.5-9 9.4-17 12-24.1 2.2-6.2 5.4-15.6 6.4-28.2.9-13-1.1-22.7-2.9-31.2-4.5-21-12.6-35.2-14.5-38.4-.3-.5-6.3-8.3-18.3-23.9-6.1-7.9-11.6-14.8-18.1-14.5-.7 0-2 .1-3.5 1-4.7 2.7-5.1 10.5-4.8 17.7 1.1 24.8 9.8 42.8 9.8 42.8 7.1 14.6 12.8 18.4 15.4 32 1.4 7.1 1.4 13.7 1.3 15 0 5.1-.2 11.9-2.9 20.1-1.5 4.3-4.8 14-14.1 21.8-5.6 4.7-9.6 8.1-14.7 7.5-7.1-.8-13-8.8-19.9-8.9-.8 0-2 .1-3.2.8z" fill="#fff"/><path d="m783.5 296.2c25.2 15.6 44 40.7 51.7 69.4 8.6 32.1 2.8 65.3-16.4 92.4-9.5 13.4-23.4 26.4-40.9 25.7-1.9-.1-1.9 2.9 0 3 14.9.6 27.4-8.1 36.9-18.8 10.8-12.2 19.2-27.3 23.6-43 9-32.3 2-68.2-16.6-95.9-9.6-14.2-22.1-26.3-36.7-35.3-1.8-1.1-3.3 1.5-1.6 2.5z"/><path d="m801.7 423.4c-5.4 12.9-13.9 26.4-28.8 28.9-1.9.3-1.1 3.2.8 2.9 15.9-2.7 25-17.2 30.8-31 .8-1.7-2.1-2.5-2.8-.8z"/><path d="m773.5 452.1c-6.8-1.2-18.6-13.5-25.5-6.7-2.5 2.5-2.2 6.7-.7 9.6 2.2 4.3 7 5.8 11.3 6.9 1.9.5 2.7-2.4.8-2.9-3.8-.9-8.4-2.1-9.8-6.3-.8-1.5-.5-2.9.8-4 .6-2.1 2-2.8 4.2-1.9 1.6.3 3.1 1 4.5 1.7 4.6 2.3 8.4 5.6 13.6 6.5 1.9.4 2.7-2.5.8-2.9z"/><path d="m776.3 484.3c-3.3 4.8-6.5 9.7-9.8 14.5-.8 1.1-1.5 2.2-2.5 3.2-.9 1.1-2.1 1.9-3.5 2.4-1.4-2.1-2.7-4.2-4.1-6.3.6-1.8 4.8-4.2 6.2-5.5 1.5-1.3-.7-3.4-2.1-2.1-2.9 2.6-8.2 5.5-8.4 9.9-.1 3.4 2.5 6.6 5.8 7.1 4.1.6 7.4-2.2 9.7-5.2 4.1-5.2 7.5-11 11.3-16.5 1.1-1.6-1.5-3.1-2.6-1.5z"/><path d="m758.7 458.9c-5.8 1.7-11.7.3-17.5 1.3-3 .5-5.6 2.1-5.3 5.5 1 9.6 14.2 8.1 20.5 6.7 1.9-.4 1.1-3.3-.8-2.9-2.9.7-5.9 1.3-8.9 1.1-3.8-.3-12-5.1-4.1-7.6 2.7-.8 6.3-.1 9-.2 2.7 0 5.3-.3 7.9-1.1 1.9-.5 1.1-3.4-.8-2.8z"/><path d="m741 470c-4.4 3.1-4.8 10-.6 13.5 5 4.1 12.6 1.5 17.7-1 1.7-.9.2-3.5-1.5-2.6-3.3 1.7-7.7 3.4-11.5 2.5-4.3-.9-6.6-7-2.5-9.8 1.5-1.1 0-3.7-1.6-2.6z"/><path d="m742.8 484.3c-1.3 3.9.4 8.5 3.8 10.9 4.3 3 9.7 1.5 13.6-1.5 1.5-1.2 0-3.8-1.5-2.6-2.8 2.1-6.6 3.9-9.9 1.9-2.7-1.6-4-5-3-7.9.5-1.8-2.4-2.6-3-.8z"/><path d="m785.1 292.1c-12.8 18.2-8.4 41.5-.2 60.5 10.3 23.9 27.7 47.9 22.4 75.3-.4 1.9 2.5 2.7 2.9.8 4.6-23.9-7.3-45.7-17.5-66.4-10.3-20.9-20-47.4-5-68.7 1.1-1.6-1.5-3.1-2.6-1.5z"/><path d="m804.5 395c-.5 10.7-1.8 21.3-3.9 31.8-.4 1.9 2.5 2.7 2.9.8 2.1-10.8 3.5-21.6 4-32.6.1-1.9-2.9-1.9-3 0z"/><path d="m802.6 309.1c5 9.7 11 23.8 14.8 41.6 5 23.6 3.6 42.5 2.7 51-2.1 19.6-3.9 36.5-16.6 53.2-5.3 7.1-16.1 21.3-34 26-12.2 3.1-24.5 1-26 5.8-.7 2.5 1.6 5.7 4 7.2 3.2 1.9 7.5 1.6 11.2-.9-3.6 2.5-5.3 6-4.5 8.5.7 2.2 3.2 3.4 4.9 3.6 8.2 1.1 16.4-17.8 17-19.2 3.2.1 8-.1 13.4-1.8 11.2-3.4 18-10.9 25.5-19.2 3.1-3.4 8.7-9.8 13.9-19.2 13.3-24.3 12.2-48.7 11.6-57.7-1.7-29.6-14.2-50-17.5-55-6.8-11.2-14.6-18.9-20.4-23.9z" fill="#3f3f3f" opacity=".12"/><path d="m841.1 394.5c-3.6 11.2-9.2 24.7-17.9 38.9-15.1 24.7-33.2 40.9-46.1 50.6 3.3.2 8.3.1 13.9-1.3 19-5 29.1-21.6 33.1-28.2 5.2-8.6 7.2-15.8 10.7-28.2 3.7-13 5.4-24.1 6.3-31.8z" fill="#3f3f3f" opacity=".11"/><path d="m682.6 300c-1.6-1.9-14.7 6.6-23.6 13.3-10.8 8.1-20.1 15.1-29 27.8-11.8 16.8-15.4 33.1-16.6 39.8-.9 5.2-3.7 23.4 2.5 45.6 5.2 18.7 14 30 24.9 44 7 9.1 12.4 14.1 19.9 17.4 6.9 3.1 13.2 3.7 17.4 3.7 2.2 3.2 4.7 6.8 7.5 10.8 2.4 3.4 3.8 5.3 6.2 7.5 2.3 2.1 5.9 5.2 8.7 4.1 1.5-.5 2.3-2.1 3.7-4.6 1.4-2.6 1.1-3.1 2.1-4.1 2.1-2.2 4.3-.8 7.1-2.5 2.8-1.8 1.5-4.2 5-9.1 2.7-3.8 4.2-3.5 5-6.2.8-3-1-4-.4-7.9s2.8-5.2 2.1-6.6c-.8-1.5-3.9-.9-8.3-.8-8 .1-14.9-1.9-14.9-2.9 0-1.1 7.1-.1 10.8-4.6 2.1-2.6 3-7 1.2-9.1-2.1-2.6-7.6-1.3-14.5.4-9.3 2.3-9.8 4.2-13.7 4.6-12 1.1-22.8-16.1-26.5-22-2-3.1-8.2-13.6-10.4-28.6-2.2-15.1.7-27.6 2.9-36.9.6-2.7.4-1.4 4.6-15.8 7.4-25.6 6.9-25.5 8.7-29.9 7.4-17.8 19.2-25.6 17.6-27.4z" fill="#fff"/><path d="m679.9 299c-30.2 13.3-55.1 38.6-64.9 70.5-10.7 34.5-2 70.4 20.4 98.3 10.8 13.4 25.3 24.5 43 25.5 1.9.1 1.9-2.9 0-3-15.8-.9-28.9-10.6-38.9-22.3-10.8-12.7-19.5-28.3-23.4-44.5-8-32.5 1.9-67.3 24-92.1 11.5-12.9 25.7-22.9 41.5-29.9 1.6-.7.1-3.2-1.7-2.5z"/><path d="m651.4 428c6.2 15.4 16.2 30.1 33.2 34.3 1.9.5 2.7-2.4.8-2.9-15.9-3.9-25.3-17.8-31.1-32.2-.7-1.7-3.6-1-2.9.8z"/><path d="m685.2 462.1c6-.4 10.8-3.4 16.4-5.2 3.7-1.2 10-2.5 10.7 2.6.9 6.2-7 7.5-11.5 8-1.9.2-1.9 3.2 0 3 4.5-.5 9.5-1.2 12.6-4.8 2.4-2.9 3.2-7.4.6-10.4-6.9-8-21.1 3.3-28.8 3.8-1.9.2-1.9 3.2 0 3z"/><path d="m677.3 492.5c3.9 5.8 7.5 12 11.8 17.5 2.6 3.4 6.1 6.6 10.7 6.3 3.4-.3 6.6-2.9 6.6-6.5.1-4.7-5.9-8.3-8.9-11-1.4-1.3-3.6.8-2.1 2.1 1.7 1.5 5.9 4.2 6.7 6.2.1 1.7.1 3.3.2 5-3.1 1.5-5.7 1.3-7.7-.6-1.6-1.2-2.7-2.6-3.9-4.3-3.8-5.3-7.2-10.8-10.8-16.2-1.1-1.7-3.7-.2-2.6 1.5z"/><path d="m700.3 470.3c5.7 2.1 11.7 1.8 17.6 2.8 1 .1 2 .3 3 .6.5 1.5 1 3 1.4 4.5-.4 1.8-6 2.3-7.2 2.3-3.8.1-7.5-1.1-11.1-2.1-1.9-.5-2.6 2.3-.8 2.9 5.8 1.7 22.7 5.5 23.3-5.1.2-3.7-3.4-5.1-6.4-5.7-6.3-1.3-12.9-.8-19-3-1.8-.7-2.6 2.2-.8 2.8z"/><path d="m719 483.1c2.1 1.6 2.8 4.5 1.5 6.7s-3.8 2.8-6.2 2.8c-4.1-.1-8.2-2-11.8-3.9-1.7-.9-3.2 1.7-1.5 2.6 5.5 3 14.2 6.8 20.1 2.5 4.6-3.4 3.8-10.1-.5-13.3-1.7-1.2-3.2 1.4-1.6 2.6z"/><path d="m714.8 495.4c1 3.4-1.3 6.9-4.7 7.8-3.7 1-7.4-.9-10.2-3.1-1.5-1.2-3.6.9-2.1 2.1 4 3.2 9.3 5.5 14.4 3.4 4.3-1.8 7-6.5 5.6-11-.6-1.9-3.5-1.1-3 .8z"/><path d="m663 310.4c-5.8 8.3-13.1 20.3-19.2 35.8-9.9 25.2-11.3 46.4-11.6 54.1-.9 22.1-1.4 35 6.3 48.8 9.8 17.6 27.3 26.3 49.2 37.1 11.2 5.5 20.8 9.1 27.3 11.2 0 .6 0 4.9-3.1 7.2-3.4 2.4-9.3 1.5-13-3.1 4.8 3.1 7 7.3 5.8 9.8-1 2.3-4.9 3.5-8.1 2.7-6.2-1.7-5.6-10.4-14.8-18.8-2.1-1.9-4-3.2-5.4-4-5.9-.6-16-2.6-26-9.4-1.8-1.2-8.6-6.1-17.9-20.1-5.9-8.9-13.2-20-17.5-36.7-1.4-5.4-8.2-34.2 4.9-65.3 1.3-3.2 4.7-10.6 10.7-19.2 11.2-15.8 24.1-25.1 32.4-30.1z" fill="#3f3f3f" opacity=".11"/><path d="m669.4 148.9c-11 7.8-14.5 18.9-21.3 40.8-8.6 27.6-14.8 47.5-4.2 63 10.5 15.2 33.6 20.6 57.5 16.7 1.5.6 3.6 1.7 5.1 3.7 2 2.7 1.7 5.4 2.3 9.7.8 5.7 1.4 10.5 4.2 12.5 4.6 3.4 14.3-1.3 19.9-5.6 8.7-6.6 12.4-15.4 13.9-19 15.5-38.3 23.2-57.4 19-75.5-1.2-5.1-5.1-21-19-34.3-20.3-19.2-55.8-27.3-77.4-12z" fill="#fff"/><path d="m654.2 171.8c-12.2 25.6-7.8 63.4 13.2 83.6 18 17.2 48.4 15.6 65-2.6 1.3-1.4-.8-3.6-2.1-2.1-16 17.5-45.2 18.6-61.9 1.5-19-19.4-23.1-54.8-11.7-78.8.9-1.8-1.7-3.3-2.5-1.6z" fill="#161616"/><path d="m704.9 265.7c-.1 10.4 2.1 20.4 6.4 29.9.8 1.8 3.4.2 2.6-1.5-4.1-9-6.1-18.5-6-28.4 0-1.9-3-1.9-3 0z" fill="#161616"/><path d="m711.2 296.3c10 5.8 22.7-3.1 29.9-9.8 1.4-1.3-.7-3.4-2.1-2.1-6 5.6-17.8 14.3-26.2 9.4-1.8-1-3.3 1.6-1.6 2.5z" fill="#161616"/><path d="m670.6 223.6c15.4 9.8 36.2-3.6 43.8-17.4.9-1.7-1.7-3.2-2.6-1.5-6.8 12.4-25.7 25.2-39.7 16.3-1.6-1-3.1 1.6-1.5 2.6z" fill="#161616"/><path d="m708.2 203.6c2.6 1.3 4.6 3.4 5.4 6.2.6 1.8 3.5 1.1 2.9-.8-1.1-3.5-3.5-6.4-6.8-8-1.7-.8-3.2 1.8-1.5 2.6z" fill="#161616"/><path d="m680.3 167.9c-3.7 10.4-8.2 20.5-13.6 30.1-.9 1.7 1.6 3.2 2.6 1.5 5.5-9.9 10.1-20.2 13.9-30.9.6-1.7-2.3-2.5-2.9-.7z" fill="#161616"/><path d="m667.1 200.7c3.1 4.3 8 6.8 13.3 6.4 1.9-.1 1.9-3.1 0-3-4.2.3-8.2-1.5-10.7-4.9-1.1-1.6-3.7-.1-2.6 1.5z" fill="#161616"/><path d="m666.8 185c-.3-2.3 0-4.6.9-6.7-1 0-1.9 0-2.9 0 .8 2.7.4 5.4-1.1 7.8.9.1 1.8.2 2.7.4-.4-1.9-.3-3.8.3-5.7.6-1.8-2.3-2.6-2.9-.8-.8 2.4-.9 4.8-.3 7.3.3 1.3 2.1 1.4 2.7.4 1.9-3 2.4-6.7 1.4-10.1-.4-1.5-2.4-1.3-2.9 0-1.1 2.7-1.3 5.5-.9 8.3.4 1.8 3.2 1 3-.9z" fill="#161616"/><path d="m705.1 178.7c-1-2.5-.6-5.1 1.3-6.9-.8-.2-1.7-.4-2.5-.7.7 2.9.3 5.7-1.2 8.3.9.1 1.8.2 2.7.4-.4-1.9-.2-3.6.4-5.4s-2.3-2.6-2.9-.8c-.8 2.3-.9 4.6-.4 7 .3 1.3 2.1 1.4 2.7.4 1.9-3.3 2.4-7 1.5-10.6-.3-1.1-1.7-1.4-2.5-.7-2.6 2.6-3.5 6.5-2.1 9.9.9 1.7 3.8.9 3-.9z" fill="#161616"/><path d="m661.7 169.1c1.7-3.7 6.4-5 9.6-2.6 1.6 1.1 3.1-1.5 1.5-2.6-4.5-3.3-11.5-1.4-13.7 3.7-.8 1.8 1.8 3.3 2.6 1.5z" fill="#161616"/><path d="m654.7 193.2c-.2.2-.4.4-.6.6-.6.6-.6 1.5 0 2.1s1.5.6 2.1 0c.2-.2.4-.4.6-.6.6-.6.6-1.5 0-2.1s-1.5-.6-2.1 0z" fill="#161616"/><path d="m663.5 192.8c0 .2.1.4.2.7 0 0 0 0 0-.1-.1.3-.1.5-.2.8-.7.8-1.4.8-2.1 0-.1-.3-.1-.5-.2-.8v.1c.1-.3.1-.5.2-.8v.1c-.3.7-.2 1.6.5 2.1.6.4 1.7.2 2.1-.5.3-.7.3-1.4-.2-2-.3-.3-.8-.5-1.3-.5s-1 .2-1.3.5c-.6.6-.5 1.3-.2 2s1.4.9 2.1.5c.6-.5.7-1.4.4-2.1z" fill="#161616"/><path d="m658.3 203.3h.4c1.9 0 1.9-3 0-3-.1 0-.3 0-.4 0-1.9 0-1.9 3 0 3h.4c1.9 0 1.9-3 0-3-.1 0-.3 0-.4 0-1.9 0-1.9 3 0 3z" fill="#161616"/><path d="m701.5 188.5c0-.2 0-.4-.1-.6-.1-.8-.6-1.5-1.5-1.5-.7 0-1.6.7-1.5 1.5 0 .2 0 .4.1.6.1.8.6 1.5 1.5 1.5.7 0 1.6-.6 1.5-1.5z" fill="#161616"/><path d="m708.3 186.9h.6c.8 0 1.5-.7 1.5-1.5s-.7-1.5-1.5-1.5c-.2 0-.4 0-.6 0-.8 0-1.5.7-1.5 1.5s.6 1.5 1.5 1.5z" fill="#161616"/><path d="m704.9 192.3v.6c0 .8.7 1.5 1.5 1.5s1.5-.7 1.5-1.5c0-.2 0-.4 0-.6 0-.8-.7-1.5-1.5-1.5-.8.1-1.5.7-1.5 1.5z" fill="#161616"/><path d="m698.7 162.8c4.6-2.2 10.1-1.6 14.1 1.7 1.5 1.2 3.6-.9 2.1-2.1-5.1-4.2-11.8-5-17.7-2.1-1.8.8-.2 3.4 1.5 2.5z" fill="#161616"/><path d="m743.1 178.5c1.2-1.2 2.4-2.3 3.7-3.5l2.4.3c1.8.4 3.2 1.3 4.5 2.4 2.9 2.5 4.4 6.1 4.7 9.9.6 6.3-1.9 14.7-9.5 14.5-1.9 0-1.9 3 0 3 12.6.3 15.1-16.4 10.3-25.2-2.4-4.5-7.2-8-12.5-7.9-4.1.1-8.3 2.8-6.6 7.3.8 1.7 3.7 1 3-.8z" fill="#161616"/><path d="m673.4 133.7c-2 .5-9.1 2.3-17.5 9-18.1 14.6-23.4 37.6-25.1 45.2-3.3 15 .2 15.5-3.6 27.7-5.2 16.8-12.6 18.4-18.3 33.1-1.9 4.8-10.2 26.2-.4 43.9 10 18 33.7 23.2 50.1 21.5 18.9-1.9 40.5-14.3 45.6-33.6 1.4-5.2 1.3-10 .9-13.5-4.7.3-13.2.3-22.8-3.5-2.5-1-11.9-5-20.1-14.8-7-8.3-9.5-16.4-11.3-22.3-1.7-5.8-5.5-19-1.7-35.5 3.5-15 11.3-24.5 12.9-26.4 9.7-11.4 21.1-16.1 26.5-17.9 4.8 6.2 9.5 10.8 13 13.9 7.6 6.7 15.7 13.8 27.7 16.1 4.5.9 8.2.9 10.6.7.6-.9 2.4-3.2 5.6-4.1 5.3-1.5 9.8 2.5 10.6 3.2 3.1 2.7 3.9 6.1 4.5 8.2.4 1.5 1.6 6.6-.8 12-.6 1.3-1.5 3.2-3.4 4.8-3.6 3.1-8.1 2.9-9.4 2.8-3.7 4-8.8 10.6-12.7 19.7-6.4 15-5.6 28.2-5.4 31.8.7 9 1.9 25.6 15.2 36.7 16.7 14 39 7.9 41.6 7.2 25.8-7.4 34.2-33.7 34.9-36.2 7.1-23.7-5.2-44.5-11.2-54.6-8.3-14.1-12.4-12.5-30.9-33.1-27.1-30.2-27.3-43.6-43.4-49.7-8.6-3.2-23-4.9-46.1 7.2-3.4-.5-9.1-1-15.6.5z" fill="#5222d0"/><path d="m706.9 268.8c5.9-.7 12.1-4.8 16.8-8.3 1.5-1.1 0-3.7-1.5-2.6-2.2 1.7-4.6 3.1-7.1 4.4-2.6 1.4-5.3 3.1-8.3 3.5-1.8.2-1.8 3.2.1 3z" fill="#161616"/><path d="m707.8 270.1c3.8-.6 7.2-2.8 10.5-4.7 3.2-1.9 6.1-4 8.7-6.7 1.3-1.4-.8-3.5-2.1-2.1-4.3 4.6-11.6 9.6-17.9 10.7-1.9.3-1.1 3.2.8 2.8z" fill="#161616"/><path d="m769.8 167.6c5.9 9.9 13.8 24.9 20.1 44.5 7.7 23.9 12.3 37.8 4.7 48.7-7.5 10.8-24.6 15.1-38.9 10.3s-24.4-18.1-25.3-33.7c-1.3 5.7-2.7 15.4-.5 27.1 1.5 7.7 3.4 17.5 11.7 25.7 9.9 9.8 22.5 10.8 27.1 11.2 4.7.4 17.1.7 29.5-7 12.3-7.6 17.2-18.5 19.2-22.9 5.5-12.4 4.7-23.4 4.2-29-1.3-15.8-8.1-26.8-11.2-31.8-1.3-2.1-4.3-6.7-18.7-21.5-8.9-9.3-16.5-16.7-21.9-21.6z" fill="#3f3f3f" opacity=".25"/><path d="m610.7 245.7c-1.2 4.1-3 12.9.5 22.5 5.7 15.7 23.5 27 41.7 24.3 14.9-2.2 27.4-13.4 31.8-28.6 7 .9 14 1.9 21.1 2.8.2 3.4 0 8.6-1.9 14.5-3.4 10.8-10.2 17.1-13.1 19.7-13.3 11.9-29.3 12.8-35.6 13.1-8.3.4-21.8 1.2-34.2-8-10.4-7.6-14.3-17.9-15.4-21.5-6.4-19.4 3.5-36.1 5.1-38.8z" fill="#3f3f3f" opacity=".15"/><path d="m735.2 204.1c-3.8 13.6-8.9 31.9-20.6 42.6-5 4.6-16.9 12.9-41.7 11.2 3 2.1 9.7 6.1 19.2 7s16.8-1.8 20.1-3.3c3.7 11.1 7.5 22.2 11.2 33.2 5.3-3 10.6-5.9 15.9-8.9-3.6-5.6-10.4-17.9-10.8-34.6-.6-27.4 16.5-45.5 20.1-49.1 1.4-.2 6.3-1.3 9.4-5.6 4.1-5.8 2.4-14.2-2.3-18.7-.9-.9-4.9-4.7-8.9-3.7-6.4 1.4-7.2 13.9-11.6 29.9z" fill="#3f3f3f" opacity=".15"/></svg>